<svg xmlns="http://www.w3.org/2000/svg" xmlns:xlink="http://www.w3.org/1999/xlink" xmlns:inkscape="http://www.inkscape.org/namespaces/inkscape" version="1.1" width="75.769" height="90.986" viewBox="0 0 75.769 90.986">
<defs>
<path id="font_0_2" d="M.4850006 .41075135 .40098573 .6096344C.397995 .61763 .3959961 .6216278 .3959961 .6226196 .3959961 .62861636 .41299439 .6476135 .45498658 .6516113 .46499635 .65260317 .47499085 .6536102 .47499085 .6706085 .47499085 .6826172 .46299745 .6826172 .45999146 .6826172 .4189911 .6826172 .37599183 .6796112 .33399964 .6796112 .30899049 .6796112 .24699402 .6826172 .22200012 .6826172 .21598816 .6826172 .20399475 .6826172 .20399475 .6626129 .20399475 .6516113 .21398926 .6516113 .22698975 .6516113 .2869873 .6516113 .29299928 .6416168 .3019867 .6196289L.41999818 .34080506 .20899964 .11393738 .19599915 .10295105C.14698792 .049987794 .099990848 .033996583 .04899597 .0309906 .035995485 .02999878 .026992798 .02999878 .026992798 .010986328 .026992798 .009994507 .026992798 0 .039993287 0 .069992069 0 .102996829 .0029907227 .13398743 .0029907227 .17098999 .0029907227 .20999146 0 .24598694 0 .2519989 0 .2639923 0 .2639923 .019989014 .2639923 .02999878 .2539978 .0309906 .2519989 .0309906 .24299622 .03199768 .21199036 .033996583 .21199036 .061965944 .21199036 .07795715 .22698975 .093948367 .23899842 .10694885L.34098817 .21487427 .43099977 .31282044 .5319977 .07395935C.5359955 .06297302 .5369873 .061965944 .5369873 .05996704 .5369873 .051986696 .5179901 .034988405 .47898866 .0309906 .46798707 .02999878 .45899964 .0289917 .45899964 .011993408 .45899964 0 .46998597 0 .47399903 0 .5019989 0 .57199099 .0029907227 .59999087 .0029907227 .625 .0029907227 .6859894 0 .71099856 0 .71798709 0 .7299957 0 .7299957 .018997193 .7299957 .0309906 .7200012 .0309906 .71199038 .0309906 .644989 .03199768 .6429901 .034988405 .6259918 .07496643 .58699038 .16790772 .519989 .32380677 .49699403 .3837738 .5649872 .45373536 .66999819 .5726471 .70199587 .6006317 .73098757 .62461856 .7689972 .64860537 .82899478 .6516113 .84199526 .65260317 .8509979 .65260317 .8509979 .6716156 .8509979 .6726074 .8509979 .6826172 .83799746 .6826172 .80799868 .6826172 .7749939 .6796112 .74398806 .6796112 .70700076 .6796112 .6689911 .6826172 .6329956 .6826172 .6269989 .6826172 .6139984 .6826172 .6139984 .6626129 .6139984 .65560916 .61898806 .65260317 .6259918 .6516113 .6349945 .65060427 .66600039 .64860537 .66600039 .6206207 .66600039 .6066284 .6549988 .5936432 .6469879 .5846405L.4850006 .41075135Z"/>
<path id="font_0_1" d="M.1539917 .3060608C.04499817 .2340393 .022994996 .14001465 .022994996 .104003909 .022994996 .055984498 .049987794 .02798462 .051986696 .024978638 .083999637-.008026123 .09298706-.012039185 .16799927-.040039064L.2889862-.08705139C.3039856-.094055179 .32398988-.10105896 .32398988-.13006592 .32398988-.15307617 .30599977-.18309021 .2749939-.18309021 .23098755-.18309021 .19799805-.15907288 .18699646-.15107727 .18099976-.14707947 .17999268-.14607239 .17599488-.14607239 .16799927-.14607239 .1659851-.15307617 .1659851-.15707398 .1659851-.16908264 .21899414-.20507813 .2749939-.20507813 .33699037-.20507813 .3789978-.14707947 .3789978-.09805298 .3789978-.050048829 .34199525-.032043458 .33099366-.027038575 .31698609-.022033692 .2829895-.009033203 .269989-.0040283205 .25 .003967285 .22999573 .011978149 .20899964 .018981934L.14898682 .04298401C.10398865 .06098938 .07398987 .08999634 .07398987 .13200379 .07398987 .17301941 .11299133 .26004029 .19699097 .30204774 .23399353 .2890625 .2639923 .2890625 .2849884 .2890625 .31498719 .2890625 .37799073 .2890625 .37799073 .32014466 .37799073 .34518434 .33499146 .34718324 .29599 .34718324 .27799989 .34718324 .24899292 .34718324 .21199036 .33518983 .18598938 .36117555 .18199158 .39414979 .18199158 .4131317 .18199158 .4690857 .21798706 .5460205 .29299928 .5830078 .31098939 .56100466 .33399964 .56100466 .35699464 .56100466 .38198854 .56100466 .44599916 .56100466 .44599916 .5920868 .44599916 .61813357 .4019928 .6191406 .36299134 .6191406 .34999085 .6191406 .32598878 .6191406 .2999878 .61413577 .29699708 .6231384 .29499818 .6301575 .29499818 .6471863 .29499818 .66122439 .2999878 .682251 .2999878 .68426516 .2999878 .69226077 .29499818 .6972656 .28799439 .6972656 .269989 .6972656 .269989 .65119937 .269989 .64819338 .269989 .62815859 .27598573 .61312869 .2769928 .60913088 .16999817 .57899478 .101989749 .49905396 .101989749 .42211915 .101989749 .3851471 .11999512 .34318543 .16699219 .31610108L.1539917 .3060608M.31599427 .5920868C.33198548 .59713748 .35299684 .59713748 .3639984 .59713748 .397995 .59713748 .4019928 .5961304 .41999818 .5910797 .4119873 .5880432 .4019928 .5830078 .35798646 .5830078 .33898927 .5830078 .32699586 .5830078 .31599427 .5920868M.23799134 .31913758C.26098634 .3251953 .2829895 .3251953 .29499818 .3251953 .32998658 .3251953 .33399964 .32417298 .35198976 .31913758 .34399415 .315094 .33399964 .31105042 .28799439 .31105042 .2649994 .31105042 .2559967 .31105042 .23799134 .31913758Z"/>
<path id="font_0_4" d="M.7200012 .6586151C.72099307 .6626129 .72299197 .66760256 .72299197 .6736145 .72299197 .6826172 .71798709 .6826172 .69799807 .6826172H.27598573C.2519989 .6826172 .25099183 .6816101 .24499512 .6626129L.18998719 .4827118C.18798828 .47772218 .18699646 .47071839 .18699646 .46871949 .18699646 .46772767 .18699646 .45773316 .19898987 .45773316 .20799256 .45773316 .20999146 .46472169 .21199036 .46772767 .25 .5856476 .3019867 .6516113 .45799256 .6516113H.62098696L.06199646 .026992798C.06199646 .025985718 .057998659 .011993408 .057998659 .008987427 .057998659 0 .06498718 0 .08299255 0H.5179901C.5419922 0 .54299929 .0009918213 .548996 .019989014L.6199951 .24085999C.62098696 .24485779 .6239929 .25186158 .6239929 .25585938 .6239929 .260849 .6199951 .2668457 .61099246 .2668457 .60198977 .2668457 .6009979 .2628479 .59399417 .24186707 .5499878 .10594177 .5019989 .033996583 .33198548 .033996583H.16099549L.7200012 .6586151Z"/>
<path id="font_0_3" d="M.5970001 .5686493 .61099246 .5826416C.6409912 .6126251 .673996 .64660647 .74198916 .6516113 .7529907 .65260317 .7619934 .65260317 .7619934 .6706085 .7619934 .6786041 .7569885 .6826172 .7489929 .6826172 .72299197 .6826172 .69400027 .6796112 .6669922 .6796112 .6339874 .6796112 .598999 .6826172 .5669861 .6826172 .5609894 .6826172 .5479889 .6826172 .5479889 .66360476 .5479889 .65260317 .55799868 .6516113 .5629883 .6516113 .56999209 .6516113 .598999 .6496124 .598999 .62861636 .598999 .6116333 .57598879 .5856476 .57199099 .5806427L.33999635 .31381227 .22999573 .6106262C.22399903 .62461856 .22399903 .62661746 .22399903 .6276245 .22399903 .6516113 .272995 .6516113 .2829895 .6516113 .29699708 .6516113 .30699159 .6516113 .30699159 .6716156 .30699159 .6826172 .29499818 .6826172 .2919922 .6826172 .2639923 .6826172 .19400025 .6796112 .1659851 .6796112 .14099121 .6796112 .07899475 .6826172 .053985597 .6826172 .04798889 .6826172 .034988405 .6826172 .034988405 .6626129 .034988405 .6516113 .04499817 .6516113 .057998659 .6516113 .117996219 .6516113 .12199402 .64260867 .1309967 .61763L.2539978 .28883363C.25498963 .28582765 .2579956 .2748413 .2579956 .27183534 .2579956 .2688446 .21798706 .107940677 .21299744 .08995056 .19999695 .034988405 .19898987 .03199768 .11898804 .0309906 .099990848 .0309906 .09199524 .0309906 .09199524 .010986328 .09199524 0 .10398865 0 .10598755 0 .13398743 0 .20399475 .0029907227 .23199463 .0029907227 .2599945 .0029907227 .33198548 0 .3600006 0 .36698915 0 .3789978 0 .3789978 .019989014 .3789978 .0309906 .36999513 .0309906 .35099793 .0309906 .34899903 .0309906 .32998658 .0309906 .31298829 .032989503 .2919922 .034988405 .28599549 .036987306 .28599549 .048980714 .28599549 .05596924 .29499818 .09095764 .2999878 .11193848L.33499146 .2528534C.33999635 .27183534 .34098817 .2748413 .34899903 .28382875L.5970001 .5686493Z"/>
<path id="font_1_2" d="M.04499817 .4295807V.39660646H.06098938C.09298706 .39660646 .116989139 .390625 .116989139 .34765626V.0758667C.116989139 .03489685 .09098816 .03390503 .040985109 .03390503V.0009765625L.101989749 .00390625H.20298767L.25898744 .0009765625V.03390503H.24499512C.21598816 .03390503 .19099427 .03590393 .19099427 .069869998V.44058229L.1539917 .43759156 .04499817 .4295807M.1309967 .67089846C.100997928 .6668854 .08299255 .6408081 .08299255 .6157379 .08299255 .5886688 .10499573 .56059268 .13699341 .56059268 .17098999 .56059268 .19400025 .58766177 .19400025 .616745 .19400025 .6437988 .17199707 .671875 .13999939 .671875 .13699341 .67189028 .13398743 .67089846 .1309967 .67089846Z"/>
<path id="font_1_4" d="M.039993287 .43040467V.39736939H.05899048C.08799744 .39736939 .115997318 .39337159 .115997318 .3473053V.07595825C.115997318 .03489685 .08999634 .03390503 .039993287 .03390503V.0009765625L.100997928 .00390625H.20599365L.2689972 .0009765625V.03390503H.24798584C.21699524 .03390503 .19299317 .036895753 .19299317 .07495117V.25920106C.19299317 .33329774 .24198914 .4133911 .33799745 .4133911 .394989 .4133911 .4099884 .36332704 .4099884 .30325318V.07194519C.4099884 .036895753 .3829956 .03390503 .35398866 .03390503H.33399964V.0009765625L.39698792 .00390625H.5019989L.5629883 .0009765625V.03390503H.54299929C.5139923 .03390503 .4869995 .036895753 .4869995 .07295227V.28622438C.4869995 .3192749 .48599244 .35331727 .46998597 .38435365 .44499208 .42840577 .3929901 .44140626 .34599305 .44140626 .2849884 .44140626 .20899964 .40838624 .18699646 .3453064L.18598938 .44140626 .14898682 .43840028 .039993287 .43040467Z"/>
<path id="font_1_6" d="M.09399414 .034210206C.12599182 .005203247 .16499329-.0087890629 .20799256-.0087890629 .2869873-.0087890629 .3829956 .020202637 .3829956 .13223267V.13922119C.37799073 .20024109 .32899476 .24324036 .2749939 .26124574 .21699524 .2792511 .08898926 .2732544 .08898926 .3502655 .08898926 .40827943 .16499329 .4212799 .20698548 .4212799 .2679901 .4212799 .31799317 .39128114 .32499696 .32026673 .32499696 .31225587 .32598878 .30125428 .33999635 .30125428 .35299684 .30125428 .35699464 .31225587 .35699464 .32325746 .35699464 .3292694 .35598756 .3352661 .35598756 .34126283V.4312744C.35598756 .43928529 .35099793 .44628907 .34199525 .44628907 .32398988 .44628907 .31498719 .422287 .3039856 .422287H.3019867C.2869873 .4272766 .272995 .43728639 .25498963 .44128419 .23999024 .4442749 .22499085 .44628907 .20899964 .44628907 .13798523 .44628907 .034988405 .4252777 .034988405 .31925965V.31225587C.037994386 .27626039 .06098938 .25125123 .08898926 .23023987 .16699219 .17823792 .31698609 .21124268 .32899476 .11021423 .32899476 .04020691 .2669983 .019210816 .21099854 .019210816 .13598633 .019210816 .08299255 .07321167 .069992069 .14222718 .066986087 .15223694 .066986087 .16723633 .050994874 .16723633 .035995485 .16723633 .034988405 .15722656 .034988405 .14822388V.02520752C.034988405 .021209717 .033996583 .016204834 .033996583 .011199951 .033996583 .0012054443 .036987306-.0087890629 .04798889-.0087890629 .056991579-.0087890629 .06599426 .0021972657 .070999149 .0082092289L.07699585 .014205933C.08299255 .021209717 .08898926 .02720642 .09399414 .034210206Z"/>
<path id="font_1_7" d="M.15499878 .6152344C.15499878 .5443878 .12098694 .42565919 .019989014 .42565919V.3976593H.10899353V.1400299C.10899353 .108078 .11099243 .0761261 .12799073 .048171998 .1519928 .0072021486 .20199585-.0087890629 .24798584-.0087890629 .33198548-.0087890629 .35299684 .0801239 .35299684 .14602661V.18197632H.32199098C.32199098 .16798401 .32299806 .15400696 .32299806 .1400299 .32299806 .09609985 .31199647 .022201539 .25299073 .022201539 .19898987 .022201539 .18598938 .0801239 .18598938 .13005066V.3976593H.33499146V.43066407H.18598938V.6152344H.15499878Z"/>
<path id="font_1_5" d="M.033996583 .43040467V.39736939H.049987794C.07998657 .39736939 .10998535 .39437867 .10998535 .3473053V.07595825C.10998535 .03489685 .083999637 .03390503 .033996583 .03390503V.0009765625L.09399414 .00390625H.20799256L.2789917 .0009765625V.03390503C.2679901 .03390503 .2559967 .03289795 .24398804 .03289795 .21199036 .03289795 .18399048 .037902833 .18399048 .07394409V.24217224C.18399048 .31326295 .22299195 .4133911 .30999757 .4133911 .2999878 .40338136 .2939911 .3903656 .2939911 .37734986 .2939911 .34931947 .31698609 .33229066 .33999635 .33229066 .36499024 .33229066 .38398744 .35231019 .38398744 .37734986 .38398744 .4203949 .34199525 .44140626 .30499269 .44140626 .24798584 .44140626 .18899536 .3883667 .17799378 .33628846L.1769867 .44140626 .1269989 .4373932 .033996583 .43040467Z"/>
<path id="font_1_8" d="M.039993287 .42956544V.39656068H.052993776C.07798767 .39656068 .10899353 .39456178 .11399841 .36662293 .115997318 .3556366 .115997318 .34565736 .115997318 .33467103V.13801575C.115997318 .108078 .116989139 .07911682 .13198853 .0521698 .1599884 .0032196046 .22399903-.009765625 .272995-.009765625 .31900025-.009765625 .3619995 .006225586 .3909912 .04118347 .39898683 .0501709 .4079895 .061157228 .4119873 .072128299L.41299439-.008773804 .5629883 .0012207031V.034194948H.5439911C.5149994 .034194948 .4869995 .03819275 .4869995 .0821228V.44140626L.33399964 .4303894V.39656068H.34599305C.37998963 .39656068 .4099884 .39456178 .4099884 .34664918V.1759491C.4099884 .096084598 .36698915 .019226075 .2809906 .019226075 .24598694 .019226075 .19999695 .028213501 .19499207 .07911682 .19299317 .097091678 .19299317 .11505127 .19299317 .13302613V.44140626L.039993287 .42956544Z"/>
<path id="font_1_3" d="M.039993287 .43040467V.39736939H.05899048C.08799744 .39736939 .115997318 .39337159 .115997318 .3473053V.07595825C.115997318 .03489685 .08999634 .03390503 .039993287 .03390503V.0009765625L.100997928 .00390625H.20599365L.2689972 .0009765625V.03390503H.24798584C.21699524 .03390503 .19299317 .036895753 .19299317 .07495117V.25819398C.19299317 .33229066 .23999024 .4133911 .33799745 .4133911 .394989 .4133911 .41099549 .36532594 .41099549 .30426026V.07194519C.41099549 .036895753 .38398744 .03390503 .35499574 .03390503H.33499146V.0009765625L.397995 .00390625H.5029907L.56399539 .0009765625V.03390503H.54299929C.5119934 .03390503 .48799134 .036895753 .48799134 .07495117V.25819398C.48799134 .33229066 .5349884 .4133911 .6329956 .4133911 .6899872 .4133911 .70599368 .36532594 .70599368 .30426026V.07194519C.70599368 .036895753 .67900088 .03390503 .6499939 .03390503H.6299896V.0009765625L.69299319 .00390625H.7979889L.85899356 .0009765625V.03390503H.84199526C.81199648 .03390503 .7829895 .036895753 .7829895 .07295227V.28723146C.7829895 .3192749 .7819977 .35231019 .7669983 .38235475 .7429962 .4263916 .69099429 .44140626 .6439972 .44140626 .58299258 .44140626 .5079956 .4113922 .48399354 .34931947H.48298646C.47399903 .418396 .40299989 .44140626 .34399415 .44140626 .28199769 .44140626 .20899964 .40638734 .18699646 .3453064L.18598938 .44140626 .14898682 .43840028 .039993287 .43040467Z"/>
<path id="font_1_1" d="M.117996219 .22949219H.4229889C.43598939 .22949219 .44198609 .23648072 .44198609 .24848938 .44198609 .2984314 .4269867 .35635377 .3909912 .39331056 .35499574 .4292755 .30499269 .44628907 .2539978 .44628907 .13699341 .44628907 .0289917 .35736085 .0289917 .22148133 .0289917 .10733032 .11999512-.009765625 .2639923-.009765625 .33898927-.009765625 .4189911 .037246705 .43998719 .111343387 .44099427 .11433411 .44198609 .11734009 .44198609 .12034607 .44198609 .12835694 .43499757 .13536072 .4269867 .13536072 .4079895 .13536072 .40499879 .10333252 .3959961 .091308597 .37098695 .04925537 .32099916 .023223877 .27198792 .023223877 .21899414 .023223877 .16799927 .05126953 .14199829 .10032654 .12098694 .14038086 .117996219 .1854248 .117996219 .22949219M.11898804 .256485C.1289978 .31341554 .13899231 .3753357 .19799805 .40429688 .21499634 .4132843 .23298645 .41827394 .2519989 .41827394 .31698609 .41827394 .36099244 .36434938 .37098695 .2924347 .37199403 .28045655 .37199403 .26846314 .37399293 .256485H.11898804Z"/>
<path id="font_2_1" d="M.74198916 .64460757C.75 .65260317 .7559967 .65960696 .7559967 .6716156 .7559967 .6826172 .7480011 .6826172 .72898867 .6826172H.28399659C.2579956 .6826172 .25698854 .6816101 .25099183 .6626129L.19499207 .4847107C.19400025 .4807129 .19198609 .4747162 .19198609 .46972657 .19198609 .46772767 .19299317 .45573426 .20698548 .45573426 .21798706 .45573426 .21998596 .45973207 .22599793 .47972108 .27398683 .6156311 .35198976 .6496124 .47399903 .6496124H.6469879L.07598877 .037994386C.067993167 .0289917 .06199646 .022994996 .06199646 .010986328 .06199646 0 .070999149 0 .08898926 0H.5509949C.57699587 0 .5779877 .0009918213 .58399966 .019989014L.6539917 .23886109C.6579895 .25186158 .6579895 .25386048 .6579895 .2548523 .6579895 .25585938 .6569977 .2688446 .6429901 .2688446 .6369934 .2688446 .6339874 .26585389 .6329956 .2648468 .6309967 .2628479 .6289978 .260849 .6279907 .2588501 .6259918 .2528534 .6259918 .2508545 .6179962 .22886658 .57299807 .09396362 .5149994 .035995485 .35699464 .035995485H.17399597L.74198916 .64460757Z"/>
<path id="font_0_5" d="M.36698915 .3996582H.45298768C.47299195 .3996582 .48298646 .3996582 .48298646 .41966249 .48298646 .43066407 .47299195 .43066407 .45599366 .43066407H.37298585L.3939972 .5449524C.397995 .5660095 .4119873 .6370239 .41799928 .6490326 .4269867 .66804507 .44400025 .68307498 .46499635 .68307498 .46899415 .68307498 .49499513 .68307498 .5139923 .66503909 .46998597 .661026 .45999146 .6260376 .45999146 .6110382 .45999146 .58802798 .47799684 .57603457 .49699403 .57603457 .522995 .57603457 .5519867 .5980377 .5519867 .6360321 .5519867 .6820679 .5059967 .7050781 .46499635 .7050781 .43099977 .7050781 .36799623 .68707278 .33799745 .58802798 .33198548 .56700137 .32899476 .5569763 .30499269 .43066407H.23599243C.21699524 .43066407 .20599365 .43066407 .20599365 .4116516 .20599365 .3996582 .21499634 .3996582 .23399353 .3996582H.2999878L.22499085 .0048828127C.20698548-.09207153 .18998719-.18309021 .13798523-.18309021 .13398743-.18309021 .10899353-.18309021 .08999634-.16506958 .13598633-.1620636 .14498902-.12606812 .14498902-.111068729 .14498902-.08807373 .1269989-.07606506 .10798645-.07606506 .08198547-.07606506 .052993776-.09806824 .052993776-.13606262 .052993776-.18109131 .09700012-.20507813 .13798523-.20507813 .19299317-.20507813 .23298645-.14607239 .25099183-.108062747 .2829895-.04508972 .30599977 .07583618 .30699159 .082839969L.36698915 .3996582Z"/>
</defs>
<path transform="matrix(1,0,0,-1,62.419,13.349998)" d="M9.96277 0C9.96277 5.50235 5.50235 9.96277 0 9.96277-5.50235 9.96277-9.96277 5.50235-9.96277 0-9.96277-5.50235-5.50235-9.96277 0-9.96277 5.50235-9.96277 9.96277-5.50235 9.96277 0ZM0 0" fill="#dfdfdf"/>
<path transform="matrix(1,0,0,-1,62.419,13.349998)" stroke-width=".79701" stroke-linecap="butt" stroke-miterlimit="10" stroke-linejoin="miter" fill="none" stroke="#000000" d="M9.96277 0C9.96277 5.50235 5.50235 9.96277 0 9.96277-5.50235 9.96277-9.96277 5.50235-9.96277 0-9.96277-5.50235-5.50235-9.96277 0-9.96277 5.50235-9.96277 9.96277-5.50235 9.96277 0ZM0 0"/>
<use data-text="X" xlink:href="#font_0_2" transform="matrix(9.9626,0,0,-9.9626,57.900999,16.753998)"/>
<path transform="matrix(1,0,0,-1,62.419,13.349998)" d="M-39.10658 0C-39.10658 5.50235-43.56699 9.96277-49.06935 9.96277-54.5717 9.96277-59.03212 5.50235-59.03212 0-59.03212-5.50235-54.5717-9.96277-49.06935-9.96277-43.56699-9.96277-39.10658-5.50235-39.10658 0ZM-49.06935 0" fill="#ffffff"/>
<path transform="matrix(1,0,0,-1,62.419,13.349998)" stroke-width=".79701" stroke-linecap="butt" stroke-miterlimit="10" stroke-linejoin="miter" fill="none" stroke="#000000" d="M-39.10658 0C-39.10658 5.50235-43.56699 9.96277-49.06935 9.96277-54.5717 9.96277-59.03212 5.50235-59.03212 0-59.03212-5.50235-54.5717-9.96277-49.06935-9.96277-43.56699-9.96277-39.10658-5.50235-39.10658 0ZM-49.06935 0"/>
<use data-text="&#x03be;" xlink:href="#font_0_1" transform="matrix(9.9626,0,0,-9.9626,10.940998,15.840996)"/>
<path transform="matrix(1,0,0,-1,62.419,13.349998)" d="M9.96277-49.06935C9.96277-43.56699 5.50235-39.10658 0-39.10658-5.50235-39.10658-9.96277-43.56699-9.96277-49.06935-9.96277-54.5717-5.50235-59.03212 0-59.03212 5.50235-59.03212 9.96277-54.5717 9.96277-49.06935ZM0-49.06935" fill="#dfdfdf"/>
<path transform="matrix(1,0,0,-1,62.419,13.349998)" stroke-width=".79701" stroke-linecap="butt" stroke-miterlimit="10" stroke-linejoin="miter" fill="none" stroke="#000000" d="M9.96277-49.06935C9.96277-43.56699 5.50235-39.10658 0-39.10658-5.50235-39.10658-9.96277-43.56699-9.96277-49.06935-9.96277-54.5717-5.50235-59.03212 0-59.03212 5.50235-59.03212 9.96277-54.5717 9.96277-49.06935ZM0-49.06935"/>
<use data-text="Z" xlink:href="#font_0_4" transform="matrix(9.9626,0,0,-9.9626,58.662,65.823)" fill="#55a868"/>
<path transform="matrix(1,0,0,-1,62.419,13.349998)" d="M-39.10658-49.06935C-39.10658-43.56699-43.56699-39.10658-49.06935-39.10658-54.5717-39.10658-59.03212-43.56699-59.03212-49.06935-59.03212-54.5717-54.5717-59.03212-49.06935-59.03212-43.56699-59.03212-39.10658-54.5717-39.10658-49.06935ZM-49.06935-49.06935" fill="#dfdfdf"/>
<path transform="matrix(1,0,0,-1,62.419,13.349998)" stroke-width=".79701" stroke-linecap="butt" stroke-miterlimit="10" stroke-linejoin="miter" fill="none" stroke="#000000" d="M-39.10658-49.06935C-39.10658-43.56699-43.56699-39.10658-49.06935-39.10658-54.5717-39.10658-59.03212-43.56699-59.03212-49.06935-59.03212-54.5717-54.5717-59.03212-49.06935-59.03212-43.56699-59.03212-39.10658-54.5717-39.10658-49.06935ZM-49.06935-49.06935"/>
<use data-text="Y" xlink:href="#font_0_3" transform="matrix(9.9626,0,0,-9.9626,9.350998,65.823)"/>
<use data-text="i" xlink:href="#font_1_2" transform="matrix(7.9701,0,0,-7.9701,12.210999,84.677)"/>
<use data-text="n" xlink:href="#font_1_4" transform="matrix(7.9701,0,0,-7.9701,14.562178,84.677)"/>
<use data-text="s" xlink:href="#font_1_6" transform="matrix(7.9701,0,0,-7.9701,19.264536,84.677)"/>
<use data-text="t" xlink:href="#font_1_7" transform="matrix(7.9701,0,0,-7.9701,22.604008,84.677)"/>
<use data-text="r" xlink:href="#font_1_5" transform="matrix(7.9701,0,0,-7.9701,25.895659,84.677)"/>
<use data-text="u" xlink:href="#font_1_8" transform="matrix(7.9701,0,0,-7.9701,29.19528,84.677)"/>
<use data-text="m" xlink:href="#font_1_3" transform="matrix(7.9701,0,0,-7.9701,33.897638,84.677)"/>
<use data-text="e" xlink:href="#font_1_1" transform="matrix(7.9701,0,0,-7.9701,40.95118,84.677)"/>
<use data-text="n" xlink:href="#font_1_4" transform="matrix(7.9701,0,0,-7.9701,44.713068,84.677)"/>
<use data-text="t" xlink:href="#font_1_7" transform="matrix(7.9701,0,0,-7.9701,49.184289,84.677)"/>
<use data-text="Z" xlink:href="#font_2_1" transform="matrix(7.9701,0,0,-7.9701,55.297357,84.677)" fill="#55a868"/>
<path transform="matrix(1,0,0,-1,62.419,13.349998)" stroke-width=".3985" stroke-linecap="butt" stroke-dasharray="2.98883,2.98883" stroke-miterlimit="10" stroke-linejoin="miter" fill="none" stroke="#000000" d="M-38.2498 0H-10.81955"/>
<path transform="matrix(-1,-0,0,1,24.169198,13.349998)" stroke-width=".31879" stroke-linecap="round" stroke-linejoin="round" fill="none" stroke="#000000" d="M-1.19551 1.59401C-1.09587 .99626 0 .09961 .29886 0 0-.09961-1.09587-.99626-1.19551-1.59401"/>
<path transform="matrix(1,0,0,-1,51.59945,13.349998)" stroke-width=".31879" stroke-linecap="round" stroke-linejoin="round" fill="none" stroke="#000000" d="M-1.19551 1.59401C-1.09587 .99626 0 .09961 .29886 0 0-.09961-1.09587-.99626-1.19551-1.59401"/>
<path transform="matrix(1,0,0,-1,62.419,13.349998)" stroke-width=".79701" stroke-linecap="butt" stroke-miterlimit="10" stroke-linejoin="miter" fill="none" stroke="#000000" d="M-49.06935-10.36127V-37.3392"/>
<path transform="matrix(0,1,1,0,13.3496479,50.689199)" d="M-6.0708 2.72491 .34868 0-6.0708-2.72491Z"/>
<path transform="matrix(0,1,1,0,13.3496479,50.689199)" stroke-width=".79701" stroke-linecap="butt" stroke-miterlimit="10" stroke-linejoin="miter" fill="none" stroke="#000000" d="M-6.0708 2.72491 .34868 0-6.0708-2.72491Z"/>
<path transform="matrix(1,0,0,-1,62.419,13.349998)" stroke-width=".79701" stroke-linecap="butt" stroke-miterlimit="10" stroke-linejoin="miter" fill="none" stroke="#000000" d="M0-38.70807V-11.73015"/>
<path transform="matrix(0,-1,-1,-0,62.419,25.080149)" d="M-6.0708 2.72491 .34868 0-6.0708-2.72491Z"/>
<path transform="matrix(0,-1,-1,-0,62.419,25.080149)" stroke-width=".79701" stroke-linecap="butt" stroke-miterlimit="10" stroke-linejoin="miter" fill="none" stroke="#000000" d="M-6.0708 2.72491 .34868 0-6.0708-2.72491Z"/>
<path transform="matrix(1,0,0,-1,62.419,13.349998)" stroke-width=".79701" stroke-linecap="butt" stroke-miterlimit="10" stroke-linejoin="miter" fill="none" stroke="#c44e52" d="M-7.32652-7.32652-40.77487-40.77487"/>
<path transform="matrix(-.7071,.7071,.7071,.7071,21.644127,54.12487)" d="M-6.0708 2.72491 .34868 0-6.0708-2.72491Z" fill="#c44e52"/>
<path transform="matrix(-.7071,.7071,.7071,.7071,21.644127,54.12487)" stroke-width=".79701" stroke-linecap="butt" stroke-miterlimit="10" stroke-linejoin="miter" fill="none" stroke="#c44e52" d="M-6.0708 2.72491 .34868 0-6.0708-2.72491Z"/>
<use data-text="f" xlink:href="#font_0_5" transform="matrix(9.9626,0,0,-9.9626,38.350999,45.079)" fill="#c44e52"/>
</svg>
