<svg xmlns="http://www.w3.org/2000/svg" xmlns:xlink="http://www.w3.org/1999/xlink" xmlns:inkscape="http://www.inkscape.org/namespaces/inkscape" version="1.1" width="362.969" height="123.675" viewBox="0 0 362.969 123.675">
<defs>
<path id="font_0_8" d="M.054992677 .6777344 .035995485 .45280458H.06098938C.06498718 .50479128 .067993167 .5757599 .09899902 .6097412 .1329956 .6447296 .18998719 .64772036 .23599243 .64772036H.26098634C.28799439 .64772036 .31599427 .64772036 .31599427 .613739V.07695007C.31599427 .036972047 .27598573 .030975342 .23999024 .030975342 .22698975 .030975342 .21398926 .031967164 .20399475 .031967164H.17098999V.0009765625H.5499878V.031967164H.48199464C.44299317 .031967164 .40499879 .035964967 .40499879 .07695007V.613739C.40499879 .6427307 .42199708 .64772036 .45999146 .64772036H.4850006C.5309906 .64772036 .58799746 .6447296 .621994 .6097412 .6529999 .5757599 .6559906 .50479128 .6599884 .45280458H.68499758L.66600039 .6777344H.054992677Z"/>
<path id="font_0_11" d="M.11199951 .3812256C.13699341 .41223146 .18099976 .426239 .21798706 .426239 .2919922 .426239 .32499696 .3592224 .32499696 .288208V.26220704C.20999146 .26220704 .040985109 .22619629 .040985109 .095214847V.08721924C.04899597 .010223389 .1459961-.009765625 .20298767-.009765625 .2539978-.009765625 .31900025 .024230957 .33198548 .07522583H.33299256C.33898927 .032226564 .3659973-.004776001 .41099549-.004776001 .45199586-.004776001 .48799134 .02822876 .49299623 .07322693V.14620972H.46798707V.095214847C.46798707 .068222049 .46299745 .02722168 .43199159 .02722168 .3999939 .02722168 .394989 .066223148 .394989 .09321594V.26020814C.394989 .27320863 .3959961 .28520204 .3959961 .29821778 .3959961 .39523316 .30499269 .4482422 .22200012 .4482422 .15899658 .4482422 .069992069 .41723634 .069992069 .33721925 .069992069 .30822755 .09098816 .28923036 .116989139 .28923036 .14498902 .28923036 .1619873 .31123353 .1619873 .3352356 .1619873 .3642273 .13899231 .38124085 .11199951 .38124085V.3812256M.32499696 .24121094V.14021302C.32499696 .07122803 .2769928 .016220093 .21199036 .01222229H.20799256C.16099549 .01222229 .11898804 .049224855 .11898804 .097213748V.10221863C.12599182 .2032013 .23899842 .23820496 .32499696 .24121094Z"/>
<path id="font_0_12" d="M.026992798 .6843109V.6533203H.04399109C.07499695 .6533203 .10499573 .65031436 .10499573 .6033325V.0012207031L.1289978 .0032196046 .14199829 .020233155 .1659851 .0622406H.16799927C.19198609 .014221191 .25099183-.009765625 .30099488-.009765625 .4249878-.009765625 .5209961 .09825134 .5209961 .21730042 .5209961 .33233644 .43299867 .4423828 .30499269 .4423828 .25299073 .4423828 .20698548 .41737367 .17199707 .37835694V.6953125L.026992798 .6843109M.43598939 .19229126C.43199159 .14427185 .4269867 .102264408 .39698792 .06524658 .37199403 .033233644 .33399964 .01222229 .2939911 .01222229 .25099183 .01222229 .21199036 .037231447 .18899536 .07324219 .18099976 .08425903 .1749878 .09326172 .1749878 .10826111V.27531434C.1749878 .28833009 .17399597 .30133058 .17399597 .31433106 .17399597 .37435914 .24699402 .42037965 .30299378 .42037965 .41099549 .42037965 .43699647 .29432679 .43699647 .21530152 .43699647 .20729065 .43699647 .20028687 .43598939 .19229126Z"/>
<path id="font_0_22" d="M.032989503 .68429568V.6532898H.04798889C.084991458 .6532898 .11099243 .64927676 .11099243 .6012573V.0960083C.11099243 .08900452 .11199951 .08200073 .11199951 .07398987 .11199951 .035964967 .084991458 .031967164 .056991579 .031967164H.032989503V.0009765625H.2559967V.031967164H.23098755C.20199585 .031967164 .17799378 .035964967 .17799378 .07499695V.6953125L.032989503 .68429568Z"/>
<path id="font_0_17" d="M.11199951 .23242188H.3999939C.41099549 .23242188 .41600038 .2394104 .41600038 .250412 .41600038 .35630799 .35099793 .4482422 .23899842 .4482422 .115997318 .4482422 .027999878 .33932496 .027999878 .22039795 .027999878 .12832642 .07899475 .04624939 .16699219 .006225586 .18998719-.003768921 .21699524-.009765625 .24198914-.009765625H.24499512C.32199098-.009765625 .38598634 .0332489 .41299439 .110305789 .4139862 .11331177 .4139862 .11730957 .4139862 .12031555 .4139862 .12731934 .4099884 .13232422 .40299989 .13232422 .3880005 .13232422 .38198854 .0993042 .37599183 .08828735 .35099793 .04425049 .30299378 .0152282719 .25099183 .0152282719 .21398926 .0152282719 .18199158 .036239625 .15499878 .06326294 .114990238 .109313968 .11199951 .17436219 .11199951 .23242188M.11299133 .25341798C.11299133 .33033753 .1539917 .426239 .23599243 .426239H.24099732C.33898927 .41723634 .33799745 .3133545 .34799195 .25341798H.11299133Z"/>
<path id="font_0_26" d="M.08999634 .60298159V.57199099C.1329956 .57199099 .18099976 .5769806 .21998596 .59799197V.07597351C.21998596 .036972047 .18199158 .030975342 .14299011 .030975342 .12599182 .030975342 .10899353 .031967164 .09498596 .031967164V.0009765625H.41999818V.031967164C.40299989 .031967164 .38598634 .030975342 .36999513 .030975342 .32998658 .030975342 .29499818 .036972047 .29499818 .07496643V.6509857C.29499818 .6599884 .2919922 .6669922 .2809906 .6669922 .2669983 .6669922 .25 .647995 .23899842 .63998416 .19499207 .61099246 .14099121 .60298159 .08999634 .60298159Z"/>
<path id="font_0_14" d="M.1309967 .4296875C.10598755 .42668153 .085998538 .40370179 .085998538 .37872315 .085998538 .35372926 .10598755 .3247528 .13699341 .3247528 .1639862 .3247528 .19198609 .34573365 .19198609 .37672425 .19198609 .40267945 .17199707 .43066407 .13999939 .43066407 .13699341 .43067933 .13398743 .4296875 .1309967 .4296875M.1309967 .105895999C.10598755 .10290527 .085998538 .07991028 .085998538 .05493164 .085998538 .029953003 .10598755 .0009765625 .13699341 .0009765625 .1639862 .0009765625 .19198609 .021957398 .19198609 .05293274 .19198609 .07891846 .17199707 .106903079 .13999939 .106903079 .13699341 .106903079 .13398743 .105895999 .1309967 .105895999Z"/>
<path id="font_0_1" d="M.03199768 .031967164V.0009765625H.24798584V.031967164C.21598816 .031967164 .1749878 .046951295 .17298889 .08190918 .17298889 .09190369 .17799378 .10089111 .18099976 .10987854 .19198609 .14285279 .20199585 .17581177 .21499634 .20777893 .21798706 .21676636 .21798706 .22875977 .23199463 .22875977H.45899964C.47099305 .22875977 .47200013 .21777344 .47599793 .20878601L.49699403 .1458435C.5069885 .11987305 .5249939 .08190918 .5249939 .060943605V.0569458C.5159912 .032974245 .47698976 .031967164 .44799806 .031967164H.44198609V.0009765625H.71699526V.031967164H.6879883C.6649933 .031967164 .6409912 .033966066 .6289978 .045959474 .6179962 .057937623 .6139984 .074920658 .60798647 .089904788 .5569916 .23875427 .5059967 .38876344 .45298768 .53778079 .43499757 .5897827 .41099549 .6447754 .397995 .6977844 .3939972 .7107849 .3880005 .7167969 .37399293 .7167969 .35398866 .7167969 .34999085 .6957855 .34399415 .67578127 .28799439 .5067749 .22599793 .33976747 .16899109 .17181397L.147995 .11187744C.14199829 .09390259 .13598633 .075927738 .12199402 .061935426 .09899902 .037963869 .06399536 .031967164 .03199768 .031967164M.23298645 .25976563 .34498597 .58477786 .45799256 .25976563H.23298645Z"/>
<path id="font_0_27" d="M.026992798 .43138124V.4003601H.04598999C.07598877 .4003601 .10499573 .39736939 .10499573 .35734559V-.12220764C.10499573-.15835572 .07899475-.16236878 .049987794-.16236878H.026992798V-.19335938H.25299073V-.16236878H.22898865C.19898987-.16236878 .1749878-.15835572 .1749878-.12220764L.17599488 .051239015C.19898987 .010223389 .25498963-.009765625 .2979889-.009765625 .42199708-.009765625 .5209961 .09625244 .5209961 .21730042 .5209961 .3373413 .42799378 .4423828 .31098939 .4423828 .2559967 .4423828 .20799256 .41838075 .17199707 .3773651V.4423828L.026992798 .43138124M.43598939 .19929505C.43099977 .12626648 .3919983 .021224976 .30099488 .01222229H.29499818C.2519989 .01222229 .21299744 .036239625 .18899536 .072250369 .18099976 .08325195 .1749878 .09326172 .1749878 .10725403V.27531434C.1749878 .28833009 .17399597 .30133058 .17399597 .31433106 .17399597 .36735536 .24198914 .41737367 .30099488 .41737367 .4019928 .41737367 .43699647 .28633119 .43699647 .21530152 .43699647 .21029663 .43699647 .20429993 .43598939 .19929505Z"/>
<path id="font_0_21" d="M.036987306 .430542V.3995819H.055999757C.084991458 .3995819 .11099243 .3955841 .11099243 .34962464V.07292175C.11099243 .037963869 .09298706 .031967164 .032989503 .031967164V.0009765625H.24798584V.031967164H.22799683C.20199585 .031967164 .17799378 .034973146 .17799378 .06692505V.44154359L.036987306 .430542M.12098694 .6689453C.09599304 .66589358 .07598877 .64382937 .07598877 .61672976 .07598877 .5876312 .100997928 .5635376 .1289978 .5635376 .1559906 .5635376 .18199158 .58561709 .18199158 .61672976 .18199158 .64582827 .15699768 .6699219 .1289978 .6699219 .12599182 .66993716 .12399292 .6689453 .12098694 .6689453Z"/>
<path id="font_0_13" d="M.35899354 .38723756C.33299256 .38523866 .31199647 .36923219 .31199647 .3412323 .31199647 .3142395 .33099366 .29522706 .35798646 .29522706 .3880005 .29522706 .4039917 .31723023 .4039917 .3452301V.3512268C.3939972 .4242401 .30899049 .4482422 .25099183 .4482422 .1289978 .4482422 .032989503 .3412323 .032989503 .21723938 .032989503 .10423279 .12098694-.009765625 .25-.009765625 .31599427-.009765625 .3809967 .026229859 .4079895 .096221927 .4099884 .10223389 .4149933 .11123657 .4149933 .1182251 .4149933 .12522888 .4099884 .13023377 .40299989 .13023377 .3880005 .13023377 .3789978 .09222412 .37199403 .07922363 .34799195 .040222169 .30699159 .016220093 .2619934 .0152282719 .15499878 .0152282719 .12199402 .1222229 .116989139 .20123291V.21322632C.116989139 .29322816 .13598633 .41323854 .24598694 .42323304H.2539978C.29100038 .42323304 .32998658 .41223146 .35899354 .38723756Z"/>
<path id="font_0_35" d="M.14898682 .6152344C.14898682 .54644778 .11999512 .421875 .017990113 .421875V.39987184H.10398865V.1421051C.10398865 .10914612 .10598755 .076171878 .12199402 .047195436 .14399719 .007232666 .19099427-.009765625 .23498535-.009765625 .31698609-.009765625 .33299256 .08216858 .33299256 .14511109V.18206787H.30799867C.30799867 .16708374 .30899049 .15209961 .30899049 .1361084 .30899049 .09214783 .29899598 .0152282719 .23999024 .0152282719 .18299866 .0152282719 .17399597 .08416748 .17399597 .12911988V.39987184H.31599427V.43066407H.17399597V.6152344H.14898682Z"/>
<path id="font_0_36" d="M.03199768 .430542V.39953614H.04598999C.07398987 .39953614 .102996829 .3975525 .10899353 .3675995 .10998535 .35661317 .10998535 .3466339 .10998535 .33566285V.13702393C.10998535 .1040802 .11099243 .073135379 .1289978 .044189454 .1559906 .0012512207 .21299744-.0107421879 .2599945-.0107421879 .30499269-.0107421879 .34599305 .009246826 .37098695 .046188356 .37799073 .056167604 .3849945 .06614685 .3880005 .078125L.3889923-.009750366 .5339966 .0012512207V.032211305H.5189972C.48599244 .032211305 .45599366 .035217287 .45599366 .0801239V.4423828L.30799867 .43136598V.39953614H.32299806C.35598756 .39953614 .38598634 .3965454 .38598634 .3496399V.16896057C.38598634 .09509277 .34799195 .013244629 .2649994 .013244629 .20899964 .013244629 .17999268 .02722168 .17999268 .13302613V.4423828L.03199768 .430542Z"/>
<path id="font_0_32" d="M.026992798 .43138124V.4003601H.041992189C.07499695 .4003601 .10499573 .39735414 .10499573 .35029603V.074020389C.10499573 .032974245 .07699585 .031967164 .032989503 .031967164H.026992798V.0009765625H.2689972V.031967164C.25698854 .031967164 .24299622 .030975342 .23098755 .030975342 .19898987 .030975342 .17199707 .035980226 .17199707 .073013309V.20614624C.17199707 .2912445 .19198609 .42037965 .2899933 .42037965 .2939911 .42037965 .29699708 .42037965 .30099488 .41937257V.41836549C.28599549 .41236878 .27799989 .39634706 .27799989 .38032533 .27799989 .35731507 .29299928 .34129334 .31599427 .33728028 .34498597 .33728028 .3639984 .3553009 .3639984 .38032533 .3639984 .42037965 .32598878 .4423828 .2899933 .4423828 .23098755 .4423828 .17799378 .38934327 .16799927 .33528138L.16699219 .4423828 .026992798 .43138124Z"/>
<path id="font_0_33" d="M.17599488 .4482422C.13899231 .44422914 .099990848 .4372406 .070999149 .41223146 .04699707 .39123536 .032989503 .35723878 .032989503 .32522584 .032989503 .15423584 .31098939 .25123597 .31098939 .10122681 .31098939 .040222169 .2559967 .01222229 .20098877 .01222229 .125 .01222229 .07398987 .066223148 .05999756 .15222168 .057998659 .16122437 .056991579 .17022705 .04499817 .17022705 .036987306 .17022705 .032989503 .16423035 .032989503 .15722656V-.00077819827C.033996583-.0057678224 .036987306-.008773804 .041992189-.009765625H.04399109C.05999756-.009765625 .07598877 .02722168 .08799744 .030227662H.08898926C.09700012 .030227662 .12399292 .0052337648 .14498902-.0017700195 .1619873-.0077667238 .17999268-.009765625 .19799805-.009765625 .2809906-.009765625 .3600006 .034225465 .3600006 .12623596 .3600006 .19223023 .31199647 .24623108 .24598694 .26322938 .18399048 .28022767 .08198547 .28022767 .08198547 .3532257 .08198547 .4142151 .14898682 .42921449 .19299317 .42921449 .24198914 .42921449 .30999757 .40220643 .30999757 .3162079 .30999757 .30722047 .31098939 .2992096 .32199098 .2992096 .33198548 .2992096 .33599855 .30722047 .33599855 .31721498 .33599855 .32221986 .33499146 .32720948 .33499146 .33120729V.4342041C.33499146 .44023133 .33198548 .4482422 .32398988 .4482422 .30799867 .4482422 .2979889 .42323304 .2869873 .42323304H.28599549C.27799989 .42323304 .2619934 .43623353 .25 .44023133 .23199463 .44621278 .21199036 .44921876 .19299317 .44921876 .18699646 .449234 .18199158 .4482422 .17599488 .4482422Z"/>
<path id="font_0_23" d="M.03199768 .43138124V.4003601H.04699707C.07998657 .4003601 .10998535 .39735414 .10998535 .35029603V.074020389C.10998535 .032974245 .08198547 .031967164 .037994386 .031967164H.03199768V.0009765625H.2579956V.031967164H.23199463C.20399475 .031967164 .17999268 .035980226 .17999268 .073013309V.25621034C.17999268 .32928468 .21998596 .42037965 .31599427 .42037965 .37998963 .42037965 .3869934 .35430909 .3869934 .30825807V.070007327C.3869934 .033966066 .35699464 .031967164 .32398988 .031967164H.30899049V.0009765625H.5349884V.031967164H.5089874C.48098756 .031967164 .45700074 .035980226 .45700074 .073013309V.25621034C.45700074 .32928468 .49699403 .42037965 .59298709 .42037965 .6569977 .42037965 .6639862 .35430909 .6639862 .30825807V.070007327C.6639862 .033966066 .6339874 .031967164 .6009979 .031967164H.58599856V.0009765625H.81199648V.031967164H.79100039C.7609863 .031967164 .73399356 .034973146 .73399356 .070007327V.2962494C.73399356 .33328248 .7319946 .36631776 .70799258 .4003601 .6819916 .43338014 .6389923 .4423828 .598999 .4423828 .5339966 .4423828 .48098756 .4043579 .45399476 .34629823 .43499757 .41737367 .3899994 .4423828 .32099916 .4423828 .25698854 .4423828 .19599915 .402359 .1749878 .34028626L.17399597 .4423828 .03199768 .43138124Z"/>
<path id="font_0_38" d="M.018997193 .43066407V.3996582H.034988405C.06298828 .3996582 .084991458 .39665223 .101989749 .3586731 .147995 .24871826 .19198609 .13775635 .23899842 .027801514 .24198914 .019805909 .24899292 .00881958 .24899292-.00018310547 .24899292-.0011749268 .24798584-.0031738282 .24798584-.004180908 .24099732-.025177002 .23098755-.045166017 .22200012-.06515503 .20199585-.11413574 .17298889-.18211365 .11099243-.18211365 .09599304-.18211365 .07598877-.17611695 .06399536-.16412354 .08299255-.16111756 .102996829-.15011597 .102996829-.12213135 .102996829-.10014343 .08799744-.08215332 .06599426-.08015442 .034988405-.08015442 .018997193-.09814453 .018997193-.12313843 .018997193-.17311096 .06599426-.20410156 .11099243-.20410156H.11199951C.18399048-.20410156 .22200012-.13012696 .24699402-.07115173L.2769928 .0008239746C.31199647 .08677673 .34799195 .17274475 .38398744 .25871278L.4079895 .3156891C.4249878 .3626709 .45098878 .3996582 .5079956 .3996582V.43066407H.34700013V.3996582C.36999513 .3996582 .3929901 .383667 .3929901 .3586731 .3929901 .3456726 .3869934 .33268739 .38198854 .32069398 .35299684 .25271607 .32699586 .18374634 .29699708 .11576843 .2939911 .106781009 .2889862 .09777832 .2869873 .088775638H.28599549C.2789917 .11177063 .2679901 .13276673 .25898744 .15475464 .23298645 .21972656 .20199585 .28570558 .17799378 .35168458 .1749878 .3586731 .17098999 .36567689 .17098999 .3736725V.3776703C.1769867 .3996582 .20599365 .3996582 .22599793 .3996582V.43066407H.018997193Z"/>
<path id="font_0_25" d="M.23498535 .4482422C.10899353 .43522645 .027999878 .3292389 .027999878 .21322632 .027999878 .100234989 .116989139-.009765625 .25-.009765625 .36999513-.009765625 .47099305 .08822632 .47099305 .2142334 .47099305 .33320619 .3809967 .44921876 .24798584 .44921876 .24398804 .449234 .23899842 .4482422 .23498535 .4482422M.11199951 .19023133V.23423767C.11199951 .31021119 .13598633 .4262085 .24899292 .4262085 .32998658 .4262085 .37599183 .35821534 .3849945 .2822113 .3869934 .2602234 .3869934 .23921204 .3869934 .21722412 .3869934 .15222168 .37998963 .07122803 .31599427 .034225465 .29599 .021224976 .27398683 .0152282719 .25099183 .0152282719 .17799378 .0152282719 .1269989 .07221985 .115997318 .15022278 .11399841 .16322327 .11399841 .17721558 .11199951 .19021607V.19023133Z"/>
<path id="font_0_18" d="M.11099243 .43066407H.032989503V.3996582H.11099243V.06893921C.11099243 .034973146 .08198547 .031967164 .051986696 .031967164H.033996583V.0009765625H.2749939V.031967164H.24299622C.22099304 .031967164 .19799805 .032974245 .18598938 .04396057 .17799378 .052947999 .17799378 .06593323 .17799378 .077926639V.3996582H.2919922V.43066407H.1749878V.56185916C.1749878 .61694338 .21299744 .6840515 .2669983 .6840515 .2769928 .6840515 .29100038 .68203738 .29899598 .6760254 .27999879 .6710205 .2689972 .6529999 .2689972 .63397219 .2689972 .6079254 .2889862 .5908966 .31298829 .5908966 .33898927 .5908966 .35798646 .6109314 .35798646 .6329651 .35798646 .68104556 .30799867 .7060547 .2669983 .7060547 .17599488 .7060547 .11099243 .634964 .11099243 .53782656V.43066407Z"/>
<path id="font_0_24" d="M.03199768 .43138124V.4003601H.04699707C.07998657 .4003601 .10998535 .39735414 .10998535 .35029603V.074020389C.10998535 .032974245 .08198547 .031967164 .037994386 .031967164H.03199768V.0009765625H.2579956V.031967164H.23199463C.20399475 .031967164 .17999268 .035980226 .17999268 .073013309V.25621034C.17999268 .3282776 .21699524 .42037965 .31599427 .42037965 .37998963 .42037965 .38598634 .3513031 .38598634 .30825807V.069000247C.38598634 .034973146 .35699464 .031967164 .32598878 .031967164H.30799867V.0009765625H.5339966V.031967164H.5089874C.48199464 .031967164 .45599366 .035980226 .45599366 .070007327V.28923036C.45599366 .32226563 .45498658 .35630799 .43899537 .38633729 .41600038 .43037416 .36499024 .4423828 .31900025 .4423828 .2579956 .4423828 .19499207 .4003601 .1749878 .34028626L.17399597 .4423828 .03199768 .43138124Z"/>
<path id="font_0_30" d="M.1309967 .10644531C.10598755 .10342407 .085998538 .080322269 .085998538 .0552063 .085998538 .03010559 .10598755 .0009765625 .13699341 .0009765625 .1639862 .0009765625 .19198609 .022064209 .19198609 .053207399 .19198609 .07929993 .17199707 .107421878 .13999939 .107421878 .13699341 .107437137 .13398743 .10644531 .1309967 .10644531Z"/>
<path id="font_1_1" d="M.6589966 .23046875C.6759949 .23046875 .69400027 .23046875 .69400027 .25045777 .69400027 .27046205 .6759949 .27046205 .6589966 .27046205H.117996219C.100997928 .27046205 .08299255 .27046205 .08299255 .25045777 .08299255 .23046875 .100997928 .23046875 .117996219 .23046875H.6589966Z"/>
<path id="font_1_3" d="M.83399966 .23046875C.7789917 .1884613 .7519989 .14746094 .74398806 .13446045 .69898989 .065460208 .69099429 .002456665 .69099429 .0014648438 .69099429-.010543823 .7029877-.010543823 .71099856-.010543823 .7279968-.010543823 .72898867-.008544922 .73298647 .009460449 .7559967 .10746765 .8149872 .19146729 .9279938 .23745728 .9399872 .24145508 .94299319 .24345398 .94299319 .25045777 .94299319 .25746156 .93699648 .26046754 .93499758 .26145936 .8909912 .27845765 .769989 .3284607 .7319946 .49645997 .72898867 .5084686 .7279968 .51145938 .71099856 .51145938 .7029877 .51145938 .69099429 .51145938 .69099429 .49946595 .69099429 .49746705 .69999697 .4344635 .74198916 .36746217 .7619934 .33746339 .79100039 .30245973 .83399966 .27046205H.09098816C.07299805 .27046205 .054992677 .27046205 .054992677 .25045777 .054992677 .23046875 .07299805 .23046875 .09098816 .23046875H.83399966Z"/>
<path id="font_0_15" d="M.1789856 .019180298C.18099976 .014160156 .18199158 .008148193 .18199158 .0021362305 .18199158-.0660553 .1499939-.12420654 .10598755-.17233277 .10398865-.17533875 .101989749-.1793518 .101989749-.18235779 .101989749-.18637085 .10699463-.19238281 .11199951-.19238281 .12599182-.19238281 .15299988-.15428162 .1659851-.13223267 .18998719-.09112549 .20298767-.04399109 .20298767 .0031280518 .20298767 .04824829 .18998719 .107421878 .13798523 .107421878 .10798645 .107421878 .085998538 .084350589 .085998538 .054275514 .085998538 .02017212 .11199951 .0011291504 .13899231 .0011291504 .1539917 .0011291504 .16999817 .006134033 .1789856 .019180298Z"/>
<path id="font_0_16" d="M.3039856 .6843109V.6533203H.31999208C.35499574 .6533203 .38198854 .6493225 .38198854 .5913391L.3809967 .38136292C.35699464 .42137147 .2999878 .4423828 .2539978 .4423828 .1309967 .4423828 .032989503 .3363495 .032989503 .21530152 .032989503 .10826111 .114990238-.009765625 .24699402-.009765625 .29899598-.009765625 .34599305 .0152282719 .3789978 .055236818V-.009765625L.5269928 .0012207031V.032226564H.5099945C.47898866 .032226564 .44898988 .035232545 .44898988 .08224487V.6953125L.3039856 .6843109M.116989139 .19128418V.20629883C.116989139 .2803192 .12599182 .35534669 .19499207 .4013672 .21499634 .41337586 .23799134 .42037965 .26098634 .42037965 .30999757 .42037965 .37998963 .38035584 .37998963 .31733705 .37998963 .30433656 .3789978 .2913208 .3789978 .2783203V.11225891C.3789978 .09925842 .37399293 .09025574 .36698915 .08024597 .34098817 .041244508 .2979889 .01222229 .25099183 .01222229 .17799378 .01222229 .13198853 .07925415 .12098694 .14826966 .11898804 .16227722 .11898804 .17729187 .116989139 .19128418Z"/>
<path id="font_1_5" d="M.9089966 .13284302C.9259949 .13284302 .94400027 .13284302 .94400027 .15284729 .94400027 .17285156 .9259949 .17285156 .9079895 .17285156H.272995C.23098755 .20890808 .17999268 .2349701 .14698792 .24998474 .18299866 .26602174 .23199463 .29206849 .272995 .32714845H.9079895C.9259949 .32714845 .94400027 .32714845 .94400027 .34713746 .94400027 .36714173 .9259949 .36714173 .9089966 .36714173H.31799317C.3659973 .41314698 .41799928 .5011444 .41799928 .5141449 .41799928 .5251465 .40499879 .5251465 .39898683 .5251465 .3909912 .5251465 .38398744 .5251465 .37998963 .5171356 .35899354 .47914125 .33099366 .42614747 .2659912 .36813355 .19699097 .3070984 .12998963 .28004457 .07798767 .26501466 .06098938 .2590027 .05999756 .25801087 .057998659 .2559967 .055999757 .25500489 .055999757 .2519989 .055999757 .24998474 .055999757 .24798584 .055999757 .24598694 .056991579 .24398804L.05999756 .24197388C.06199646 .24098206 .06298828 .23997498 .08198547 .23396302 .21699524 .19387818 .31698609 .10284424 .37298585-.0041503908 .38398744-.024154664 .3849945-.025161744 .39898683-.025161744 .40499879-.025161744 .41799928-.025161744 .41799928-.014160156 .41799928-.001159668 .36698915 .08584595 .31799317 .13284302H.9089966Z"/>
<path id="font_1_6" d="M.7259979 .32714845C.7679901 .29107667 .81900027 .26501466 .85198977 .24998474 .81599429 .23396302 .7669983 .20791626 .7259979 .17285156H.09098816C.07398987 .17285156 .054992677 .17285156 .054992677 .15284729 .054992677 .13284302 .07299805 .13284302 .08999634 .13284302H.68099978C.6329956 .08683777 .58099368-.001159668 .58099368-.014160156 .58099368-.025161744 .59399417-.025161744 .59999087-.025161744 .60798647-.025161744 .61499026-.025161744 .61898806-.017150879 .6399994 .020843506 .66799929 .07383728 .73298647 .1318512 .8019867 .19288635 .86898806 .21994019 .92099 .2349701 .9379883 .24098206 .93899539 .24197388 .94099429 .24398804 .94299319 .24497986 .94299319 .24798584 .94299319 .24998474 .94299319 .2519989 .94299319 .2539978 .94200137 .2559967L.93899539 .25801087C.93699648 .2590027 .9359894 .26000978 .9169922 .26602174 .7819977 .30610658 .6819916 .3971405 .6259918 .50413516 .61499026 .5241394 .6139984 .5251465 .59999087 .5251465 .59399417 .5251465 .58099368 .5251465 .58099368 .5141449 .58099368 .5011444 .6319885 .4141388 .68099978 .36714173H.08999634C.07299805 .36714173 .054992677 .36714173 .054992677 .34713746 .054992677 .32714845 .07398987 .32714845 .09098816 .32714845H.7259979Z"/>
<path id="font_0_31" d="M.3789978 .0622406 .37998963-.12321472C.37998963-.16035462 .35499574-.16236878 .3019867-.16236878V-.19335938H.5279999V-.16236878H.5039978C.47599793-.16236878 .44999696-.15835572 .44999696-.12120056V.4423828L.42900086 .44036866 .41600038 .41537477 .3889923 .35134889C.3639984 .4073639 .31199647 .4423828 .25099183 .4423828 .125 .4423828 .032989503 .3313446 .032989503 .21429444 .032989503 .102264408 .12298584-.009765625 .24398804-.009765625 .2919922-.009765625 .35499574 .0152282719 .3789978 .0622406M.116989139 .19929505V.21029663C.116989139 .29032899 .1459961 .3863678 .23599243 .41436769 .24398804 .41636659 .25299073 .41737367 .2619934 .41737367 .32699586 .41737367 .37298585 .35235597 .3829956 .29432679V.13427735C.3829956 .07424927 .31999208 .027236939 .2809906 .016235352 .269989 .01322937 .2579956 .01222229 .24699402 .01222229 .18299866 .014221191 .13899231 .085250858 .12399292 .14826966 .12098694 .1652832 .11898804 .1822815 .116989139 .19929505Z"/>
<path id="font_0_37" d="M.018997193 .43066407V.3996582H.037994386C.08799744 .3996582 .09199524 .37968446 .12298584 .30378724L.20399475 .10307312C.21998596 .06512451 .23999024-.009765625 .2639923-.009765625 .2869873-.009765625 .30599977 .06213379 .32099916 .09907532L.40499879 .30578614C.42999269 .3677063 .45199586 .3996582 .5079956 .3996582V.43066407H.34700013V.3996582C.36898805 .3996582 .3939972 .38269044 .3939972 .35871888 .3939972 .34573365 .3880005 .3317566 .3829956 .31877137 .35398866 .24786377 .32598878 .17796326 .29699708 .108062747 .2939911 .09907532 .2889862 .09008789 .2869873 .08010864H.28599549C.2789917 .10307312 .2679901 .1260376 .25898744 .14900208L.1769867 .35072328C.17399597 .35871888 .16999817 .36669923 .16999817 .37469483V.37869264C.1749878 .39866639 .20599365 .3996582 .22599793 .3996582V.43066407H.018997193Z"/>
<path id="font_0_3" d="M.033996583 .68359377V.6525879C.04699707 .6525879 .05999756 .6535797 .07199097 .6535797 .10798645 .6535797 .13699341 .6485901 .13699341 .60861209V.07493591C.13699341 .036972047 .10398865 .030975342 .069992069 .030975342 .056991579 .030975342 .04499817 .031967164 .033996583 .031967164V.0009765625H.3809967C.5099945 .0009765625 .6289978 .062942508 .6859894 .2088623 .70098879 .24983216 .70799258 .29281617 .70799258 .33677674 .70799258 .49269105 .6100006 .6605835 .43099977 .68258669 .4149933 .68359377 .397995 .68359377 .38198854 .68359377H.033996583M.6069946 .3117981V.29180909C.59799197 .18487549 .56399539 .07394409 .43899537 .04096985 .40899659 .031967164 .37998963 .031967164 .34899903 .031967164H.2630005C.23999024 .031967164 .22200012 .036972047 .22200012 .06794739 .22200012 .07493591 .22299195 .0819397 .22299195 .0879364V.58062747C.22299195 .5896301 .22200012 .59962466 .22200012 .60861209 .22200012 .64759829 .23699951 .6535797 .2649994 .6535797 .272995 .6535797 .2809906 .6525879 .2869873 .6525879H.35299684C.4229889 .6525879 .49198915 .63760378 .5419922 .57662966 .59599307 .511673 .60798647 .42773438 .60798647 .34477235V.33477784C.60798647 .32678224 .60798647 .3197937 .6069946 .3117981Z"/>
<path id="font_0_19" d="M.11898804 .02281189V.02180481C.07199097 .012802124 .027999878-.032165529 .027999878-.07914734 .027999878-.1730957 .17199707-.20507813 .24899292-.20507813 .33299256-.20507813 .47099305-.1750946 .47099305-.072143558 .47099305-.0071868898 .4249878 .03781128 .36499024 .05480957 .32899476 .06581116 .2919922 .06680298 .2539978 .06680298H.16299439C.1309967 .06982422 .10598755 .10205078 .10598755 .13427735V.13931275C.10699463 .15238953 .11399841 .17837525 .12399292 .17837525 .13699341 .17538452 .15098572 .16438294 .1659851 .15937805 .18399048 .15338135 .20399475 .15039063 .22299195 .15039063 .30499269 .15039063 .3849945 .21134949 .3849945 .29626466 .3849945 .3302307 .37098695 .37019349 .34399415 .3921814V.39317323C.37098695 .41316224 .39698792 .43113709 .43299867 .43113709 .43598939 .43113709 .43899537 .43113709 .44198609 .43014527 .43299867 .42414857 .4269867 .41714479 .4269867 .40415956 .4269867 .3881836 .43998719 .37419129 .45599366 .37419129 .47299195 .37419129 .4850006 .3881836 .4850006 .40415956 .4850006 .43113709 .46299745 .453125 .43499757 .453125 .3999939 .453125 .3659973 .4391327 .33999635 .41714479 .33699037 .41415406 .33299256 .41015626 .32899476 .40916444H.32798768C.32199098 .40916444 .31399537 .41714479 .30899049 .42015077 .2829895 .43437196 .25299073 .4423828 .22299195 .4423828 .14399719 .4423828 .05899048 .38737489 .05899048 .29638673 .05899048 .26338197 .07199097 .23338318 .09199524 .2073822 .09599304 .2033844 .102996829 .19837952 .102996829 .1933899 .102996829 .18838501 .09700012 .18338013 .09498596 .17938233 .08198547 .15937805 .07499695 .13427735 .07499695 .11010742 .07499695 .07888794 .08898926 .03781128 .11898804 .02281189M.08099365-.08413696V-.07614136C.08099365-.0231781 .1269989 .0078125 .18099976 .0078125H.25898744C.32199098 .0078125 .41799928-.0011901856 .41799928-.07814026 .41799928-.15110779 .31098939-.18208313 .24899292-.18208313 .18299866-.18208313 .09098816-.15209961 .08099365-.08413696M.1349945 .27638246V.28938294C.1349945 .3443756 .147995 .41838075 .22200012 .41838075 .28399659 .41838075 .30899049 .36038209 .30899049 .29638673 .30899049 .25538636 .30099488 .17437744 .22299195 .17437744 .19699097 .17437744 .17199707 .18638611 .15499878 .20838928 .13999939 .2283783 .13798523 .25238038 .1349945 .27638246Z"/>
<path id="font_0_2" d="M.58898928 .6199951C.57699587 .6300049 .56599429 .64302065 .55400088 .6530304 .5119934 .68704226 .45899964 .7060547 .40499879 .7060547 .21299744 .7060547 .054992677 .54093936 .054992677 .34178163 .054992677 .14962769 .20698548-.021484375 .40499879-.021484375 .5399933-.021484375 .6519928 .08157349 .6649933 .21968079 .66600039 .22468567 .66600039 .22868347 .66600039 .23368836 .66600039 .2447052 .6629944 .25170899 .6539917 .25170899 .6349945 .25170899 .6399994 .212677 .6359863 .19265747 .61499026 .09156799 .5249939 .009506226 .41600038 .009506226 .34498597 .009506226 .2789917 .042541505 .23199463 .095581058 .1749878 .16062927 .1579895 .24969483 .1579895 .33477784 .1579895 .40283204 .16499329 .47387696 .19599915 .53492739 .23699951 .61499026 .32299806 .6750488 .4139862 .6750488 .5379944 .6750488 .61898806 .5569458 .6319885 .4488678 .6349945 .43785096 .6289978 .41984559 .6499939 .41984559 .6639862 .41984559 .66600039 .4258423 .66600039 .43585206V.6900482C.66600039 .697052 .6649933 .7060547 .6539917 .7060547 .6389923 .7060547 .59199526 .6269989 .58898928 .6199951Z"/>
<path id="font_0_4" d="M.0289917 .68359377V.6525879C.041992189 .6525879 .055999757 .6535797 .069992069 .6535797 .10499573 .6535797 .13598633 .6485901 .13598633 .61161807V.07493591C.13598633 .036972047 .10398865 .030975342 .070999149 .030975342 .055999757 .030975342 .040985109 .031967164 .0289917 .031967164V.0009765625H.33198548V.031967164C.31900025 .031967164 .30499269 .030975342 .2919922 .030975342 .25698854 .030975342 .22499085 .036972047 .22499085 .07493591V.61161807C.22499085 .6485901 .25898744 .6535797 .29299928 .6535797 .30599977 .6535797 .31999208 .6525879 .33198548 .6525879V.68359377H.0289917Z"/>
<path id="font_0_5" d="M.032989503 .68359377V.6525879C.04699707 .6525879 .06298828 .6535797 .07899475 .6535797 .10899353 .6535797 .13598633 .650589 .13598633 .63560488V.106918338C.13598633 .036972047 .07798767 .031967164 .032989503 .031967164V.0009765625H.2669983V.031967164C.22399903 .031967164 .16299439 .037963869 .16299439 .10491943 .16299439 .11392212 .1639862 .123916629 .1639862 .13191223V.62561038C.17999268 .60762026 .19299317 .5856323 .20599365 .5656433 .32899476 .38674928 .44898988 .20585633 .57199099 .02696228 .57899478 .016967774 .58599856 .0009765625 .59999087 .0009765625 .6100006 .0009765625 .61299136 .007965088 .61299136 .016967774V.58062747C.61299136 .64759829 .6729889 .6525879 .71598818 .6525879V.68359377H.48199464V.6525879C.5249939 .6525879 .58499148 .64759829 .58499148 .5816345V.15289307L.22299195 .6815796 .20498657 .68359377H.032989503Z"/>
<path id="font_0_34" d="M.1789856 .018630982C.18099976 .013626099 .18199158 .0076293947 .18199158 .0016174316 .18199158-.06637573 .1499939-.12438965 .10598755-.1723938 .10398865-.17538452 .101989749-.17938233 .101989749-.1823883 .101989749-.18638611 .10699463-.19238281 .11199951-.19238281 .12599182-.19238281 .15299988-.15438843 .1659851-.13238526 .18998719-.09138489 .20298767-.04437256 .20298767 .0026245118 .20298767 .04762268 .18998719 .10662842 .13798523 .10662842 .10798645 .10664368 .085998538 .08363342 .085998538 .053634645 .085998538 .019638062 .11199951 .00062561038 .13899231 .00062561038 .1539917 .00062561038 .16999817 .005630493 .1789856 .018630982M.1309967 .4296875C.10598755 .42668153 .085998538 .40367127 .085998538 .37867738 .085998538 .3536682 .10598755 .32466126 .13699341 .32466126 .1639862 .32466126 .19198609 .3456726 .19198609 .3766632 .19198609 .40264894 .17199707 .43066407 .13999939 .43066407 .13699341 .43067933 .13398743 .4296875 .1309967 .4296875Z"/>
<path id="font_1_2" d="M.9079895 .23046875C.9259949 .23046875 .94400027 .23046875 .94400027 .25045777 .94400027 .27046205 .9259949 .27046205 .9079895 .27046205H.16499329C.21998596 .31245423 .24699402 .3534546 .25498963 .36645509 .2999878 .43545533 .30799867 .49845887 .30799867 .49946595 .30799867 .51145938 .29599 .51145938 .28799439 .51145938 .2709961 .51145938 .269989 .50946047 .2659912 .49145509 .24299622 .39346314 .18399048 .31045533 .070999149 .26345826 .05999756 .25946046 .055999757 .25746156 .055999757 .25045777 .055999757 .24345398 .06098938 .24145508 .070999149 .23745728 .1749878 .19445801 .24198914 .11645508 .2669983 .0044555666 .269989-.007537842 .2709961-.010543823 .28799439-.010543823 .29599-.010543823 .30799867-.010543823 .30799867 .0014648438 .30799867 .0034637452 .29899598 .066467288 .25698854 .13345337 .23699951 .1634674 .20799256 .19845581 .16499329 .23046875H.9079895Z"/>
<path id="font_1_4" d="M.269989 .6583252C.269989 .67633059 .269989 .69433596 .25 .69433596 .22999573 .69433596 .22999573 .67633059 .22999573 .6583252V-.054855348C.20599365-.016845704 .17799378 .011169434 .15299988 .030166626 .09199524 .076187137 .0309906 .08618164 .0289917 .08618164 .016998291 .08618164 .016998291 .07518005 .016998291 .06718445 .016998291 .05117798 .017990113 .0501709 .039993287 .043167116 .10798645 .024169922 .14698792-.01184082 .16999817-.036849977 .22099304-.09185791 .23298645-.15187073 .23899842-.18287659 .23999024-.18788147 .24299622-.19288635 .25-.19288635 .25898744-.19288635 .2599945-.18588257 .2619934-.17687989 .28399659-.06385803 .35598756 .014160156 .46598817 .045166017 .48098756 .0501709 .48298646 .0501709 .48298646 .06718445 .48298646 .07518005 .48298646 .08618164 .47099305 .08618164 .46798707 .08618164 .40899659 .07518005 .35198976 .03416443 .31900025 .009170532 .2919922-.020843506 .269989-.054855348V.6583252Z"/>
<path id="font_0_6" d="M.37098695 .7060547C.28199769 .69303897 .20698548 .6640167 .147995 .5939636 .08699036 .52290347 .054992677 .4308319 .054992677 .33876039 .054992677 .16662598 .17799378-.021484375 .3899994-.021484375 .58599856-.021484375 .7220001 .15762329 .7220001 .34176637 .7220001 .52490237 .58699038 .70703127 .38598634 .70703127 .3809967 .7070465 .37599183 .7060547 .37098695 .7060547M.1579895 .3277588V.34477235C.1579895 .45985414 .18199158 .59095767 .29699708 .6569977 .32499696 .6720123 .35598756 .6810303 .3880005 .6810303 .47299195 .6810303 .54499819 .6209717 .58399966 .5409241 .61099246 .48587037 .61898806 .41682435 .61898806 .3587799 .61898806 .22668457 .58799746 .061553956 .43399049 .010513306 .41999818 .006515503 .40499879 .004501343 .3909912 .004501343 .24598694 .004501343 .1769867 .15362549 .1619873 .27471925 .1599884 .2927246 .1599884 .30973817 .1579895 .3277588Z"/>
<path id="font_0_28" d="M.31698609 .75C.30299378 .74497988 .2849884 .72499087 .272995 .7129822 .1499939 .5899811 .099990848 .4199829 .099990848 .25097657 .099990848 .06997681 .15899658-.123031619 .30599977-.24102783 .31098939-.24403382 .31698609-.24902344 .32299806-.24902344 .32899476-.24902344 .33198548-.24302674 .33198548-.23902893 .33198548-.22802735 .30499269-.20703125 .2939911-.19403076 .19099427-.07102966 .15899658 .0929718 .15899658 .24998474 .15899658 .41497804 .19198609 .5959778 .31599427 .71998599 .32199098 .72598269 .33198548 .73298647 .33198548 .74098208 .33198548 .7469635 .32699586 .75097659 .32099916 .75097659 .31999208 .7509918 .31799317 .75 .31698609 .75Z"/>
<path id="font_0_29" d="M.06199646 .7499695C.057998659 .7479706 .055999757 .7449646 .055999757 .7419739 .055999757 .7299652 .07899475 .7129669 .08999634 .7009735 .19699097 .57696536 .22898865 .40797425 .22898865 .24996948 .22898865 .088974 .19599915-.09402466 .07598877-.21403504 .068984989-.22102356 .055999757-.23103333 .055999757-.23902893 .055999757-.24403382 .06098938-.24902344 .066986087-.24902344H.067993167C.07998657-.24702454 .099990848-.22602844 .11199951-.21403504 .23799134-.088027957 .28799439 .081970218 .28799439 .25196839 .28799439 .43597413 .22799683 .6189728 .08198547 .7429657 .07699585 .7459717 .07199097 .75097659 .06599426 .75097659 .06498718 .75097659 .06399536 .75097659 .06199646 .7499695Z"/>
<path id="font_0_10" d="M.017990113 .68359377V.6525879H.038986207C.101989749 .6525879 .10598755 .62358096 .116989139 .58558657 .17999268 .39656068 .23999024 .20753479 .3019867 .01751709 .30699159 .0035095216 .30999757-.021484375 .32899476-.021484375H.33099366C.34899903-.018493653 .35198976 .013519287 .35598756 .021514893 .4059906 .17453003 .45399476 .32855226 .5049896 .48057557 .5079956 .489563 .5109863 .49757386 .5130005 .50657656H.5139923C.5189972 .48257447 .5299988 .4595642 .5359955 .4365692 .58099368 .29855348 .625 .15953064 .67099 .021514893L.6799927-.005493164C.68299868-.012496948 .68699648-.019485474 .69499209-.021484375H.69799807C.71598818-.021484375 .71899417 .0025177003 .723999 .01651001 .7869873 .20153809 .84399417 .38856507 .9059906 .5735779 .91799929 .61457827 .93899539 .6525879 1.0089874 .6525879V.68359377H.798996V.6525879C.83399966 .6525879 .8829956 .6395874 .8860016 .60058596 .8860016 .59458926 .8839874 .58758547 .8819885 .5815735L.8730011 .5565796C.85598757 .49957276 .83699038 .44355775 .81799319 .3865509L.7579956 .20153809C.7489929 .17353821 .7389984 .14653015 .73098757 .11853027 .71699526 .15252686 .70700076 .1905365 .69599917 .22554016 .6559906 .34555055 .61898806 .466568 .5779877 .58657839 .57499697 .59757998 .56799319 .61058047 .56799319 .6225891 .56799319 .6525879 .6239929 .6525879 .6519928 .6525879V.68359377H.3880005V.6525879H.4149933C.45999146 .6525879 .46899415 .6425934 .49198915 .5735779 .49398805 .5665741 .49899293 .5565796 .49899293 .5475769V.545578C.49899293 .5325775 .4889984 .5135803 .4850006 .49957276 .45199586 .40756227 .4229889 .31355287 .3929901 .21853638 .3829956 .18553162 .36999513 .15252686 .36099244 .11853027H.3600006C.35798646 .13052368 .35299684 .14152527 .34899903 .15353394L.24099732 .48657228C.22599793 .5285797 .21499634 .5695801 .19999695 .61058047 .19898987 .61457827 .19799805 .61958315 .19799805 .62358096V.6265869C.20498657 .6525879 .25299073 .6525879 .28199769 .6525879V.68359377H.017990113Z"/>
<path id="font_0_20" d="M.010986328 .24511719V.18611145H.2769928V.24511719H.010986328Z"/>
<path id="font_0_7" d="M.033996583 .68359377V.6525879C.04699707 .6525879 .05999756 .6535797 .07199097 .6535797 .10798645 .6535797 .13699341 .6485901 .13699341 .6085663V.07450867C.13699341 .036514284 .10398865 .03050232 .069992069 .03050232 .056991579 .03050232 .04499817 .0315094 .033996583 .0315094V.00050354006H.32598878V.0315094H.2919922C.25 .0315094 .22299195 .0335083 .22299195 .07551575V.33151246H.33699037C.40299989 .33151246 .46299745 .2935028 .46998597 .21650696V.1335144C.46998597 .06550598 .49899293-.021484375 .6349945-.021484375 .6819916-.021484375 .723999 .009506226 .7319946 .08250427V.087509158C.7319946 .09550476 .72898867 .10551453 .7200012 .10551453 .70199587 .10551453 .7049866 .053512575 .68899539 .028503418 .6769867 .012512207 .6589966 .00050354006 .6399994 .00050354006 .59098818 .00050354006 .58299258 .06651306 .57598879 .10551453L.56399539 .1835022C.5529938 .25350953 .5299988 .30751039 .43499757 .34051515 .45399476 .34750367 .47399903 .35150147 .49299623 .35951234 .548996 .38452149 .60398867 .4295349 .6100006 .49453736V.5025482C.6100006 .61756899 .47399903 .6755829 .37998963 .68258669 .36299134 .68359377 .34700013 .68359377 .32998658 .68359377H.033996583M.22299195 .35351563V.61557009C.22299195 .6415863 .23298645 .650589 .2579956 .6525879H.33099366C.4119873 .6525879 .5069885 .63157656 .5069885 .50354006 .5069885 .3645172 .39698792 .35351563 .30899049 .35351563H.22299195Z"/>
<path id="font_0_39" d="M.052993776 .43066407 .041992189 .2697754H.066986087C.068984989 .30473329 .070999149 .34570313 .09298706 .37368775 .116989139 .4056549 .1639862 .4086609 .20399475 .4086609H.31498719C.22099304 .28775025 .1309967 .15986634 .038986207 .036956788 .033996583 .030960083 .027999878 .021972657 .027999878 .013961792 .027999878 .003967285 .034988405 .0009765625 .04499817 .0009765625H.38398744L.40098573 .1878357H.37599183C.36898805 .119888309 .3639984 .037963869 .2679901 .02796936 .24499512 .025970459 .22299195 .025970459 .19999695 .025970459H.11299133C.18598938 .12588501 .2599945 .22579956 .33399964 .3247223 .35598756 .35369874 .39898683 .4016571 .39898683 .4186554 .39898683 .42765809 .3909912 .43066407 .3829956 .43066407H.052993776Z"/>
<path id="font_0_9" d="M.018997193 .68359377V.6525879H.041992189C.06498718 .6525879 .08898926 .65159609 .102996829 .6385956 .114990238 .6265869 .11898804 .6075897 .125 .59158328 .18399048 .4475708 .23599243 .2995453 .29100038 .15452576L.35099793-.0034942628C.35598756-.015487671 .36099244-.021484375 .375-.021484375 .3880005-.021484375 .3929901-.015487671 .397995-.0034942628L.4059906 .018508912C.47698976 .2025299 .5469971 .38755799 .6159973 .57058718 .6319885 .61257937 .6519928 .6525879 .7299957 .6525879V.68359377H.5189972V.6525879C.548996 .6525879 .59199526 .6385956 .59199526 .60258486V.60058596C.59098818 .5925751 .58699038 .58457949 .58499148 .5775757L.57199099 .5435791C.5569916 .50556948 .54299929 .466568 .5279999 .42855836L.44400025 .20654297C.43099977 .17152405 .4189911 .13552857 .4039917 .10151672 .3880005 .13853455 .375 .17753601 .36099244 .2155304 .31098939 .34655763 .2599945 .47756959 .21099854 .6095886 .20899964 .6135864 .20799256 .6185913 .20799256 .62358096V.6265869C.21299744 .6525879 .2599945 .6525879 .2889862 .6525879V.68359377H.018997193Z"/>
<path id="font_2_5" d="M.039993287 .43093873V.39993287H.055999757C.08799744 .39993287 .11299133 .39494325 .11299133 .34994508V.07296753C.11299133 .032974245 .085998538 .031967164 .035995485 .031967164V.0009765625H.25299073V.031967164H.23699951C.20999146 .031967164 .18399048 .034973146 .18399048 .066970828V.4419403L.039993287 .43093873M.12599182 .6699219C.099990848 .6659088 .07899475 .6449127 .07899475 .61691287 .07899475 .58792117 .102996829 .56391909 .1329956 .56391909H.13999939C.1659851 .56791689 .18699646 .58891299 .18699646 .61691287 .18699646 .6459198 .16299439 .6699219 .1329956 .6699219H.12599182Z"/>
<path id="font_2_7" d="M.034988405 .43138124V.4003601H.050994874C.08099365 .4003601 .11199951 .39735414 .11199951 .35029603V.07394409C.11199951 .03289795 .085998538 .031906129 .034988405 .031906129V.0009765625L.10598755 .00390625H.2630005V.031906129H.23999024C.21099854 .031906129 .18598938 .03590393 .18598938 .07295227V.27420045C.19198609 .34529115 .23999024 .41737367 .32598878 .41737367 .3899994 .41737367 .39698792 .35229493 .39698792 .30523683V.06994629C.39698792 .03390503 .36799623 .031906129 .33499146 .031906129H.31999208V.0009765625L.3909912 .00390625H.5479889V.031906129H.5249939C.49598695 .031906129 .47099305 .03590393 .47099305 .07295227V.27420045C.47698976 .34529115 .5249939 .41737367 .61099246 .41737367 .6749878 .41737367 .6819916 .35229493 .6819916 .30523683V.06994629C.6819916 .03390503 .6529999 .031906129 .6199951 .031906129H.6049957V.0009765625H.83299258V.031906129H.81399539C.7849884 .031906129 .7559967 .03489685 .7559967 .07095337V.29722596C.7559967 .3272705 .7549896 .3572998 .73999026 .38433839 .71398928 .43138124 .6619873 .4423828 .61299136 .4423828 .5529938 .4423828 .4889984 .402359 .46798707 .34729005H.46699525C.45799256 .41638185 .3929901 .4423828 .33299256 .4423828 .2679901 .4423828 .20498657 .4063568 .18099976 .34327699L.17999268 .4423828 .034988405 .43138124Z"/>
<path id="font_2_10" d="M.02999878 .43138124V.40037538H.04899597C.07899475 .40037538 .10699463 .39736939 .10699463 .35736085V-.1212616C.10699463-.16242981 .07699585-.16242981 .02999878-.16242981V-.19335938L.100997928-.19042969H.2579956V-.16242981H.23298645C.20599365-.16242981 .18099976-.15841675 .18099976-.12226868V.049240114C.21499634 .01322937 .25498963-.009765625 .30699159-.009765625 .42599488-.009765625 .5359955 .087249759 .5359955 .2163086 .5359955 .33033753 .44799806 .4423828 .31999208 .4423828 .2639923 .4423828 .21499634 .41838075 .17799378 .379364V.4423828L.02999878 .43138124M.44799806 .20129395C.44400025 .12226868 .397995 .0152282719 .2979889 .0152282719 .24598694 .0152282719 .18099976 .0662384 .18099976 .11026001V.2743225C.18099976 .287323 .17999268 .29933167 .17999268 .31233216 .17999268 .36836244 .2519989 .41436769 .30999757 .41436769 .4039917 .41436769 .44898988 .29733277 .44898988 .2203064 .44898988 .21429444 .44898988 .20730591 .44799806 .20129395Z"/>
<path id="font_2_11" d="M.02999878 .43138124V.4003601H.04598999C.07598877 .4003601 .10699463 .39735414 .10699463 .35029603V.07394409C.10699463 .03289795 .08099365 .031906129 .02999878 .031906129V.0009765625L.099990848 .00390625H.27398683V.031906129H.23999024C.20599365 .031906129 .17799378 .03590393 .17799378 .07394409V.24215698C.18499756 .31124879 .20399475 .41737367 .30499269 .41737367V.41638185C.29100038 .4093628 .2849884 .39434815 .2849884 .3793335 .2849884 .35229493 .30599977 .33528138 .32998658 .33528138 .35499574 .33528138 .37298585 .35629273 .37298585 .38032533 .37298585 .42137147 .33198548 .4423828 .29699708 .4423828 .23599243 .4423828 .18699646 .39134217 .17298889 .33528138L.17199707 .4423828 .02999878 .43138124Z"/>
<path id="font_2_9" d="M.24198914 .4482422C.12599182 .43623353 .02999878 .34223939 .02999878 .2142334 .02999878 .11122131 .10699463-.009765625 .25698854-.009765625 .37399293-.009765625 .48399354 .083221439 .48399354 .21322632 .48399354 .33221437 .3909912 .44921876 .2559967 .44921876 .25099183 .449234 .24699402 .4482422 .24198914 .4482422M.115997318 .19122315V.23423767C.115997318 .31321717 .14099121 .42321778 .25698854 .42321778 .33699037 .42321778 .38598634 .36021424 .394989 .28121949 .39698792 .2602234 .39698792 .23921204 .39698792 .21821594 .39698792 .16522217 .3939972 .10722351 .35798646 .06523132 .33299256 .034225465 .2939911 .018234253 .2559967 .018234253 .18299866 .018234253 .13198853 .07322693 .11898804 .1532135 .117996219 .16621399 .117996219 .17822266 .115997318 .19122315Z"/>
<path id="font_2_15" d="M.019989014 .43066407V.3996582H.034988405C.085998538 .3996582 .08898926 .38467408 .12399292 .30578614 .1659851 .21092224 .20199585 .11206055 .24398804 .017196656 .24899292 .004211426 .2539978-.009765625 .2709961-.009765625 .29499818-.009765625 .31599427 .060134889 .33099366 .098083499 .3600006 .16897583 .3899994 .23887635 .4189911 .30978395 .42599488 .32676698 .43199159 .34373475 .44198609 .35871888 .46099855 .38568116 .4889984 .3996582 .5209961 .3996582V.43066407L.47200013 .42765809H.35798646V.3996582C.3809967 .39866639 .4019928 .38467408 .40299989 .3597107V.35472108C.40299989 .3297577 .3809967 .29180909 .36898805 .2648468 .34399415 .20492554 .31599427 .14501953 .2939911 .083099368 .2829895 .10606384 .27398683 .1300354 .2649994 .15299988L.20498657 .2967987C.19699097 .31477357 .18998719 .3327484 .18199158 .35072328 .17999268 .3577118 .1749878 .36470033 .1749878 .37269593 .1749878 .39866639 .20899964 .3996582 .22999573 .3996582V.43066407H.019989014Z"/>
<path id="font_2_4" d="M.114990238 .23046875H.41099549C.4229889 .23046875 .42799378 .23646546 .42799378 .24746704 .42799378 .3722992 .35099793 .4482422 .24499512 .4482422 .12298584 .4482422 .027999878 .3423462 .027999878 .22044373 .027999878 .09732056 .125-.009765625 .2619934-.009765625 .33299256-.009765625 .40499879 .040252687 .4249878 .10932922 .42599488 .112335208 .4269867 .11633301 .4269867 .12034607 .4269867 .12734986 .42199708 .13334656 .4139862 .13334656 .3959961 .13334656 .394989 .10331726 .3849945 .08930969 .36099244 .04725647 .31199647 .018234253 .2630005 .018234253H.2559967C.20399475 .020233155 .1579895 .055267335 .13598633 .10232544 .116989139 .1423645 .114990238 .18740845 .114990238 .23046875M.115997318 .25445558C.116989139 .32037355 .14498902 .39726258 .21699524 .4202423 .22499085 .4222412 .23298645 .42323304 .24099732 .42323304 .32699586 .42323304 .35899354 .3343506 .35899354 .25445558H.115997318Z"/>
<path id="font_2_3" d="M.31498719 .6843109V.6533203H.32598878C.3659973 .6533203 .3919983 .6513214 .3919983 .59233096V.38336183C.35899354 .42237855 .31199647 .4423828 .2619934 .4423828 .13798523 .4423828 .033996583 .3383484 .033996583 .21530152 .033996583 .101257327 .1269989-.009765625 .2519989-.009765625 .29899598-.009765625 .36299134 .01322937 .3880005 .054244996L.3889923-.009765625 .5399933 .0012207031V.032226564H.5249939C.49198915 .032226564 .46299745 .035232545 .46299745 .08224487V.6953125L.31498719 .6843109M.12098694 .19329834V.20730591C.12098694 .28833009 .14099121 .41638185 .2669983 .41638185 .31799317 .41638185 .3899994 .37835694 .3899994 .3163452 .3899994 .30332948 .3889923 .29133607 .3889923 .2783203V.11425781C.3889923 .101257327 .38398744 .09225464 .3769989 .08224487 .34999085 .04324341 .30499269 .0152282719 .2579956 .0152282719 .21899414 .0152282719 .18299866 .035232545 .15899658 .0662384 .12998963 .103256229 .12599182 .14826966 .12098694 .19329834Z"/>
<path id="font_2_2" d="M.36299134 .39424134C.34098817 .38623048 .32299806 .37423707 .32299806 .347229 .32299806 .32322694 .33999635 .301239 .36898805 .301239 .394989 .301239 .41600038 .3202362 .41600038 .350235 .41600038 .42123414 .33099366 .44622804 .269989 .4482422H.2599945C.14399719 .4482422 .033996583 .3542328 .033996583 .2182312 .033996583 .096221927 .12998963-.009765625 .2579956-.009765625 .32798768-.009765625 .3919983 .02722168 .41999818 .098236087 .42199708 .10423279 .4269867 .11323547 .4269867 .120224 .4269867 .12823487 .41999818 .13223267 .41299439 .13223267 .3959961 .13223267 .394989 .10623169 .3869934 .09222412 .36299134 .047225954 .31900025 .018234253 .2639923 .018234253 .15499878 .018234253 .12098694 .14323426 .12098694 .2202301 .12098694 .30223084 .14898682 .42022706 .2619934 .42022706 .2889862 .42022706 .31799317 .41622926 .34298707 .40522767 .34999085 .40223695 .35598756 .39723207 .36299134 .39422608V.39424134Z"/>
<path id="font_2_1" d="M.12199402 .38822938C.14898682 .41323854 .18998719 .42323304 .22599793 .42323304 .2619934 .42323304 .29299928 .40423585 .31298829 .37423707 .33198548 .34623719 .33299256 .31523133 .33299256 .28323365V.26522828C.25099183 .2562256 .16899109 .2562256 .099990848 .20422364 .066986087 .17922974 .040985109 .14022827 .040985109 .099227908 .040985109 .018234253 .13899231-.009765625 .20498657-.009765625 .2669983-.009765625 .31298829 .021224976 .34199525 .07322693 .34999085 .032226564 .37399293-.004776001 .41999818-.004776001 .47999574-.004776001 .5069885 .04623413 .5069885 .10122681V.14622498H.47898866V.096221927C.47898866 .068222049 .47299195 .030227662 .44198609 .030227662 .40899659 .030227662 .40699769 .07423401 .40699769 .096221927V.29122926C.40699769 .39624024 .31698609 .4482422 .22799683 .4482422 .1659851 .4482422 .07299805 .42222596 .07299805 .3432312 .07299805 .3162384 .08898926 .29522706 .125 .29522706 .1499939 .29623414 .1659851 .31922914 .1659851 .34223939 .1659851 .36923219 .14498902 .38323976 .12199402 .38822938M.33299256 .24124146V.14222718C.33299256 .07423401 .28399659 .0152282719 .21499634 .0152282719H.20698548C.1599884 .020233155 .12399292 .055221559 .12399292 .100234989 .12399292 .1952362 .23799134 .24124146 .33299256 .24124146Z"/>
<path id="font_2_14" d="M.034988405 .430542V.39953614H.04399109C.070999149 .39953614 .10998535 .39753724 .10998535 .3685913 .11199951 .35762025 .11199951 .34762574 .11199951 .33665467V.13700867C.11199951 .107055667 .11299133 .07810974 .12799073 .05116272 .1559906 .0012207031 .21699524-.009765625 .269989-.009765625 .32598878-.009765625 .3789978 .023208619 .397995 .07511902L.39898683-.009765625 .5469971 .0012207031V.032196046H.5299988C.5 .032196046 .46998597 .035186769 .46998597 .08010864V.4423828L.31900025 .43136598V.39953614H.33299256C.3639984 .39953614 .3959961 .3965454 .3959961 .3506317V.15298462C.3899994 .08808899 .35099793 .0152282719 .272995 .0152282719 .23298645 .0152282719 .19699097 .02520752 .18798828 .07711792 .18598938 .096084598 .18598938 .11404419 .18598938 .13301087V.4423828L.034988405 .430542Z"/>
<path id="font_2_12" d="M.09098816 .034225465C.12298584 .0022277833 .1639862-.009765625 .20698548-.009765625 .2889862-.009765625 .36999513 .032226564 .36999513 .12922669V.14022827C.3659973 .19622803 .32199098 .2392273 .27198792 .2582245 .24699402 .26722718 .21899414 .27122499 .19299317 .27622987 .15098572 .28422547 .084991458 .29623414 .084991458 .3542328 .084991458 .41223146 .1579895 .426239 .20098877 .426239 .2639923 .426239 .30999757 .38923646 .31599427 .3182373 .31599427 .31022645 .31698609 .30023194 .32899476 .30023194 .33599855 .30023194 .34298707 .30422975 .34399415 .31123353V.43223573C.34399415 .4392395 .34098817 .4482422 .33198548 .4482422 .31698609 .4482422 .30599977 .42323304 .2939911 .42323304H.2919922C.2849884 .42523194 .27799989 .43122865 .27198792 .43423463 .25099183 .44422914 .22499085 .4482422 .20098877 .4482422 .12998963 .4482422 .033996583 .42523194 .033996583 .32322694 .033996583 .222229 .15098572 .20523072 .22299195 .19122315 .2669983 .18322754 .31498719 .15722656 .31900025 .10823059 .31900025 .036224367 .25898744 .0152282719 .20599365 .0152282719H.19599915C.12298584 .019226075 .08299255 .07423401 .06599426 .14323426 .06298828 .15423584 .06298828 .17022705 .04798889 .17022705 .036987306 .17022705 .033996583 .16223145 .033996583 .15322876V.024230957C.033996583 .020233155 .032989503 .0152282719 .032989503 .010223389 .032989503 .00022888184 .034988405-.009765625 .04598999-.009765625 .054992677-.009765625 .06298828 .0022277833 .068984989 .008224487L.07398987 .014221191C.07998657 .021224976 .085998538 .02722168 .09098816 .034225465Z"/>
<path id="font_2_6" d="M.035995485 .68429568V.6532898H.04798889C.083999637 .6532898 .11299133 .6512909 .11299133 .6012573V.09700012C.11299133 .08999634 .11399841 .08299255 .11399841 .07499695 .11399841 .032974245 .084991458 .031967164 .041992189 .031967164H.035995485V.0009765625H.26098634V.031967164H.23599243C.20899964 .031967164 .18399048 .035964967 .18399048 .07098389V.6953125L.035995485 .68429568Z"/>
<path id="font_2_13" d="M.1519928 .6152344C.1519928 .54244998 .117996219 .4248047 .018997193 .4248047V.39979554L.10598755 .3996582V.1360321C.10598755 .10507202 .10798645 .07510376 .12399292 .04814148 .147995 .006210327 .19799805-.009765625 .24398804-.009765625H.25299073C.32899476 .0032043458 .34199525 .08609009 .34199525 .14501953V.18196106H.31399537C.31399537 .16798401 .31498719 .15299988 .31498719 .13801575 .31498719 .09408569 .30499269 .018188477 .24598694 .018188477 .19198609 .018188477 .17999268 .081100467 .17999268 .1300354V.3996582H.32499696V.43066407H.17999268V.6152344H.1519928Z"/>
<path id="font_2_8" d="M.034988405 .43138124V.4003601H.050994874C.08099365 .4003601 .11199951 .39735414 .11199951 .35029603V.07394409C.11199951 .03289795 .085998538 .031906129 .034988405 .031906129V.0009765625L.10598755 .00390625H.2630005V.031906129H.23999024C.21099854 .031906129 .18598938 .03590393 .18598938 .07295227V.25317384C.18598938 .33026124 .23098755 .41737367 .32598878 .41737367 .37998963 .41737367 .3959961 .36730958 .3959961 .30523683V.06994629C.3959961 .03390503 .36698915 .031906129 .33399964 .031906129H.31900025V.0009765625L.3899994 .00390625H.5469971V.031906129H.5279999C.49899293 .031906129 .46998597 .03489685 .46998597 .07095337V.29722596C.46998597 .3272705 .46899415 .35629273 .45399476 .3833313 .42900086 .43037416 .3769989 .4423828 .32798768 .4423828 .2659912 .4423828 .20298767 .40135194 .18099976 .34327699L.17999268 .4423828 .034988405 .43138124Z"/>
</defs>
<use data-text="T" xlink:href="#font_0_8" transform="matrix(9.763348,0,0,-9.9626,15.91,11.357002)"/>
<use data-text="a" xlink:href="#font_0_11" transform="matrix(9.763348,0,0,-9.9626,22.129252,11.357002)"/>
<use data-text="b" xlink:href="#font_0_12" transform="matrix(9.763348,0,0,-9.9626,27.010926,11.357002)"/>
<use data-text="l" xlink:href="#font_0_22" transform="matrix(9.763348,0,0,-9.9626,32.429586,11.357002)"/>
<use data-text="e" xlink:href="#font_0_17" transform="matrix(9.763348,0,0,-9.9626,35.143796,11.357002)"/>
<use data-text="1" xlink:href="#font_0_26" transform="matrix(9.763348,0,0,-9.9626,42.671339,11.357002)"/>
<use data-text=":" xlink:href="#font_0_14" transform="matrix(9.763348,0,0,-9.9626,47.55301,11.357002)"/>
<use data-text="A" xlink:href="#font_0_1" transform="matrix(9.763348,0,0,-9.9626,54.631437,11.357002)"/>
<use data-text="p" xlink:href="#font_0_27" transform="matrix(9.763348,0,0,-9.9626,65.14656,11.357002)"/>
<use data-text="i" xlink:href="#font_0_21" transform="matrix(9.763348,0,0,-9.9626,70.565219,11.357002)"/>
<use data-text="c" xlink:href="#font_0_13" transform="matrix(9.763348,0,0,-9.9626,73.27943,11.357002)"/>
<use data-text="t" xlink:href="#font_0_35" transform="matrix(9.763348,0,0,-9.9626,77.61436,11.357002)"/>
<use data-text="u" xlink:href="#font_0_36" transform="matrix(9.763348,0,0,-9.9626,81.4123,11.357002)"/>
<use data-text="r" xlink:href="#font_0_32" transform="matrix(9.763348,0,0,-9.9626,86.830959,11.357002)"/>
<use data-text="e" xlink:href="#font_0_17" transform="matrix(9.763348,0,0,-9.9626,90.65819,11.357002)"/>
<use data-text="s" xlink:href="#font_0_33" transform="matrix(9.763348,0,0,-9.9626,98.18573,11.357002)"/>
<use data-text="u" xlink:href="#font_0_36" transform="matrix(9.763348,0,0,-9.9626,102.032489,11.357002)"/>
<use data-text="m" xlink:href="#font_0_23" transform="matrix(9.763348,0,0,-9.9626,107.45114,11.357002)"/>
<use data-text="m" xlink:href="#font_0_23" transform="matrix(9.763348,0,0,-9.9626,115.584018,11.357002)"/>
<use data-text="a" xlink:href="#font_0_11" transform="matrix(9.763348,0,0,-9.9626,123.726657,11.357002)"/>
<use data-text="r" xlink:href="#font_0_32" transform="matrix(9.763348,0,0,-9.9626,128.59856,11.357002)"/>
<use data-text="y" xlink:href="#font_0_38" transform="matrix(9.763348,0,0,-9.9626,132.4258,11.357002)"/>
<use data-text="o" xlink:href="#font_0_25" transform="matrix(9.763348,0,0,-9.9626,140.78322,11.357002)"/>
<use data-text="f" xlink:href="#font_0_18" transform="matrix(9.763348,0,0,-9.9626,145.65512,11.357002)"/>
<use data-text="o" xlink:href="#font_0_25" transform="matrix(9.763348,0,0,-9.9626,151.84508,11.357002)"/>
<use data-text="u" xlink:href="#font_0_36" transform="matrix(9.763348,0,0,-9.9626,156.72675,11.357002)"/>
<use data-text="r" xlink:href="#font_0_32" transform="matrix(9.763348,0,0,-9.9626,162.1454,11.357002)"/>
<use data-text="c" xlink:href="#font_0_13" transform="matrix(9.763348,0,0,-9.9626,169.16526,11.357002)"/>
<use data-text="o" xlink:href="#font_0_25" transform="matrix(9.763348,0,0,-9.9626,173.50019,11.357002)"/>
<use data-text="n" xlink:href="#font_0_24" transform="matrix(9.763348,0,0,-9.9626,178.38185,11.357002)"/>
<use data-text="t" xlink:href="#font_0_35" transform="matrix(9.763348,0,0,-9.9626,183.51737,11.357002)"/>
<use data-text="r" xlink:href="#font_0_32" transform="matrix(9.763348,0,0,-9.9626,187.3153,11.357002)"/>
<use data-text="i" xlink:href="#font_0_21" transform="matrix(9.763348,0,0,-9.9626,191.14255,11.357002)"/>
<use data-text="b" xlink:href="#font_0_12" transform="matrix(9.763348,0,0,-9.9626,193.85677,11.357002)"/>
<use data-text="u" xlink:href="#font_0_36" transform="matrix(9.763348,0,0,-9.9626,199.27542,11.357002)"/>
<use data-text="t" xlink:href="#font_0_35" transform="matrix(9.763348,0,0,-9.9626,204.69408,11.357002)"/>
<use data-text="i" xlink:href="#font_0_21" transform="matrix(9.763348,0,0,-9.9626,208.49202,11.357002)"/>
<use data-text="o" xlink:href="#font_0_25" transform="matrix(9.763348,0,0,-9.9626,211.20624,11.357002)"/>
<use data-text="n" xlink:href="#font_0_24" transform="matrix(9.763348,0,0,-9.9626,216.0879,11.357002)"/>
<use data-text="s" xlink:href="#font_0_33" transform="matrix(9.763348,0,0,-9.9626,221.50656,11.357002)"/>
<use data-text="." xlink:href="#font_0_30" transform="matrix(9.763348,0,0,-9.9626,225.35332,11.357002)"/>
<use data-text="&#x2212;" xlink:href="#font_1_1" transform="matrix(9.9626,0,0,-9.9626,232.455,11.357002)"/>
<use data-text="&#x2192;" xlink:href="#font_1_3" transform="matrix(9.9626,0,0,-9.9626,238.54215,11.357002)"/>
<use data-text="r" xlink:href="#font_0_32" transform="matrix(9.763348,0,0,-9.9626,251.699,11.357002)"/>
<use data-text="e" xlink:href="#font_0_17" transform="matrix(9.763348,0,0,-9.9626,255.52625,11.357002)"/>
<use data-text="p" xlink:href="#font_0_27" transform="matrix(9.763348,0,0,-9.9626,259.86119,11.357002)"/>
<use data-text="r" xlink:href="#font_0_32" transform="matrix(9.763348,0,0,-9.9626,265.27986,11.357002)"/>
<use data-text="e" xlink:href="#font_0_17" transform="matrix(9.763348,0,0,-9.9626,269.1071,11.357002)"/>
<use data-text="s" xlink:href="#font_0_33" transform="matrix(9.763348,0,0,-9.9626,273.44203,11.357002)"/>
<use data-text="e" xlink:href="#font_0_17" transform="matrix(9.763348,0,0,-9.9626,277.2888,11.357002)"/>
<use data-text="n" xlink:href="#font_0_24" transform="matrix(9.763348,0,0,-9.9626,281.62373,11.357002)"/>
<use data-text="t" xlink:href="#font_0_35" transform="matrix(9.763348,0,0,-9.9626,286.769,11.357002)"/>
<use data-text="s" xlink:href="#font_0_33" transform="matrix(9.763348,0,0,-9.9626,290.56697,11.357002)"/>
<use data-text="c" xlink:href="#font_0_13" transform="matrix(9.763348,0,0,-9.9626,297.60636,11.357002)"/>
<use data-text="o" xlink:href="#font_0_25" transform="matrix(9.763348,0,0,-9.9626,301.94129,11.357002)"/>
<use data-text="m" xlink:href="#font_0_23" transform="matrix(9.763348,0,0,-9.9626,306.82298,11.357002)"/>
<use data-text="p" xlink:href="#font_0_27" transform="matrix(9.763348,0,0,-9.9626,314.95585,11.357002)"/>
<use data-text="o" xlink:href="#font_0_25" transform="matrix(9.763348,0,0,-9.9626,320.6479,11.357002)"/>
<use data-text="s" xlink:href="#font_0_33" transform="matrix(9.763348,0,0,-9.9626,325.52958,11.357002)"/>
<use data-text="i" xlink:href="#font_0_21" transform="matrix(9.763348,0,0,-9.9626,329.37635,11.357002)"/>
<use data-text="t" xlink:href="#font_0_35" transform="matrix(9.763348,0,0,-9.9626,332.09056,11.357002)"/>
<use data-text="i" xlink:href="#font_0_21" transform="matrix(9.763348,0,0,-9.9626,335.8885,11.357002)"/>
<use data-text="o" xlink:href="#font_0_25" transform="matrix(9.763348,0,0,-9.9626,338.6027,11.357002)"/>
<use data-text="n" xlink:href="#font_0_24" transform="matrix(9.763348,0,0,-9.9626,343.48439,11.357002)"/>
<use data-text="o" xlink:href="#font_0_25" transform="matrix(9.763348,0,0,-9.9626,352.10545,11.357002)"/>
<use data-text="f" xlink:href="#font_0_18" transform="matrix(9.763348,0,0,-9.9626,356.97737,11.357002)"/>
<use data-text="o" xlink:href="#font_0_25" transform="matrix(9.9626,0,0,-9.9626,16.269,23.312005)"/>
<use data-text="p" xlink:href="#font_0_27" transform="matrix(9.9626,0,0,-9.9626,21.2503,23.312005)"/>
<use data-text="e" xlink:href="#font_0_17" transform="matrix(9.9626,0,0,-9.9626,27.058497,23.312005)"/>
<use data-text="r" xlink:href="#font_0_32" transform="matrix(9.9626,0,0,-9.9626,31.481892,23.312005)"/>
<use data-text="a" xlink:href="#font_0_11" transform="matrix(9.9626,0,0,-9.9626,35.38723,23.312005)"/>
<use data-text="t" xlink:href="#font_0_35" transform="matrix(9.9626,0,0,-9.9626,40.36853,23.312005)"/>
<use data-text="i" xlink:href="#font_0_21" transform="matrix(9.9626,0,0,-9.9626,44.24398,23.312005)"/>
<use data-text="o" xlink:href="#font_0_25" transform="matrix(9.9626,0,0,-9.9626,47.013586,23.312005)"/>
<use data-text="n" xlink:href="#font_0_24" transform="matrix(9.9626,0,0,-9.9626,51.994886,23.312005)"/>
<use data-text="s" xlink:href="#font_0_33" transform="matrix(9.9626,0,0,-9.9626,57.524129,23.312005)"/>
<use data-text="o" xlink:href="#font_0_25" transform="matrix(9.9626,0,0,-9.9626,64.76694,23.312005)"/>
<use data-text="r" xlink:href="#font_0_32" transform="matrix(9.9626,0,0,-9.9626,69.74824,23.312005)"/>
<use data-text="t" xlink:href="#font_0_35" transform="matrix(9.9626,0,0,-9.9626,76.97112,23.312005)"/>
<use data-text="r" xlink:href="#font_0_32" transform="matrix(9.9626,0,0,-9.9626,80.84657,23.312005)"/>
<use data-text="a" xlink:href="#font_0_11" transform="matrix(9.9626,0,0,-9.9626,84.751918,23.312005)"/>
<use data-text="n" xlink:href="#font_0_24" transform="matrix(9.9626,0,0,-9.9626,89.733219,23.312005)"/>
<use data-text="s" xlink:href="#font_0_33" transform="matrix(9.9626,0,0,-9.9626,95.26246,23.312005)"/>
<use data-text="f" xlink:href="#font_0_18" transform="matrix(9.9626,0,0,-9.9626,99.18772,23.312005)"/>
<use data-text="o" xlink:href="#font_0_25" transform="matrix(9.9626,0,0,-9.9626,102.236278,23.312005)"/>
<use data-text="r" xlink:href="#font_0_32" transform="matrix(9.9626,0,0,-9.9626,107.217578,23.312005)"/>
<use data-text="m" xlink:href="#font_0_23" transform="matrix(9.9626,0,0,-9.9626,111.12292,23.312005)"/>
<use data-text="a" xlink:href="#font_0_11" transform="matrix(9.9626,0,0,-9.9626,119.42176,23.312005)"/>
<use data-text="t" xlink:href="#font_0_35" transform="matrix(9.9626,0,0,-9.9626,124.40306,23.312005)"/>
<use data-text="i" xlink:href="#font_0_21" transform="matrix(9.9626,0,0,-9.9626,128.27852,23.312005)"/>
<use data-text="o" xlink:href="#font_0_25" transform="matrix(9.9626,0,0,-9.9626,131.04813,23.312005)"/>
<use data-text="n" xlink:href="#font_0_24" transform="matrix(9.9626,0,0,-9.9626,136.02942,23.312005)"/>
<use data-text="s" xlink:href="#font_0_33" transform="matrix(9.9626,0,0,-9.9626,141.55866,23.312005)"/>
<use data-text="," xlink:href="#font_0_15" transform="matrix(9.9626,0,0,-9.9626,145.48392,23.312005)"/>
<use data-text="a" xlink:href="#font_0_11" transform="matrix(9.9626,0,0,-9.9626,151.58104,23.312005)"/>
<use data-text="n" xlink:href="#font_0_24" transform="matrix(9.9626,0,0,-9.9626,156.56233,23.312005)"/>
<use data-text="d" xlink:href="#font_0_16" transform="matrix(9.9626,0,0,-9.9626,162.09157,23.312005)"/>
<use data-text="&#x21d0;" xlink:href="#font_1_5" transform="matrix(9.9626,0,0,-9.9626,170.93836,23.312005)"/>
<use data-text="&#x21d2;" xlink:href="#font_1_6" transform="matrix(9.9626,0,0,-9.9626,179.2372,23.312005)"/>
<use data-text="r" xlink:href="#font_0_32" transform="matrix(9.9626,0,0,-9.9626,192.51735,23.312005)"/>
<use data-text="e" xlink:href="#font_0_17" transform="matrix(9.9626,0,0,-9.9626,196.42269,23.312005)"/>
<use data-text="p" xlink:href="#font_0_27" transform="matrix(9.9626,0,0,-9.9626,200.84609,23.312005)"/>
<use data-text="r" xlink:href="#font_0_32" transform="matrix(9.9626,0,0,-9.9626,206.37532,23.312005)"/>
<use data-text="e" xlink:href="#font_0_17" transform="matrix(9.9626,0,0,-9.9626,210.28066,23.312005)"/>
<use data-text="s" xlink:href="#font_0_33" transform="matrix(9.9626,0,0,-9.9626,214.70406,23.312005)"/>
<use data-text="e" xlink:href="#font_0_17" transform="matrix(9.9626,0,0,-9.9626,218.63928,23.312005)"/>
<use data-text="n" xlink:href="#font_0_24" transform="matrix(9.9626,0,0,-9.9626,223.06269,23.312005)"/>
<use data-text="t" xlink:href="#font_0_35" transform="matrix(9.9626,0,0,-9.9626,228.31298,23.312005)"/>
<use data-text="s" xlink:href="#font_0_33" transform="matrix(9.9626,0,0,-9.9626,232.18843,23.312005)"/>
<use data-text="e" xlink:href="#font_0_17" transform="matrix(9.9626,0,0,-9.9626,239.43125,23.312005)"/>
<use data-text="q" xlink:href="#font_0_31" transform="matrix(9.9626,0,0,-9.9626,243.85465,23.312005)"/>
<use data-text="u" xlink:href="#font_0_36" transform="matrix(9.9626,0,0,-9.9626,249.1149,23.312005)"/>
<use data-text="i" xlink:href="#font_0_21" transform="matrix(9.9626,0,0,-9.9626,254.64414,23.312005)"/>
<use data-text="v" xlink:href="#font_0_37" transform="matrix(9.9626,0,0,-9.9626,257.41374,23.312005)"/>
<use data-text="a" xlink:href="#font_0_11" transform="matrix(9.9626,0,0,-9.9626,262.12605,23.312005)"/>
<use data-text="l" xlink:href="#font_0_22" transform="matrix(9.9626,0,0,-9.9626,267.10734,23.312005)"/>
<use data-text="e" xlink:href="#font_0_17" transform="matrix(9.9626,0,0,-9.9626,269.87693,23.312005)"/>
<use data-text="n" xlink:href="#font_0_24" transform="matrix(9.9626,0,0,-9.9626,274.30033,23.312005)"/>
<use data-text="c" xlink:href="#font_0_13" transform="matrix(9.9626,0,0,-9.9626,279.82957,23.312005)"/>
<use data-text="e" xlink:href="#font_0_17" transform="matrix(9.9626,0,0,-9.9626,284.25297,23.312005)"/>
<use data-text="." xlink:href="#font_0_30" transform="matrix(9.9626,0,0,-9.9626,288.67637,23.312005)"/>
<path transform="matrix(1,0,0,-1,26.165,37.260004)" stroke-width=".797" stroke-linecap="butt" stroke-miterlimit="10" stroke-linejoin="miter" fill="none" stroke="#000000" d="M0 0H320.6"/>
<use data-text="T" xlink:href="#font_0_8" transform="matrix(9.9626,0,0,-9.9626,55.061,48.815004)"/>
<use data-text="y" xlink:href="#font_0_38" transform="matrix(9.9626,0,0,-9.9626,61.975046,48.815004)"/>
<use data-text="p" xlink:href="#font_0_27" transform="matrix(9.9626,0,0,-9.9626,67.2353,48.815004)"/>
<use data-text="e" xlink:href="#font_0_17" transform="matrix(9.9626,0,0,-9.9626,73.043498,48.815004)"/>
<use data-text="o" xlink:href="#font_0_25" transform="matrix(9.9626,0,0,-9.9626,80.78443,48.815004)"/>
<use data-text="f" xlink:href="#font_0_18" transform="matrix(9.9626,0,0,-9.9626,85.76573,48.815004)"/>
<use data-text="D" xlink:href="#font_0_3" transform="matrix(9.9626,0,0,-9.9626,92.14179,48.815004)"/>
<use data-text="a" xlink:href="#font_0_11" transform="matrix(9.9626,0,0,-9.9626,99.75322,48.815004)"/>
<use data-text="t" xlink:href="#font_0_35" transform="matrix(9.9626,0,0,-9.9626,104.724559,48.815004)"/>
<use data-text="a" xlink:href="#font_0_11" transform="matrix(9.9626,0,0,-9.9626,108.600009,48.815004)"/>
<use data-text="A" xlink:href="#font_0_1" transform="matrix(9.9626,0,0,-9.9626,116.90881,48.815004)"/>
<use data-text="u" xlink:href="#font_0_36" transform="matrix(9.9626,0,0,-9.9626,124.38077,48.815004)"/>
<use data-text="g" xlink:href="#font_0_19" transform="matrix(9.9626,0,0,-9.9626,129.91,48.815004)"/>
<use data-text="m" xlink:href="#font_0_23" transform="matrix(9.9626,0,0,-9.9626,134.8913,48.815004)"/>
<use data-text="e" xlink:href="#font_0_17" transform="matrix(9.9626,0,0,-9.9626,143.19014,48.815004)"/>
<use data-text="n" xlink:href="#font_0_24" transform="matrix(9.9626,0,0,-9.9626,147.61354,48.815004)"/>
<use data-text="t" xlink:href="#font_0_35" transform="matrix(9.9626,0,0,-9.9626,152.86383,48.815004)"/>
<use data-text="a" xlink:href="#font_0_11" transform="matrix(9.9626,0,0,-9.9626,156.73929,48.815004)"/>
<use data-text="t" xlink:href="#font_0_35" transform="matrix(9.9626,0,0,-9.9626,161.72058,48.815004)"/>
<use data-text="i" xlink:href="#font_0_21" transform="matrix(9.9626,0,0,-9.9626,165.59604,48.815004)"/>
<use data-text="o" xlink:href="#font_0_25" transform="matrix(9.9626,0,0,-9.9626,168.36565,48.815004)"/>
<use data-text="n" xlink:href="#font_0_24" transform="matrix(9.9626,0,0,-9.9626,173.34694,48.815004)"/>
<use data-text="T" xlink:href="#font_0_8" transform="matrix(9.9626,0,0,-9.9626,214.57218,48.815004)"/>
<use data-text="o" xlink:href="#font_0_25" transform="matrix(9.9626,0,0,-9.9626,220.93828,48.815004)"/>
<use data-text="p" xlink:href="#font_0_27" transform="matrix(9.9626,0,0,-9.9626,225.91957,48.815004)"/>
<use data-text="i" xlink:href="#font_0_21" transform="matrix(9.9626,0,0,-9.9626,231.4488,48.815004)"/>
<use data-text="c" xlink:href="#font_0_13" transform="matrix(9.9626,0,0,-9.9626,234.21842,48.815004)"/>
<use data-text="s" xlink:href="#font_0_33" transform="matrix(9.9626,0,0,-9.9626,238.64182,48.815004)"/>
<use data-text="i" xlink:href="#font_0_21" transform="matrix(9.9626,0,0,-9.9626,245.88463,48.815004)"/>
<use data-text="n" xlink:href="#font_0_24" transform="matrix(9.9626,0,0,-9.9626,248.65424,48.815004)"/>
<use data-text="C" xlink:href="#font_0_2" transform="matrix(9.9626,0,0,-9.9626,257.501,48.815004)"/>
<use data-text="a" xlink:href="#font_0_11" transform="matrix(9.9626,0,0,-9.9626,264.694,48.815004)"/>
<use data-text="u" xlink:href="#font_0_36" transform="matrix(9.9626,0,0,-9.9626,269.6753,48.815004)"/>
<use data-text="s" xlink:href="#font_0_33" transform="matrix(9.9626,0,0,-9.9626,275.20454,48.815004)"/>
<use data-text="a" xlink:href="#font_0_11" transform="matrix(9.9626,0,0,-9.9626,279.1298,48.815004)"/>
<use data-text="l" xlink:href="#font_0_22" transform="matrix(9.9626,0,0,-9.9626,284.11109,48.815004)"/>
<use data-text="I" xlink:href="#font_0_4" transform="matrix(9.9626,0,0,-9.9626,290.2082,48.815004)"/>
<use data-text="n" xlink:href="#font_0_24" transform="matrix(9.9626,0,0,-9.9626,293.8047,48.815004)"/>
<use data-text="f" xlink:href="#font_0_18" transform="matrix(9.9626,0,0,-9.9626,299.33393,48.815004)"/>
<use data-text="e" xlink:href="#font_0_17" transform="matrix(9.9626,0,0,-9.9626,302.38249,48.815004)"/>
<use data-text="r" xlink:href="#font_0_32" transform="matrix(9.9626,0,0,-9.9626,306.80589,48.815004)"/>
<use data-text="e" xlink:href="#font_0_17" transform="matrix(9.9626,0,0,-9.9626,310.7112,48.815004)"/>
<use data-text="n" xlink:href="#font_0_24" transform="matrix(9.9626,0,0,-9.9626,315.1346,48.815004)"/>
<use data-text="c" xlink:href="#font_0_13" transform="matrix(9.9626,0,0,-9.9626,320.66386,48.815004)"/>
<use data-text="e" xlink:href="#font_0_17" transform="matrix(9.9626,0,0,-9.9626,325.08726,48.815004)"/>
<path transform="matrix(1,0,0,-1,26.165,54.365007)" stroke-width=".498" stroke-linecap="butt" stroke-miterlimit="10" stroke-linejoin="miter" fill="none" stroke="#000000" d="M0 0H320.6"/>
<use data-text="N" xlink:href="#font_0_5" transform="matrix(9.9626,0,0,-9.9626,62.697,65.770008)"/>
<use data-text="o" xlink:href="#font_0_25" transform="matrix(9.9626,0,0,-9.9626,70.168949,65.770008)"/>
<use data-text="n" xlink:href="#font_0_24" transform="matrix(9.9626,0,0,-9.9626,75.150249,65.770008)"/>
<use data-text="e" xlink:href="#font_0_17" transform="matrix(9.9626,0,0,-9.9626,80.67949,65.770008)"/>
<use data-text=";" xlink:href="#font_0_34" transform="matrix(9.9626,0,0,-9.9626,85.10288,65.770008)"/>
<use data-text="o" xlink:href="#font_0_25" transform="matrix(9.9626,0,0,-9.9626,91.190029,65.770008)"/>
<use data-text="b" xlink:href="#font_0_12" transform="matrix(9.9626,0,0,-9.9626,96.171329,65.770008)"/>
<use data-text="s" xlink:href="#font_0_33" transform="matrix(9.9626,0,0,-9.9626,101.70057,65.770008)"/>
<use data-text="e" xlink:href="#font_0_17" transform="matrix(9.9626,0,0,-9.9626,105.62583,65.770008)"/>
<use data-text="r" xlink:href="#font_0_32" transform="matrix(9.9626,0,0,-9.9626,110.049228,65.770008)"/>
<use data-text="v" xlink:href="#font_0_37" transform="matrix(9.9626,0,0,-9.9626,113.95457,65.770008)"/>
<use data-text="a" xlink:href="#font_0_11" transform="matrix(9.9626,0,0,-9.9626,118.66688,65.770008)"/>
<use data-text="t" xlink:href="#font_0_35" transform="matrix(9.9626,0,0,-9.9626,123.64818,65.770008)"/>
<use data-text="i" xlink:href="#font_0_21" transform="matrix(9.9626,0,0,-9.9626,127.52363,65.770008)"/>
<use data-text="o" xlink:href="#font_0_25" transform="matrix(9.9626,0,0,-9.9626,130.29323,65.770008)"/>
<use data-text="n" xlink:href="#font_0_24" transform="matrix(9.9626,0,0,-9.9626,135.27452,65.770008)"/>
<use data-text="a" xlink:href="#font_0_11" transform="matrix(9.9626,0,0,-9.9626,140.80376,65.770008)"/>
<use data-text="l" xlink:href="#font_0_22" transform="matrix(9.9626,0,0,-9.9626,145.78505,65.770008)"/>
<use data-text="d" xlink:href="#font_0_16" transform="matrix(9.9626,0,0,-9.9626,151.87221,65.770008)"/>
<use data-text="a" xlink:href="#font_0_11" transform="matrix(9.9626,0,0,-9.9626,157.40145,65.770008)"/>
<use data-text="t" xlink:href="#font_0_35" transform="matrix(9.9626,0,0,-9.9626,162.38274,65.770008)"/>
<use data-text="a" xlink:href="#font_0_11" transform="matrix(9.9626,0,0,-9.9626,166.2582,65.770008)"/>
<use data-text="&#x2190;" xlink:href="#font_1_2" transform="matrix(9.9626,0,0,-9.9626,184.76869,65.770008)"/>
<use data-text="&#x2212;" xlink:href="#font_1_1" transform="matrix(9.9626,0,0,-9.9626,193.06754,65.770008)"/>
<use data-text="D" xlink:href="#font_0_3" transform="matrix(9.9626,0,0,-9.9626,222.16829,65.770008)"/>
<use data-text="a" xlink:href="#font_0_11" transform="matrix(9.9626,0,0,-9.9626,229.77971,65.770008)"/>
<use data-text="t" xlink:href="#font_0_35" transform="matrix(9.9626,0,0,-9.9626,234.761,65.770008)"/>
<use data-text="a" xlink:href="#font_0_11" transform="matrix(9.9626,0,0,-9.9626,238.63646,65.770008)"/>
<use data-text="g" xlink:href="#font_0_19" transform="matrix(9.9626,0,0,-9.9626,246.9353,65.770008)"/>
<use data-text="e" xlink:href="#font_0_17" transform="matrix(9.9626,0,0,-9.9626,251.9166,65.770008)"/>
<use data-text="n" xlink:href="#font_0_24" transform="matrix(9.9626,0,0,-9.9626,256.34,65.770008)"/>
<use data-text="e" xlink:href="#font_0_17" transform="matrix(9.9626,0,0,-9.9626,261.86924,65.770008)"/>
<use data-text="r" xlink:href="#font_0_32" transform="matrix(9.9626,0,0,-9.9626,266.29264,65.770008)"/>
<use data-text="a" xlink:href="#font_0_11" transform="matrix(9.9626,0,0,-9.9626,270.19798,65.770008)"/>
<use data-text="t" xlink:href="#font_0_35" transform="matrix(9.9626,0,0,-9.9626,275.17927,65.770008)"/>
<use data-text="i" xlink:href="#font_0_21" transform="matrix(9.9626,0,0,-9.9626,279.05473,65.770008)"/>
<use data-text="n" xlink:href="#font_0_24" transform="matrix(9.9626,0,0,-9.9626,281.8243,65.770008)"/>
<use data-text="g" xlink:href="#font_0_19" transform="matrix(9.9626,0,0,-9.9626,287.35356,65.770008)"/>
<use data-text="m" xlink:href="#font_0_23" transform="matrix(9.9626,0,0,-9.9626,295.65238,65.770008)"/>
<use data-text="o" xlink:href="#font_0_25" transform="matrix(9.9626,0,0,-9.9626,303.95124,65.770008)"/>
<use data-text="d" xlink:href="#font_0_16" transform="matrix(9.9626,0,0,-9.9626,309.2115,65.770008)"/>
<use data-text="e" xlink:href="#font_0_17" transform="matrix(9.9626,0,0,-9.9626,314.74073,65.770008)"/>
<use data-text="l" xlink:href="#font_0_22" transform="matrix(9.9626,0,0,-9.9626,319.16413,65.770008)"/>
<use data-text="&#x2193;" xlink:href="#font_1_4" transform="matrix(9.9626,0,0,-9.9626,114.476,77.726009)"/>
<use data-text="&#x2193;" xlink:href="#font_1_4" transform="matrix(9.9626,0,0,-9.9626,269.55384,77.726009)"/>
<use data-text="O" xlink:href="#font_0_6" transform="matrix(9.9626,0,0,-9.9626,67.35899,89.68101)"/>
<use data-text="u" xlink:href="#font_0_36" transform="matrix(9.9626,0,0,-9.9626,75.10989,89.68101)"/>
<use data-text="t" xlink:href="#font_0_35" transform="matrix(9.9626,0,0,-9.9626,80.63914,89.68101)"/>
<use data-text="c" xlink:href="#font_0_13" transform="matrix(9.9626,0,0,-9.9626,84.51459,89.68101)"/>
<use data-text="o" xlink:href="#font_0_25" transform="matrix(9.9626,0,0,-9.9626,88.93798,89.68101)"/>
<use data-text="m" xlink:href="#font_0_23" transform="matrix(9.9626,0,0,-9.9626,93.91928,89.68101)"/>
<use data-text="e" xlink:href="#font_0_17" transform="matrix(9.9626,0,0,-9.9626,102.218128,89.68101)"/>
<use data-text="i" xlink:href="#font_0_21" transform="matrix(9.9626,0,0,-9.9626,109.95906,89.68101)"/>
<use data-text="n" xlink:href="#font_0_24" transform="matrix(9.9626,0,0,-9.9626,112.72866,89.68101)"/>
<use data-text="v" xlink:href="#font_0_37" transform="matrix(9.9626,0,0,-9.9626,117.988918,89.68101)"/>
<use data-text="a" xlink:href="#font_0_11" transform="matrix(9.9626,0,0,-9.9626,122.69126,89.68101)"/>
<use data-text="r" xlink:href="#font_0_32" transform="matrix(9.9626,0,0,-9.9626,127.67256,89.68101)"/>
<use data-text="i" xlink:href="#font_0_21" transform="matrix(9.9626,0,0,-9.9626,131.5779,89.68101)"/>
<use data-text="a" xlink:href="#font_0_11" transform="matrix(9.9626,0,0,-9.9626,134.3475,89.68101)"/>
<use data-text="n" xlink:href="#font_0_24" transform="matrix(9.9626,0,0,-9.9626,139.3288,89.68101)"/>
<use data-text="t" xlink:href="#font_0_35" transform="matrix(9.9626,0,0,-9.9626,144.57909,89.68101)"/>
<use data-text="D" xlink:href="#font_0_3" transform="matrix(9.9626,0,0,-9.9626,151.7721,89.68101)"/>
<use data-text="A" xlink:href="#font_0_1" transform="matrix(9.9626,0,0,-9.9626,159.11452,89.68101)"/>
<use data-text="&#x21d0;" xlink:href="#font_1_5" transform="matrix(9.9626,0,0,-9.9626,182.27758,89.68101)"/>
<use data-text="&#x21d2;" xlink:href="#font_1_6" transform="matrix(9.9626,0,0,-9.9626,190.58638,89.68101)"/>
<use data-text="T" xlink:href="#font_0_8" transform="matrix(9.9626,0,0,-9.9626,208.23015,89.68101)"/>
<use data-text="r" xlink:href="#font_0_32" transform="matrix(9.9626,0,0,-9.9626,214.58629,89.68101)"/>
<use data-text="e" xlink:href="#font_0_17" transform="matrix(9.9626,0,0,-9.9626,218.49163,89.68101)"/>
<use data-text="a" xlink:href="#font_0_11" transform="matrix(9.9626,0,0,-9.9626,222.91503,89.68101)"/>
<use data-text="t" xlink:href="#font_0_35" transform="matrix(9.9626,0,0,-9.9626,227.89632,89.68101)"/>
<use data-text="m" xlink:href="#font_0_23" transform="matrix(9.9626,0,0,-9.9626,231.77178,89.68101)"/>
<use data-text="e" xlink:href="#font_0_17" transform="matrix(9.9626,0,0,-9.9626,240.07062,89.68101)"/>
<use data-text="n" xlink:href="#font_0_24" transform="matrix(9.9626,0,0,-9.9626,244.49402,89.68101)"/>
<use data-text="t" xlink:href="#font_0_35" transform="matrix(9.9626,0,0,-9.9626,249.75426,89.68101)"/>
<use data-text="(" xlink:href="#font_0_28" transform="matrix(9.9626,0,0,-9.9626,256.94728,89.68101)"/>
<use data-text="s" xlink:href="#font_0_33" transform="matrix(9.9626,0,0,-9.9626,260.82273,89.68101)"/>
<use data-text="o" xlink:href="#font_0_25" transform="matrix(9.9626,0,0,-9.9626,264.748,89.68101)"/>
<use data-text="f" xlink:href="#font_0_18" transform="matrix(9.9626,0,0,-9.9626,269.72929,89.68101)"/>
<use data-text="t" xlink:href="#font_0_35" transform="matrix(9.9626,0,0,-9.9626,272.77784,89.68101)"/>
<use data-text=")" xlink:href="#font_0_29" transform="matrix(9.9626,0,0,-9.9626,276.6533,89.68101)"/>
<use data-text="i" xlink:href="#font_0_21" transform="matrix(9.9626,0,0,-9.9626,283.84629,89.68101)"/>
<use data-text="n" xlink:href="#font_0_24" transform="matrix(9.9626,0,0,-9.9626,286.61589,89.68101)"/>
<use data-text="t" xlink:href="#font_0_35" transform="matrix(9.9626,0,0,-9.9626,291.86616,89.68101)"/>
<use data-text="e" xlink:href="#font_0_17" transform="matrix(9.9626,0,0,-9.9626,295.7416,89.68101)"/>
<use data-text="r" xlink:href="#font_0_32" transform="matrix(9.9626,0,0,-9.9626,300.17497,89.68101)"/>
<use data-text="v" xlink:href="#font_0_37" transform="matrix(9.9626,0,0,-9.9626,304.07035,89.68101)"/>
<use data-text="e" xlink:href="#font_0_17" transform="matrix(9.9626,0,0,-9.9626,309.0616,89.68101)"/>
<use data-text="n" xlink:href="#font_0_24" transform="matrix(9.9626,0,0,-9.9626,313.48503,89.68101)"/>
<use data-text="t" xlink:href="#font_0_35" transform="matrix(9.9626,0,0,-9.9626,318.7353,89.68101)"/>
<use data-text="i" xlink:href="#font_0_21" transform="matrix(9.9626,0,0,-9.9626,322.61076,89.68101)"/>
<use data-text="o" xlink:href="#font_0_25" transform="matrix(9.9626,0,0,-9.9626,325.38035,89.68101)"/>
<use data-text="n" xlink:href="#font_0_24" transform="matrix(9.9626,0,0,-9.9626,330.36164,89.68101)"/>
<use data-text="&#x2193;" xlink:href="#font_1_4" transform="matrix(9.9626,0,0,-9.9626,114.476,101.63601)"/>
<use data-text="&#x2193;" xlink:href="#font_1_4" transform="matrix(9.9626,0,0,-9.9626,269.55384,101.63601)"/>
<use data-text="W" xlink:href="#font_0_10" transform="matrix(9.9626,0,0,-9.9626,52.986,113.591)"/>
<use data-text="o" xlink:href="#font_0_25" transform="matrix(9.9626,0,0,-9.9626,62.400659,113.591)"/>
<use data-text="r" xlink:href="#font_0_32" transform="matrix(9.9626,0,0,-9.9626,67.38196,113.591)"/>
<use data-text="s" xlink:href="#font_0_33" transform="matrix(9.9626,0,0,-9.9626,71.2873,113.591)"/>
<use data-text="t" xlink:href="#font_0_35" transform="matrix(9.9626,0,0,-9.9626,75.21256,113.591)"/>
<use data-text="-" xlink:href="#font_0_20" transform="matrix(9.9626,0,0,-9.9626,79.08801,113.591)"/>
<use data-text="c" xlink:href="#font_0_13" transform="matrix(9.9626,0,0,-9.9626,82.405559,113.591)"/>
<use data-text="a" xlink:href="#font_0_11" transform="matrix(9.9626,0,0,-9.9626,86.82895,113.591)"/>
<use data-text="s" xlink:href="#font_0_33" transform="matrix(9.9626,0,0,-9.9626,91.81025,113.591)"/>
<use data-text="e" xlink:href="#font_0_17" transform="matrix(9.9626,0,0,-9.9626,95.73551,113.591)"/>
<use data-text="o" xlink:href="#font_0_25" transform="matrix(9.9626,0,0,-9.9626,103.47645,113.591)"/>
<use data-text="r" xlink:href="#font_0_32" transform="matrix(9.9626,0,0,-9.9626,108.45775,113.591)"/>
<use data-text="a" xlink:href="#font_0_11" transform="matrix(9.9626,0,0,-9.9626,115.68063,113.591)"/>
<use data-text="d" xlink:href="#font_0_16" transform="matrix(9.9626,0,0,-9.9626,120.661937,113.591)"/>
<use data-text="v" xlink:href="#font_0_37" transform="matrix(9.9626,0,0,-9.9626,126.19118,113.591)"/>
<use data-text="e" xlink:href="#font_0_17" transform="matrix(9.9626,0,0,-9.9626,131.17249,113.591)"/>
<use data-text="r" xlink:href="#font_0_32" transform="matrix(9.9626,0,0,-9.9626,135.59589,113.591)"/>
<use data-text="s" xlink:href="#font_0_33" transform="matrix(9.9626,0,0,-9.9626,139.50122,113.591)"/>
<use data-text="a" xlink:href="#font_0_11" transform="matrix(9.9626,0,0,-9.9626,143.42649,113.591)"/>
<use data-text="r" xlink:href="#font_0_32" transform="matrix(9.9626,0,0,-9.9626,148.40778,113.591)"/>
<use data-text="i" xlink:href="#font_0_21" transform="matrix(9.9626,0,0,-9.9626,152.31311,113.591)"/>
<use data-text="a" xlink:href="#font_0_11" transform="matrix(9.9626,0,0,-9.9626,155.08272,113.591)"/>
<use data-text="l" xlink:href="#font_0_22" transform="matrix(9.9626,0,0,-9.9626,160.06401,113.591)"/>
<use data-text="D" xlink:href="#font_0_3" transform="matrix(9.9626,0,0,-9.9626,166.16114,113.591)"/>
<use data-text="A" xlink:href="#font_0_1" transform="matrix(9.9626,0,0,-9.9626,173.4936,113.591)"/>
<use data-text="&#x21d0;" xlink:href="#font_1_5" transform="matrix(9.9626,0,0,-9.9626,182.29059,113.591)"/>
<use data-text="&#x21d2;" xlink:href="#font_1_6" transform="matrix(9.9626,0,0,-9.9626,190.58943,113.591)"/>
<use data-text="R" xlink:href="#font_0_7" transform="matrix(9.9626,0,0,-9.9626,216.28298,113.591)"/>
<use data-text="e" xlink:href="#font_0_17" transform="matrix(9.9626,0,0,-9.9626,223.61545,113.591)"/>
<use data-text="g" xlink:href="#font_0_19" transform="matrix(9.9626,0,0,-9.9626,228.03885,113.591)"/>
<use data-text="u" xlink:href="#font_0_36" transform="matrix(9.9626,0,0,-9.9626,233.02014,113.591)"/>
<use data-text="l" xlink:href="#font_0_22" transform="matrix(9.9626,0,0,-9.9626,238.54938,113.591)"/>
<use data-text="a" xlink:href="#font_0_11" transform="matrix(9.9626,0,0,-9.9626,241.31899,113.591)"/>
<use data-text="r" xlink:href="#font_0_32" transform="matrix(9.9626,0,0,-9.9626,246.30028,113.591)"/>
<use data-text="i" xlink:href="#font_0_21" transform="matrix(9.9626,0,0,-9.9626,250.20561,113.591)"/>
<use data-text="z" xlink:href="#font_0_39" transform="matrix(9.9626,0,0,-9.9626,252.97522,113.591)"/>
<use data-text="e" xlink:href="#font_0_17" transform="matrix(9.9626,0,0,-9.9626,257.39863,113.591)"/>
<use data-text="d" xlink:href="#font_0_16" transform="matrix(9.9626,0,0,-9.9626,261.82203,113.591)"/>
<use data-text="I" xlink:href="#font_0_4" transform="matrix(9.9626,0,0,-9.9626,270.67878,113.591)"/>
<use data-text="V" xlink:href="#font_0_9" transform="matrix(9.9626,0,0,-9.9626,274.27528,113.591)"/>
<use data-text="r" xlink:href="#font_0_32" transform="matrix(9.9626,0,0,-9.9626,285.06477,113.591)"/>
<use data-text="e" xlink:href="#font_0_17" transform="matrix(9.9626,0,0,-9.9626,288.9701,113.591)"/>
<use data-text="g" xlink:href="#font_0_19" transform="matrix(9.9626,0,0,-9.9626,293.3935,113.591)"/>
<use data-text="r" xlink:href="#font_0_32" transform="matrix(9.9626,0,0,-9.9626,298.3748,113.591)"/>
<use data-text="e" xlink:href="#font_0_17" transform="matrix(9.9626,0,0,-9.9626,302.28013,113.591)"/>
<use data-text="s" xlink:href="#font_0_33" transform="matrix(9.9626,0,0,-9.9626,306.70353,113.591)"/>
<use data-text="s" xlink:href="#font_0_33" transform="matrix(9.9626,0,0,-9.9626,310.62879,113.591)"/>
<use data-text="i" xlink:href="#font_0_21" transform="matrix(9.9626,0,0,-9.9626,314.55406,113.591)"/>
<use data-text="o" xlink:href="#font_0_25" transform="matrix(9.9626,0,0,-9.9626,317.32365,113.591)"/>
<use data-text="n" xlink:href="#font_0_24" transform="matrix(9.9626,0,0,-9.9626,322.30494,113.591)"/>
<path transform="matrix(1,0,0,-1,26.165,119.292)" stroke-width=".797" stroke-linecap="butt" stroke-miterlimit="10" stroke-linejoin="miter" fill="none" stroke="#000000" d="M0 0H320.6"/>
<path transform="matrix(1,0,0,-1,188.125,120.686008)" stroke-width=".79701" stroke-linecap="butt" stroke-miterlimit="10" stroke-linejoin="miter" fill="none" stroke="#ff0000" d="M-140.94774 63.11862V7.30173"/>
<path transform="matrix(0,1,1,0,47.17726,111.45114)" d="M3.90836 0 1.23637 1.08253 2.13237 0 1.23637-1.08253Z" fill="#ff0000"/>
<path transform="matrix(0,1,1,0,47.17726,111.45114)" stroke-width=".79701" stroke-linecap="butt" stroke-miterlimit="10" stroke-linejoin="miter" fill="none" stroke="#ff0000" d="M3.90836 0 1.23637 1.08253 2.13237 0 1.23637-1.08253Z"/>
<use data-text="i" xlink:href="#font_2_5" transform="matrix(0,-8.9664,-8.9664,0,22.372002,105.56799)"/>
<use data-text="m" xlink:href="#font_2_7" transform="matrix(0,-8.9664,-8.9664,0,22.372002,103.01257)"/>
<use data-text="p" xlink:href="#font_2_10" transform="matrix(0,-8.9664,-8.9664,0,22.372002,95.33734)"/>
<use data-text="r" xlink:href="#font_2_11" transform="matrix(0,-8.9664,-8.9664,0,22.372002,90.21753)"/>
<use data-text="o" xlink:href="#font_2_9" transform="matrix(0,-8.9664,-8.9664,0,22.372002,86.61304)"/>
<use data-text="v" xlink:href="#font_2_15" transform="matrix(0,-8.9664,-8.9664,0,22.372002,82.26433)"/>
<use data-text="e" xlink:href="#font_2_4" transform="matrix(0,-8.9664,-8.9664,0,22.372002,77.655597)"/>
<use data-text="d" xlink:href="#font_2_3" transform="matrix(0,-8.9664,-8.9664,0,22.372002,73.55795)"/>
<use data-text="c" xlink:href="#font_2_2" transform="matrix(0,-8.9664,-8.9664,0,33.331,99.31099)"/>
<use data-text="a" xlink:href="#font_2_1" transform="matrix(0,-8.9664,-8.9664,0,33.331,95.21335)"/>
<use data-text="u" xlink:href="#font_2_14" transform="matrix(0,-8.9664,-8.9664,0,33.331,90.604618)"/>
<use data-text="s" xlink:href="#font_2_12" transform="matrix(0,-8.9664,-8.9664,0,33.331,85.4848)"/>
<use data-text="a" xlink:href="#font_2_1" transform="matrix(0,-8.9664,-8.9664,0,33.331,81.85341)"/>
<use data-text="l" xlink:href="#font_2_6" transform="matrix(0,-8.9664,-8.9664,0,33.331,77.244678)"/>
<use data-text="e" xlink:href="#font_2_4" transform="matrix(0,-8.9664,-8.9664,0,44.29,108.01399)"/>
<use data-text="s" xlink:href="#font_2_12" transform="matrix(0,-8.9664,-8.9664,0,44.29,103.91635)"/>
<use data-text="t" xlink:href="#font_2_13" transform="matrix(0,-8.9664,-8.9664,0,44.29,100.28496)"/>
<use data-text="i" xlink:href="#font_2_5" transform="matrix(0,-8.9664,-8.9664,0,44.29,96.698398)"/>
<use data-text="m" xlink:href="#font_2_7" transform="matrix(0,-8.9664,-8.9664,0,44.29,94.142978)"/>
<use data-text="a" xlink:href="#font_2_1" transform="matrix(0,-8.9664,-8.9664,0,44.29,86.46774)"/>
<use data-text="t" xlink:href="#font_2_13" transform="matrix(0,-8.9664,-8.9664,0,44.29,81.85901)"/>
<use data-text="i" xlink:href="#font_2_5" transform="matrix(0,-8.9664,-8.9664,0,44.29,78.272449)"/>
<use data-text="o" xlink:href="#font_2_9" transform="matrix(0,-8.9664,-8.9664,0,44.29,75.717029)"/>
<use data-text="n" xlink:href="#font_2_8" transform="matrix(0,-8.9664,-8.9664,0,44.29,71.10829)"/>
</svg>
