<svg xmlns="http://www.w3.org/2000/svg" xmlns:xlink="http://www.w3.org/1999/xlink" xmlns:inkscape="http://www.inkscape.org/namespaces/inkscape" version="1.1" width="380.22772694" height="183.057" viewBox="0 0 195.775 94.254">
<defs>
<path id="font_0_1" d="M.7599945 .69506838C.7599945 .69807437 .7579956 .7050781 .7489929 .7050781 .74598696 .7050781 .7449951 .70407107 .73399356 .69306948L.6639862 .61602786C.6549988 .6300354 .60899356 .7050781 .49798585 .7050781 .2749939 .7050781 .049987794 .48391725 .049987794 .25172425 .049987794 .08659363 .16799927-.022460938 .32099916-.022460938 .4079895-.022460938 .48399354 .017532349 .5369873 .063583377 .6299896 .14564514 .6469879 .2367096 .6469879 .23971558 .6469879 .24972534 .6369934 .24972534 .6349945 .24972534 .6289978 .24972534 .6239929 .24772644 .621994 .23971558 .61299136 .21069336 .58999636 .13963318 .5209961 .081588748 .45199586 .025543213 .3889923 .008529663 .33699037 .008529663 .24699402 .008529663 .14099121 .060577394 .14099121 .21670532 .14099121 .27374269 .1619873 .43588258 .2619934 .55296328 .32299806 .62402346 .4169922 .67407229 .5059967 .67407229 .60798647 .67407229 .6669922 .5970001 .6669922 .48091126 .6669922 .44088746 .6639862 .43988038 .6639862 .4298706 .6639862 .41986085 .6749878 .41986085 .67900088 .41986085 .69200137 .41986085 .69200137 .42185975 .69699099 .43988038L.7599945 .69506838Z"/>
<path id="font_0_4" d="M.5970001 .5686493 .61099246 .5826416C.6409912 .6126251 .673996 .64660647 .74198916 .6516113 .7529907 .65260317 .7619934 .65260317 .7619934 .6706085 .7619934 .6786041 .7569885 .6826172 .7489929 .6826172 .72299197 .6826172 .69400027 .6796112 .6669922 .6796112 .6339874 .6796112 .598999 .6826172 .5669861 .6826172 .5609894 .6826172 .5479889 .6826172 .5479889 .66360476 .5479889 .65260317 .55799868 .6516113 .5629883 .6516113 .56999209 .6516113 .598999 .6496124 .598999 .62861636 .598999 .6116333 .57598879 .5856476 .57199099 .5806427L.33999635 .31381227 .22999573 .6106262C.22399903 .62461856 .22399903 .62661746 .22399903 .6276245 .22399903 .6516113 .272995 .6516113 .2829895 .6516113 .29699708 .6516113 .30699159 .6516113 .30699159 .6716156 .30699159 .6826172 .29499818 .6826172 .2919922 .6826172 .2639923 .6826172 .19400025 .6796112 .1659851 .6796112 .14099121 .6796112 .07899475 .6826172 .053985597 .6826172 .04798889 .6826172 .034988405 .6826172 .034988405 .6626129 .034988405 .6516113 .04499817 .6516113 .057998659 .6516113 .117996219 .6516113 .12199402 .64260867 .1309967 .61763L.2539978 .28883363C.25498963 .28582765 .2579956 .2748413 .2579956 .27183534 .2579956 .2688446 .21798706 .107940677 .21299744 .08995056 .19999695 .034988405 .19898987 .03199768 .11898804 .0309906 .099990848 .0309906 .09199524 .0309906 .09199524 .010986328 .09199524 0 .10398865 0 .10598755 0 .13398743 0 .20399475 .0029907227 .23199463 .0029907227 .2599945 .0029907227 .33198548 0 .3600006 0 .36698915 0 .3789978 0 .3789978 .019989014 .3789978 .0309906 .36999513 .0309906 .35099793 .0309906 .34899903 .0309906 .32998658 .0309906 .31298829 .032989503 .2919922 .034988405 .28599549 .036987306 .28599549 .048980714 .28599549 .05596924 .29499818 .09095764 .2999878 .11193848L.33499146 .2528534C.33999635 .27183534 .34098817 .2748413 .34899903 .28382875L.5970001 .5686493Z"/>
<path id="font_0_3" d="M.4850006 .41075135 .40098573 .6096344C.397995 .61763 .3959961 .6216278 .3959961 .6226196 .3959961 .62861636 .41299439 .6476135 .45498658 .6516113 .46499635 .65260317 .47499085 .6536102 .47499085 .6706085 .47499085 .6826172 .46299745 .6826172 .45999146 .6826172 .4189911 .6826172 .37599183 .6796112 .33399964 .6796112 .30899049 .6796112 .24699402 .6826172 .22200012 .6826172 .21598816 .6826172 .20399475 .6826172 .20399475 .6626129 .20399475 .6516113 .21398926 .6516113 .22698975 .6516113 .2869873 .6516113 .29299928 .6416168 .3019867 .6196289L.41999818 .34080506 .20899964 .11393738 .19599915 .10295105C.14698792 .049987794 .099990848 .033996583 .04899597 .0309906 .035995485 .02999878 .026992798 .02999878 .026992798 .010986328 .026992798 .009994507 .026992798 0 .039993287 0 .069992069 0 .102996829 .0029907227 .13398743 .0029907227 .17098999 .0029907227 .20999146 0 .24598694 0 .2519989 0 .2639923 0 .2639923 .019989014 .2639923 .02999878 .2539978 .0309906 .2519989 .0309906 .24299622 .03199768 .21199036 .033996583 .21199036 .061965944 .21199036 .07795715 .22698975 .093948367 .23899842 .10694885L.34098817 .21487427 .43099977 .31282044 .5319977 .07395935C.5359955 .06297302 .5369873 .061965944 .5369873 .05996704 .5369873 .051986696 .5179901 .034988405 .47898866 .0309906 .46798707 .02999878 .45899964 .0289917 .45899964 .011993408 .45899964 0 .46998597 0 .47399903 0 .5019989 0 .57199099 .0029907227 .59999087 .0029907227 .625 .0029907227 .6859894 0 .71099856 0 .71798709 0 .7299957 0 .7299957 .018997193 .7299957 .0309906 .7200012 .0309906 .71199038 .0309906 .644989 .03199768 .6429901 .034988405 .6259918 .07496643 .58699038 .16790772 .519989 .32380677 .49699403 .3837738 .5649872 .45373536 .66999819 .5726471 .70199587 .6006317 .73098757 .62461856 .7689972 .64860537 .82899478 .6516113 .84199526 .65260317 .8509979 .65260317 .8509979 .6716156 .8509979 .6726074 .8509979 .6826172 .83799746 .6826172 .80799868 .6826172 .7749939 .6796112 .74398806 .6796112 .70700076 .6796112 .6689911 .6826172 .6329956 .6826172 .6269989 .6826172 .6139984 .6826172 .6139984 .6626129 .6139984 .65560916 .61898806 .65260317 .6259918 .6516113 .6349945 .65060427 .66600039 .64860537 .66600039 .6206207 .66600039 .6066284 .6549988 .5936432 .6469879 .5846405L.4850006 .41075135Z"/>
<path id="font_0_2" d="M.7599945 .69506838C.7599945 .69807437 .7579956 .7050781 .7489929 .7050781 .74598696 .7050781 .7449951 .70407107 .73399356 .69306948L.6639862 .61598208C.6549988 .6300049 .60899356 .7050781 .49798585 .7050781 .2749939 .7050781 .049987794 .4837799 .049987794 .25144959 .049987794 .09249878 .16099549-.022460938 .32299806-.022460938 .36698915-.022460938 .4119873-.013473511 .44799806 .0015258789 .49798585 .021530152 .5169983 .042526246 .5349884 .06251526 .5439911 .037521364 .56999209 .0005340576 .5799866 .0005340576 .58499148 .0005340576 .58699038 .0035247803 .58699038 .0045318605 .58898928 .0065307619 .598999 .044525148 .60398867 .06550598L.6230011 .14248657C.6269989 .15948487 .6319885 .1764679 .6359863 .19346619 .6469879 .2384491 .647995 .240448 .7049866 .24145508 .70999148 .24145508 .72099307 .2424469 .72099307 .26145936 .72099307 .26844789 .71598818 .27246095 .70799258 .27246095 .68499758 .27246095 .6259918 .26945497 .6029968 .26945497 .57199099 .26945497 .49398805 .27246095 .46299745 .27246095 .45399476 .27246095 .44198609 .27246095 .44198609 .25245667 .44198609 .24145508 .44999696 .24145508 .47200013 .24145508 .47299195 .24145508 .5019989 .24145508 .5249939 .23945618 .5509949 .2364502 .55599978 .23345948 .55599978 .22045899 .55599978 .2114563 .54499819 .16647339 .5349884 .12948609 .5069885 .01953125 .3769989 .008529663 .34199525 .008529663 .24598694 .008529663 .14099121 .06550598 .14099121 .21846009 .14099121 .24945069 .15098572 .41467286 .2559967 .5448761 .30999757 .6129761 .40699769 .67407229 .5059967 .67407229 .60798647 .67407229 .6669922 .59695437 .6669922 .48077394 .6669922 .44070436 .6639862 .43971253 .6639862 .4296875 .6639862 .41967774 .6749878 .41967774 .67900088 .41967774 .69200137 .41967774 .69200137 .42167665 .69699099 .43971253L.7599945 .69506838Z"/>
<path id="font_0_5" d="M.36698915 .3996582H.45298768C.47299195 .3996582 .48298646 .3996582 .48298646 .41966249 .48298646 .43066407 .47299195 .43066407 .45599366 .43066407H.37298585L.3939972 .5449524C.397995 .5660095 .4119873 .6370239 .41799928 .6490326 .4269867 .66804507 .44400025 .68307498 .46499635 .68307498 .46899415 .68307498 .49499513 .68307498 .5139923 .66503909 .46998597 .661026 .45999146 .6260376 .45999146 .6110382 .45999146 .58802798 .47799684 .57603457 .49699403 .57603457 .522995 .57603457 .5519867 .5980377 .5519867 .6360321 .5519867 .6820679 .5059967 .7050781 .46499635 .7050781 .43099977 .7050781 .36799623 .68707278 .33799745 .58802798 .33198548 .56700137 .32899476 .5569763 .30499269 .43066407H.23599243C.21699524 .43066407 .20599365 .43066407 .20599365 .4116516 .20599365 .3996582 .21499634 .3996582 .23399353 .3996582H.2999878L.22499085 .0048828127C.20698548-.09207153 .18998719-.18309021 .13798523-.18309021 .13398743-.18309021 .10899353-.18309021 .08999634-.16506958 .13598633-.1620636 .14498902-.12606812 .14498902-.111068729 .14498902-.08807373 .1269989-.07606506 .10798645-.07606506 .08198547-.07606506 .052993776-.09806824 .052993776-.13606262 .052993776-.18109131 .09700012-.20507813 .13798523-.20507813 .19299317-.20507813 .23298645-.14607239 .25099183-.108062747 .2829895-.04508972 .30599977 .07583618 .30699159 .082839969L.36698915 .3996582Z"/>
<path id="font_1_7" d="M.32398988 .7499695C.30999757 .7449646 .2919922 .7259674 .27999879 .71395877 .15499878 .5919647 .100997928 .42297364 .100997928 .25097657 .100997928 .066986087 .16299439-.12200928 .31298829-.2420044 .31799317-.2460022 .32398988-.25 .32998658-.25 .33599855-.25 .34098817-.24501038 .34098817-.23901367 .34098817-.227005 .31399537-.20600891 .3039856-.19500733 .19599915-.072006229 .1639862 .09298706 .1639862 .25198365 .1639862 .41897584 .20199585 .5959625 .32499696 .7189636 .33099366 .7239685 .34098817 .7319641 .34098817 .7399597 .34098817 .7459717 .33599855 .75097659 .32899476 .75097659 .32699586 .75097659 .32598878 .75097659 .32398988 .7499695Z"/>
<path id="font_1_3" d="M.36299134 .39424134C.34098817 .38623048 .32299806 .37423707 .32299806 .347229 .32299806 .32322694 .33999635 .301239 .36898805 .301239 .394989 .301239 .41600038 .3202362 .41600038 .350235 .41600038 .42123414 .33099366 .44622804 .269989 .4482422H.2599945C.14399719 .4482422 .033996583 .3542328 .033996583 .2182312 .033996583 .096221927 .12998963-.009765625 .2579956-.009765625 .32798768-.009765625 .3919983 .02722168 .41999818 .098236087 .42199708 .10423279 .4269867 .11323547 .4269867 .120224 .4269867 .12823487 .41999818 .13223267 .41299439 .13223267 .3959961 .13223267 .394989 .10623169 .3869934 .09222412 .36299134 .047225954 .31900025 .018234253 .2639923 .018234253 .15499878 .018234253 .12098694 .14323426 .12098694 .2202301 .12098694 .30223084 .14898682 .42022706 .2619934 .42022706 .2889862 .42022706 .31799317 .41622926 .34298707 .40522767 .34999085 .40223695 .35598756 .39723207 .36299134 .39422608V.39424134Z"/>
<path id="font_1_8" d="M.06498718 .7499695C.05999756 .7479706 .057998659 .7439575 .057998659 .7399597 .057998659 .72895815 .08198547 .70996096 .09098816 .7009735 .20098877 .57896426 .23498535 .40696717 .23498535 .24697876 .23498535 .082977298 .19699097-.09501648 .07499695-.2170105 .068984989-.2230072 .057998659-.23001099 .057998659-.23800659 .057998659-.2440033 .06399536-.25 .070999149-.25H.07199097C.083999637-.2480011 .10398865-.227005 .117996219-.21400452 .24198914-.09701538 .2979889 .07698059 .2979889 .24497986 .2979889 .42797853 .23799134 .6259613 .085998538 .7429657 .08099365 .7459717 .07499695 .75097659 .068984989 .75097659 .067993167 .75097659 .066986087 .75097659 .06498718 .7499695Z"/>
<path id="font_2_1" d="M.3999939 .318985C.42999269 .37994386 .44799806 .4479065 .44799806 .51586917 .44799806 .6128235 .36898805 .6858063 .27198792 .6858063 .19198609 .6858063 .102996829 .6278076 .07899475 .6038208 .050994874 .5758362 .021987915 .54585269 .021987915 .50587466 .021987915 .44691468 .069992069 .41792298 .100997928 .37295533 .10699463 .36495973 .11199951 .35595704 .11199951 .34596253 .11199951 .31298829 .07798767 .28300477 .04798889 .26600648L.06399536 .25502015C.116989139 .28100587 .18099976 .3289795 .18099976 .38793946 .18099976 .4459076 .085998538 .4928894 .085998538 .53785708 .085998538 .5948334 .14498902 .6328125 .19699097 .6328125 .29599 .6328125 .36799623 .54885867 .36799623 .4519043 .36799623 .39793397 .35899354 .3349762 .32499696 .29100038 .2849884 .23802185 .20899964 .18305969 .14399719 .1330719L.03199768 .048095704 .04798889 .037094118C.083999637 .06008911 .115997318 .07707214 .15299988 .07707214 .22200012 .07707214 .2659912 .02810669 .29899598-.026870728L.5019989 .12307739C.5179901 .07107544 .5339966 .022109986 .5649872-.026870728L.70899966 .08506775 .7029877 .10107422C.6859894 .09207153 .6589966 .07608032 .6429901 .07608032 .625 .07608032 .6009979 .1390686 .59098818 .16506958 .58799746 .174057 .58699038 .18605042 .58599856 .197052 .58299258 .25701905 .58099368 .31698609 .58099368 .37794496 .58099368 .47789 .57699587 .6178131 .5970001 .6437988 .6029968 .6538086 .6239929 .6728058 .6389923 .6858063L.6230011 .69680789 .49598695 .6008301C.49798585 .5618439 .5009918 .51586917 .5009918 .4738922V.14906311C.45098878 .11706543 .36898805 .065078739 .35699464 .064086917L.30899049 .112075809C.2869873 .13406372 .2619934 .15507508 .22200012 .15507508L.3999939 .318985Z"/>
<path id="font_1_6" d="M.02999878 .43138124V.40037538H.04899597C.07899475 .40037538 .10699463 .39736939 .10699463 .35736085V-.1212616C.10699463-.16242981 .07699585-.16242981 .02999878-.16242981V-.19335938L.100997928-.19042969H.2579956V-.16242981H.23298645C.20599365-.16242981 .18099976-.15841675 .18099976-.12226868V.049240114C.21499634 .01322937 .25498963-.009765625 .30699159-.009765625 .42599488-.009765625 .5359955 .087249759 .5359955 .2163086 .5359955 .33033753 .44799806 .4423828 .31999208 .4423828 .2639923 .4423828 .21499634 .41838075 .17799378 .379364V.4423828L.02999878 .43138124M.44799806 .20129395C.44400025 .12226868 .397995 .0152282719 .2979889 .0152282719 .24598694 .0152282719 .18099976 .0662384 .18099976 .11026001V.2743225C.18099976 .287323 .17999268 .29933167 .17999268 .31233216 .17999268 .36836244 .2519989 .41436769 .30999757 .41436769 .4039917 .41436769 .44898988 .29733277 .44898988 .2203064 .44898988 .21429444 .44898988 .20730591 .44799806 .20129395Z"/>
<path id="font_1_5" d="M.24198914 .4482422C.12599182 .43623353 .02999878 .34223939 .02999878 .2142334 .02999878 .11122131 .10699463-.009765625 .25698854-.009765625 .37399293-.009765625 .48399354 .083221439 .48399354 .21322632 .48399354 .33221437 .3909912 .44921876 .2559967 .44921876 .25099183 .449234 .24699402 .4482422 .24198914 .4482422M.115997318 .19122315V.23423767C.115997318 .31321717 .14099121 .42321778 .25698854 .42321778 .33699037 .42321778 .38598634 .36021424 .394989 .28121949 .39698792 .2602234 .39698792 .23921204 .39698792 .21821594 .39698792 .16522217 .3939972 .10722351 .35798646 .06523132 .33299256 .034225465 .2939911 .018234253 .2559967 .018234253 .18299866 .018234253 .13198853 .07322693 .11898804 .1532135 .117996219 .16621399 .117996219 .17822266 .115997318 .19122315Z"/>
<path id="font_1_10" d="M.09098816 .034225465C.12298584 .0022277833 .1639862-.009765625 .20698548-.009765625 .2889862-.009765625 .36999513 .032226564 .36999513 .12922669V.14022827C.3659973 .19622803 .32199098 .2392273 .27198792 .2582245 .24699402 .26722718 .21899414 .27122499 .19299317 .27622987 .15098572 .28422547 .084991458 .29623414 .084991458 .3542328 .084991458 .41223146 .1579895 .426239 .20098877 .426239 .2639923 .426239 .30999757 .38923646 .31599427 .3182373 .31599427 .31022645 .31698609 .30023194 .32899476 .30023194 .33599855 .30023194 .34298707 .30422975 .34399415 .31123353V.43223573C.34399415 .4392395 .34098817 .4482422 .33198548 .4482422 .31698609 .4482422 .30599977 .42323304 .2939911 .42323304H.2919922C.2849884 .42523194 .27799989 .43122865 .27198792 .43423463 .25099183 .44422914 .22499085 .4482422 .20098877 .4482422 .12998963 .4482422 .033996583 .42523194 .033996583 .32322694 .033996583 .222229 .15098572 .20523072 .22299195 .19122315 .2669983 .18322754 .31498719 .15722656 .31900025 .10823059 .31900025 .036224367 .25898744 .0152282719 .20599365 .0152282719H.19599915C.12298584 .019226075 .08299255 .07423401 .06599426 .14323426 .06298828 .15423584 .06298828 .17022705 .04798889 .17022705 .036987306 .17022705 .033996583 .16223145 .033996583 .15322876V.024230957C.033996583 .020233155 .032989503 .0152282719 .032989503 .010223389 .032989503 .00022888184 .034988405-.009765625 .04598999-.009765625 .054992677-.009765625 .06298828 .0022277833 .068984989 .008224487L.07398987 .014221191C.07998657 .021224976 .085998538 .02722168 .09098816 .034225465Z"/>
<path id="font_1_11" d="M.1519928 .6152344C.1519928 .54244998 .117996219 .4248047 .018997193 .4248047V.39979554L.10598755 .3996582V.1360321C.10598755 .10507202 .10798645 .07510376 .12399292 .04814148 .147995 .006210327 .19799805-.009765625 .24398804-.009765625H.25299073C.32899476 .0032043458 .34199525 .08609009 .34199525 .14501953V.18196106H.31399537C.31399537 .16798401 .31498719 .15299988 .31498719 .13801575 .31498719 .09408569 .30499269 .018188477 .24598694 .018188477 .19198609 .018188477 .17999268 .081100467 .17999268 .1300354V.3996582H.32499696V.43066407H.17999268V.6152344H.1519928Z"/>
<path id="font_1_2" d="M.039993287 .68359377V.65260317C.051986696 .6525574 .06498718 .65356448 .07798767 .65356448 .11199951 .65356448 .14199829 .64756777 .14199829 .6085968V.07594299C.14199829 .032974245 .10598755 .031967164 .067993167 .031967164H.039993287V.0009765625H.32598878C.34799195 .0009918213 .36999513 0 .3919983 0 .5130005 0 .6639862 .05795288 .71398928 .23883057 .72299197 .270813 .72698977 .3027954 .72698977 .33576966 .72698977 .51464846 .6029968 .6845703 .3939972 .6845703 .37098695 .6845856 .34799195 .68359377 .32598878 .68359377H.039993287M.6269989 .3038025C.6269989 .17988587 .5669861 .07295227 .45399476 .04096985 .42199708 .031967164 .3909912 .031967164 .35798646 .031967164H.2689972C.24598694 .031967164 .22799683 .036972047 .22799683 .06794739 .22799683 .07493591 .22898865 .0819397 .22898865 .0879364V.5796509C.22898865 .5886383 .22799683 .5986328 .22799683 .60762026 .22799683 .63661196 .23098755 .65260317 .272995 .65260317H.29299928C.31498719 .6525574 .33699037 .65356448 .35899354 .65356448 .43199159 .65356448 .5079956 .64256289 .56799319 .5656128 .6199951 .5006561 .6289978 .40872193 .6289978 .33078004 .6289978 .32177735 .6279907 .31278993 .6269989 .30378724V.3038025Z"/>
<path id="font_1_1" d="M.033996583 .031967164V.0009765625L.09599304 .003967285H.24798584V.031967164C.21899414 .031967164 .17599488 .044952394 .17599488 .08190918 .17599488 .09489441 .18099976 .10787964 .18598938 .11985779 .20298767 .16680908 .21699524 .22973633 .23599243 .22973633H.47399903C.49198915 .22973633 .5039978 .1737976 .5139923 .14683533 .522995 .11985779 .54299929 .08091736 .54299929 .061935426 .54299929 .031967164 .48799134 .031967164 .46099855 .031967164V.0009765625H.7350006V.031967164H.70700076C.68499758 .031967164 .6609955 .033966066 .6489868 .045959474 .6359863 .058929445 .6319885 .07791138 .6259918 .09390259 .55400088 .28674317 .4869995 .48275758 .41600038 .67578127L.4079895 .6967926C.4039917 .7077942 .3999939 .7167969 .38398744 .7167969 .36299134 .7167969 .35899354 .69277957 .35299684 .67678835 .2919922 .50675967 .23098755 .3347473 .16899109 .165802L.15098572 .114868167C.12998963 .051940919 .08898926 .031967164 .033996583 .031967164M.23699951 .2607422 .35499574 .58776858 .47299195 .2607422H.23699951Z"/>
<path id="font_1_9" d="M.13398743 .10836792C.10899353 .10534668 .08799744 .08326721 .08799744 .055160524 .08799744 .029067994 .10798645 .0009765625 .13999939 .0009765625 .16499329 .0009765625 .19599915 .01902771 .19599915 .055160524 .19599915 .08226013 .1749878 .109375 .14199829 .109375 .13899231 .109375 .13699341 .109375 .13398743 .10836792Z"/>
<path id="font_1_4" d="M.31498719 .6843109V.6533203H.32598878C.3659973 .6533203 .3919983 .6513214 .3919983 .59233096V.38336183C.35899354 .42237855 .31199647 .4423828 .2619934 .4423828 .13798523 .4423828 .033996583 .3383484 .033996583 .21530152 .033996583 .101257327 .1269989-.009765625 .2519989-.009765625 .29899598-.009765625 .36299134 .01322937 .3880005 .054244996L.3889923-.009765625 .5399933 .0012207031V.032226564H.5249939C.49198915 .032226564 .46299745 .035232545 .46299745 .08224487V.6953125L.31498719 .6843109M.12098694 .19329834V.20730591C.12098694 .28833009 .14099121 .41638185 .2669983 .41638185 .31799317 .41638185 .3899994 .37835694 .3899994 .3163452 .3899994 .30332948 .3889923 .29133607 .3889923 .2783203V.11425781C.3889923 .101257327 .38398744 .09225464 .3769989 .08224487 .34999085 .04324341 .30499269 .0152282719 .2579956 .0152282719 .21899414 .0152282719 .18299866 .035232545 .15899658 .0662384 .12998963 .103256229 .12599182 .14826966 .12098694 .19329834Z"/>
<path id="font_3_4" d="M.19599915 .3766632C.19599915 .406662 .17199707 .43066407 .14199829 .43066407 .11199951 .43066407 .08799744 .406662 .08799744 .3766632 .08799744 .34765626 .11199951 .32266236 .14199829 .32266236 .17199707 .32266236 .19599915 .34765626 .19599915 .3766632M.17399597 .008987427C.17399597-.015045166 .17298889-.095199588 .10998535-.1673584 .101989749-.17636109 .101989749-.17736817 .101989749-.18136597 .101989749-.18637085 .10798645-.19335938 .114990238-.19335938 .12399292-.19335938 .19898987-.116256717 .19898987 .0039978029 .19898987 .0289917 .19898987 .10798645 .14099121 .10798645 .10998535 .10798645 .08799744 .083999637 .08799744 .053985597 .08799744 .026992798 .10699463 0 .14199829 0 .1619873 0 .16799927 .0039978029 .17399597 .008987427Z"/>
<path id="font_3_6" d="M.3889923 .120285037C.3889923 .10227966 .3889923 .09927368 .37399293 .07827759 .34298707 .0332489 .29699708 .014251709 .25698854 .014251709 .21398926 .014251709 .17399597 .038253786 .147995 .08027649 .12199402 .123291019 .11999512 .18229676 .11999512 .21430969 .11999512 .26132203 .12599182 .3143463 .1519928 .35435487 .17399597 .3863678 .21499634 .41737367 .2679901 .41737367 .30999757 .41737367 .34999085 .39637757 .3769989 .35835267 .3889923 .3423462 .3889923 .34135438 .3889923 .32234193V.120285037M.3919983 .38336183C.3869934 .38937379 .34199525 .4423828 .2639923 .4423828 .14099121 .4423828 .033996583 .34436036 .033996583 .21531677 .033996583 .090270999 .13398743-.0107421879 .25299073-.0107421879 .32598878-.0107421879 .37098695 .03225708 .3889923 .053268434V-.011001587L.5399933 0V.0309906C.47200013 .0309906 .46299745 .037994386 .46299745 .087020877V.69433596L.31498719 .68333438V.6523285C.3829956 .6523285 .3919983 .6453247 .3919983 .5962982V.38336183Z"/>
<path id="font_3_7" d="M.48399354 .21324158C.48399354 .34423829 .37998963 .4482422 .25698854 .4482422 .12998963 .4482422 .0289917 .3412323 .0289917 .21324158 .0289917 .08824158 .1329956-.0107421879 .2559967-.0107421879 .3829956-.0107421879 .48399354 .09024048 .48399354 .21324158M.25698854 .01725769C.20698548 .01725769 .16499329 .042251588 .14199829 .08125305 .115997318 .12324524 .114990238 .17623902 .114990238 .22224427 .114990238 .25924684 .114990238 .3162384 .13999939 .35723878 .16999817 .40823365 .21998596 .42323304 .2559967 .42323304 .31298829 .42323304 .35398866 .39123536 .37399293 .35723878 .39698792 .31523133 .397995 .26423646 .397995 .22224427 .397995 .1852417 .397995 .12724304 .37298585 .08325195 .34498597 .037246705 .29899598 .01725769 .25698854 .01725769Z"/>
<path id="font_3_1" d="M.34098817-.23803711C.34098817-.23303223 .33799745-.23002625 .33198548-.22303772 .20298767-.105026248 .1639862 .07498169 .1639862 .24996948 .1639862 .40498353 .19400025 .59298709 .33499146 .72698977 .33898927 .73098757 .34098817 .73399356 .34098817 .7389984 .34098817 .74598696 .33599855 .75 .32899476 .75 .31698609 .75 .22698975 .6779785 .17298889 .568985 .125 .47297669 .100997928 .36997987 .100997928 .25097657 .100997928 .17897034 .10998535 .064971927 .16499329-.053024293 .22399903-.17602539 .31698609-.24902344 .32899476-.24902344 .33599855-.24902344 .34098817-.24502564 .34098817-.23803711Z"/>
<path id="font_4_1" d="M.30299378 .36865235H.47599793C.4889984 .36865235 .526001 .36865235 .526001 .4046631 .526001 .43066407 .5039978 .43066407 .4850006 .43066407H.19599915C.17199707 .43066407 .13699341 .43066407 .08999634 .38365174 .06298828 .3566742 .026992798 .30177308 .026992798 .29379273 .026992798 .2828064 .037994386 .2828064 .040985109 .2828064 .04899597 .2828064 .050994874 .2848053 .056991579 .29478456 .10598755 .36865235 .16699219 .36865235 .18699646 .36865235H.2709961L.16899109 .038223268C.1639862 .023254395 .1639862 .021255494 .1639862 .01626587 .1639862 .0012664795 .17298889-.01171875 .19499207-.01171875 .22399903-.01171875 .23399353 .012268066 .23799134 .031234742L.30299378 .36865235Z"/>
<path id="font_3_3" d="M.19599915 .3766632C.19599915 .406662 .17199707 .43066407 .14199829 .43066407 .11199951 .43066407 .08799744 .406662 .08799744 .3766632 .08799744 .34765626 .11199951 .32266236 .14199829 .32266236 .17199707 .32266236 .19599915 .34765626 .19599915 .3766632M.19599915 .053985597C.19599915 .08299255 .17199707 .10798645 .14199829 .10798645 .11199951 .10798645 .08799744 .08299255 .08799744 .053985597 .08799744 .023986817 .11199951 0 .14199829 0 .17199707 0 .19599915 .023986817 .19599915 .053985597Z"/>
<path id="font_3_5" d="M.70799258 .3310089C.7220001 .3310089 .7409973 .3310089 .7409973 .35202027 .7409973 .37402345 .71899417 .37402345 .70399478 .37402345H.09399414C.07899475 .37402345 .056991579 .37402345 .056991579 .35202027 .056991579 .3310089 .07699585 .3310089 .08999634 .3310089H.70799258M.70399478 .12695313C.71899417 .12695313 .7409973 .12695313 .7409973 .14894104 .7409973 .1699524 .7220001 .1699524 .70799258 .1699524H.08999634C.07699585 .1699524 .056991579 .1699524 .056991579 .14894104 .056991579 .12695313 .07899475 .12695313 .09399414 .12695313H.70399478Z"/>
<path id="font_4_2" d="M.7739868 .67807009C.7769928 .6900635 .7769928 .69207766 .7769928 .69407656 .7769928 .69506838 .776001 .7050781 .7649994 .7050781 .7589874 .7050781 .7559967 .70207217 .7489929 .69407656L.6879883 .6269989C.6839905 .62197878 .6799927 .61798098 .67900088 .61798098 .6779938 .61798098 .6769867 .61898806 .67099 .6259918 .6559906 .6460266 .61099246 .7050781 .5069885 .7050781 .27799989 .7050781 .050994874 .48275758 .050994874 .25442506 .050994874 .0974884 .16299439-.022460938 .33299256-.022460938 .44699098-.022460938 .522995 .026519776 .5499878 .06150818 .55799868 .038513185 .58399966 .0005340576 .59599307 .0005340576 .60398867 .0005340576 .60598757 .0055389406 .61099246 .025527955L.6299896 .102493289C.6369934 .12948609 .6469879 .17045594 .6519928 .1924591 .6649933 .23942566 .6649933 .24142456 .72299197 .24243164 .72698977 .24243164 .73999026 .24342346 .73999026 .260437 .73999026 .26142884 .73999026 .2734375 .7259979 .2734375 .71798709 .2734375 .6799927 .27142335 .6729889 .27043153H.6159973C.59298709 .27043153 .56900027 .27142335 .5469971 .27142335 .522995 .27142335 .49699403 .2734375 .47399903 .2734375 .46499635 .2734375 .45298768 .2734375 .45298768 .25543214 .45298768 .24243164 .46199037 .24243164 .4869995 .24243164 .5089874 .24243164 .5139923 .24243164 .5389862 .24043274 .56599429 .23742676 .57099917 .23443604 .57099917 .22143555 .57099917 .21743775 .57099917 .21543885 .56399539 .1904602 .5569916 .1614685 .54499819 .113479617 .5419922 .10548401 .5079956 .03251648 .41099549 .008529663 .34899903 .008529663 .26098634 .008529663 .14498902 .056503297 .14498902 .22044373 .14498902 .2824402 .1659851 .42967225 .2599945 .54486086 .31900025 .6169739 .41799928 .67407229 .5139923 .67407229 .625 .67407229 .6839905 .5889282 .6839905 .47875978 .6839905 .44470216 .68099978 .43769837 .68099978 .42967225 .68099978 .4186554 .69299319 .4186554 .69599917 .4186554 .70899966 .4186554 .70899966 .42066957 .71398928 .43969728L.7739868 .67807009Z"/>
<path id="font_3_2" d="M.2979889 .25097657C.2979889 .3329773 .28599549 .4429779 .23399353 .5539856 .1749878 .6769867 .08198547 .75 .069992069 .75 .05999756 .75 .057998659 .74198916 .057998659 .7389984 .057998659 .73399356 .05999756 .73098757 .066986087 .72398379 .125 .6719818 .23498535 .5359802 .23498535 .25097657 .23498535 .10797119 .20899964-.091033939 .06399536-.22602844 .06199646-.22903443 .057998659-.23303223 .057998659-.23803711 .057998659-.24102783 .05999756-.24902344 .069992069-.24902344 .08198547-.24902344 .17199707-.17703247 .22599793-.06802368 .27398683 .02796936 .2979889 .13098145 .2979889 .25097657Z"/>
</defs>
<path transform="matrix(1,0,0,-1,17.775,13.349998)" d="M9.96277 0C9.96277 5.50235 5.50235 9.96277 0 9.96277-5.50235 9.96277-9.96277 5.50235-9.96277 0-9.96277-5.50235-5.50235-9.96277 0-9.96277 5.50235-9.96277 9.96277-5.50235 9.96277 0ZM0 0" fill="#ffffff"/>
<path transform="matrix(1,0,0,-1,17.775,13.349998)" stroke-width=".79701" stroke-linecap="butt" stroke-miterlimit="10" stroke-linejoin="miter" fill="none" stroke="#000000" d="M9.96277 0C9.96277 5.50235 5.50235 9.96277 0 9.96277-5.50235 9.96277-9.96277 5.50235-9.96277 0-9.96277-5.50235-5.50235-9.96277 0-9.96277 5.50235-9.96277 9.96277-5.50235 9.96277 0ZM0 0"/>
<use data-text="C" xlink:href="#font_0_1" transform="matrix(9.9626,0,0,-9.9626,13.858999,16.753998)"/>
<path transform="matrix(1,0,0,-1,17.775,13.349998)" d="M9.96277-49.06935C9.96277-43.56699 5.50235-39.10658 0-39.10658-5.50235-39.10658-9.96277-43.56699-9.96277-49.06935-9.96277-54.5717-5.50235-59.03212 0-59.03212 5.50235-59.03212 9.96277-54.5717 9.96277-49.06935ZM0-49.06935" fill="#dfdfdf"/>
<path transform="matrix(1,0,0,-1,17.775,13.349998)" stroke-width=".79701" stroke-linecap="butt" stroke-miterlimit="10" stroke-linejoin="miter" fill="none" stroke="#000000" d="M9.96277-49.06935C9.96277-43.56699 5.50235-39.10658 0-39.10658-5.50235-39.10658-9.96277-43.56699-9.96277-49.06935-9.96277-54.5717-5.50235-59.03212 0-59.03212 5.50235-59.03212 9.96277-54.5717 9.96277-49.06935ZM0-49.06935"/>
<use data-text="Y" xlink:href="#font_0_4" transform="matrix(9.9626,0,0,-9.9626,13.776999,65.823)"/>
<path transform="matrix(1,0,0,-1,17.775,13.349998)" d="M59.03212 0C59.03212 5.50235 54.5717 9.96277 49.06935 9.96277 43.56699 9.96277 39.10658 5.50235 39.10658 0 39.10658-5.50235 43.56699-9.96277 49.06935-9.96277 54.5717-9.96277 59.03212-5.50235 59.03212 0ZM49.06935 0" fill="#dfdfdf"/>
<path transform="matrix(1,0,0,-1,17.775,13.349998)" stroke-width=".79701" stroke-linecap="butt" stroke-miterlimit="10" stroke-linejoin="miter" fill="none" stroke="#000000" d="M59.03212 0C59.03212 5.50235 54.5717 9.96277 49.06935 9.96277 43.56699 9.96277 39.10658 5.50235 39.10658 0 39.10658-5.50235 43.56699-9.96277 49.06935-9.96277 54.5717-9.96277 59.03212-5.50235 59.03212 0ZM49.06935 0"/>
<use data-text="X" xlink:href="#font_0_3" transform="matrix(9.9626,0,0,-9.9626,62.325998,16.753998)"/>
<path transform="matrix(1,0,0,-1,17.775,13.349998)" d="M59.03212-49.06935C59.03212-43.56699 54.5717-39.10658 49.06935-39.10658 43.56699-39.10658 39.10658-43.56699 39.10658-49.06935 39.10658-54.5717 43.56699-59.03212 49.06935-59.03212 54.5717-59.03212 59.03212-54.5717 59.03212-49.06935ZM49.06935-49.06935" fill="#dfdfdf"/>
<path transform="matrix(1,0,0,-1,17.775,13.349998)" stroke-width=".79701" stroke-linecap="butt" stroke-miterlimit="10" stroke-linejoin="miter" fill="none" stroke="#000000" d="M59.03212-49.06935C59.03212-43.56699 54.5717-39.10658 49.06935-39.10658 43.56699-39.10658 39.10658-43.56699 39.10658-49.06935 39.10658-54.5717 43.56699-59.03212 49.06935-59.03212 54.5717-59.03212 59.03212-54.5717 59.03212-49.06935ZM49.06935-49.06935"/>
<use data-text="G" xlink:href="#font_0_2" transform="matrix(9.9626,0,0,-9.9626,62.928,65.823)"/>
<path transform="matrix(1,0,0,-1,17.775,13.349998)" d="M86.89217-24.3216 73.2263-10.65573 59.56042-24.3216 73.2263-37.98746Z" fill="#dfdfdf"/>
<path transform="matrix(1,0,0,-1,17.775,13.349998)" stroke-width=".79701" stroke-linecap="butt" stroke-miterlimit="10" stroke-linejoin="miter" fill="none" stroke="#000000" d="M86.89217-24.3216 73.2263-10.65573 59.56042-24.3216 73.2263-37.98746Z"/>
<use data-text="G" xlink:href="#font_0_2" transform="matrix(9.9626,0,0,-9.9626,82.567,41.074998)"/>
<use data-text="X" xlink:href="#font_0_3" transform="matrix(9.9626,0,0,-9.9626,90.397609,41.074998)"/>
<path transform="matrix(1,0,0,-1,17.775,13.349998)" stroke-width=".79701" stroke-linecap="butt" stroke-miterlimit="10" stroke-linejoin="miter" fill="none" stroke="#ff0000" d="M41.74281-7.32652 8.29446-40.77487"/>
<path transform="matrix(-.7071,.7071,.7071,.7071,26.06946,54.12487)" d="M-6.0708 2.72491 .34868 0-6.0708-2.72491Z" fill="#ff0000"/>
<path transform="matrix(-.7071,.7071,.7071,.7071,26.06946,54.12487)" stroke-width=".79701" stroke-linecap="butt" stroke-miterlimit="10" stroke-linejoin="miter" fill="none" stroke="#ff0000" d="M-6.0708 2.72491 .34868 0-6.0708-2.72491Z"/>
<use data-text="f" xlink:href="#font_0_5" transform="matrix(9.9626,0,0,-9.9626,42.777,45.079)" fill="#ff0000"/>
<path transform="matrix(1,0,0,-1,17.775,13.349998)" stroke-width=".79701" stroke-linecap="butt" stroke-miterlimit="10" stroke-linejoin="miter" fill="none" stroke="#000000" d="M10.36127 0H37.3392"/>
<path transform="matrix(1,0,0,-1,55.114198,13.349998)" d="M-6.0708 2.72491 .34868 0-6.0708-2.72491Z"/>
<path transform="matrix(1,0,0,-1,55.114198,13.349998)" stroke-width=".79701" stroke-linecap="butt" stroke-miterlimit="10" stroke-linejoin="miter" fill="none" stroke="#000000" d="M-6.0708 2.72491 .34868 0-6.0708-2.72491Z"/>
<path transform="matrix(1,0,0,-1,17.775,13.349998)" stroke-width=".79701" stroke-linecap="butt" stroke-miterlimit="10" stroke-linejoin="miter" fill="none" stroke="#000000" d="M0-10.36127V-37.3392"/>
<path transform="matrix(0,1,1,0,17.775,50.689199)" d="M-6.0708 2.72491 .34868 0-6.0708-2.72491Z"/>
<path transform="matrix(0,1,1,0,17.775,50.689199)" stroke-width=".79701" stroke-linecap="butt" stroke-miterlimit="10" stroke-linejoin="miter" fill="none" stroke="#000000" d="M-6.0708 2.72491 .34868 0-6.0708-2.72491Z"/>
<path transform="matrix(1,0,0,-1,17.775,13.349998)" stroke-width=".79701" stroke-linecap="butt" stroke-miterlimit="10" stroke-linejoin="miter" fill="none" stroke="#000000" d="M56.37059-7.35103 65.17049-16.2108"/>
<path transform="matrix(.70467,.70947,.70947,-.70467,82.94549,29.560799)" d="M-6.0708 2.72491 .34868 0-6.0708-2.72491Z"/>
<path transform="matrix(.70467,.70947,.70947,-.70467,82.94549,29.560799)" stroke-width=".79701" stroke-linecap="butt" stroke-miterlimit="10" stroke-linejoin="miter" fill="none" stroke="#000000" d="M-6.0708 2.72491 .34868 0-6.0708-2.72491Z"/>
<path transform="matrix(1,0,0,-1,17.775,13.349998)" stroke-width=".79701" stroke-linecap="butt" stroke-miterlimit="10" stroke-linejoin="miter" fill="none" stroke="#000000" d="M56.30638-41.65524 65.24075-32.50273"/>
<path transform="matrix(.69849,-.71556,-.71556,-.69849,83.01574,45.85273)" d="M-6.0708 2.72491 .34868 0-6.0708-2.72491Z"/>
<path transform="matrix(.69849,-.71556,-.71556,-.69849,83.01574,45.85273)" stroke-width=".79701" stroke-linecap="butt" stroke-miterlimit="10" stroke-linejoin="miter" fill="none" stroke="#000000" d="M-6.0708 2.72491 .34868 0-6.0708-2.72491Z"/>
<use data-text="(" xlink:href="#font_1_7" transform="matrix(8.9664,0,0,-8.9664,25.711,89.023998)"/>
<use data-text="c" xlink:href="#font_1_3" transform="matrix(8.9664,0,0,-8.9664,29.29756,89.023998)"/>
<use data-text=")" xlink:href="#font_1_8" transform="matrix(8.9664,0,0,-8.9664,33.395204,89.023998)"/>
<use data-text="A" xlink:href="#font_2_1" transform="matrix(8.9664,0,0,-8.9664,40.04827,89.023998)"/>
<use data-text="p" xlink:href="#font_1_6" transform="matrix(8.9664,0,0,-8.9664,49.56162,89.023998)"/>
<use data-text="o" xlink:href="#font_1_5" transform="matrix(8.9664,0,0,-8.9664,54.94146,89.023998)"/>
<use data-text="s" xlink:href="#font_1_10" transform="matrix(8.9664,0,0,-8.9664,59.55019,89.023998)"/>
<use data-text="t" xlink:href="#font_1_11" transform="matrix(8.9664,0,0,-8.9664,63.181585,89.023998)"/>
<use data-text="D" xlink:href="#font_1_2" transform="matrix(8.9664,0,0,-8.9664,69.83465,89.023998)"/>
<use data-text="A" xlink:href="#font_1_1" transform="matrix(8.9664,0,0,-8.9664,76.622219,89.023998)"/>
<use data-text="." xlink:href="#font_1_9" transform="matrix(8.9664,0,0,-8.9664,83.53531,89.023998)"/>
<path transform="matrix(1,0,0,-1,130.443,13.349998)" d="M9.96277 0C9.96277 5.50235 5.50235 9.96277 0 9.96277-5.50235 9.96277-9.96277 5.50235-9.96277 0-9.96277-5.50235-5.50235-9.96277 0-9.96277 5.50235-9.96277 9.96277-5.50235 9.96277 0ZM0 0" fill="#ffffff"/>
<path transform="matrix(1,0,0,-1,130.443,13.349998)" stroke-width=".79701" stroke-linecap="butt" stroke-miterlimit="10" stroke-linejoin="miter" fill="none" stroke="#000000" d="M9.96277 0C9.96277 5.50235 5.50235 9.96277 0 9.96277-5.50235 9.96277-9.96277 5.50235-9.96277 0-9.96277-5.50235-5.50235-9.96277 0-9.96277 5.50235-9.96277 9.96277-5.50235 9.96277 0ZM0 0"/>
<use data-text="C" xlink:href="#font_0_1" transform="matrix(9.9626,0,0,-9.9626,126.52599,16.753998)"/>
<path transform="matrix(1,0,0,-1,130.443,13.349998)" d="M9.96277-49.06935C9.96277-43.56699 5.50235-39.10658 0-39.10658-5.50235-39.10658-9.96277-43.56699-9.96277-49.06935-9.96277-54.5717-5.50235-59.03212 0-59.03212 5.50235-59.03212 9.96277-54.5717 9.96277-49.06935ZM0-49.06935" fill="#dfdfdf"/>
<path transform="matrix(1,0,0,-1,130.443,13.349998)" stroke-width=".79701" stroke-linecap="butt" stroke-miterlimit="10" stroke-linejoin="miter" fill="none" stroke="#000000" d="M9.96277-49.06935C9.96277-43.56699 5.50235-39.10658 0-39.10658-5.50235-39.10658-9.96277-43.56699-9.96277-49.06935-9.96277-54.5717-5.50235-59.03212 0-59.03212 5.50235-59.03212 9.96277-54.5717 9.96277-49.06935ZM0-49.06935"/>
<use data-text="Y" xlink:href="#font_0_4" transform="matrix(9.9626,0,0,-9.9626,126.44399,65.823)"/>
<path transform="matrix(1,0,0,-1,130.443,13.349998)" d="M39.10658-9.96277H59.03212V9.96277H39.10658Z" fill="#dfdfdf"/>
<path transform="matrix(1,0,0,-1,130.443,13.349998)" stroke-width=".79701" stroke-linecap="butt" stroke-miterlimit="10" stroke-linejoin="miter" fill="none" stroke="#000000" d="M39.10658-9.96277H59.03212V9.96277H39.10658Z"/>
<use data-text="X" xlink:href="#font_0_3" transform="matrix(9.9626,0,0,-9.9626,174.99399,16.753998)"/>
<path transform="matrix(1,0,0,-1,130.443,13.349998)" d="M59.03212-49.06935C59.03212-43.56699 54.5717-39.10658 49.06935-39.10658 43.56699-39.10658 39.10658-43.56699 39.10658-49.06935 39.10658-54.5717 43.56699-59.03212 49.06935-59.03212 54.5717-59.03212 59.03212-54.5717 59.03212-49.06935ZM49.06935-49.06935" fill="#dfdfdf"/>
<path transform="matrix(1,0,0,-1,130.443,13.349998)" stroke-width=".79701" stroke-linecap="butt" stroke-miterlimit="10" stroke-linejoin="miter" fill="none" stroke="#000000" d="M59.03212-49.06935C59.03212-43.56699 54.5717-39.10658 49.06935-39.10658 43.56699-39.10658 39.10658-43.56699 39.10658-49.06935 39.10658-54.5717 43.56699-59.03212 49.06935-59.03212 54.5717-59.03212 59.03212-54.5717 59.03212-49.06935ZM49.06935-49.06935"/>
<use data-text="G" xlink:href="#font_0_2" transform="matrix(9.9626,0,0,-9.9626,175.595,65.823)"/>
<path transform="matrix(1,0,0,-1,130.443,13.349998)" stroke-width=".79701" stroke-linecap="butt" stroke-miterlimit="10" stroke-linejoin="miter" fill="none" stroke="#ff0000" d="M38.70918-10.36127 8.29446-40.77492"/>
<path transform="matrix(-.7071,.70708,.70708,.7071,138.73746,54.12492)" d="M-6.0708 2.72491 .34868 0-6.0708-2.72491Z" fill="#ff0000"/>
<path transform="matrix(-.7071,.70708,.70708,.7071,138.73746,54.12492)" stroke-width=".79701" stroke-linecap="butt" stroke-miterlimit="10" stroke-linejoin="miter" fill="none" stroke="#ff0000" d="M-6.0708 2.72491 .34868 0-6.0708-2.72491Z"/>
<use data-text="f" xlink:href="#font_0_5" transform="matrix(9.9626,0,0,-9.9626,155.34999,45.173997)" fill="#ff0000"/>
<path transform="matrix(1,0,0,-1,130.443,13.349998)" stroke-width=".79701" stroke-linecap="butt" stroke-miterlimit="10" stroke-linejoin="miter" fill="none" stroke="#000000" d="M10.36127 0H37.3392"/>
<path transform="matrix(1,0,0,-1,167.7822,13.349998)" d="M-6.0708 2.72491 .34868 0-6.0708-2.72491Z"/>
<path transform="matrix(1,0,0,-1,167.7822,13.349998)" stroke-width=".79701" stroke-linecap="butt" stroke-miterlimit="10" stroke-linejoin="miter" fill="none" stroke="#000000" d="M-6.0708 2.72491 .34868 0-6.0708-2.72491Z"/>
<path transform="matrix(1,0,0,-1,130.443,13.349998)" stroke-width=".79701" stroke-linecap="butt" stroke-miterlimit="10" stroke-linejoin="miter" fill="none" stroke="#000000" d="M0-10.36127V-37.3392"/>
<path transform="matrix(0,1,1,0,130.443,50.689199)" d="M-6.0708 2.72491 .34868 0-6.0708-2.72491Z"/>
<path transform="matrix(0,1,1,0,130.443,50.689199)" stroke-width=".79701" stroke-linecap="butt" stroke-miterlimit="10" stroke-linejoin="miter" fill="none" stroke="#000000" d="M-6.0708 2.72491 .34868 0-6.0708-2.72491Z"/>
<path transform="matrix(1,0,0,-1,130.443,13.349998)" stroke-width=".79701" stroke-linecap="butt" stroke-miterlimit="10" stroke-linejoin="miter" fill="none" stroke="#000000" d="M49.06935-38.70807V-11.73015"/>
<path transform="matrix(0,-1,-1,-0,179.51235,25.080149)" d="M-6.0708 2.72491 .34868 0-6.0708-2.72491Z"/>
<path transform="matrix(0,-1,-1,-0,179.51235,25.080149)" stroke-width=".79701" stroke-linecap="butt" stroke-miterlimit="10" stroke-linejoin="miter" fill="none" stroke="#000000" d="M-6.0708 2.72491 .34868 0-6.0708-2.72491Z"/>
<use data-text="(" xlink:href="#font_1_7" transform="matrix(8.9664,0,0,-8.9664,116.854,89.023998)"/>
<use data-text="d" xlink:href="#font_1_4" transform="matrix(8.9664,0,0,-8.9664,120.44056,89.023998)"/>
<use data-text=")" xlink:href="#font_1_8" transform="matrix(8.9664,0,0,-8.9664,125.56037,89.023998)"/>
<use data-text="A" xlink:href="#font_2_1" transform="matrix(8.9664,0,0,-8.9664,132.2224,89.023998)"/>
<use data-text=";" xlink:href="#font_3_4" transform="matrix(8.9664,0,0,-8.9664,138.66028,89.023998)"/>
<use data-text="d" xlink:href="#font_3_6" transform="matrix(8.9664,0,0,-8.9664,142.75792,89.023998)"/>
<use data-text="o" xlink:href="#font_3_7" transform="matrix(8.9664,0,0,-8.9664,147.87773,89.023998)"/>
<use data-text="(" xlink:href="#font_3_1" transform="matrix(8.9664,0,0,-8.9664,152.48647,89.023998)"/>
<use data-text="&#x03c4;" xlink:href="#font_4_1" transform="matrix(8.9664,0,0,-8.9664,156.07303,89.023998)"/>
<use data-text=":" xlink:href="#font_3_3" transform="matrix(8.9664,0,0,-8.9664,163.694,88.712)"/>
<use data-text="=" xlink:href="#font_3_5" transform="matrix(8.9664,0,0,-8.9664,165.64,89.023998)"/>
<use data-text="G" xlink:href="#font_4_2" transform="matrix(8.9664,0,0,-8.9664,175.35958,89.023998)"/>
<use data-text="&#x03c4;" xlink:href="#font_4_1" transform="matrix(8.9664,0,0,-8.9664,182.57753,89.023998)"/>
<use data-text=")" xlink:href="#font_3_2" transform="matrix(8.9664,0,0,-8.9664,187.66149,89.023998)"/>
<use data-text="." xlink:href="#font_1_9" transform="matrix(8.9664,0,0,-8.9664,191.24805,89.023998)"/>
</svg>
