<svg xmlns="http://www.w3.org/2000/svg" xmlns:xlink="http://www.w3.org/1999/xlink" xmlns:inkscape="http://www.inkscape.org/namespaces/inkscape" version="1.1" width="460.8" height="345.6" viewBox="0 0 460.8 345.6">
<defs>
<clipPath id="clip_0">
<path transform="matrix(1,0,0,-1,0,345.6)" d="M61.752218 56.33863H440.0686V334.8H61.752218Z"/>
</clipPath>
<clipPath id="clip_1">
<path transform="matrix(1,0,0,-1,0,345.6)" d="M61.752218 56.33863H440.0686V334.8H61.752218Z"/>
</clipPath>
<clipPath id="clip_2">
<path transform="matrix(1,0,0,-1,0,345.6)" d="M61.752218 56.33863H440.0686V334.8H61.752218Z"/>
</clipPath>
<clipPath id="clip_3">
<path transform="matrix(1,0,0,-1,0,345.6)" d="M61.752218 56.33863H440.0686V334.8H61.752218Z"/>
</clipPath>
<path id="font_4_51" d="M.28799439 .64105227C.28799439 .664032 .28799439 .66503909 .2679901 .66503909 .24398804 .6380615 .19400025 .6012573 .09098816 .6012573V.5722656C.11399841 .5722656 .1639862 .5722656 .21899414 .59825137V.07701111C.21899414 .041000368 .21598816 .0289917 .12799073 .0289917H.09700012V0C.12399292 .0019989014 .22099304 .0019989014 .2539978 .0019989014 .2869873 .0019989014 .3829956 .0019989014 .4099884 0V.0289917H.3789978C.29100038 .0289917 .28799439 .041000368 .28799439 .07701111V.64105227Z"/>
<path id="font_4_50" d="M.44799806 .31976319C.44799806 .40283204 .44299317 .48390199 .40699769 .55996707 .3659973 .64302065 .2939911 .66503909 .24499512 .66503909 .18699646 .66503909 .115997318 .63601687 .07899475 .552948 .050994874 .48989869 .040985109 .42785646 .040985109 .31976319 .040985109 .22268677 .04798889 .14962769 .083999637 .078567508 .12298584 .0025177003 .19198609-.021484375 .24398804-.021484375 .33099366-.021484375 .3809967 .030532837 .4099884 .08857727 .44599916 .16363526 .44799806 .26171876 .44799806 .31976319M.24398804-.0014953613C.21199036-.0014953613 .14698792 .016525269 .12799073 .12561035 .116989139 .18565369 .116989139 .26171876 .116989139 .33177186 .116989139 .41384889 .116989139 .48789979 .1329956 .5469513 .1499939 .6139984 .20098877 .6450348 .24398804 .6450348 .28199769 .6450348 .33999635 .6220093 .35899354 .53593447 .37199403 .4788971 .37199403 .39982606 .37199403 .33177186 .37199403 .26472474 .37199403 .18865967 .36099244 .12760926 .34199525 .01751709 .2789917-.0014953613 .24398804-.0014953613Z"/>
<path id="font_5_1" d="M.6589966 .23046875C.6759949 .23046875 .69400027 .23046875 .69400027 .25045777 .69400027 .27046205 .6759949 .27046205 .6589966 .27046205H.117996219C.100997928 .27046205 .08299255 .27046205 .08299255 .25045777 .08299255 .23046875 .100997928 .23046875 .117996219 .23046875H.6589966Z"/>
<path id="font_6_55" d="M.44898988 .20022583C.44898988 .3193512 .36698915 .41944886 .25898744 .41944886 .21099854 .41944886 .16799927 .40345765 .13198853 .36842347V.5637665C.1519928 .5577698 .18499756 .55078127 .21699524 .55078127 .33999635 .55078127 .4099884 .6417694 .4099884 .6547699 .4099884 .6607666 .40699769 .6657715 .3999939 .6657715 .39898683 .6657715 .39698792 .6657715 .3919983 .66278079 .37199403 .6537781 .32299806 .6337738 .2559967 .6337738 .21598816 .6337738 .16999817 .6407776 .12298584 .6617737 .114990238 .66477969 .11299133 .66477969 .11099243 .66477969 .100997928 .66477969 .100997928 .6567688 .100997928 .6407776V.34439088C.100997928 .32637025 .100997928 .31835938 .114990238 .31835938 .12199402 .31835938 .12399292 .32136537 .12799073 .32736207 .13899231 .3433838 .17599488 .39746095 .25698854 .39746095 .30899049 .39746095 .33399964 .35139466 .34199525 .33337403 .35798646 .29632569 .3600006 .25727845 .3600006 .20722962 .3600006 .17222595 .3600006 .11222839 .33599855 .07035828 .31199647 .031463624 .2749939 .0055389406 .22898865 .0055389406 .1559906 .0055389406 .09899902 .058380128 .08198547 .11723328 .084991458 .1162262 .08799744 .115234378 .09899902 .115234378 .13198853 .115234378 .14898682 .14022827 .14898682 .16423035 .14898682 .18823242 .13198853 .21322632 .09899902 .21322632 .084991458 .21322632 .049987794 .20622254 .049987794 .16023255 .049987794 .07434082 .11898804-.022460938 .23098755-.022460938 .34700013-.022460938 .44898988 .073349 .44898988 .20022583Z"/>
<path id="font_6_53" d="M.2899933 .35191346C.37199403 .37893678 .42999269 .4490509 .42999269 .52809146 .42999269 .6100464 .34199525 .6660156 .24598694 .6660156 .14498902 .6660156 .068984989 .60606387 .068984989 .53009036 .068984989 .49710084 .09098816 .47808839 .11999512 .47808839 .15098572 .47808839 .17098999 .50009158 .17098999 .5290985 .17098999 .57910159 .12399292 .57910159 .10899353 .57910159 .13999939 .62802127 .20599365 .64100649 .24198914 .64100649 .2829895 .64100649 .33799745 .6190338 .33799745 .5290985 .33799745 .51708987 .33599855 .45906068 .30999757 .4149933 .27999879 .36691285 .24598694 .36390687 .22099304 .36291505 .21299744 .36190797 .18899536 .35990907 .18199158 .35990907 .17399597 .35890199 .16699219 .35791017 .16699219 .3479004 .16699219 .33691407 .17399597 .33691407 .19099427 .33691407H.23498535C.31698609 .33691407 .35398866 .2686615 .35398866 .17037964 .35398866 .034469606 .2849884 .0055389406 .24099732 .0055389406 .19799805 .0055389406 .12298584 .022491456 .08799744 .08137512 .12298584 .07637024 .1539917 .09837341 .1539917 .1363678 .1539917 .17237854 .1269989 .19238281 .09799194 .19238281 .07398987 .19238281 .041992189 .17837525 .041992189 .1343689 .041992189 .043441774 .1349945-.022460938 .24398804-.022460938 .3659973-.022460938 .45700074 .06838989 .45700074 .17037964 .45700074 .252594 .3939972 .33088685 .2899933 .35191346Z"/>
<path id="font_6_51" d="M.2939911 .64004519C.2939911 .66400149 .2939911 .6660156 .2709961 .6660156 .20899964 .60227969 .12098694 .60227969 .08898926 .60227969V.57128909C.10899353 .57128909 .16799927 .57128909 .21998596 .5972748V.07902527C.21998596 .042999269 .21699524 .0309906 .1269989 .0309906H.09498596V0C.12998963 .0029907227 .21699524 .0029907227 .25698854 .0029907227 .29699708 .0029907227 .38398744 .0029907227 .4189911 0V.0309906H.3869934C.29699708 .0309906 .2939911 .041992189 .2939911 .07902527V.64004519Z"/>
<path id="font_7_12" d="M.46299745 .25332643C.46299745 .3503723 .4079895 .44140626 .3019867 .44140626 .17098999 .44140626 .039993287 .2983551 .039993287 .15628052 .039993287 .069244388 .09399414-.009765625 .19599915-.009765625 .2579956-.009765625 .33198548 .014221191 .40299989 .07424927 .4169922 .018234253 .44799806-.009765625 .4909973-.009765625 .54499819-.009765625 .57199099 .04624939 .57199099 .059249879 .57199099 .06825256 .5649872 .06825256 .56199648 .06825256 .55400088 .06825256 .5529938 .06524658 .5499878 .057250978 .54100039 .03224182 .5179901 .010223389 .49398805 .010223389 .46299745 .010223389 .46299745 .07424927 .46299745 .13528443 .5649872 .25732423 .58898928 .38337709 .58898928 .38438417 .58898928 .39338685 .58099368 .39338685 .5779877 .39338685 .56900027 .39338685 .56799319 .39038087 .56399539 .3723755 .5509949 .32835389 .5249939 .25032044 .46299745 .16828919V.25332643M.3999939 .0982666C.31199647 .019226075 .23298645 .010223389 .19799805 .010223389 .1269989 .010223389 .10699463 .07325745 .10699463 .120269779 .10699463 .1632843 .1289978 .26533509 .1599884 .32035829 .20098877 .39038087 .25698854 .42140199 .3019867 .42140199 .39898683 .42140199 .39898683 .29434205 .39898683 .21031189 .39898683 .18530274 .397995 .1592865 .397995 .13427735 .397995 .11427307 .39898683 .10926819 .3999939 .0982666Z"/>
<path id="font_7_59" d="M.18399048 .04798889C.18399048 .07699585 .1599884 .09700012 .13598633 .09700012 .10699463 .09700012 .08699036 .07299805 .08699036 .04899597 .08699036 .019989014 .11099243 0 .1349945 0 .1639862 0 .18399048 .023986817 .18399048 .04798889Z"/>
<path id="font_4_52" d="M.43998719 .16790772H.41799928C.4149933 .15092469 .40699769 .09597778 .39698792 .07998657 .3899994 .070999149 .33299256 .070999149 .30299378 .070999149H.117996219C.14498902 .09397888 .20599365 .15792847 .23199463 .18190003 .38398744 .3217926 .43998719 .37374879 .43998719 .47270204 .43998719 .5878906 .34899903 .66503909 .23298645 .66503909 .116989139 .66503909 .04899597 .5658264 .04899597 .4797058 .04899597 .42871095 .09298706 .42871095 .09599304 .42871095 .116989139 .42871095 .14299011 .44371034 .14299011 .475708 .14299011 .5037079 .12399292 .5227051 .09599304 .5227051 .08699036 .5227051 .084991458 .5227051 .08198547 .521698 .100997928 .5899048 .15499878 .6360321 .21998596 .6360321 .30499269 .6360321 .35699464 .56481936 .35699464 .47270204 .35699464 .3877411 .30799867 .313797 .25099183 .24984741L.04899597 .023986817V0H.4139862L.43998719 .16790772Z"/>
<path id="font_4_53" d="M.18399048 .35888673C.16699219 .35787965 .16299439 .35688783 .16299439 .34788514 .16299439 .33789063 .16799927 .33789063 .18598938 .33789063H.23199463C.31698609 .33789063 .35499574 .267807 .35499574 .17172241 .35499574 .04058838 .2869873 .005508423 .23799134 .005508423 .18998719 .005508423 .10798645 .028564454 .07899475 .09472656 .11099243 .08970642 .13999939 .10771179 .13999939 .14372254 .13999939 .17271424 .11898804 .1927185 .09098816 .1927185 .066986087 .1927185 .040985109 .1787262 .040985109 .14071656 .040985109 .051620485 .12998963-.021484375 .24099732-.021484375 .3600006-.021484375 .44799806 .06965637 .44799806 .17071533 .44799806 .26280213 .37399293 .33488465 .27799989 .35188294 .36499024 .3769226 .42099 .45011903 .42099 .5282135 .42099 .6071167 .33898927 .66503909 .24198914 .66503909 .14199829 .66503909 .067993167 .604126 .067993167 .5312042 .067993167 .49121095 .09899902 .48321534 .11399841 .48321534 .1349945 .48321534 .15899658 .49821473 .15899658 .5282135 .15899658 .5602112 .1349945 .57421877 .11299133 .57421877 .10699463 .57421877 .10499573 .57421877 .101989749 .57321169 .13999939 .641037 .23399353 .641037 .23899842 .641037 .27198792 .641037 .33699037 .6260681 .33699037 .5282135 .33699037 .5092163 .33399964 .453125 .30499269 .41001893 .2749939 .3658905 .24099732 .36288453 .21398926 .36187745L.18399048 .35888673Z"/>
<path id="font_4_54" d="M.36099244 .6508026C.36099244 .6697998 .36099244 .6748047 .34700013 .6748047 .33898927 .6748047 .33599855 .6748047 .32798768 .662796L.026992798 .19598389V.16699219H.2899933V.07598877C.2899933 .038986207 .28799439 .0289917 .21499634 .0289917H.19499207V0C.21798706 .0019989014 .29699708 .0019989014 .32499696 .0019989014 .35299684 .0019989014 .43299867 .0019989014 .45599366 0V.0289917H.43598939C.3639984 .0289917 .36099244 .038986207 .36099244 .07598877V.16699219H.46199037V.19598389H.36099244V.6508026M.29499818 .5728302V.19598389H.051986696L.29499818 .5728302Z"/>
<path id="font_4_55" d="M.12799073 .5727997C.17098999 .5588074 .20599365 .5578003 .21699524 .5578003 .32998658 .5578003 .4019928 .6409912 .4019928 .6550598 .4019928 .6590576 .3999939 .6640625 .3939972 .6640625 .3919983 .6640625 .3899994 .6640625 .3809967 .66004946 .32499696 .6358795 .2769928 .6328125 .25099183 .6328125 .18499756 .6328125 .13798523 .6530609 .11898804 .6610565 .11199951 .6640625 .10998535 .6640625 .10899353 .6640625 .100997928 .6640625 .100997928 .65805056 .100997928 .64201357V.34495545C.100997928 .32695008 .100997928 .32095338 .11299133 .32095338 .117996219 .32095338 .11898804 .32196046 .1289978 .33395387 .15699768 .37493897 .20399475 .39894105 .2539978 .39894105 .30699159 .39894105 .33299256 .34994508 .34098817 .33294679 .35798646 .29396058 .35899354 .2449646 .35899354 .20697022 .35899354 .16897583 .35899354 .11193848 .33099366 .0667572 .30899049 .03060913 .269989 .005508423 .22599793 .005508423 .1599884 .005508423 .09498596 .050689699 .07699585 .12397766 .08198547 .12197876 .08799744 .12097168 .09298706 .12097168 .10998535 .12097168 .13699341 .13098145 .13699341 .16497803 .13699341 .1929779 .117996219 .20898438 .09298706 .20898438 .07499695 .20898438 .04899597 .19998169 .04899597 .16098023 .04899597 .075790408 .116989139-.021484375 .22799683-.021484375 .34098817-.021484375 .43998719 .073791507 .43998719 .20097351 .43998719 .3199463 .3600006 .4189453 .25498963 .4189453 .19799805 .4189453 .1539917 .39393617 .12799073 .36595155V.5727997Z"/>
<path id="font_8_112" d="M.4149933 .3043213C.4149933 .35539247 .40499879 .43847657 .2869873 .43847657 .20799256 .43847657 .16699219 .3774109 .1519928 .33737184H.15098572V.43847657L.032989503 .42747499V.40144349C.09199524 .40144349 .100997928 .39543153 .100997928 .3473816V.06904602C.100997928 .03100586 .09700012 .025985718 .032989503 .025985718V0C.056991579 .0019989014 .100997928 .0019989014 .1269989 .0019989014 .15299988 .0019989014 .19799805 .0019989014 .22200012 0V.025985718C.1579895 .025985718 .1539917 .02999878 .1539917 .06904602V.26127626C.1539917 .35339356 .20999146 .4224701 .27999879 .4224701 .35398866 .4224701 .3619995 .35638429 .3619995 .30833436V.06904602C.3619995 .03100586 .35798646 .025985718 .2939911 .025985718V0C.31799317 .0019989014 .3619995 .0019989014 .3880005 .0019989014 .4139862 .0019989014 .45899964 .0019989014 .48298646 0V.025985718C.4189911 .025985718 .4149933 .02999878 .4149933 .06904602V.3043213Z"/>
<path id="font_8_69" d="M.62098696 .6792145C.62098696 .6972046 .6199951 .69821169 .6139984 .69821169 .6100006 .69821169 .60899356 .6972046 .60198977 .6852112L.55799868 .6012268C.5089874 .663208 .44898988 .69921877 .37199403 .69921877 .20098877 .69921877 .04598999 .54823306 .04598999 .34228517 .04598999 .13433838 .20098877-.015625 .37298585-.015625 .526001-.015625 .62098696 .11933899 .62098696 .23431397 .62098696 .24430847 .62098696 .24830628 .6119995 .24830628 .60398867 .24830628 .60398867 .24531555 .6029968 .23631287 .59498599 .096343997 .49499513 .010360718 .3869934 .010360718 .2849884 .010360718 .12199402 .082351688 .12199402 .34228517 .12199402 .6032257 .28799439 .6732178 .3849945 .6732178 .49798585 .6732178 .5799866 .5752411 .598999 .43626405 .6009979 .42427064 .6009979 .42227174 .6100006 .42227174 .62098696 .42227174 .62098696 .42427064 .62098696 .44226075V.6792145Z"/>
<path id="font_8_71" d="M.6069946 .25286866H.58898928C.5669861 .10594177 .55400088 .025985718 .37799073 .025985718H.23899842C.19898987 .025985718 .19699097 .0309906 .19699097 .064971927V.3408203H.29100038C.3849945 .3408203 .3939972 .306839 .3939972 .22387696H.4119873V.48373414H.3939972C.3939972 .40078736 .3849945 .36680604 .29100038 .36680604H.19699097V.61564639C.19699097 .6496124 .19898987 .65460208 .23899842 .65460208H.37599183C.5309906 .65460208 .548996 .59265139 .5629883 .4597473H.58099368L.5569916 .680603H.050994874V.65460208C.11999512 .65460208 .1309967 .65460208 .1309967 .60964968V.07096863C.1309967 .025985718 .11999512 .025985718 .050994874 .025985718V0H.57099917L.6069946 .25286866Z"/>
<path id="font_8_84" d="M.3919983 .3409729C.4869995 .3599701 .5669861 .42388917 .5669861 .50379946 .5669861 .59768679 .46099855 .6826172 .32099916 .6826172H.051986696V.6566162C.12098694 .6566162 .13198853 .6566162 .13198853 .6116638V.07128906C.13198853 .02633667 .12098694 .02633667 .051986696 .02633667V.00036621095C.08099365 .0023651124 .1329956 .0023651124 .1639862 .0023651124 .19499207 .0023651124 .24699402 .0023651124 .27598573 .00036621095V.02633667C.20698548 .02633667 .19599915 .02633667 .19599915 .07128906V.33398438H.31298829C.36999513 .33398438 .4019928 .31100465 .41600038 .2980194 .45599366 .25906373 .45599366 .23210144 .45599366 .16416931 .45599366 .09725952 .45599366 .06329346 .48599244 .029327393 .5239868-.011627197 .57499697-.015625 .5970001-.015625 .67099-.015625 .6819916 .06729126 .6819916 .08427429 .6819916 .09025574 .6819916 .09725952 .6729889 .09725952 .6649933 .09725952 .6639862 .09126282 .6639862 .087265018 .6589966 .022338868 .6299896 .00036621095 .598999 .00036621095 .5439911 .00036621095 .5379944 .06329346 .5319977 .1242218 .5289917 .14520264 .5269928 .16018677 .5249939 .18215943 .5189972 .23210144 .5109863 .30500794 .3919983 .3409729M.30999757 .3499756H.19599915V.6176605C.19599915 .6516113 .19799805 .6566162 .23799134 .6566162H.31098939C.3939972 .6566162 .4909973 .6276398 .4909973 .50379946 .4909973 .37495423 .3849945 .3499756 .30999757 .3499756Z"/>
<clipPath id="clip_9">
<path transform="matrix(1,0,0,-1,0,345.6)" d="M61.752218 56.33863H440.0686V334.8H61.752218Z"/>
</clipPath>
<clipPath id="clip_10">
<path transform="matrix(1,0,0,-1,0,345.6)" d="M61.752218 56.33863H440.0686V334.8H61.752218Z"/>
</clipPath>
<clipPath id="clip_11">
<path transform="matrix(1,0,0,-1,0,345.6)" d="M61.752218 56.33863H440.0686V334.8H61.752218Z"/>
</clipPath>
<clipPath id="clip_12">
<path transform="matrix(1,0,0,-1,0,345.6)" d="M61.752218 56.33863H440.0686V334.8H61.752218Z"/>
</clipPath>
<clipPath id="clip_13">
<path transform="matrix(1,0,0,-1,0,345.6)" d="M61.752218 56.33863H440.0686V334.8H61.752218Z"/>
</clipPath>
<clipPath id="clip_14">
<path transform="matrix(1,0,0,-1,0,345.6)" d="M61.752218 56.33863H440.0686V334.8H61.752218Z"/>
</clipPath>
<clipPath id="clip_15">
<path transform="matrix(1,0,0,-1,0,345.6)" d="M61.752218 56.33863H440.0686V334.8H61.752218Z"/>
</clipPath>
<path id="font_16_99" d="M.45999146 .29933167C.45999146 .39115907 .3869934 .453125 .24598694 .453125 .18998719 .453125 .07199097 .44812013 .07199097 .36421205 .07199097 .32228089 .10398865 .3043213 .1309967 .3043213 .16099549 .3043213 .18998719 .32528688 .18998719 .3632202 .18998719 .3821869 .18299866 .40014649 .1659851 .4111328 .19898987 .42012025 .22299195 .42012025 .24198914 .42012025 .30999757 .42012025 .35099793 .3821869 .35099793 .3003235V.26039125C.19299317 .26039125 .033996583 .21636963 .033996583 .10522461 .033996583 .014129639 .1499939-.005859375 .21899414-.005859375 .29599-.005859375 .34498597 .03614807 .36499024 .080200199 .36499024 .043151857 .36499024 .0001373291 .46598817 .0001373291H.5169983C.5379944 .0001373291 .54599 .0001373291 .54599 .022140503 .54599 .043151857 .5369873 .043151857 .522995 .043151857 .45999146 .044158937 .45999146 .060180665 .45999146 .08320618V.29933167M.35099793 .13926697C.35099793 .045150758 .2669983 .027130127 .23498535 .027130127 .18598938 .027130127 .14498902 .060180665 .14498902 .10623169 .14498902 .19734192 .25299073 .2283783 .35099793 .23339844V.13926697Z"/>
<path id="font_16_120" d="M.49499513 .37831117C.5019989 .3933258 .5059967 .4013214 .56900027 .4013214V.44433595C.5329895 .44232179 .5309906 .44232179 .48999024 .44232179 .46299745 .44232179 .46099855 .44232179 .4039917 .44433595V.4013214C.43099977 .4013214 .45298768 .3963318 .45298768 .389328 .45298768 .38832093 .45298768 .38731385 .44799806 .37731935L.33099366 .120162967 .20199585 .4013214H.25698854V.44433595C.23399353 .44232179 .1639862 .44232179 .13699341 .44232179 .10798645 .44232179 .049987794 .44232179 .023986817 .44433595V.4013214H.08699036L.2630005 .019104004C.27198792 .00010681152 .27398683-.0048828127 .29699708-.0048828127 .31298829-.0048828127 .32099916-.0028839112 .32998658 .017105103L.49499513 .37831117Z"/>
<path id="font_16_103" d="M.45199586 .22099304C.47499085 .22099304 .48098756 .22099304 .48098756 .24598694 .48098756 .27601625 .47399903 .35105897 .42799378 .3981018 .38598634 .4401245 .32998658 .453125 .27198792 .453125 .115997318 .453125 .0309906 .35105897 .0309906 .22499085 .0309906 .08509827 .13398743-.005859375 .2849884-.005859375 .43598939-.005859375 .48098756 .1000824 .48098756 .11706543 .48098756 .13206482 .46598817 .13206482 .45999146 .13206482 .44400025 .13206482 .44299317 .12905884 .43699647 .11607361 .41099549 .051116945 .34498597 .030136109 .29699708 .030136109 .1519928 .030136109 .15098572 .16503906 .15098572 .22099304H.45199586M.15098572 .25C.15299988 .29101563 .1539917 .3300476 .1749878 .3660736 .19400025 .3981018 .22898865 .42012025 .27198792 .42012025 .3789978 .42012025 .3880005 .30003358 .3889923 .25H.15098572Z"/>
<path id="font_16_116" d="M.20799256 .2250824C.20799256 .25810243 .21499634 .41719056 .33198548 .41719056 .31799317 .40618897 .31098939 .38917542 .31098939 .37117005 .31098939 .33013917 .34399415 .31314088 .36898805 .31314088 .3939972 .31314088 .4269867 .33013917 .4269867 .37117005 .4269867 .42218019 .375 .4501953 .32699586 .4501953 .24798584 .4501953 .21398926 .38116456 .19999695 .33914186H.19898987V.4501953L.034988405 .44218446V.39918519C.09700012 .39918519 .10398865 .39918519 .10398865 .3601532V.042999269H.034988405V0C.057998659 .0019989014 .1329956 .0019989014 .16099549 .0019989014 .18998719 .0019989014 .2709961 .0019989014 .29499818 0V.042999269H.20799256V.2250824Z"/>
<path id="font_16_105" d="M.12998963 .18223572C.17799378 .15625 .23399353 .15625 .24899292 .15625 .3869934 .15625 .44198609 .23320008 .44198609 .30314637 .44198609 .35411073 .41299439 .39007569 .40098573 .4000702 .42999269 .41604615 .45399476 .42004396 .47099305 .42204286 .46798707 .41705323 .46499635 .41305543 .46499635 .4000702 .46499635 .37908937 .47898866 .36009217 .5049896 .36009217 .5309906 .36009217 .54499819 .37908937 .54499819 .4000702 .54499819 .42404176 .5269928 .4560547 .4850006 .4560547 .44198609 .4560547 .40098573 .43504334 .37998963 .41705323 .33898927 .44104005 .2999878 .45004273 .24899292 .45004273 .11099243 .45004273 .055999757 .37309266 .055999757 .30314637 .055999757 .27217103 .06599426 .23120117 .10798645 .1972351 .09098816 .17823792 .07299805 .14324951 .07299805 .10725403 .07299805 .06425476 .09599304 .027252198 .116989139 .011245728 .09298706 .0052490236 .0309906-.01777649 .0309906-.074920658 .0309906-.13407898 .09599304-.20117188 .27999879-.20117188 .44599916-.20117188 .5299988-.14712525 .5299988-.07191467 .5299988 .01625061 .47200013 .04525757 .44699098 .057250978 .39898683 .08125305 .33499146 .08125305 .24699402 .08125305 .22200012 .08125305 .17799378 .08125305 .17298889 .08224487 .12998963 .08924866 .117996219 .12724304 .117996219 .14624024 .117996219 .15423584 .11898804 .16923523 .12998963 .18223572M.24899292 .18824768C.1619873 .18824768 .1619873 .2571869 .1619873 .30314637 .1619873 .34910584 .1619873 .41804505 .24899292 .41804505 .33599855 .41804505 .33599855 .34910584 .33599855 .30314637 .33599855 .2571869 .33599855 .18824768 .24899292 .18824768M.30499269-.0107421879C.37799073-.0107421879 .44799806-.023788453 .44799806-.075927738 .44799806-.11102295 .41299439-.1691742 .2809906-.1691742 .14898682-.1691742 .11299133-.11302185 .11299133-.074920658 .11299133-.0107421879 .17599488-.0107421879 .19099427-.0107421879H.30499269Z"/>
<path id="font_16_70" d="M.037994386 .6855469V.64253237H.14399719V.042999269H.037994386V0H.45899964C.651001 0 .798996 .122924808 .798996 .33677674 .798996 .56259158 .6469879 .6855469 .45899964 .6855469H.037994386M.2709961 .042999269V.64253237H.42099C.5079956 .64253237 .5779877 .6085663 .61499026 .5566101 .6439972 .51564028 .6629944 .4666748 .6629944 .33776856 .6629944 .22085572 .647995 .16889954 .61299136 .12193298 .5779877 .07597351 .5109863 .042999269 .42099 .042999269H.2709961Z"/>
<path id="font_16_67" d="M.45799256 .67718508C.45098878 .6951904 .44898988 .7001953 .4249878 .7001953 .3999939 .7001953 .397995 .6951904 .3909912 .67718508L.14299011 .0670166C.13598633 .050994874 .13598633 .04899597 .10798645 .04598999 .08299255 .042999269 .07899475 .042999269 .056991579 .042999269H.038986207V0C.06498718 .0019989014 .125 .0019989014 .1539917 .0019989014 .18099976 .0019989014 .2539978 .0019989014 .2769928 0V.042999269C.25498963 .042999269 .21699524 .042999269 .18899536 .054000856 .19198609 .0630188 .19198609 .0650177 .19400025 .06903076L.24699402 .19917298H.5149994L.5779877 .042999269H.48399354V0C.5159912 .0019989014 .61299136 .0019989014 .651001 .0019989014 .68299868 .0019989014 .7849884 .0019989014 .80999758 0V.042999269H.71499636L.45799256 .67718508M.3809967 .5301819 .49699403 .2421875H.2639923L.3809967 .5301819Z"/>
<path id="font_16_44" d="M.46499635 .22167969H.7719879C.7849884 .22167969 .81199648 .22167969 .81199648 .24867249 .81199648 .27667237 .7859955 .27667237 .7719879 .27667237H.46499635V.5849762C.46499635 .5979767 .46499635 .625 .43798829 .625 .4099884 .625 .4099884 .59898379 .4099884 .5849762V.27667237H.101989749C.08799744 .27667237 .06199646 .27667237 .06199646 .24867249 .06199646 .22167969 .08898926 .22167969 .101989749 .22167969H.4099884V-.085998538C.4099884-.098983768 .4099884-.12597656 .43699647-.12597656 .46499635-.12597656 .46499635-.099990848 .46499635-.085998538V.22167969Z"/>
<path id="font_16_75" d="M.2749939 .64253237H.3869934V.6855469C.35099793 .6835327 .25099183 .6835327 .20899964 .6835327 .16699219 .6835327 .066986087 .6835327 .0309906 .6855469V.64253237H.14299011V.042999269H.0309906V0C.066986087 .0019989014 .16699219 .0019989014 .20899964 .0019989014 .25099183 .0019989014 .35099793 .0019989014 .3869934 0V.042999269H.2749939V.64253237Z"/>
<path id="font_16_88" d="M.723999 .6195679C.7299957 .6325531 .73399356 .64253237 .80799868 .64253237H.82499697V.6855469C.7939911 .6835327 .7220001 .6835327 .71398928 .6835327 .6859894 .6835327 .61499026 .6835327 .59199526 .6855469V.64253237C.6139984 .64253237 .651001 .64253237 .67900088 .631546L.673996 .61756899 .46899415 .15005493 .25299073 .64253237H.34599305V.6855469C.31399537 .6835327 .21798706 .6835327 .17999268 .6835327 .147995 .6835327 .04899597 .6835327 .023986817 .6855469V.64253237H.11399841L.3899994 .012207031C.39898683-.007797241 .4079895-.0087890629 .42399598-.0087890629 .43998719-.0087890629 .44999696-.0087890629 .45899964 .012207031L.723999 .6195679Z"/>
<path id="font_16_78" d="M.6279907 .26982118H.58599856C.57899478 .2008667 .5629883 .042999269 .3829956 .042999269H.27598573V.64253237H.40899659V.6855469C.3600006 .6835327 .2709961 .6835327 .21798706 .6835327 .18099976 .6835327 .066986087 .6835327 .037994386 .6855469V.64253237H.14399719V.042999269H.037994386V0H.598999L.6279907 .26982118Z"/>
<path id="font_17_69" d="M.8549957 .66622927C.8549957 .6862335 .8549957 .6982422 .83200076 .6982422 .81999209 .6982422 .81799319 .6972351 .80799868 .6882324L.7409973 .63023379C.6419983 .6982422 .5469971 .6982422 .5169983 .6982422 .22698975 .6982422 .07499695 .53523257 .07499695 .34324647 .07499695 .15426636 .22299195-.01171875 .5179901-.01171875 .723999-.01171875 .8549957 .104263309 .8549957 .22825623 .8549957 .25326539 .84399417 .25326539 .82299807 .25326539 .8089905 .25326539 .79299929 .25326539 .7919922 .23626709 .7829895 .08326721 .6299896 .044281007 .54299929 .044281007 .46099855 .044281007 .36898805 .06427002 .30899049 .1232605 .2519989 .18026734 .23799134 .2642517 .23799134 .34324647 .23799134 .43824769 .2579956 .52523806 .32598878 .5782318 .394989 .6312256 .47898866 .6422272 .54100039 .6422272 .66999819 .6422272 .7619934 .55422976 .7819977 .4502411 .7869873 .4232483 .7869873 .4212494 .81599429 .4212494H.82299807C.85198977 .4212494 .8549957 .4242401 .8549957 .45324708V.66622927Z"/>
<path id="font_17_88" d="M.82899478 .611557C.83499148 .62454226 .83799746 .62953189 .9049988 .62953189H.9319916V.6855469C.9169922 .6845398 .8470001 .6815338 .8129883 .6815338 .7749939 .6815338 .6759949 .6855469 .67099 .6855469V.62953189C.70999148 .62953189 .72898867 .62854006 .7549896 .62353518L.5239868 .14511109 .2899933 .62953189H.37799073V.6855469C.32499696 .6815338 .24899292 .6815338 .19499207 .6815338 .14698792 .6815338 .049987794 .6845398 .034988405 .6855469V.62953189H.1289978L.42599488 .01725769C.43998719-.01171875 .45298768-.01171875 .47599793-.01171875H.4909973C.5239868-.01171875 .5299988-.0047302248 .54100039 .01826477L.82899478 .611557Z"/>
<path id="font_18_12" d="M.58399966 .16416931C.6779938 .27215577 .69999697 .3851471 .69999697 .38813783 .69999697 .4021454 .68499758 .4021454 .6759949 .4021454 .6569977 .4021454 .6559906 .40014649 .651001 .3811493 .6319885 .31414796 .60198977 .25915528 .5799866 .22816468 .57899478 .27615357 .5779877 .33514405 .5239868 .3891449 .47200013 .44213868 .40699769 .45214845 .3600006 .45214845 .1559906 .45214845 .04598999 .29415895 .04598999 .16516114 .04598999 .05517578 .12799073-.0078125 .25299073-.0078125 .34899903-.0078125 .43099977 .033172609 .48399354 .07118225 .5019989 .029174805 .54299929-.0078125 .60398867-.0078125 .66999819-.0078125 .70399478 .03817749 .70399478 .059173585 .70399478 .07318115 .6899872 .07318115 .68099978 .07318115 .66799929 .07318115 .6629944 .07318115 .6579895 .060180665 .6459961 .031173706 .61299136 .028182984 .61099246 .028182984 .58599856 .028182984 .58399966 .14416504 .58399966 .16416931M.2579956 .028182984C.20199585 .028182984 .16099549 .05517578 .16099549 .121170047 .16099549 .15415955 .18399048 .26515199 .21398926 .32315064 .24598694 .387146 .30799867 .4161377 .35899354 .4161377 .45199586 .4161377 .46299745 .30615235 .46699525 .2081604 .46798707 .1831665 .47200013 .13917542 .47200013 .11517334 .47200013 .10316467 .41099549 .06817627 .38598634 .057174684 .32598878 .031173706 .28199769 .028182984 .2579956 .028182984Z"/>
<path id="font_4_70" d="M.041992189 .6826172V.6536102H.06199646C.13398743 .6536102 .13699341 .6436157 .13699341 .6066437V.07595825C.13699341 .038986207 .13398743 .0289917 .06199646 .0289917H.041992189V0H.3919983C.5589905 0 .69299319 .1499176 .69299319 .33480836 .69299319 .5276947 .55799868 .6826172 .3919983 .6826172H.041992189M.2619934 .0289917C.21798706 .0289917 .21598816 .035995485 .21598816 .06896973V.6136322C.21598816 .6466217 .21798706 .6536102 .2619934 .6536102H.36698915C.44999696 .6536102 .5159912 .6136322 .5569916 .5476837 .60198977 .4767151 .60198977 .3757782 .60198977 .33580018 .60198977 .2798462 .6009979 .18589783 .5439911 .11193848 .5109863 .06996155 .45098878 .0289917 .36698915 .0289917H.2619934Z"/>
<path id="font_4_67" d="M.3869934 .6958618C.3829956 .7078552 .3809967 .7138672 .36698915 .7138672 .35299684 .7138672 .35099793 .7108612 .34599305 .69485476L.13699341 .09689331C.12298584 .05595398 .09498596 .02998352 .0309906 .0289917V0C.09199524 .0019989014 .09399414 .0019989014 .1269989 .0019989014 .15499878 .0019989014 .20298767 .0019989014 .22898865 0V.0289917C.18699646 .02998352 .1619873 .050964357 .1619873 .07891846 .1619873 .08491516 .1619873 .08691406 .16699219 .09989929L.21299744 .23271179H.46499635L.519989 .075927738C.5249939 .063949588 .5249939 .061950685 .5249939 .058944704 .5249939 .0289917 .47399903 .0289917 .44898988 .0289917V0C.47200013 .0019989014 .5509949 .0019989014 .57899478 .0019989014 .6069946 .0019989014 .67900088 .0019989014 .70199587 0V.0289917C.6369934 .0289917 .61898806 .0289917 .6049957 .06993103L.3869934 .6958618M.33898927 .5948334 .45498658 .26171876H.22299195L.33898927 .5948334Z"/>
<path id="font_4_44" d="M.39898683 .23057556H.6749878C.68899539 .23057556 .70700076 .23057556 .70700076 .24856568 .70700076 .26757813 .6899872 .26757813 .6749878 .26757813H.39898683V.5441437C.39898683 .5581665 .39898683 .5761719 .3809967 .5761719 .3619995 .5761719 .3619995 .5591583 .3619995 .5441437V.26757813H.085998538C.07199097 .26757813 .053985597 .26757813 .053985597 .24957276 .053985597 .23057556 .070999149 .23057556 .085998538 .23057556H.3619995V-.045166017C.3619995-.059158327 .3619995-.07714844 .37998963-.07714844 .39898683-.07714844 .39898683-.060150148 .39898683-.045166017V.23057556Z"/>
<path id="font_4_75" d="M.21699524 .6066437C.21699524 .6436157 .21998596 .6536102 .29499818 .6536102H.31698609V.6826172C.29299928 .680603 .20698548 .680603 .1769867 .680603 .14698792 .680603 .05999756 .680603 .035995485 .6826172V.6536102H.057998659C.1329956 .6536102 .13598633 .6436157 .13598633 .6066437V.07595825C.13598633 .038986207 .1329956 .0289917 .057998659 .0289917H.035995485V0C.05999756 .0019989014 .1459961 .0019989014 .17599488 .0019989014 .20599365 .0019989014 .29299928 .0019989014 .31698609 0V.0289917H.29499818C.21998596 .0289917 .21699524 .038986207 .21699524 .07595825V.6066437Z"/>
<path id="font_4_88" d="M.61099246 .5836029C.6199951 .6085968 .6369934 .65260317 .71499636 .6536102V.6826172C.6639862 .680603 .6619873 .680603 .6230011 .680603 .59599307 .680603 .54599 .680603 .5209961 .6826172V.6536102C.57199099 .65260317 .58699038 .6246033 .58699038 .604599 .58699038 .5986023 .58699038 .5966034 .58099368 .5825958L.3939972 .089523319 .19699097 .6096039C.19198609 .62060549 .19198609 .62260439 .19198609 .6246033 .19198609 .6536102 .24198914 .6536102 .2669983 .6536102V.6826172C.24299622 .680603 .16699219 .680603 .13798523 .680603 .10998535 .680603 .041992189 .680603 .017990113 .6826172V.6536102C.07998657 .6536102 .09599304 .6536102 .11099243 .6136017L.34498597-.0024871827C.34999085-.016494751 .35198976-.021484375 .3659973-.021484375 .37998963-.021484375 .3809967-.018493653 .3880005-.0014953613L.61099246 .5836029Z"/>
<path id="font_4_78" d="M.56999209 .25585938H.5479889C.5379944 .1559143 .5249939 .0289917 .34999085 .0289917H.2630005C.21899414 .0289917 .21699524 .035995485 .21699524 .06896973V.6056366C.21699524 .6416168 .21899414 .6536102 .30599977 .6536102H.33599855V.6826172C.30699159 .680603 .21899414 .680603 .18399048 .680603 .1539917 .680603 .06498718 .680603 .040985109 .6826172V.6536102H.06098938C.1329956 .6536102 .13598633 .6436157 .13598633 .6066437V.07595825C.13598633 .038986207 .1329956 .0289917 .06098938 .0289917H.040985109V0H.5439911L.56999209 .25585938Z"/>
<path id="font_19_12" d="M.47698976 .23631287C.47698976 .39337159 .38398744 .4423828 .30999757 .4423828 .17298889 .4423828 .040985109 .29933167 .040985109 .15829468 .040985109 .06526184 .100997928-.0107421879 .20298767-.0107421879 .2659912-.0107421879 .33799745 .012252808 .4139862 .073272708 .4269867 .020248414 .45999146-.0107421879 .5049896-.0107421879 .55799868-.0107421879 .58898928 .044265748 .58898928 .060272218 .58898928 .06726074 .58299258 .07026672 .57699587 .07026672 .56999209 .07026672 .5669861 .06726074 .56399539 .060272218 .54599 .011245728 .5099945 .011245728 .5079956 .011245728 .47698976 .011245728 .47698976 .089279178 .47698976 .11328125 .47698976 .1342926 .47698976 .1362915 .4869995 .14828491 .58099368 .2663269 .60198977 .38235475 .60198977 .38336183 .60198977 .38536073 .6009979 .39337159 .58999636 .39337159 .5799866 .39337159 .5799866 .3903656 .57499697 .37236024 .5569916 .30934144 .5239868 .23332215 .47698976 .17430115V.23631287M.4099884 .09927368C.32199098 .022247315 .24499512 .011245728 .20498657 .011245728 .14498902 .011245728 .114990238 .056259157 .114990238 .120285037 .114990238 .16929627 .14099121 .2773285 .17298889 .32833863 .21998596 .4013672 .27398683 .42037965 .30899049 .42037965 .4079895 .42037965 .4079895 .28933717 .4079895 .21130371 .4079895 .17430115 .4079895 .11628723 .4099884 .09927368Z"/>
</defs>
<path transform="matrix(1,0,0,-1,0,345.6)" d="M0 0H460.8V345.6H0Z" fill="transparent"/>
<path transform="matrix(1,0,0,-1,0,345.6)" d="M61.752218 56.33863H440.06858V334.8H61.752218Z" fill="transparent"/>
<g clip-path="url(#clip_0)">
<g>
<path transform="matrix(1,0,0,-1,0,345.6)" d="M61.752218 348.22474V273.90238L77.515399 274.5756 93.27858 277.86778 109.04176 272.52613 124.80494 272.99433 140.56813 276.3247 156.3313 273.05494 172.09449 273.60945 187.85767 272.57795 203.62085 275.41133 219.38404 275.57908 235.14722 273.9941 250.9104 273.72648 266.67359 271.5023 282.43678 272.80485 298.19996 272.62757 313.96315 276.03547 329.72633 274.98197 345.48948 273.43217 361.25267 272.6358 377.01585 269.17979 392.77903 275.48564 408.5422 276.38606 424.3054 276.59074 440.06858 272.35194V349.38267L424.3054 351.52534 408.5422 348.8225 392.77903 348.03453 377.01585 345.79005 361.25267 346.28684 345.48948 346.01274 329.72633 348.48115 313.96315 349.92524 298.19996 345.8763 282.43678 346.92738 266.67359 345.98573 250.9104 347.11036 235.14722 346.5159 219.38404 345.52754 203.62085 345.85353 187.85767 346.7425 172.09449 349.00785 156.3313 349.61195 140.56813 346.02854 124.80494 347.80598 109.04176 350.42579 93.27858 352.26689 77.515399 350.82127 61.752218 348.22474Z" fill="#4c72b0" fill-opacity=".2"/>
<path transform="matrix(1,0,0,-1,0,345.6)" stroke-width="1" stroke-linecap="butt" stroke-linejoin="round" fill="none" stroke="#4c72b0" stroke-opacity=".2" d="M61.752218 348.22474V273.90238L77.515399 274.5756 93.27858 277.86778 109.04176 272.52613 124.80494 272.99433 140.56813 276.3247 156.3313 273.05494 172.09449 273.60945 187.85767 272.57795 203.62085 275.41133 219.38404 275.57908 235.14722 273.9941 250.9104 273.72648 266.67359 271.5023 282.43678 272.80485 298.19996 272.62757 313.96315 276.03547 329.72633 274.98197 345.48948 273.43217 361.25267 272.6358 377.01585 269.17979 392.77903 275.48564 408.5422 276.38606 424.3054 276.59074 440.06858 272.35194V349.38267L424.3054 351.52534 408.5422 348.8225 392.77903 348.03453 377.01585 345.79005 361.25267 346.28684 345.48948 346.01274 329.72633 348.48115 313.96315 349.92524 298.19996 345.8763 282.43678 346.92738 266.67359 345.98573 250.9104 347.11036 235.14722 346.5159 219.38404 345.52754 203.62085 345.85353 187.85767 346.7425 172.09449 349.00785 156.3313 349.61195 140.56813 346.02854 124.80494 347.80598 109.04176 350.42579 93.27858 352.26689 77.515399 350.82127 61.752218 348.22474Z"/>
</g>
</g>
<g clip-path="url(#clip_1)">
<g>
<path transform="matrix(1,0,0,-1,0,345.6)" d="M61.752218 114.88428V104.796009L77.515399 104.46615 93.27858 104.475048 109.04176 104.270427 124.80494 104.1599 140.56813 104.10785 156.3313 104.56679 172.09449 104.890689 187.85767 104.4361 203.62085 104.047168 219.38404 104.18843 235.14722 104.47957 250.9104 104.63005 266.67359 104.48602 282.43678 103.71233 298.19996 104.42609 313.96315 104.159458 329.72633 104.4408 345.48948 104.22487 361.25267 104.803157 377.01585 104.068538 392.77903 104.32763 408.5422 104.404277 424.3054 104.68426 440.06858 104.54966V114.827579L424.3054 114.71502 408.5422 115.29281 392.77903 114.93711 377.01585 114.18369 361.25267 115.041378 345.48948 114.28312 329.72633 115.1196 313.96315 115.03993 298.19996 114.51636 282.43678 114.04155 266.67359 114.73175 250.9104 115.06824 235.14722 114.86118 219.38404 114.20577 203.62085 114.56799 187.85767 115.43346 172.09449 114.92257 156.3313 114.417407 140.56813 114.58899 124.80494 114.70832 109.04176 114.65696 93.27858 114.75934 77.515399 114.40632 61.752218 114.88428Z" fill="#dd8452" fill-opacity=".2"/>
<path transform="matrix(1,0,0,-1,0,345.6)" stroke-width="1" stroke-linecap="butt" stroke-linejoin="round" fill="none" stroke="#dd8452" stroke-opacity=".2" d="M61.752218 114.88428V104.796009L77.515399 104.46615 93.27858 104.475048 109.04176 104.270427 124.80494 104.1599 140.56813 104.10785 156.3313 104.56679 172.09449 104.890689 187.85767 104.4361 203.62085 104.047168 219.38404 104.18843 235.14722 104.47957 250.9104 104.63005 266.67359 104.48602 282.43678 103.71233 298.19996 104.42609 313.96315 104.159458 329.72633 104.4408 345.48948 104.22487 361.25267 104.803157 377.01585 104.068538 392.77903 104.32763 408.5422 104.404277 424.3054 104.68426 440.06858 104.54966V114.827579L424.3054 114.71502 408.5422 115.29281 392.77903 114.93711 377.01585 114.18369 361.25267 115.041378 345.48948 114.28312 329.72633 115.1196 313.96315 115.03993 298.19996 114.51636 282.43678 114.04155 266.67359 114.73175 250.9104 115.06824 235.14722 114.86118 219.38404 114.20577 203.62085 114.56799 187.85767 115.43346 172.09449 114.92257 156.3313 114.417407 140.56813 114.58899 124.80494 114.70832 109.04176 114.65696 93.27858 114.75934 77.515399 114.40632 61.752218 114.88428Z"/>
</g>
</g>
<g clip-path="url(#clip_2)">
<g>
<path transform="matrix(1,0,0,-1,0,345.6)" d="M61.752218 250.95325V200.35694L77.515399 177.66812 93.27858 168.53759 109.04176 190.72362 124.80494 206.73925 140.56813 178.73824 156.3313 190.46189 172.09449 181.23709 187.85767 192.34958 203.62085 168.26897 219.38404 202.97785 235.14722 183.64629 250.9104 191.78665 266.67359 179.93047 282.43678 187.66637 298.19996 198.9483 313.96315 180.30107 329.72633 182.67288 345.48948 199.60886 361.25267 199.40038 377.01585 179.92472 392.77903 194.86652 408.5422 191.20964 424.3054 164.77338 440.06858 185.18848V222.1143L424.3054 224.50775 408.5422 235.3093 392.77903 234.36768 377.01585 220.94919 361.25267 231.99674 345.48948 238.53093 329.72633 224.07875 313.96315 235.40398 298.19996 261.0916 282.43678 221.72455 266.67359 212.84093 250.9104 242.11371 235.14722 217.8663 219.38404 241.49146 203.62085 220.05649 187.85767 248.60102 172.09449 214.55585 156.3313 227.83727 140.56813 213.72936 124.80494 255.87802 109.04176 222.60822 93.27858 201.52204 77.515399 208.68067 61.752218 250.95325Z" fill="#da8bc3" fill-opacity=".2"/>
<path transform="matrix(1,0,0,-1,0,345.6)" stroke-width="1" stroke-linecap="butt" stroke-linejoin="round" fill="none" stroke="#da8bc3" stroke-opacity=".2" d="M61.752218 250.95325V200.35694L77.515399 177.66812 93.27858 168.53759 109.04176 190.72362 124.80494 206.73925 140.56813 178.73824 156.3313 190.46189 172.09449 181.23709 187.85767 192.34958 203.62085 168.26897 219.38404 202.97785 235.14722 183.64629 250.9104 191.78665 266.67359 179.93047 282.43678 187.66637 298.19996 198.9483 313.96315 180.30107 329.72633 182.67288 345.48948 199.60886 361.25267 199.40038 377.01585 179.92472 392.77903 194.86652 408.5422 191.20964 424.3054 164.77338 440.06858 185.18848V222.1143L424.3054 224.50775 408.5422 235.3093 392.77903 234.36768 377.01585 220.94919 361.25267 231.99674 345.48948 238.53093 329.72633 224.07875 313.96315 235.40398 298.19996 261.0916 282.43678 221.72455 266.67359 212.84093 250.9104 242.11371 235.14722 217.8663 219.38404 241.49146 203.62085 220.05649 187.85767 248.60102 172.09449 214.55585 156.3313 227.83727 140.56813 213.72936 124.80494 255.87802 109.04176 222.60822 93.27858 201.52204 77.515399 208.68067 61.752218 250.95325Z"/>
</g>
</g>
<g clip-path="url(#clip_3)">
<g>
<path transform="matrix(1,0,0,-1,0,345.6)" d="M61.752218 93.61063V81.62586L77.515399 81.921 93.27858 80.989048 109.04176 80.39059 124.80494 79.886 140.56813 77.04769 156.3313 75.58065 172.09449 74.220218 187.85767 74.52019 203.62085 76.07399 219.38404 79.95682 235.14722 85.58891 250.9104 93.01526 266.67359 98.31102 282.43678 101.35386 298.19996 103.04808 313.96315 104.13038 329.72633 104.4156 345.48948 104.32821 361.25267 104.42121 377.01585 104.16526 392.77903 104.39169 408.5422 104.20863 424.3054 104.61547 440.06858 104.80521V114.91287L424.3054 114.61905 408.5422 114.96742 392.77903 114.77584 377.01585 114.01696 361.25267 115.071849 345.48948 114.19632 329.72633 115.10596 313.96315 114.05756 298.19996 113.43794 282.43678 111.10275 266.67359 107.45858 250.9104 99.97099 235.14722 90.47684 219.38404 82.83761 203.62085 78.256969 187.85767 76.21701 172.09449 75.960727 156.3313 77.908329 140.56813 80.239749 124.80494 84.27952 109.04176 87.000118 93.27858 90.140888 77.515399 88.38342 61.752218 93.61063Z" fill="#937860" fill-opacity=".2"/>
<path transform="matrix(1,0,0,-1,0,345.6)" stroke-width="1" stroke-linecap="butt" stroke-linejoin="round" fill="none" stroke="#937860" stroke-opacity=".2" d="M61.752218 93.61063V81.62586L77.515399 81.921 93.27858 80.989048 109.04176 80.39059 124.80494 79.886 140.56813 77.04769 156.3313 75.58065 172.09449 74.220218 187.85767 74.52019 203.62085 76.07399 219.38404 79.95682 235.14722 85.58891 250.9104 93.01526 266.67359 98.31102 282.43678 101.35386 298.19996 103.04808 313.96315 104.13038 329.72633 104.4156 345.48948 104.32821 361.25267 104.42121 377.01585 104.16526 392.77903 104.39169 408.5422 104.20863 424.3054 104.61547 440.06858 104.80521V114.91287L424.3054 114.61905 408.5422 114.96742 392.77903 114.77584 377.01585 114.01696 361.25267 115.071849 345.48948 114.19632 329.72633 115.10596 313.96315 114.05756 298.19996 113.43794 282.43678 111.10275 266.67359 107.45858 250.9104 99.97099 235.14722 90.47684 219.38404 82.83761 203.62085 78.256969 187.85767 76.21701 172.09449 75.960727 156.3313 77.908329 140.56813 80.239749 124.80494 84.27952 109.04176 87.000118 93.27858 90.140888 77.515399 88.38342 61.752218 93.61063Z"/>
</g>
</g>
<path transform="matrix(1,0,0,-1,0,345.6)" d="M61.752218 56.33863V52.83863"/>
<path transform="matrix(1,0,0,-1,0,345.6)" stroke-width=".8" stroke-linecap="butt" stroke-linejoin="round" fill="none" stroke="#000000" d="M61.752218 56.33863V52.83863"/>
<use data-text="1" xlink:href="#font_4_51" transform="matrix(14.94396,0,0,-14.94396,47.75272,306.6391)"/>
<use data-text="0" xlink:href="#font_4_50" transform="matrix(14.94396,0,0,-14.94396,55.060319,306.6391)"/>
<use data-text="&#x2212;" xlink:href="#font_5_1" transform="matrix(10.460727,0,0,-10.460727,62.385198,301.21607)"/>
<use data-text="5" xlink:href="#font_6_55" transform="matrix(10.460727,0,0,-10.460727,70.52134,301.21607)"/>
<path transform="matrix(1,0,0,-1,0,345.6)" d="M137.41548 56.33863V52.83863"/>
<path transform="matrix(1,0,0,-1,0,345.6)" stroke-width=".8" stroke-linecap="butt" stroke-linejoin="round" fill="none" stroke="#000000" d="M137.41548 56.33863V52.83863"/>
<use data-text="1" xlink:href="#font_4_51" transform="matrix(14.94396,0,0,-14.94396,123.41599,306.6391)"/>
<use data-text="0" xlink:href="#font_4_50" transform="matrix(14.94396,0,0,-14.94396,130.72359,306.6391)"/>
<use data-text="&#x2212;" xlink:href="#font_5_1" transform="matrix(10.460727,0,0,-10.460727,138.04846,301.21607)"/>
<use data-text="3" xlink:href="#font_6_53" transform="matrix(10.460727,0,0,-10.460727,146.1846,301.21607)"/>
<path transform="matrix(1,0,0,-1,0,345.6)" d="M213.07877 56.33863V52.83863"/>
<path transform="matrix(1,0,0,-1,0,345.6)" stroke-width=".8" stroke-linecap="butt" stroke-linejoin="round" fill="none" stroke="#000000" d="M213.07877 56.33863V52.83863"/>
<use data-text="1" xlink:href="#font_4_51" transform="matrix(14.94396,0,0,-14.94396,199.07927,306.6391)"/>
<use data-text="0" xlink:href="#font_4_50" transform="matrix(14.94396,0,0,-14.94396,206.38687,306.6391)"/>
<use data-text="&#x2212;" xlink:href="#font_5_1" transform="matrix(10.460727,0,0,-10.460727,213.71175,301.21607)"/>
<use data-text="1" xlink:href="#font_6_51" transform="matrix(10.460727,0,0,-10.460727,221.84789,301.21607)"/>
<path transform="matrix(1,0,0,-1,0,345.6)" d="M288.74205 56.33863V52.83863"/>
<path transform="matrix(1,0,0,-1,0,345.6)" stroke-width=".8" stroke-linecap="butt" stroke-linejoin="round" fill="none" stroke="#000000" d="M288.74205 56.33863V52.83863"/>
<use data-text="1" xlink:href="#font_4_51" transform="matrix(14.94396,0,0,-14.94396,278.8106,306.6391)"/>
<use data-text="0" xlink:href="#font_4_50" transform="matrix(14.94396,0,0,-14.94396,286.1182,306.6391)"/>
<use data-text="1" xlink:href="#font_6_51" transform="matrix(10.460727,0,0,-10.460727,293.44309,301.21607)"/>
<path transform="matrix(1,0,0,-1,0,345.6)" d="M364.4053 56.33863V52.83863"/>
<path transform="matrix(1,0,0,-1,0,345.6)" stroke-width=".8" stroke-linecap="butt" stroke-linejoin="round" fill="none" stroke="#000000" d="M364.4053 56.33863V52.83863"/>
<use data-text="1" xlink:href="#font_4_51" transform="matrix(14.94396,0,0,-14.94396,354.47389,306.6391)"/>
<use data-text="0" xlink:href="#font_4_50" transform="matrix(14.94396,0,0,-14.94396,361.78147,306.6391)"/>
<use data-text="3" xlink:href="#font_6_53" transform="matrix(10.460727,0,0,-10.460727,369.10636,301.21607)"/>
<path transform="matrix(1,0,0,-1,0,345.6)" d="M440.06858 56.33863V52.83863"/>
<path transform="matrix(1,0,0,-1,0,345.6)" stroke-width=".8" stroke-linecap="butt" stroke-linejoin="round" fill="none" stroke="#000000" d="M440.06858 56.33863V52.83863"/>
<use data-text="1" xlink:href="#font_4_51" transform="matrix(14.94396,0,0,-14.94396,430.13716,306.6391)"/>
<use data-text="0" xlink:href="#font_4_50" transform="matrix(14.94396,0,0,-14.94396,437.44474,306.6391)"/>
<use data-text="5" xlink:href="#font_6_55" transform="matrix(10.460727,0,0,-10.460727,444.76963,301.21607)"/>
<use data-text="&#x03b1;" xlink:href="#font_7_12" transform="matrix(23.910336,0,0,-23.910336,243.46479,330.14927)"/>
<path transform="matrix(1,0,0,-1,0,345.6)" d="M61.752218 68.995967H58.252218"/>
<path transform="matrix(1,0,0,-1,0,345.6)" stroke-width=".8" stroke-linecap="butt" stroke-linejoin="round" fill="none" stroke="#000000" d="M61.752218 68.995967H58.252218"/>
<use data-text="0" xlink:href="#font_4_50" transform="matrix(14.94396,0,0,-14.94396,36.055166,281.7929)" fill="#000000"/>
<use data-text="." xlink:href="#font_7_59" transform="matrix(14.94396,0,0,-14.94396,43.371404,281.7929)" fill="#000000"/>
<use data-text="0" xlink:href="#font_4_50" transform="matrix(14.94396,0,0,-14.94396,47.435979,281.7929)" fill="#000000"/>
<path transform="matrix(1,0,0,-1,0,345.6)" d="M61.752218 119.625308H58.252218"/>
<path transform="matrix(1,0,0,-1,0,345.6)" stroke-width=".8" stroke-linecap="butt" stroke-linejoin="round" fill="none" stroke="#000000" d="M61.752218 119.625308H58.252218"/>
<use data-text="0" xlink:href="#font_4_50" transform="matrix(14.94396,0,0,-14.94396,36.055166,231.16356)" fill="#000000"/>
<use data-text="." xlink:href="#font_7_59" transform="matrix(14.94396,0,0,-14.94396,43.371404,231.16356)" fill="#000000"/>
<use data-text="1" xlink:href="#font_4_51" transform="matrix(14.94396,0,0,-14.94396,47.435979,231.16356)" fill="#000000"/>
<path transform="matrix(1,0,0,-1,0,345.6)" d="M61.752218 170.25464H58.252218"/>
<path transform="matrix(1,0,0,-1,0,345.6)" stroke-width=".8" stroke-linecap="butt" stroke-linejoin="round" fill="none" stroke="#000000" d="M61.752218 170.25464H58.252218"/>
<use data-text="0" xlink:href="#font_4_50" transform="matrix(14.94396,0,0,-14.94396,36.055166,180.53423)" fill="#000000"/>
<use data-text="." xlink:href="#font_7_59" transform="matrix(14.94396,0,0,-14.94396,43.371404,180.53423)" fill="#000000"/>
<use data-text="2" xlink:href="#font_4_52" transform="matrix(14.94396,0,0,-14.94396,47.435979,180.53423)" fill="#000000"/>
<path transform="matrix(1,0,0,-1,0,345.6)" d="M61.752218 220.88399H58.252218"/>
<path transform="matrix(1,0,0,-1,0,345.6)" stroke-width=".8" stroke-linecap="butt" stroke-linejoin="round" fill="none" stroke="#000000" d="M61.752218 220.88399H58.252218"/>
<use data-text="0" xlink:href="#font_4_50" transform="matrix(14.94396,0,0,-14.94396,36.055166,129.90488)" fill="#000000"/>
<use data-text="." xlink:href="#font_7_59" transform="matrix(14.94396,0,0,-14.94396,43.371404,129.90488)" fill="#000000"/>
<use data-text="3" xlink:href="#font_4_53" transform="matrix(14.94396,0,0,-14.94396,47.435979,129.90488)" fill="#000000"/>
<path transform="matrix(1,0,0,-1,0,345.6)" d="M61.752218 271.51335H58.252218"/>
<path transform="matrix(1,0,0,-1,0,345.6)" stroke-width=".8" stroke-linecap="butt" stroke-linejoin="round" fill="none" stroke="#000000" d="M61.752218 271.51335H58.252218"/>
<use data-text="0" xlink:href="#font_4_50" transform="matrix(14.94396,0,0,-14.94396,36.055166,79.27554)" fill="#000000"/>
<use data-text="." xlink:href="#font_7_59" transform="matrix(14.94396,0,0,-14.94396,43.371404,79.27554)" fill="#000000"/>
<use data-text="4" xlink:href="#font_4_54" transform="matrix(14.94396,0,0,-14.94396,47.435979,79.27554)" fill="#000000"/>
<path transform="matrix(1,0,0,-1,0,345.6)" d="M61.752218 322.14268H58.252218"/>
<path transform="matrix(1,0,0,-1,0,345.6)" stroke-width=".8" stroke-linecap="butt" stroke-linejoin="round" fill="none" stroke="#000000" d="M61.752218 322.14268H58.252218"/>
<use data-text="0" xlink:href="#font_4_50" transform="matrix(14.94396,0,0,-14.94396,36.055166,28.64621)" fill="#000000"/>
<use data-text="." xlink:href="#font_7_59" transform="matrix(14.94396,0,0,-14.94396,43.371404,28.64621)" fill="#000000"/>
<use data-text="5" xlink:href="#font_4_55" transform="matrix(14.94396,0,0,-14.94396,47.435979,28.64621)" fill="#000000"/>
<use data-text="n" xlink:href="#font_8_112" transform="matrix(0,-23.910336,-23.910336,-0,27.404406,179.7646)" fill="#000000"/>
<use data-text="C" xlink:href="#font_8_69" transform="matrix(0,-23.910336,-23.910336,-0,27.404406,167.57033)" fill="#000000"/>
<use data-text="E" xlink:href="#font_8_71" transform="matrix(0,-23.910336,-23.910336,-0,27.404406,151.62213)" fill="#000000"/>
<use data-text="R" xlink:href="#font_8_84" transform="matrix(0,-23.910336,-23.910336,-0,27.404406,136.60645)" fill="#000000"/>
<g clip-path="url(#clip_9)">
<path transform="matrix(1,0,0,-1,0,345.6)" stroke-width="1.5" stroke-linecap="square" stroke-linejoin="round" fill="none" stroke="#4c72b0" d="M61.752218 311.13578 77.515399 311.92878 93.27858 312.82643 109.04176 311.0398 124.80494 310.35768 140.56813 311.27445 156.3313 310.86207 172.09449 312.01325 187.85767 310.5669 203.62085 310.61799 219.38404 309.66374 235.14722 310.63996 250.9104 309.69935 266.67359 309.7518 282.43678 310.81846 298.19996 310.09318 313.96315 311.12303 329.72633 310.15644 345.48948 309.59388 361.25267 310.52488 377.01585 309.6921 392.77903 310.921 408.5422 312.11009 424.3054 312.38349 440.06858 309.92958"/>
</g>
<g clip-path="url(#clip_10)">
<path transform="matrix(1,0,0,-1,0,345.6)" stroke-width="1.5" stroke-linecap="square" stroke-linejoin="round" fill="none" stroke="#dd8452" d="M61.752218 110.01683 77.515399 109.34835 93.27858 109.38625 109.04176 109.52106 124.80494 109.29767 140.56813 109.13659 156.3313 109.46661 172.09449 109.621959 187.85767 109.61859 203.62085 109.218219 219.38404 109.28589 235.14722 109.436908 250.9104 109.753459 266.67359 109.59055 282.43678 108.628 298.19996 109.56337 313.96315 109.35863 329.72633 109.467838 345.48948 109.29221 361.25267 109.820659 377.01585 109.05519 392.77903 109.65574 408.5422 109.78261 424.3054 109.66841 440.06858 109.79918"/>
</g>
<g clip-path="url(#clip_11)">
<path transform="matrix(1,0,0,-1,0,345.6)" stroke-width="1.5" stroke-linecap="butt" stroke-dasharray="5.55,2.4" stroke-linejoin="round" fill="none" stroke="#55a868" d="M240.40267 56.33863V334.8"/>
</g>
<g clip-path="url(#clip_12)">
<path transform="matrix(1,0,0,-1,0,345.6)" stroke-width="1.5" stroke-linecap="butt" stroke-dasharray="5.55,2.4" stroke-linejoin="round" fill="none" stroke="#c44e52" d="M225.30377 56.33863V334.8"/>
</g>
<g clip-path="url(#clip_13)">
<path transform="matrix(1,0,0,-1,0,345.6)" stroke-width="1.5" stroke-linecap="square" stroke-linejoin="round" fill="none" stroke="#da8bc3" d="M61.752218 225.00638 77.515399 193.37889 93.27858 184.82527 109.04176 206.62459 124.80494 228.53835 140.56813 196.59087 156.3313 209.57695 172.09449 198.34053 187.85767 219.24776 203.62085 192.68415 219.38404 221.91944 235.14722 201.57129 250.9104 216.50893 266.67359 196.25492 282.43678 205.61638 298.19996 228.323 313.96315 205.29955 329.72633 203.9513 345.48948 218.3902 361.25267 215.61492 377.01585 200.91376 392.77903 215.1758 408.5422 214.4586 424.3054 189.91913 440.06858 203.56896"/>
</g>
<g clip-path="url(#clip_14)">
<path transform="matrix(1,0,0,-1,0,345.6)" stroke-width="1.5" stroke-linecap="square" stroke-linejoin="round" fill="none" stroke="#937860" d="M61.752218 86.592 77.515399 84.98797 93.27858 85.13894 109.04176 83.4945 124.80494 82.0256 140.56813 78.62562 156.3313 76.696239 172.09449 75.04491 187.85767 75.33479 203.62085 77.16884 219.38404 81.35529 235.14722 88.10725 250.9104 96.40831 266.67359 102.9601 282.43678 105.80247 298.19996 108.27807 313.96315 109.019229 329.72633 109.42119 345.48948 109.15838 361.25267 109.782 377.01585 109.08625 392.77903 109.689998 408.5422 109.48426 424.3054 109.56642 440.06858 109.57536"/>
</g>
<g clip-path="url(#clip_15)">
<path transform="matrix(1,0,0,-1,0,345.6)" stroke-width="1.5" stroke-linecap="square" stroke-linejoin="round" fill="none" stroke="#64b5cd" d="M61.752218 322.14268H440.06858"/>
</g>
<path transform="matrix(1,0,0,-1,0,345.6)" stroke-width="2" stroke-linecap="square" stroke-miterlimit="10" stroke-linejoin="miter" fill="none" stroke="#000000" d="M61.752218 56.33863V334.8"/>
<path transform="matrix(1,0,0,-1,0,345.6)" stroke-width="2" stroke-linecap="square" stroke-miterlimit="10" stroke-linejoin="miter" fill="none" stroke="#000000" d="M440.06858 56.33863V334.8"/>
<path transform="matrix(1,0,0,-1,0,345.6)" stroke-width="2" stroke-linecap="square" stroke-miterlimit="10" stroke-linejoin="miter" fill="none" stroke="#000000" d="M61.752218 56.33863H440.06858"/>
<path transform="matrix(1,0,0,-1,0,345.6)" stroke-width="2" stroke-linecap="square" stroke-miterlimit="10" stroke-linejoin="miter" fill="none" stroke="#000000" d="M61.752218 334.8H440.06858"/>
<g>
<path transform="matrix(1,0,0,-1,0,345.6)" d="M237.66933 125.95397H433.61024V194.74852H237.66933Z" fill="#ffffff" fill-opacity=".8"/>
<path transform="matrix(1,0,0,-1,0,345.6)" stroke-width="1" stroke-linecap="butt" stroke-miterlimit="10" stroke-linejoin="miter" fill="none" stroke="#000000" stroke-opacity=".8" d="M237.66933 125.95397H433.61024V194.74852H237.66933Z"/>
</g>
<path transform="matrix(1,0,0,-1,0,345.6)" stroke-width="1.5" stroke-linecap="butt" stroke-dasharray="5.55,2.4" stroke-linejoin="round" fill="none" stroke="#55a868" d="M243.66933 183.49852H258.6693 273.6693"/>
<use data-text="a" xlink:href="#font_16_99" transform="matrix(14.94396,0,0,-14.94396,285.6693,167.35149)"/>
<use data-text="v" xlink:href="#font_16_120" transform="matrix(14.94396,0,0,-14.94396,293.3617,167.35149)"/>
<use data-text="e" xlink:href="#font_16_103" transform="matrix(14.94396,0,0,-14.94396,301.75645,167.35149)"/>
<use data-text="r" xlink:href="#font_16_116" transform="matrix(14.94396,0,0,-14.94396,309.4227,167.35149)"/>
<use data-text="a" xlink:href="#font_16_99" transform="matrix(14.94396,0,0,-14.94396,316.28199,167.35149)"/>
<use data-text="g" xlink:href="#font_16_105" transform="matrix(14.94396,0,0,-14.94396,324.44139,167.35149)"/>
<use data-text="e" xlink:href="#font_16_103" transform="matrix(14.94396,0,0,-14.94396,332.83988,167.35149)"/>
<use data-text="D" xlink:href="#font_16_70" transform="matrix(14.94396,0,0,-14.94396,346.1101,167.35149)"/>
<use data-text="A" xlink:href="#font_16_67" transform="matrix(14.94396,0,0,-14.94396,358.52479,167.35149)"/>
<use data-text="+" xlink:href="#font_16_44" transform="matrix(14.94396,0,0,-14.94396,371.2122,167.35149)"/>
<use data-text="I" xlink:href="#font_16_75" transform="matrix(14.94396,0,0,-14.94396,384.28816,167.35149)"/>
<use data-text="V" xlink:href="#font_16_88" transform="matrix(14.94396,0,0,-14.94396,390.53474,167.35149)"/>
<use data-text="L" xlink:href="#font_16_78" transform="matrix(14.94396,0,0,-14.94396,403.22215,167.35149)"/>
<use data-text="C" xlink:href="#font_17_69" transform="matrix(7.47198,0,0,-7.47198,413.41944,163.49755)"/>
<use data-text="V" xlink:href="#font_17_88" transform="matrix(7.47198,0,0,-7.47198,420.37586,163.49755)"/>
<use data-text="&#x03b1;" xlink:href="#font_18_12" transform="matrix(10.460727,0,0,-10.460727,413.41944,171.04589)"/>
<path transform="matrix(1,0,0,-1,0,345.6)" stroke-width="1.5" stroke-linecap="butt" stroke-dasharray="5.55,2.4" stroke-linejoin="round" fill="none" stroke="#c44e52" d="M243.66933 161.80413H258.6693 273.6693"/>
<use data-text="a" xlink:href="#font_16_99" transform="matrix(14.94396,0,0,-14.94396,285.6693,189.04589)"/>
<use data-text="v" xlink:href="#font_16_120" transform="matrix(14.94396,0,0,-14.94396,293.3617,189.04589)"/>
<use data-text="e" xlink:href="#font_16_103" transform="matrix(14.94396,0,0,-14.94396,301.75645,189.04589)"/>
<use data-text="r" xlink:href="#font_16_116" transform="matrix(14.94396,0,0,-14.94396,309.4227,189.04589)"/>
<use data-text="a" xlink:href="#font_16_99" transform="matrix(14.94396,0,0,-14.94396,316.28199,189.04589)"/>
<use data-text="g" xlink:href="#font_16_105" transform="matrix(14.94396,0,0,-14.94396,324.44139,189.04589)"/>
<use data-text="e" xlink:href="#font_16_103" transform="matrix(14.94396,0,0,-14.94396,332.83988,189.04589)"/>
<use data-text="D" xlink:href="#font_16_70" transform="matrix(14.94396,0,0,-14.94396,346.1101,189.04589)"/>
<use data-text="A" xlink:href="#font_16_67" transform="matrix(14.94396,0,0,-14.94396,358.52479,189.04589)"/>
<use data-text="+" xlink:href="#font_16_44" transform="matrix(14.94396,0,0,-14.94396,371.2122,189.04589)"/>
<use data-text="I" xlink:href="#font_16_75" transform="matrix(14.94396,0,0,-14.94396,384.28816,189.04589)"/>
<use data-text="V" xlink:href="#font_16_88" transform="matrix(14.94396,0,0,-14.94396,390.53474,189.04589)"/>
<use data-text="L" xlink:href="#font_16_78" transform="matrix(14.94396,0,0,-14.94396,403.22215,189.04589)"/>
<use data-text="C" xlink:href="#font_17_69" transform="matrix(7.47198,0,0,-7.47198,413.41944,185.19194)"/>
<use data-text="C" xlink:href="#font_17_69" transform="matrix(7.47198,0,0,-7.47198,420.37586,185.19194)"/>
<use data-text="&#x03b1;" xlink:href="#font_18_12" transform="matrix(10.460727,0,0,-10.460727,413.41944,192.74028)"/>
<path transform="matrix(1,0,0,-1,0,345.6)" stroke-width="1.5" stroke-linecap="square" stroke-linejoin="round" fill="none" stroke="#937860" d="M243.66933 140.10973H258.6693 273.6693"/>
<use data-text="D" xlink:href="#font_4_70" transform="matrix(14.94396,0,0,-14.94396,285.6693,210.7403)"/>
<use data-text="A" xlink:href="#font_4_67" transform="matrix(14.94396,0,0,-14.94396,296.426,210.7403)"/>
<use data-text="+" xlink:href="#font_4_44" transform="matrix(14.94396,0,0,-14.94396,307.39488,210.7403)"/>
<use data-text="I" xlink:href="#font_4_75" transform="matrix(14.94396,0,0,-14.94396,318.7672,210.7403)"/>
<use data-text="V" xlink:href="#font_4_88" transform="matrix(14.94396,0,0,-14.94396,324.04243,210.7403)"/>
<use data-text="L" xlink:href="#font_4_78" transform="matrix(14.94396,0,0,-14.94396,335.0113,210.7403)"/>
<use data-text="&#x03b1;" xlink:href="#font_19_12" transform="matrix(10.460727,0,0,-10.460727,344.1785,212.98188)"/>
</svg>
