<svg xmlns="http://www.w3.org/2000/svg" xmlns:xlink="http://www.w3.org/1999/xlink" xmlns:inkscape="http://www.inkscape.org/namespaces/inkscape" version="1.1" width="460.8" height="345.6" viewBox="0 0 460.8 345.6">
<defs>
<clipPath id="clip_0">
<path transform="matrix(1,0,0,-1,0,345.6)" d="M61.752218 56.33863H440.0686V334.8H61.752218Z"/>
</clipPath>
<clipPath id="clip_1">
<path transform="matrix(1,0,0,-1,0,345.6)" d="M61.752218 56.33863H440.0686V334.8H61.752218Z"/>
</clipPath>
<clipPath id="clip_2">
<path transform="matrix(1,0,0,-1,0,345.6)" d="M61.752218 56.33863H440.0686V334.8H61.752218Z"/>
</clipPath>
<clipPath id="clip_3">
<path transform="matrix(1,0,0,-1,0,345.6)" d="M61.752218 56.33863H440.0686V334.8H61.752218Z"/>
</clipPath>
<clipPath id="clip_4">
<path transform="matrix(1,0,0,-1,0,345.6)" d="M61.752218 56.33863H440.0686V334.8H61.752218Z"/>
</clipPath>
<path id="font_5_51" d="M.28799439 .64105227C.28799439 .664032 .28799439 .66503909 .2679901 .66503909 .24398804 .6380615 .19400025 .6012573 .09098816 .6012573V.5722656C.11399841 .5722656 .1639862 .5722656 .21899414 .59825137V.07701111C.21899414 .041000368 .21598816 .0289917 .12799073 .0289917H.09700012V0C.12399292 .0019989014 .22099304 .0019989014 .2539978 .0019989014 .2869873 .0019989014 .3829956 .0019989014 .4099884 0V.0289917H.3789978C.29100038 .0289917 .28799439 .041000368 .28799439 .07701111V.64105227Z"/>
<path id="font_5_50" d="M.44799806 .31976319C.44799806 .40283204 .44299317 .48390199 .40699769 .55996707 .3659973 .64302065 .2939911 .66503909 .24499512 .66503909 .18699646 .66503909 .115997318 .63601687 .07899475 .552948 .050994874 .48989869 .040985109 .42785646 .040985109 .31976319 .040985109 .22268677 .04798889 .14962769 .083999637 .078567508 .12298584 .0025177003 .19198609-.021484375 .24398804-.021484375 .33099366-.021484375 .3809967 .030532837 .4099884 .08857727 .44599916 .16363526 .44799806 .26171876 .44799806 .31976319M.24398804-.0014953613C.21199036-.0014953613 .14698792 .016525269 .12799073 .12561035 .116989139 .18565369 .116989139 .26171876 .116989139 .33177186 .116989139 .41384889 .116989139 .48789979 .1329956 .5469513 .1499939 .6139984 .20098877 .6450348 .24398804 .6450348 .28199769 .6450348 .33999635 .6220093 .35899354 .53593447 .37199403 .4788971 .37199403 .39982606 .37199403 .33177186 .37199403 .26472474 .37199403 .18865967 .36099244 .12760926 .34199525 .01751709 .2789917-.0014953613 .24398804-.0014953613Z"/>
<path id="font_6_1" d="M.6589966 .23046875C.6759949 .23046875 .69400027 .23046875 .69400027 .25045777 .69400027 .27046205 .6759949 .27046205 .6589966 .27046205H.117996219C.100997928 .27046205 .08299255 .27046205 .08299255 .25045777 .08299255 .23046875 .100997928 .23046875 .117996219 .23046875H.6589966Z"/>
<path id="font_7_52" d="M.1269989 .07699585 .23298645 .18003845C.3889923 .31811524 .44898988 .3721466 .44898988 .47216798 .44898988 .5860901 .35899354 .6660156 .23699951 .6660156 .12399292 .6660156 .049987794 .57411196 .049987794 .48516847 .049987794 .4291687 .099990848 .4291687 .102996829 .4291687 .11999512 .4291687 .15499878 .44117738 .15499878 .48217774 .15499878 .5081787 .13699341 .5341797 .101989749 .5341797 .09399414 .5341797 .09199524 .5341797 .08898926 .5331726 .11199951 .59806826 .1659851 .63500979 .22399903 .63500979 .31498719 .63500979 .35798646 .5541382 .35798646 .47216798 .35798646 .39215089 .30799867 .31311036 .25299073 .25108338L.06098938 .036987306C.049987794 .025985718 .049987794 .023986817 .049987794 0H.42099L.44898988 .17404175H.42399598C.4189911 .14402771 .4119873 .1000061 .4019928 .084991458 .394989 .07699585 .32899476 .07699585 .30699159 .07699585H.1269989Z"/>
<path id="font_7_51" d="M.2939911 .64004519C.2939911 .66400149 .2939911 .6660156 .2709961 .6660156 .20899964 .60227969 .12098694 .60227969 .08898926 .60227969V.57128909C.10899353 .57128909 .16799927 .57128909 .21998596 .5972748V.07902527C.21998596 .042999269 .21699524 .0309906 .1269989 .0309906H.09498596V0C.12998963 .0029907227 .21699524 .0029907227 .25698854 .0029907227 .29699708 .0029907227 .38398744 .0029907227 .4189911 0V.0309906H.3869934C.29699708 .0309906 .2939911 .041992189 .2939911 .07902527V.64004519Z"/>
<path id="font_7_50" d="M.45999146 .31976319C.45999146 .39982606 .45498658 .47988893 .41999818 .5539398 .37399293 .65000918 .2919922 .6660156 .25 .6660156 .18998719 .6660156 .116989139 .64001467 .07598877 .54693606 .04399109 .47789 .038986207 .39982606 .038986207 .31976319 .038986207 .24472046 .042999269 .15464783 .083999637 .07859802 .1269989-.0024719239 .19999695-.022460938 .24899292-.022460938 .30299378-.022460938 .3789978-.0014648438 .4229889 .09359741 .45498658 .16265869 .45999146 .2407074 .45999146 .31976319M.24899292-.00047302247C.20999146-.00047302247 .15098572 .024551392 .1329956 .12062073 .12199402 .18066406 .12199402 .2727356 .12199402 .3317871 .12199402 .39582826 .12199402 .46188355 .12998963 .5159149 .14898682 .63500979 .22399903 .64401248 .24899292 .64401248 .28199769 .64401248 .34799195 .6259918 .36698915 .52693179 .3769989 .47088624 .3769989 .39482118 .3769989 .3317871 .3769989 .25672914 .3769989 .18867493 .3659973 .12461853 .35099793 .029556275 .2939911-.00047302247 .24899292-.00047302247Z"/>
<path id="font_8_14" d="M.37799073 .12226868C.37599183 .17129517 .37399293 .24833679 .33599855 .3383789 .31599427 .38839723 .28199769 .44140626 .20899964 .44140626 .085998538 .44140626 .018997193 .28434754 .018997193 .25834657 .018997193 .24934387 .025985718 .24934387 .0289917 .24934387 .037994386 .24934387 .037994386 .25134278 .042999269 .26434327 .06399536 .32637025 .12799073 .37539674 .19699097 .37539674 .33599855 .37539674 .35598756 .22032166 .35598756 .121276859 .35598756 .058242799 .34899903 .037231447 .34298707 .017227173 .32398988-.044799806 .29100038-.16886902 .29100038-.1968689 .29100038-.20487976 .2939911-.21386719 .3019867-.21386719 .31698609-.21386719 .32598878-.18086243 .33699037-.14085388 .36099244-.05281067 .36698915-.0087890629 .37199403 .031234742 .375 .05493164 .43199159 .21980286 .5109863 .37667848 .5179901 .39266969 .5319977 .41966249 .5319977 .4226532 .5319977 .42366029 .5309906 .43066407 .5219879 .43066407 .519989 .43066407 .5149994 .43066407 .5130005 .426651 .5109863 .4246521 .47599793 .3567047 .44599916 .28875733 .43099977 .25534059 .41099549 .21031189 .37799073 .12226868Z"/>
<path id="font_8_59" d="M.18399048 .04798889C.18399048 .07699585 .1599884 .09700012 .13598633 .09700012 .10699463 .09700012 .08699036 .07299805 .08699036 .04899597 .08699036 .019989014 .11099243 0 .1349945 0 .1639862 0 .18399048 .023986817 .18399048 .04798889Z"/>
<path id="font_5_52" d="M.43998719 .16790772H.41799928C.4149933 .15092469 .40699769 .09597778 .39698792 .07998657 .3899994 .070999149 .33299256 .070999149 .30299378 .070999149H.117996219C.14498902 .09397888 .20599365 .15792847 .23199463 .18190003 .38398744 .3217926 .43998719 .37374879 .43998719 .47270204 .43998719 .5878906 .34899903 .66503909 .23298645 .66503909 .116989139 .66503909 .04899597 .5658264 .04899597 .4797058 .04899597 .42871095 .09298706 .42871095 .09599304 .42871095 .116989139 .42871095 .14299011 .44371034 .14299011 .475708 .14299011 .5037079 .12399292 .5227051 .09599304 .5227051 .08699036 .5227051 .084991458 .5227051 .08198547 .521698 .100997928 .5899048 .15499878 .6360321 .21998596 .6360321 .30499269 .6360321 .35699464 .56481936 .35699464 .47270204 .35699464 .3877411 .30799867 .313797 .25099183 .24984741L.04899597 .023986817V0H.4139862L.43998719 .16790772Z"/>
<path id="font_5_53" d="M.18399048 .35888673C.16699219 .35787965 .16299439 .35688783 .16299439 .34788514 .16299439 .33789063 .16799927 .33789063 .18598938 .33789063H.23199463C.31698609 .33789063 .35499574 .267807 .35499574 .17172241 .35499574 .04058838 .2869873 .005508423 .23799134 .005508423 .18998719 .005508423 .10798645 .028564454 .07899475 .09472656 .11099243 .08970642 .13999939 .10771179 .13999939 .14372254 .13999939 .17271424 .11898804 .1927185 .09098816 .1927185 .066986087 .1927185 .040985109 .1787262 .040985109 .14071656 .040985109 .051620485 .12998963-.021484375 .24099732-.021484375 .3600006-.021484375 .44799806 .06965637 .44799806 .17071533 .44799806 .26280213 .37399293 .33488465 .27799989 .35188294 .36499024 .3769226 .42099 .45011903 .42099 .5282135 .42099 .6071167 .33898927 .66503909 .24198914 .66503909 .14199829 .66503909 .067993167 .604126 .067993167 .5312042 .067993167 .49121095 .09899902 .48321534 .11399841 .48321534 .1349945 .48321534 .15899658 .49821473 .15899658 .5282135 .15899658 .5602112 .1349945 .57421877 .11299133 .57421877 .10699463 .57421877 .10499573 .57421877 .101989749 .57321169 .13999939 .641037 .23399353 .641037 .23899842 .641037 .27198792 .641037 .33699037 .6260681 .33699037 .5282135 .33699037 .5092163 .33399964 .453125 .30499269 .41001893 .2749939 .3658905 .24099732 .36288453 .21398926 .36187745L.18399048 .35888673Z"/>
<path id="font_5_54" d="M.36099244 .6508026C.36099244 .6697998 .36099244 .6748047 .34700013 .6748047 .33898927 .6748047 .33599855 .6748047 .32798768 .662796L.026992798 .19598389V.16699219H.2899933V.07598877C.2899933 .038986207 .28799439 .0289917 .21499634 .0289917H.19499207V0C.21798706 .0019989014 .29699708 .0019989014 .32499696 .0019989014 .35299684 .0019989014 .43299867 .0019989014 .45599366 0V.0289917H.43598939C.3639984 .0289917 .36099244 .038986207 .36099244 .07598877V.16699219H.46199037V.19598389H.36099244V.6508026M.29499818 .5728302V.19598389H.051986696L.29499818 .5728302Z"/>
<path id="font_5_55" d="M.12799073 .5727997C.17098999 .5588074 .20599365 .5578003 .21699524 .5578003 .32998658 .5578003 .4019928 .6409912 .4019928 .6550598 .4019928 .6590576 .3999939 .6640625 .3939972 .6640625 .3919983 .6640625 .3899994 .6640625 .3809967 .66004946 .32499696 .6358795 .2769928 .6328125 .25099183 .6328125 .18499756 .6328125 .13798523 .6530609 .11898804 .6610565 .11199951 .6640625 .10998535 .6640625 .10899353 .6640625 .100997928 .6640625 .100997928 .65805056 .100997928 .64201357V.34495545C.100997928 .32695008 .100997928 .32095338 .11299133 .32095338 .117996219 .32095338 .11898804 .32196046 .1289978 .33395387 .15699768 .37493897 .20399475 .39894105 .2539978 .39894105 .30699159 .39894105 .33299256 .34994508 .34098817 .33294679 .35798646 .29396058 .35899354 .2449646 .35899354 .20697022 .35899354 .16897583 .35899354 .11193848 .33099366 .0667572 .30899049 .03060913 .269989 .005508423 .22599793 .005508423 .1599884 .005508423 .09498596 .050689699 .07699585 .12397766 .08198547 .12197876 .08799744 .12097168 .09298706 .12097168 .10998535 .12097168 .13699341 .13098145 .13699341 .16497803 .13699341 .1929779 .117996219 .20898438 .09298706 .20898438 .07499695 .20898438 .04899597 .19998169 .04899597 .16098023 .04899597 .075790408 .116989139-.021484375 .22799683-.021484375 .34098817-.021484375 .43998719 .073791507 .43998719 .20097351 .43998719 .3199463 .3600006 .4189453 .25498963 .4189453 .19799805 .4189453 .1539917 .39393617 .12799073 .36595155V.5727997Z"/>
<path id="font_9_112" d="M.4149933 .3043213C.4149933 .35539247 .40499879 .43847657 .2869873 .43847657 .20799256 .43847657 .16699219 .3774109 .1519928 .33737184H.15098572V.43847657L.032989503 .42747499V.40144349C.09199524 .40144349 .100997928 .39543153 .100997928 .3473816V.06904602C.100997928 .03100586 .09700012 .025985718 .032989503 .025985718V0C.056991579 .0019989014 .100997928 .0019989014 .1269989 .0019989014 .15299988 .0019989014 .19799805 .0019989014 .22200012 0V.025985718C.1579895 .025985718 .1539917 .02999878 .1539917 .06904602V.26127626C.1539917 .35339356 .20999146 .4224701 .27999879 .4224701 .35398866 .4224701 .3619995 .35638429 .3619995 .30833436V.06904602C.3619995 .03100586 .35798646 .025985718 .2939911 .025985718V0C.31799317 .0019989014 .3619995 .0019989014 .3880005 .0019989014 .4139862 .0019989014 .45899964 .0019989014 .48298646 0V.025985718C.4189911 .025985718 .4149933 .02999878 .4149933 .06904602V.3043213Z"/>
<path id="font_9_69" d="M.62098696 .6792145C.62098696 .6972046 .6199951 .69821169 .6139984 .69821169 .6100006 .69821169 .60899356 .6972046 .60198977 .6852112L.55799868 .6012268C.5089874 .663208 .44898988 .69921877 .37199403 .69921877 .20098877 .69921877 .04598999 .54823306 .04598999 .34228517 .04598999 .13433838 .20098877-.015625 .37298585-.015625 .526001-.015625 .62098696 .11933899 .62098696 .23431397 .62098696 .24430847 .62098696 .24830628 .6119995 .24830628 .60398867 .24830628 .60398867 .24531555 .6029968 .23631287 .59498599 .096343997 .49499513 .010360718 .3869934 .010360718 .2849884 .010360718 .12199402 .082351688 .12199402 .34228517 .12199402 .6032257 .28799439 .6732178 .3849945 .6732178 .49798585 .6732178 .5799866 .5752411 .598999 .43626405 .6009979 .42427064 .6009979 .42227174 .6100006 .42227174 .62098696 .42227174 .62098696 .42427064 .62098696 .44226075V.6792145Z"/>
<path id="font_9_71" d="M.6069946 .25286866H.58898928C.5669861 .10594177 .55400088 .025985718 .37799073 .025985718H.23899842C.19898987 .025985718 .19699097 .0309906 .19699097 .064971927V.3408203H.29100038C.3849945 .3408203 .3939972 .306839 .3939972 .22387696H.4119873V.48373414H.3939972C.3939972 .40078736 .3849945 .36680604 .29100038 .36680604H.19699097V.61564639C.19699097 .6496124 .19898987 .65460208 .23899842 .65460208H.37599183C.5309906 .65460208 .548996 .59265139 .5629883 .4597473H.58099368L.5569916 .680603H.050994874V.65460208C.11999512 .65460208 .1309967 .65460208 .1309967 .60964968V.07096863C.1309967 .025985718 .11999512 .025985718 .050994874 .025985718V0H.57099917L.6069946 .25286866Z"/>
<path id="font_9_84" d="M.3919983 .3409729C.4869995 .3599701 .5669861 .42388917 .5669861 .50379946 .5669861 .59768679 .46099855 .6826172 .32099916 .6826172H.051986696V.6566162C.12098694 .6566162 .13198853 .6566162 .13198853 .6116638V.07128906C.13198853 .02633667 .12098694 .02633667 .051986696 .02633667V.00036621095C.08099365 .0023651124 .1329956 .0023651124 .1639862 .0023651124 .19499207 .0023651124 .24699402 .0023651124 .27598573 .00036621095V.02633667C.20698548 .02633667 .19599915 .02633667 .19599915 .07128906V.33398438H.31298829C.36999513 .33398438 .4019928 .31100465 .41600038 .2980194 .45599366 .25906373 .45599366 .23210144 .45599366 .16416931 .45599366 .09725952 .45599366 .06329346 .48599244 .029327393 .5239868-.011627197 .57499697-.015625 .5970001-.015625 .67099-.015625 .6819916 .06729126 .6819916 .08427429 .6819916 .09025574 .6819916 .09725952 .6729889 .09725952 .6649933 .09725952 .6639862 .09126282 .6639862 .087265018 .6589966 .022338868 .6299896 .00036621095 .598999 .00036621095 .5439911 .00036621095 .5379944 .06329346 .5319977 .1242218 .5289917 .14520264 .5269928 .16018677 .5249939 .18215943 .5189972 .23210144 .5109863 .30500794 .3919983 .3409729M.30999757 .3499756H.19599915V.6176605C.19599915 .6516113 .19799805 .6566162 .23799134 .6566162H.31098939C.3939972 .6566162 .4909973 .6276398 .4909973 .50379946 .4909973 .37495423 .3849945 .3499756 .30999757 .3499756Z"/>
<clipPath id="clip_10">
<path transform="matrix(1,0,0,-1,0,345.6)" d="M61.752218 56.33863H440.0686V334.8H61.752218Z"/>
</clipPath>
<clipPath id="clip_11">
<path transform="matrix(1,0,0,-1,0,345.6)" d="M61.752218 56.33863H440.0686V334.8H61.752218Z"/>
</clipPath>
<clipPath id="clip_12">
<path transform="matrix(1,0,0,-1,0,345.6)" d="M61.752218 56.33863H440.0686V334.8H61.752218Z"/>
</clipPath>
<clipPath id="clip_13">
<path transform="matrix(1,0,0,-1,0,345.6)" d="M61.752218 56.33863H440.0686V334.8H61.752218Z"/>
</clipPath>
<clipPath id="clip_14">
<path transform="matrix(1,0,0,-1,0,345.6)" d="M61.752218 56.33863H440.0686V334.8H61.752218Z"/>
</clipPath>
<clipPath id="clip_15">
<path transform="matrix(1,0,0,-1,0,345.6)" d="M61.752218 56.33863H440.0686V334.8H61.752218Z"/>
</clipPath>
<path id="font_5_71" d="M.6380005 .2558899H.6159973C.59199526 .09996033 .56799319 .0289917 .39898683 .0289917H.2630005C.21899414 .0289917 .21699524 .035995485 .21699524 .06896973V.3388672H.30799867C.4039917 .3388672 .4149933 .3078766 .4149933 .22190857H.43699647V.48475648H.4149933C.4149933 .39883424 .4039917 .3678589 .30799867 .3678589H.21699524V.61164858C.21699524 .6446228 .21899414 .6516113 .2630005 .6516113H.3959961C.54299929 .6516113 .57398989 .60165408 .58898928 .45777894H.61099246L.58499148 .680603H.040985109V.6516113H.06098938C.1329956 .6516113 .13598633 .6416168 .13598633 .6046448V.07597351C.13598633 .038986207 .1329956 .0289917 .06098938 .0289917H.040985109V0H.59799197L.6380005 .2558899Z"/>
<path id="font_5_84" d="M.42199708 .33955384C.5209961 .3625641 .59799197 .42556764 .59799197 .50257876 .59799197 .5995941 .4850006 .6826172 .34098817 .6826172H.041992189V.6536102H.06199646C.13398743 .6536102 .13699341 .64360049 .13699341 .6065979V.07551575C.13699341 .038513185 .13398743 .028518677 .06199646 .028518677H.041992189V-.00048828127C.06498718 .0015106201 .14698792 .0015106201 .17599488 .0015106201 .20498657 .0015106201 .28799439 .0015106201 .31098939-.00048828127V.028518677H.29100038C.21899414 .028518677 .21598816 .038513185 .21598816 .07551575V.33155824H.33198548C.37098695 .33155824 .4079895 .32055665 .43499757 .2925415 .46899415 .25454713 .46899415 .23353577 .46899415 .16453552 .46899415 .08552551 .46899415 .059509279 .5130005 .01651001 .5279999 .0015106201 .56999209-.021484375 .6259918-.021484375 .70399478-.021484375 .71699526 .06552124 .71699526 .086517337 .71699526 .09251404 .71699526 .10151672 .70599368 .10151672 .69599917 .10151672 .69599917 .09552002 .69499209 .08552551 .6899872 .025512696 .6609955-.0014953613 .6289978-.0014953613 .58299258-.0014953613 .57299807 .045516969 .5649872 .098526 .56399539 .105529788 .55799868 .14852906 .5549927 .17353821 .5479889 .22354126 .5439911 .25553895 .5139923 .2865448 .5029907 .2975464 .47698976 .32455445 .42199708 .33955384M.32798768 .3515625H.21598816V.6136017C.21598816 .63661196 .21598816 .64860537 .23699951 .65260317 .24598694 .6536102 .27598573 .6536102 .29599 .6536102 .3769989 .6536102 .5049896 .6536102 .5049896 .50257876 .5049896 .41557313 .45799256 .3515625 .32798768 .3515625Z"/>
<path id="font_5_79" d="M.22999573 .66360476C.22299195 .6826172 .22200012 .6826172 .19898987 .6826172H.04399109V.6536102H.06399536C.13598633 .6536102 .13899231 .6436157 .13899231 .6066437V.10295105C.13899231 .07595825 .13899231 .0289917 .04399109 .0289917V0C.069992069 .0019989014 .12298584 .0019989014 .15098572 .0019989014 .1789856 .0019989014 .23199463 .0019989014 .2579956 0V.0289917C.16299439 .0289917 .16299439 .07595825 .16299439 .10295105V.6486206H.1639862L.40499879 .018997193C.40899659 .0079956059 .4119873 0 .42199708 0 .43099977 0 .43299867 .004989624 .43899537 .019989014L.6819916 .6536102H.68299868V.07595825C.68299868 .038986207 .6799927 .0289917 .60798647 .0289917H.58799746V0C.61099246 .0019989014 .69099429 .0019989014 .7200012 .0019989014 .7489929 .0019989014 .82899478 .0019989014 .85198977 0V.0289917H.83200076C.7599945 .0289917 .7569885 .038986207 .7569885 .07595825V.6066437C.7569885 .6436157 .7599945 .6536102 .83200076 .6536102H.85198977V.6826172H.69699099C.6749878 .6826172 .673996 .6816101 .66600039 .6626129L.44799806 .093948367 .22999573 .66360476Z"/>
<path id="font_5_70" d="M.041992189 .6826172V.6536102H.06199646C.13398743 .6536102 .13699341 .6436157 .13699341 .6066437V.07595825C.13699341 .038986207 .13398743 .0289917 .06199646 .0289917H.041992189V0H.3919983C.5589905 0 .69299319 .1499176 .69299319 .33480836 .69299319 .5276947 .55799868 .6826172 .3919983 .6826172H.041992189M.2619934 .0289917C.21798706 .0289917 .21598816 .035995485 .21598816 .06896973V.6136322C.21598816 .6466217 .21798706 .6536102 .2619934 .6536102H.36698915C.44999696 .6536102 .5159912 .6136322 .5569916 .5476837 .60198977 .4767151 .60198977 .3757782 .60198977 .33580018 .60198977 .2798462 .6009979 .18589783 .5439911 .11193848 .5109863 .06996155 .45098878 .0289917 .36698915 .0289917H.2619934Z"/>
<path id="font_5_67" d="M.3869934 .6958618C.3829956 .7078552 .3809967 .7138672 .36698915 .7138672 .35299684 .7138672 .35099793 .7108612 .34599305 .69485476L.13699341 .09689331C.12298584 .05595398 .09498596 .02998352 .0309906 .0289917V0C.09199524 .0019989014 .09399414 .0019989014 .1269989 .0019989014 .15499878 .0019989014 .20298767 .0019989014 .22898865 0V.0289917C.18699646 .02998352 .1619873 .050964357 .1619873 .07891846 .1619873 .08491516 .1619873 .08691406 .16699219 .09989929L.21299744 .23271179H.46499635L.519989 .075927738C.5249939 .063949588 .5249939 .061950685 .5249939 .058944704 .5249939 .0289917 .47399903 .0289917 .44898988 .0289917V0C.47200013 .0019989014 .5509949 .0019989014 .57899478 .0019989014 .6069946 .0019989014 .67900088 .0019989014 .70199587 0V.0289917C.6369934 .0289917 .61898806 .0289917 .6049957 .06993103L.3869934 .6958618M.33898927 .5948334 .45498658 .26171876H.22299195L.33898927 .5948334Z"/>
<path id="font_5_44" d="M.39898683 .23057556H.6749878C.68899539 .23057556 .70700076 .23057556 .70700076 .24856568 .70700076 .26757813 .6899872 .26757813 .6749878 .26757813H.39898683V.5441437C.39898683 .5581665 .39898683 .5761719 .3809967 .5761719 .3619995 .5761719 .3619995 .5591583 .3619995 .5441437V.26757813H.085998538C.07199097 .26757813 .053985597 .26757813 .053985597 .24957276 .053985597 .23057556 .070999149 .23057556 .085998538 .23057556H.3619995V-.045166017C.3619995-.059158327 .3619995-.07714844 .37998963-.07714844 .39898683-.07714844 .39898683-.060150148 .39898683-.045166017V.23057556Z"/>
<path id="font_16_70" d="M.037994386 .6855469V.64253237H.14399719V.042999269H.037994386V0H.45899964C.651001 0 .798996 .122924808 .798996 .33677674 .798996 .56259158 .6469879 .6855469 .45899964 .6855469H.037994386M.2709961 .042999269V.64253237H.42099C.5079956 .64253237 .5779877 .6085663 .61499026 .5566101 .6439972 .51564028 .6629944 .4666748 .6629944 .33776856 .6629944 .22085572 .647995 .16889954 .61299136 .12193298 .5779877 .07597351 .5109863 .042999269 .42099 .042999269H.2709961Z"/>
<path id="font_16_67" d="M.45799256 .67718508C.45098878 .6951904 .44898988 .7001953 .4249878 .7001953 .3999939 .7001953 .397995 .6951904 .3909912 .67718508L.14299011 .0670166C.13598633 .050994874 .13598633 .04899597 .10798645 .04598999 .08299255 .042999269 .07899475 .042999269 .056991579 .042999269H.038986207V0C.06498718 .0019989014 .125 .0019989014 .1539917 .0019989014 .18099976 .0019989014 .2539978 .0019989014 .2769928 0V.042999269C.25498963 .042999269 .21699524 .042999269 .18899536 .054000856 .19198609 .0630188 .19198609 .0650177 .19400025 .06903076L.24699402 .19917298H.5149994L.5779877 .042999269H.48399354V0C.5159912 .0019989014 .61299136 .0019989014 .651001 .0019989014 .68299868 .0019989014 .7849884 .0019989014 .80999758 0V.042999269H.71499636L.45799256 .67718508M.3809967 .5301819 .49699403 .2421875H.2639923L.3809967 .5301819Z"/>
<path id="font_16_44" d="M.46499635 .22167969H.7719879C.7849884 .22167969 .81199648 .22167969 .81199648 .24867249 .81199648 .27667237 .7859955 .27667237 .7719879 .27667237H.46499635V.5849762C.46499635 .5979767 .46499635 .625 .43798829 .625 .4099884 .625 .4099884 .59898379 .4099884 .5849762V.27667237H.101989749C.08799744 .27667237 .06199646 .27667237 .06199646 .24867249 .06199646 .22167969 .08898926 .22167969 .101989749 .22167969H.4099884V-.085998538C.4099884-.098983768 .4099884-.12597656 .43699647-.12597656 .46499635-.12597656 .46499635-.099990848 .46499635-.085998538V.22167969Z"/>
<path id="font_16_75" d="M.2749939 .64253237H.3869934V.6855469C.35099793 .6835327 .25099183 .6835327 .20899964 .6835327 .16699219 .6835327 .066986087 .6835327 .0309906 .6855469V.64253237H.14299011V.042999269H.0309906V0C.066986087 .0019989014 .16699219 .0019989014 .20899964 .0019989014 .25099183 .0019989014 .35099793 .0019989014 .3869934 0V.042999269H.2749939V.64253237Z"/>
<path id="font_16_88" d="M.723999 .6195679C.7299957 .6325531 .73399356 .64253237 .80799868 .64253237H.82499697V.6855469C.7939911 .6835327 .7220001 .6835327 .71398928 .6835327 .6859894 .6835327 .61499026 .6835327 .59199526 .6855469V.64253237C.6139984 .64253237 .651001 .64253237 .67900088 .631546L.673996 .61756899 .46899415 .15005493 .25299073 .64253237H.34599305V.6855469C.31399537 .6835327 .21798706 .6835327 .17999268 .6835327 .147995 .6835327 .04899597 .6835327 .023986817 .6855469V.64253237H.11399841L.3899994 .012207031C.39898683-.007797241 .4079895-.0087890629 .42399598-.0087890629 .43998719-.0087890629 .44999696-.0087890629 .45899964 .012207031L.723999 .6195679Z"/>
<path id="font_16_78" d="M.6279907 .26982118H.58599856C.57899478 .2008667 .5629883 .042999269 .3829956 .042999269H.27598573V.64253237H.40899659V.6855469C.3600006 .6835327 .2709961 .6835327 .21798706 .6835327 .18099976 .6835327 .066986087 .6835327 .037994386 .6855469V.64253237H.14399719V.042999269H.037994386V0H.598999L.6279907 .26982118Z"/>
<path id="font_17_69" d="M.8549957 .66622927C.8549957 .6862335 .8549957 .6982422 .83200076 .6982422 .81999209 .6982422 .81799319 .6972351 .80799868 .6882324L.7409973 .63023379C.6419983 .6982422 .5469971 .6982422 .5169983 .6982422 .22698975 .6982422 .07499695 .53523257 .07499695 .34324647 .07499695 .15426636 .22299195-.01171875 .5179901-.01171875 .723999-.01171875 .8549957 .104263309 .8549957 .22825623 .8549957 .25326539 .84399417 .25326539 .82299807 .25326539 .8089905 .25326539 .79299929 .25326539 .7919922 .23626709 .7829895 .08326721 .6299896 .044281007 .54299929 .044281007 .46099855 .044281007 .36898805 .06427002 .30899049 .1232605 .2519989 .18026734 .23799134 .2642517 .23799134 .34324647 .23799134 .43824769 .2579956 .52523806 .32598878 .5782318 .394989 .6312256 .47898866 .6422272 .54100039 .6422272 .66999819 .6422272 .7619934 .55422976 .7819977 .4502411 .7869873 .4232483 .7869873 .4212494 .81599429 .4212494H.82299807C.85198977 .4212494 .8549957 .4242401 .8549957 .45324708V.66622927Z"/>
<path id="font_17_88" d="M.82899478 .611557C.83499148 .62454226 .83799746 .62953189 .9049988 .62953189H.9319916V.6855469C.9169922 .6845398 .8470001 .6815338 .8129883 .6815338 .7749939 .6815338 .6759949 .6855469 .67099 .6855469V.62953189C.70999148 .62953189 .72898867 .62854006 .7549896 .62353518L.5239868 .14511109 .2899933 .62953189H.37799073V.6855469C.32499696 .6815338 .24899292 .6815338 .19499207 .6815338 .14698792 .6815338 .049987794 .6845398 .034988405 .6855469V.62953189H.1289978L.42599488 .01725769C.43998719-.01171875 .45298768-.01171875 .47599793-.01171875H.4909973C.5239868-.01171875 .5299988-.0047302248 .54100039 .01826477L.82899478 .611557Z"/>
<path id="font_18_12" d="M.58399966 .16416931C.6779938 .27215577 .69999697 .3851471 .69999697 .38813783 .69999697 .4021454 .68499758 .4021454 .6759949 .4021454 .6569977 .4021454 .6559906 .40014649 .651001 .3811493 .6319885 .31414796 .60198977 .25915528 .5799866 .22816468 .57899478 .27615357 .5779877 .33514405 .5239868 .3891449 .47200013 .44213868 .40699769 .45214845 .3600006 .45214845 .1559906 .45214845 .04598999 .29415895 .04598999 .16516114 .04598999 .05517578 .12799073-.0078125 .25299073-.0078125 .34899903-.0078125 .43099977 .033172609 .48399354 .07118225 .5019989 .029174805 .54299929-.0078125 .60398867-.0078125 .66999819-.0078125 .70399478 .03817749 .70399478 .059173585 .70399478 .07318115 .6899872 .07318115 .68099978 .07318115 .66799929 .07318115 .6629944 .07318115 .6579895 .060180665 .6459961 .031173706 .61299136 .028182984 .61099246 .028182984 .58599856 .028182984 .58399966 .14416504 .58399966 .16416931M.2579956 .028182984C.20199585 .028182984 .16099549 .05517578 .16099549 .121170047 .16099549 .15415955 .18399048 .26515199 .21398926 .32315064 .24598694 .387146 .30799867 .4161377 .35899354 .4161377 .45199586 .4161377 .46299745 .30615235 .46699525 .2081604 .46798707 .1831665 .47200013 .13917542 .47200013 .11517334 .47200013 .10316467 .41099549 .06817627 .38598634 .057174684 .32598878 .031173706 .28199769 .028182984 .2579956 .028182984Z"/>
<path id="font_5_75" d="M.21699524 .6066437C.21699524 .6436157 .21998596 .6536102 .29499818 .6536102H.31698609V.6826172C.29299928 .680603 .20698548 .680603 .1769867 .680603 .14698792 .680603 .05999756 .680603 .035995485 .6826172V.6536102H.057998659C.1329956 .6536102 .13598633 .6436157 .13598633 .6066437V.07595825C.13598633 .038986207 .1329956 .0289917 .057998659 .0289917H.035995485V0C.05999756 .0019989014 .1459961 .0019989014 .17599488 .0019989014 .20599365 .0019989014 .29299928 .0019989014 .31698609 0V.0289917H.29499818C.21998596 .0289917 .21699524 .038986207 .21699524 .07595825V.6066437Z"/>
<path id="font_5_88" d="M.61099246 .5836029C.6199951 .6085968 .6369934 .65260317 .71499636 .6536102V.6826172C.6639862 .680603 .6619873 .680603 .6230011 .680603 .59599307 .680603 .54599 .680603 .5209961 .6826172V.6536102C.57199099 .65260317 .58699038 .6246033 .58699038 .604599 .58699038 .5986023 .58699038 .5966034 .58099368 .5825958L.3939972 .089523319 .19699097 .6096039C.19198609 .62060549 .19198609 .62260439 .19198609 .6246033 .19198609 .6536102 .24198914 .6536102 .2669983 .6536102V.6826172C.24299622 .680603 .16699219 .680603 .13798523 .680603 .10998535 .680603 .041992189 .680603 .017990113 .6826172V.6536102C.07998657 .6536102 .09599304 .6536102 .11099243 .6136017L.34498597-.0024871827C.34999085-.016494751 .35198976-.021484375 .3659973-.021484375 .37998963-.021484375 .3809967-.018493653 .3880005-.0014953613L.61099246 .5836029Z"/>
<path id="font_7_53" d="M.2899933 .35191346C.37199403 .37893678 .42999269 .4490509 .42999269 .52809146 .42999269 .6100464 .34199525 .6660156 .24598694 .6660156 .14498902 .6660156 .068984989 .60606387 .068984989 .53009036 .068984989 .49710084 .09098816 .47808839 .11999512 .47808839 .15098572 .47808839 .17098999 .50009158 .17098999 .5290985 .17098999 .57910159 .12399292 .57910159 .10899353 .57910159 .13999939 .62802127 .20599365 .64100649 .24198914 .64100649 .2829895 .64100649 .33799745 .6190338 .33799745 .5290985 .33799745 .51708987 .33599855 .45906068 .30999757 .4149933 .27999879 .36691285 .24598694 .36390687 .22099304 .36291505 .21299744 .36190797 .18899536 .35990907 .18199158 .35990907 .17399597 .35890199 .16699219 .35791017 .16699219 .3479004 .16699219 .33691407 .17399597 .33691407 .19099427 .33691407H.23498535C.31698609 .33691407 .35398866 .2686615 .35398866 .17037964 .35398866 .034469606 .2849884 .0055389406 .24099732 .0055389406 .19799805 .0055389406 .12298584 .022491456 .08799744 .08137512 .12298584 .07637024 .1539917 .09837341 .1539917 .1363678 .1539917 .17237854 .1269989 .19238281 .09799194 .19238281 .07398987 .19238281 .041992189 .17837525 .041992189 .1343689 .041992189 .043441774 .1349945-.022460938 .24398804-.022460938 .3659973-.022460938 .45700074 .06838989 .45700074 .17037964 .45700074 .252594 .3939972 .33088685 .2899933 .35191346Z"/>
</defs>
<path transform="matrix(1,0,0,-1,0,345.6)" d="M0 0H460.8V345.6H0Z" fill="transparent"/>
<path transform="matrix(1,0,0,-1,0,345.6)" d="M61.752218 56.33863H440.06858V334.8H61.752218Z" fill="transparent"/>
<g clip-path="url(#clip_0)">
<g>
<path transform="matrix(1,0,0,-1,0,345.6)" d="M61.752218 335.13459V265.97706L77.515399 263.7519 93.27858 266.8567 109.04176 267.28446 124.80494 264.01106 140.56813 266.74574 156.3313 263.8811 172.09449 266.3447 187.85767 265.2204 203.62085 264.3468 219.38404 267.40007 235.14722 268.2858 250.9104 263.9951 266.67359 267.50663 282.43678 268.17637 298.19996 266.3503 313.96315 266.9217 329.72633 266.6735 345.48948 265.46586 361.25267 263.90888 377.01585 268.52397 392.77903 267.90776 408.5422 267.22267 424.3054 266.65794 440.06858 265.84257V335.22846L424.3054 339.3394 408.5422 336.4413 392.77903 335.06828 377.01585 336.30415 361.25267 335.41163 345.48948 338.15788 329.72633 334.13517 313.96315 337.6631 298.19996 337.19743 282.43678 337.5426 266.67359 335.87059 250.9104 335.33677 235.14722 339.64186 219.38404 334.67243 203.62085 336.8128 187.85767 336.74116 172.09449 339.6034 156.3313 337.9239 140.56813 337.82688 124.80494 336.65263 109.04176 334.79856 93.27858 339.66853 77.515399 337.15495 61.752218 335.13459Z" fill="#4c72b0" fill-opacity=".2"/>
<path transform="matrix(1,0,0,-1,0,345.6)" stroke-width="1" stroke-linecap="butt" stroke-linejoin="round" fill="none" stroke="#4c72b0" stroke-opacity=".2" d="M61.752218 335.13459V265.97706L77.515399 263.7519 93.27858 266.8567 109.04176 267.28446 124.80494 264.01106 140.56813 266.74574 156.3313 263.8811 172.09449 266.3447 187.85767 265.2204 203.62085 264.3468 219.38404 267.40007 235.14722 268.2858 250.9104 263.9951 266.67359 267.50663 282.43678 268.17637 298.19996 266.3503 313.96315 266.9217 329.72633 266.6735 345.48948 265.46586 361.25267 263.90888 377.01585 268.52397 392.77903 267.90776 408.5422 267.22267 424.3054 266.65794 440.06858 265.84257V335.22846L424.3054 339.3394 408.5422 336.4413 392.77903 335.06828 377.01585 336.30415 361.25267 335.41163 345.48948 338.15788 329.72633 334.13517 313.96315 337.6631 298.19996 337.19743 282.43678 337.5426 266.67359 335.87059 250.9104 335.33677 235.14722 339.64186 219.38404 334.67243 203.62085 336.8128 187.85767 336.74116 172.09449 339.6034 156.3313 337.9239 140.56813 337.82688 124.80494 336.65263 109.04176 334.79856 93.27858 339.66853 77.515399 337.15495 61.752218 335.13459Z"/>
</g>
</g>
<g clip-path="url(#clip_1)">
<g>
<path transform="matrix(1,0,0,-1,0,345.6)" d="M61.752218 336.3856V265.43504L77.515399 268.61778 93.27858 268.23887 109.04176 265.10063 124.80494 262.71333 140.56813 265.67414 156.3313 263.81227 172.09449 261.2873 187.85767 258.836 203.62085 255.75989 219.38404 241.5878 235.14722 225.01729 250.9104 205.95008 266.67359 181.85402 282.43678 157.2986 298.19996 137.66223 313.96315 119.222667 329.72633 104.89896 345.48948 93.342319 361.25267 84.57173 377.01585 78.99657 392.77903 75.132328 408.5422 72.49558 424.3054 71.02823 440.06858 70.04572V70.67958L424.3054 71.83919 408.5422 73.77679 392.77903 76.90963 377.01585 81.74539 361.25267 89.24354 345.48948 100.00142 329.72633 115.397998 313.96315 134.932 298.19996 157.8925 282.43678 186.77199 266.67359 219.44039 250.9104 252.6258 235.14722 280.29786 219.38404 307.80644 203.62085 319.80583 187.85767 326.03373 172.09449 330.2108 156.3313 334.70384 140.56813 337.99189 124.80494 334.8339 109.04176 336.19618 93.27858 336.17488 77.515399 338.03807 61.752218 336.3856Z" fill="#dd8452" fill-opacity=".2"/>
<path transform="matrix(1,0,0,-1,0,345.6)" stroke-width="1" stroke-linecap="butt" stroke-linejoin="round" fill="none" stroke="#dd8452" stroke-opacity=".2" d="M61.752218 336.3856V265.43504L77.515399 268.61778 93.27858 268.23887 109.04176 265.10063 124.80494 262.71333 140.56813 265.67414 156.3313 263.81227 172.09449 261.2873 187.85767 258.836 203.62085 255.75989 219.38404 241.5878 235.14722 225.01729 250.9104 205.95008 266.67359 181.85402 282.43678 157.2986 298.19996 137.66223 313.96315 119.222667 329.72633 104.89896 345.48948 93.342319 361.25267 84.57173 377.01585 78.99657 392.77903 75.132328 408.5422 72.49558 424.3054 71.02823 440.06858 70.04572V70.67958L424.3054 71.83919 408.5422 73.77679 392.77903 76.90963 377.01585 81.74539 361.25267 89.24354 345.48948 100.00142 329.72633 115.397998 313.96315 134.932 298.19996 157.8925 282.43678 186.77199 266.67359 219.44039 250.9104 252.6258 235.14722 280.29786 219.38404 307.80644 203.62085 319.80583 187.85767 326.03373 172.09449 330.2108 156.3313 334.70384 140.56813 337.99189 124.80494 334.8339 109.04176 336.19618 93.27858 336.17488 77.515399 338.03807 61.752218 336.3856Z"/>
</g>
</g>
<g clip-path="url(#clip_2)">
<g>
<path transform="matrix(1,0,0,-1,0,345.6)" d="M61.752218 333.96614V266.36528L77.515399 266.3831 93.27858 264.51777 109.04176 265.82255 124.80494 263.16816 140.56813 262.29939 156.3313 261.14314 172.09449 254.34386 187.85767 238.80304 203.62085 226.61273 219.38404 209.6022 235.14722 184.20963 250.9104 167.56714 266.67359 142.82534 282.43678 123.56198 298.19996 108.20454 313.96315 95.14103 329.72633 85.75614 345.48948 80.557308 361.25267 75.40435 377.01585 73.02827 392.77903 71.46466 408.5422 70.38599 424.3054 69.81877 440.06858 69.54194V70.0734L424.3054 70.45406 408.5422 71.08316 392.77903 72.49291 377.01585 74.41848 361.25267 78.27554 345.48948 85.20531 329.72633 93.05014 313.96315 105.67314 298.19996 123.66842 282.43678 145.46332 266.67359 171.12866 250.9104 197.96376 235.14722 229.40111 219.38404 261.44468 203.62085 290.4937 187.85767 301.02766 172.09449 322.49748 156.3313 328.80479 140.56813 330.79896 124.80494 333.37303 109.04176 336.49897 93.27858 336.17939 77.515399 337.1812 61.752218 333.96614Z" fill="#55a868" fill-opacity=".2"/>
<path transform="matrix(1,0,0,-1,0,345.6)" stroke-width="1" stroke-linecap="butt" stroke-linejoin="round" fill="none" stroke="#55a868" stroke-opacity=".2" d="M61.752218 333.96614V266.36528L77.515399 266.3831 93.27858 264.51777 109.04176 265.82255 124.80494 263.16816 140.56813 262.29939 156.3313 261.14314 172.09449 254.34386 187.85767 238.80304 203.62085 226.61273 219.38404 209.6022 235.14722 184.20963 250.9104 167.56714 266.67359 142.82534 282.43678 123.56198 298.19996 108.20454 313.96315 95.14103 329.72633 85.75614 345.48948 80.557308 361.25267 75.40435 377.01585 73.02827 392.77903 71.46466 408.5422 70.38599 424.3054 69.81877 440.06858 69.54194V70.0734L424.3054 70.45406 408.5422 71.08316 392.77903 72.49291 377.01585 74.41848 361.25267 78.27554 345.48948 85.20531 329.72633 93.05014 313.96315 105.67314 298.19996 123.66842 282.43678 145.46332 266.67359 171.12866 250.9104 197.96376 235.14722 229.40111 219.38404 261.44468 203.62085 290.4937 187.85767 301.02766 172.09449 322.49748 156.3313 328.80479 140.56813 330.79896 124.80494 333.37303 109.04176 336.49897 93.27858 336.17939 77.515399 337.1812 61.752218 333.96614Z"/>
</g>
</g>
<g clip-path="url(#clip_3)">
<g>
<path transform="matrix(1,0,0,-1,0,345.6)" d="M61.752218 326.45539V254.18637L77.515399 249.638 93.27858 248.28343 109.04176 248.04888 124.80494 238.33026 140.56813 223.84302 156.3313 212.62496 172.09449 189.80263 187.85767 179.0732 203.62085 162.2073 219.38404 153.95302 235.14722 130.8148 250.9104 125.074489 266.67359 114.83228 282.43678 104.53763 298.19996 95.38707 313.96315 84.84119 329.72633 80.49602 345.48948 76.286449 361.25267 72.395908 377.01585 71.2516 392.77903 70.243839 408.5422 69.87749 424.3054 69.65391 440.06858 69.44037V69.97572L424.3054 70.278 408.5422 70.614917 392.77903 71.447757 377.01585 72.86614 361.25267 74.830898 345.48948 80.13922 329.72633 86.999248 313.96315 91.53758 298.19996 109.42494 282.43678 124.93317 266.67359 136.99388 250.9104 145.53893 235.14722 153.18051 219.38404 184.45269 203.62085 198.81827 187.85767 216.84325 172.09449 237.47539 156.3313 256.00474 140.56813 282.30024 124.80494 301.5947 109.04176 313.38548 93.27858 320.74394 77.515399 316.59666 61.752218 326.45539Z" fill="#c44e52" fill-opacity=".2"/>
<path transform="matrix(1,0,0,-1,0,345.6)" stroke-width="1" stroke-linecap="butt" stroke-linejoin="round" fill="none" stroke="#c44e52" stroke-opacity=".2" d="M61.752218 326.45539V254.18637L77.515399 249.638 93.27858 248.28343 109.04176 248.04888 124.80494 238.33026 140.56813 223.84302 156.3313 212.62496 172.09449 189.80263 187.85767 179.0732 203.62085 162.2073 219.38404 153.95302 235.14722 130.8148 250.9104 125.074489 266.67359 114.83228 282.43678 104.53763 298.19996 95.38707 313.96315 84.84119 329.72633 80.49602 345.48948 76.286449 361.25267 72.395908 377.01585 71.2516 392.77903 70.243839 408.5422 69.87749 424.3054 69.65391 440.06858 69.44037V69.97572L424.3054 70.278 408.5422 70.614917 392.77903 71.447757 377.01585 72.86614 361.25267 74.830898 345.48948 80.13922 329.72633 86.999248 313.96315 91.53758 298.19996 109.42494 282.43678 124.93317 266.67359 136.99388 250.9104 145.53893 235.14722 153.18051 219.38404 184.45269 203.62085 198.81827 187.85767 216.84325 172.09449 237.47539 156.3313 256.00474 140.56813 282.30024 124.80494 301.5947 109.04176 313.38548 93.27858 320.74394 77.515399 316.59666 61.752218 326.45539Z"/>
</g>
</g>
<g clip-path="url(#clip_4)">
<g>
<path transform="matrix(1,0,0,-1,0,345.6)" d="M61.752218 336.8318V258.0762L77.515399 270.73295 93.27858 259.3211 109.04176 261.73426 124.80494 253.59935 140.56813 266.61167 156.3313 280.4243 172.09449 272.62849 187.85767 252.94261 203.62085 267.7407 219.38404 228.8909 235.14722 255.76108 250.9104 274.54518 266.67359 226.86415 282.43678 199.57032 298.19996 203.49372 313.96315 186.22887 329.72633 174.92606 345.48948 239.126 361.25267 282.14048 377.01585 297.6987 392.77903 305.35856 408.5422 308.00779 424.3054 310.35966 440.06858 311.10093V311.58409L424.3054 311.00386 408.5422 309.26734 392.77903 307.0729 377.01585 301.61326 361.25267 289.10429 345.48948 261.45979 329.72633 227.5785 313.96315 250.38637 298.19996 290.24467 282.43678 268.29353 266.67359 288.31925 250.9104 357.3823 235.14722 335.73719 219.38404 297.35765 203.62085 343.63706 187.85767 338.44374 172.09449 354.3856 156.3313 363.34828 140.56813 345.6821 124.80494 328.7325 109.04176 328.64369 93.27858 340.3006 77.515399 340.39204 61.752218 336.8318Z" fill="#da8bc3" fill-opacity=".2"/>
<path transform="matrix(1,0,0,-1,0,345.6)" stroke-width="1" stroke-linecap="butt" stroke-linejoin="round" fill="none" stroke="#da8bc3" stroke-opacity=".2" d="M61.752218 336.8318V258.0762L77.515399 270.73295 93.27858 259.3211 109.04176 261.73426 124.80494 253.59935 140.56813 266.61167 156.3313 280.4243 172.09449 272.62849 187.85767 252.94261 203.62085 267.7407 219.38404 228.8909 235.14722 255.76108 250.9104 274.54518 266.67359 226.86415 282.43678 199.57032 298.19996 203.49372 313.96315 186.22887 329.72633 174.92606 345.48948 239.126 361.25267 282.14048 377.01585 297.6987 392.77903 305.35856 408.5422 308.00779 424.3054 310.35966 440.06858 311.10093V311.58409L424.3054 311.00386 408.5422 309.26734 392.77903 307.0729 377.01585 301.61326 361.25267 289.10429 345.48948 261.45979 329.72633 227.5785 313.96315 250.38637 298.19996 290.24467 282.43678 268.29353 266.67359 288.31925 250.9104 357.3823 235.14722 335.73719 219.38404 297.35765 203.62085 343.63706 187.85767 338.44374 172.09449 354.3856 156.3313 363.34828 140.56813 345.6821 124.80494 328.7325 109.04176 328.64369 93.27858 340.3006 77.515399 340.39204 61.752218 336.8318Z"/>
</g>
</g>
<path transform="matrix(1,0,0,-1,0,345.6)" d="M115.79741 56.33863V52.83863"/>
<path transform="matrix(1,0,0,-1,0,345.6)" stroke-width=".8" stroke-linecap="butt" stroke-linejoin="round" fill="none" stroke="#000000" d="M115.79741 56.33863V52.83863"/>
<use data-text="1" xlink:href="#font_5_51" transform="matrix(14.94396,0,0,-14.94396,101.79791,306.6391)"/>
<use data-text="0" xlink:href="#font_5_50" transform="matrix(14.94396,0,0,-14.94396,109.10551,306.6391)"/>
<use data-text="&#x2212;" xlink:href="#font_6_1" transform="matrix(10.460727,0,0,-10.460727,116.43039,301.21607)"/>
<use data-text="2" xlink:href="#font_7_52" transform="matrix(10.460727,0,0,-10.460727,124.566539,301.21607)"/>
<path transform="matrix(1,0,0,-1,0,345.6)" d="M223.8878 56.33863V52.83863"/>
<path transform="matrix(1,0,0,-1,0,345.6)" stroke-width=".8" stroke-linecap="butt" stroke-linejoin="round" fill="none" stroke="#000000" d="M223.8878 56.33863V52.83863"/>
<use data-text="1" xlink:href="#font_5_51" transform="matrix(14.94396,0,0,-14.94396,209.8883,306.6391)"/>
<use data-text="0" xlink:href="#font_5_50" transform="matrix(14.94396,0,0,-14.94396,217.1959,306.6391)"/>
<use data-text="&#x2212;" xlink:href="#font_6_1" transform="matrix(10.460727,0,0,-10.460727,224.52079,301.21607)"/>
<use data-text="1" xlink:href="#font_7_51" transform="matrix(10.460727,0,0,-10.460727,232.65692,301.21607)"/>
<path transform="matrix(1,0,0,-1,0,345.6)" d="M331.97819 56.33863V52.83863"/>
<path transform="matrix(1,0,0,-1,0,345.6)" stroke-width=".8" stroke-linecap="butt" stroke-linejoin="round" fill="none" stroke="#000000" d="M331.97819 56.33863V52.83863"/>
<use data-text="1" xlink:href="#font_5_51" transform="matrix(14.94396,0,0,-14.94396,322.04676,306.6391)"/>
<use data-text="0" xlink:href="#font_5_50" transform="matrix(14.94396,0,0,-14.94396,329.35435,306.6391)"/>
<use data-text="0" xlink:href="#font_7_50" transform="matrix(10.460727,0,0,-10.460727,336.67924,301.21607)"/>
<path transform="matrix(1,0,0,-1,0,345.6)" d="M440.06858 56.33863V52.83863"/>
<path transform="matrix(1,0,0,-1,0,345.6)" stroke-width=".8" stroke-linecap="butt" stroke-linejoin="round" fill="none" stroke="#000000" d="M440.06858 56.33863V52.83863"/>
<use data-text="1" xlink:href="#font_5_51" transform="matrix(14.94396,0,0,-14.94396,430.13716,306.6391)"/>
<use data-text="0" xlink:href="#font_5_50" transform="matrix(14.94396,0,0,-14.94396,437.44474,306.6391)"/>
<use data-text="1" xlink:href="#font_7_51" transform="matrix(10.460727,0,0,-10.460727,444.76963,301.21607)"/>
<path transform="matrix(1,0,0,-1,0,345.6)" d="M72.78392 56.33863V54.33863"/>
<path transform="matrix(1,0,0,-1,0,345.6)" stroke-width=".6" stroke-linecap="butt" stroke-linejoin="round" fill="none" stroke="#000000" d="M72.78392 56.33863V54.33863"/>
<path transform="matrix(1,0,0,-1,0,345.6)" d="M83.25896 56.33863V54.33863"/>
<path transform="matrix(1,0,0,-1,0,345.6)" stroke-width=".6" stroke-linecap="butt" stroke-linejoin="round" fill="none" stroke="#000000" d="M83.25896 56.33863V54.33863"/>
<path transform="matrix(1,0,0,-1,0,345.6)" d="M91.817699 56.33863V54.33863"/>
<path transform="matrix(1,0,0,-1,0,345.6)" stroke-width=".6" stroke-linecap="butt" stroke-linejoin="round" fill="none" stroke="#000000" d="M91.817699 56.33863V54.33863"/>
<path transform="matrix(1,0,0,-1,0,345.6)" d="M99.05399 56.33863V54.33863"/>
<path transform="matrix(1,0,0,-1,0,345.6)" stroke-width=".6" stroke-linecap="butt" stroke-linejoin="round" fill="none" stroke="#000000" d="M99.05399 56.33863V54.33863"/>
<path transform="matrix(1,0,0,-1,0,345.6)" d="M105.322368 56.33863V54.33863"/>
<path transform="matrix(1,0,0,-1,0,345.6)" stroke-width=".6" stroke-linecap="butt" stroke-linejoin="round" fill="none" stroke="#000000" d="M105.322368 56.33863V54.33863"/>
<path transform="matrix(1,0,0,-1,0,345.6)" d="M110.85146 56.33863V54.33863"/>
<path transform="matrix(1,0,0,-1,0,345.6)" stroke-width=".6" stroke-linecap="butt" stroke-linejoin="round" fill="none" stroke="#000000" d="M110.85146 56.33863V54.33863"/>
<path transform="matrix(1,0,0,-1,0,345.6)" d="M148.33586 56.33863V54.33863"/>
<path transform="matrix(1,0,0,-1,0,345.6)" stroke-width=".6" stroke-linecap="butt" stroke-linejoin="round" fill="none" stroke="#000000" d="M148.33586 56.33863V54.33863"/>
<path transform="matrix(1,0,0,-1,0,345.6)" d="M167.36963 56.33863V54.33863"/>
<path transform="matrix(1,0,0,-1,0,345.6)" stroke-width=".6" stroke-linecap="butt" stroke-linejoin="round" fill="none" stroke="#000000" d="M167.36963 56.33863V54.33863"/>
<path transform="matrix(1,0,0,-1,0,345.6)" d="M180.87432 56.33863V54.33863"/>
<path transform="matrix(1,0,0,-1,0,345.6)" stroke-width=".6" stroke-linecap="butt" stroke-linejoin="round" fill="none" stroke="#000000" d="M180.87432 56.33863V54.33863"/>
<path transform="matrix(1,0,0,-1,0,345.6)" d="M191.34935 56.33863V54.33863"/>
<path transform="matrix(1,0,0,-1,0,345.6)" stroke-width=".6" stroke-linecap="butt" stroke-linejoin="round" fill="none" stroke="#000000" d="M191.34935 56.33863V54.33863"/>
<path transform="matrix(1,0,0,-1,0,345.6)" d="M199.90808 56.33863V54.33863"/>
<path transform="matrix(1,0,0,-1,0,345.6)" stroke-width=".6" stroke-linecap="butt" stroke-linejoin="round" fill="none" stroke="#000000" d="M199.90808 56.33863V54.33863"/>
<path transform="matrix(1,0,0,-1,0,345.6)" d="M207.14438 56.33863V54.33863"/>
<path transform="matrix(1,0,0,-1,0,345.6)" stroke-width=".6" stroke-linecap="butt" stroke-linejoin="round" fill="none" stroke="#000000" d="M207.14438 56.33863V54.33863"/>
<path transform="matrix(1,0,0,-1,0,345.6)" d="M213.41275 56.33863V54.33863"/>
<path transform="matrix(1,0,0,-1,0,345.6)" stroke-width=".6" stroke-linecap="butt" stroke-linejoin="round" fill="none" stroke="#000000" d="M213.41275 56.33863V54.33863"/>
<path transform="matrix(1,0,0,-1,0,345.6)" d="M218.94185 56.33863V54.33863"/>
<path transform="matrix(1,0,0,-1,0,345.6)" stroke-width=".6" stroke-linecap="butt" stroke-linejoin="round" fill="none" stroke="#000000" d="M218.94185 56.33863V54.33863"/>
<path transform="matrix(1,0,0,-1,0,345.6)" d="M256.42625 56.33863V54.33863"/>
<path transform="matrix(1,0,0,-1,0,345.6)" stroke-width=".6" stroke-linecap="butt" stroke-linejoin="round" fill="none" stroke="#000000" d="M256.42625 56.33863V54.33863"/>
<path transform="matrix(1,0,0,-1,0,345.6)" d="M275.46003 56.33863V54.33863"/>
<path transform="matrix(1,0,0,-1,0,345.6)" stroke-width=".6" stroke-linecap="butt" stroke-linejoin="round" fill="none" stroke="#000000" d="M275.46003 56.33863V54.33863"/>
<path transform="matrix(1,0,0,-1,0,345.6)" d="M288.9647 56.33863V54.33863"/>
<path transform="matrix(1,0,0,-1,0,345.6)" stroke-width=".6" stroke-linecap="butt" stroke-linejoin="round" fill="none" stroke="#000000" d="M288.9647 56.33863V54.33863"/>
<path transform="matrix(1,0,0,-1,0,345.6)" d="M299.43974 56.33863V54.33863"/>
<path transform="matrix(1,0,0,-1,0,345.6)" stroke-width=".6" stroke-linecap="butt" stroke-linejoin="round" fill="none" stroke="#000000" d="M299.43974 56.33863V54.33863"/>
<path transform="matrix(1,0,0,-1,0,345.6)" d="M307.99848 56.33863V54.33863"/>
<path transform="matrix(1,0,0,-1,0,345.6)" stroke-width=".6" stroke-linecap="butt" stroke-linejoin="round" fill="none" stroke="#000000" d="M307.99848 56.33863V54.33863"/>
<path transform="matrix(1,0,0,-1,0,345.6)" d="M315.23478 56.33863V54.33863"/>
<path transform="matrix(1,0,0,-1,0,345.6)" stroke-width=".6" stroke-linecap="butt" stroke-linejoin="round" fill="none" stroke="#000000" d="M315.23478 56.33863V54.33863"/>
<path transform="matrix(1,0,0,-1,0,345.6)" d="M321.50315 56.33863V54.33863"/>
<path transform="matrix(1,0,0,-1,0,345.6)" stroke-width=".6" stroke-linecap="butt" stroke-linejoin="round" fill="none" stroke="#000000" d="M321.50315 56.33863V54.33863"/>
<path transform="matrix(1,0,0,-1,0,345.6)" d="M327.03227 56.33863V54.33863"/>
<path transform="matrix(1,0,0,-1,0,345.6)" stroke-width=".6" stroke-linecap="butt" stroke-linejoin="round" fill="none" stroke="#000000" d="M327.03227 56.33863V54.33863"/>
<path transform="matrix(1,0,0,-1,0,345.6)" d="M364.51664 56.33863V54.33863"/>
<path transform="matrix(1,0,0,-1,0,345.6)" stroke-width=".6" stroke-linecap="butt" stroke-linejoin="round" fill="none" stroke="#000000" d="M364.51664 56.33863V54.33863"/>
<path transform="matrix(1,0,0,-1,0,345.6)" d="M383.5504 56.33863V54.33863"/>
<path transform="matrix(1,0,0,-1,0,345.6)" stroke-width=".6" stroke-linecap="butt" stroke-linejoin="round" fill="none" stroke="#000000" d="M383.5504 56.33863V54.33863"/>
<path transform="matrix(1,0,0,-1,0,345.6)" d="M397.05509 56.33863V54.33863"/>
<path transform="matrix(1,0,0,-1,0,345.6)" stroke-width=".6" stroke-linecap="butt" stroke-linejoin="round" fill="none" stroke="#000000" d="M397.05509 56.33863V54.33863"/>
<path transform="matrix(1,0,0,-1,0,345.6)" d="M407.53013 56.33863V54.33863"/>
<path transform="matrix(1,0,0,-1,0,345.6)" stroke-width=".6" stroke-linecap="butt" stroke-linejoin="round" fill="none" stroke="#000000" d="M407.53013 56.33863V54.33863"/>
<path transform="matrix(1,0,0,-1,0,345.6)" d="M416.08888 56.33863V54.33863"/>
<path transform="matrix(1,0,0,-1,0,345.6)" stroke-width=".6" stroke-linecap="butt" stroke-linejoin="round" fill="none" stroke="#000000" d="M416.08888 56.33863V54.33863"/>
<path transform="matrix(1,0,0,-1,0,345.6)" d="M423.32518 56.33863V54.33863"/>
<path transform="matrix(1,0,0,-1,0,345.6)" stroke-width=".6" stroke-linecap="butt" stroke-linejoin="round" fill="none" stroke="#000000" d="M423.32518 56.33863V54.33863"/>
<path transform="matrix(1,0,0,-1,0,345.6)" d="M429.59355 56.33863V54.33863"/>
<path transform="matrix(1,0,0,-1,0,345.6)" stroke-width=".6" stroke-linecap="butt" stroke-linejoin="round" fill="none" stroke="#000000" d="M429.59355 56.33863V54.33863"/>
<path transform="matrix(1,0,0,-1,0,345.6)" d="M435.12263 56.33863V54.33863"/>
<path transform="matrix(1,0,0,-1,0,345.6)" stroke-width=".6" stroke-linecap="butt" stroke-linejoin="round" fill="none" stroke="#000000" d="M435.12263 56.33863V54.33863"/>
<use data-text="&#x03b3;" xlink:href="#font_8_14" transform="matrix(23.910336,0,0,-23.910336,244.8385,330.14927)"/>
<path transform="matrix(1,0,0,-1,0,345.6)" d="M61.752218 68.995967H58.252218"/>
<path transform="matrix(1,0,0,-1,0,345.6)" stroke-width=".8" stroke-linecap="butt" stroke-linejoin="round" fill="none" stroke="#000000" d="M61.752218 68.995967H58.252218"/>
<use data-text="0" xlink:href="#font_5_50" transform="matrix(14.94396,0,0,-14.94396,36.055166,281.7929)" fill="#000000"/>
<use data-text="." xlink:href="#font_8_59" transform="matrix(14.94396,0,0,-14.94396,43.371404,281.7929)" fill="#000000"/>
<use data-text="0" xlink:href="#font_5_50" transform="matrix(14.94396,0,0,-14.94396,47.435979,281.7929)" fill="#000000"/>
<path transform="matrix(1,0,0,-1,0,345.6)" d="M61.752218 117.613147H58.252218"/>
<path transform="matrix(1,0,0,-1,0,345.6)" stroke-width=".8" stroke-linecap="butt" stroke-linejoin="round" fill="none" stroke="#000000" d="M61.752218 117.613147H58.252218"/>
<use data-text="0" xlink:href="#font_5_50" transform="matrix(14.94396,0,0,-14.94396,36.055166,233.17572)" fill="#000000"/>
<use data-text="." xlink:href="#font_8_59" transform="matrix(14.94396,0,0,-14.94396,43.371404,233.17572)" fill="#000000"/>
<use data-text="1" xlink:href="#font_5_51" transform="matrix(14.94396,0,0,-14.94396,47.435979,233.17572)" fill="#000000"/>
<path transform="matrix(1,0,0,-1,0,345.6)" d="M61.752218 166.23032H58.252218"/>
<path transform="matrix(1,0,0,-1,0,345.6)" stroke-width=".8" stroke-linecap="butt" stroke-linejoin="round" fill="none" stroke="#000000" d="M61.752218 166.23032H58.252218"/>
<use data-text="0" xlink:href="#font_5_50" transform="matrix(14.94396,0,0,-14.94396,36.055166,184.55855)" fill="#000000"/>
<use data-text="." xlink:href="#font_8_59" transform="matrix(14.94396,0,0,-14.94396,43.371404,184.55855)" fill="#000000"/>
<use data-text="2" xlink:href="#font_5_52" transform="matrix(14.94396,0,0,-14.94396,47.435979,184.55855)" fill="#000000"/>
<path transform="matrix(1,0,0,-1,0,345.6)" d="M61.752218 214.84749H58.252218"/>
<path transform="matrix(1,0,0,-1,0,345.6)" stroke-width=".8" stroke-linecap="butt" stroke-linejoin="round" fill="none" stroke="#000000" d="M61.752218 214.84749H58.252218"/>
<use data-text="0" xlink:href="#font_5_50" transform="matrix(14.94396,0,0,-14.94396,36.055166,135.94138)" fill="#000000"/>
<use data-text="." xlink:href="#font_8_59" transform="matrix(14.94396,0,0,-14.94396,43.371404,135.94138)" fill="#000000"/>
<use data-text="3" xlink:href="#font_5_53" transform="matrix(14.94396,0,0,-14.94396,47.435979,135.94138)" fill="#000000"/>
<path transform="matrix(1,0,0,-1,0,345.6)" d="M61.752218 263.46467H58.252218"/>
<path transform="matrix(1,0,0,-1,0,345.6)" stroke-width=".8" stroke-linecap="butt" stroke-linejoin="round" fill="none" stroke="#000000" d="M61.752218 263.46467H58.252218"/>
<use data-text="0" xlink:href="#font_5_50" transform="matrix(14.94396,0,0,-14.94396,36.055166,87.32419)" fill="#000000"/>
<use data-text="." xlink:href="#font_8_59" transform="matrix(14.94396,0,0,-14.94396,43.371404,87.32419)" fill="#000000"/>
<use data-text="4" xlink:href="#font_5_54" transform="matrix(14.94396,0,0,-14.94396,47.435979,87.32419)" fill="#000000"/>
<path transform="matrix(1,0,0,-1,0,345.6)" d="M61.752218 312.08186H58.252218"/>
<path transform="matrix(1,0,0,-1,0,345.6)" stroke-width=".8" stroke-linecap="butt" stroke-linejoin="round" fill="none" stroke="#000000" d="M61.752218 312.08186H58.252218"/>
<use data-text="0" xlink:href="#font_5_50" transform="matrix(14.94396,0,0,-14.94396,36.055166,38.70703)" fill="#000000"/>
<use data-text="." xlink:href="#font_8_59" transform="matrix(14.94396,0,0,-14.94396,43.371404,38.70703)" fill="#000000"/>
<use data-text="5" xlink:href="#font_5_55" transform="matrix(14.94396,0,0,-14.94396,47.435979,38.70703)" fill="#000000"/>
<use data-text="n" xlink:href="#font_9_112" transform="matrix(0,-23.910336,-23.910336,-0,27.404406,179.7646)" fill="#000000"/>
<use data-text="C" xlink:href="#font_9_69" transform="matrix(0,-23.910336,-23.910336,-0,27.404406,167.57033)" fill="#000000"/>
<use data-text="E" xlink:href="#font_9_71" transform="matrix(0,-23.910336,-23.910336,-0,27.404406,151.62213)" fill="#000000"/>
<use data-text="R" xlink:href="#font_9_84" transform="matrix(0,-23.910336,-23.910336,-0,27.404406,136.60645)" fill="#000000"/>
<g clip-path="url(#clip_10)">
<path transform="matrix(1,0,0,-1,0,345.6)" stroke-width="1.5" stroke-linecap="square" stroke-linejoin="round" fill="none" stroke="#4c72b0" d="M61.752218 300.77424 77.515399 301.53987 93.27858 302.27818 109.04176 301.6845 124.80494 300.09407 140.56813 301.75798 156.3313 301.28825 172.09449 301.04063 187.85767 300.31687 203.62085 301.8961 219.38404 301.58738 235.14722 301.89256 250.9104 300.85356 266.67359 301.20997 282.43678 301.25709 298.19996 301.35658 313.96315 301.6882 329.72633 299.51045 345.48948 301.04826 361.25267 299.78117 377.01585 301.83888 392.77903 300.66197 408.5422 301.48985 424.3054 302.3364 440.06858 301.2198"/>
</g>
<g clip-path="url(#clip_11)">
<path transform="matrix(1,0,0,-1,0,345.6)" stroke-width="1.5" stroke-linecap="square" stroke-linejoin="round" fill="none" stroke="#dd8452" d="M61.752218 300.12428 77.515399 301.89918 93.27858 301.95796 109.04176 299.84388 124.80494 300.07975 140.56813 300.71897 156.3313 299.0826 172.09449 296.3875 187.85767 292.4983 203.62085 285.9305 219.38404 273.09165 235.14722 252.6835 250.9104 227.9261 266.67359 200.39441 282.43678 171.91855 298.19996 147.8251 313.96315 127.14065 329.72633 110.16325 345.48948 96.56117 361.25267 86.9105 377.01585 80.37972 392.77903 76.00447 408.5422 73.14636 424.3054 71.40755 440.06858 70.34591"/>
</g>
<g clip-path="url(#clip_12)">
<path transform="matrix(1,0,0,-1,0,345.6)" stroke-width="1.5" stroke-linecap="square" stroke-linejoin="round" fill="none" stroke="#55a868" d="M61.752218 300.6348 77.515399 301.2147 93.27858 302.25434 109.04176 300.14738 124.80494 298.27333 140.56813 296.57545 156.3313 294.92576 172.09449 286.88673 187.85767 269.55644 203.62085 258.00083 219.38404 234.19692 235.14722 206.58919 250.9104 182.72864 266.67359 156.44193 282.43678 134.51168 298.19996 115.64981 313.96315 100.391498 329.72633 89.44169 345.48948 82.8229 361.25267 76.80171 377.01585 73.72301 392.77903 71.98197 408.5422 70.714809 424.3054 70.11544 440.06858 69.78517"/>
</g>
<g clip-path="url(#clip_13)">
<path transform="matrix(1,0,0,-1,0,345.6)" stroke-width="1.5" stroke-linecap="square" stroke-linejoin="round" fill="none" stroke="#c44e52" d="M61.752218 290.44367 77.515399 284.4716 93.27858 283.90946 109.04176 280.4496 124.80494 268.7247 140.56813 251.60138 156.3313 234.27599 172.09449 212.51024 187.85767 197.37532 203.62085 179.7694 219.38404 168.40921 235.14722 140.94869 250.9104 135.24222 266.67359 125.218029 282.43678 114.17605 298.19996 102.27436 313.96315 87.99213 329.72633 83.585597 345.48948 78.154499 361.25267 73.536 377.01585 71.99957 392.77903 70.830768 408.5422 70.213298 424.3054 69.95262 440.06858 69.69556"/>
</g>
<g clip-path="url(#clip_14)">
<path transform="matrix(1,0,0,-1,0,345.6)" stroke-width="1.5" stroke-linecap="square" stroke-linejoin="round" fill="none" stroke="#da8bc3" d="M61.752218 296.3823 77.515399 305.41755 93.27858 298.33543 109.04176 295.25813 124.80494 290.8495 140.56813 306.16795 156.3313 322.14268 172.09449 311.2533 187.85767 295.10673 203.62085 303.65196 219.38404 261.7221 235.14722 295.98075 250.9104 314.37126 266.67359 255.51912 282.43678 230.33245 298.19996 245.11078 313.96315 215.70864 329.72633 198.99607 345.48948 251.22667 361.25267 285.62226 377.01585 299.8775 392.77903 306.24476 408.5422 308.63835 424.3054 310.68043 440.06858 311.34605"/>
</g>
<g clip-path="url(#clip_15)">
<path transform="matrix(1,0,0,-1,0,345.6)" stroke-width="1.5" stroke-linecap="square" stroke-linejoin="round" fill="none" stroke="#64b5cd" d="M61.752218 312.08186H440.06858"/>
</g>
<path transform="matrix(1,0,0,-1,0,345.6)" stroke-width="2" stroke-linecap="square" stroke-miterlimit="10" stroke-linejoin="miter" fill="none" stroke="#000000" d="M61.752218 56.33863V334.8"/>
<path transform="matrix(1,0,0,-1,0,345.6)" stroke-width="2" stroke-linecap="square" stroke-miterlimit="10" stroke-linejoin="miter" fill="none" stroke="#000000" d="M440.06858 56.33863V334.8"/>
<path transform="matrix(1,0,0,-1,0,345.6)" stroke-width="2" stroke-linecap="square" stroke-miterlimit="10" stroke-linejoin="miter" fill="none" stroke="#000000" d="M61.752218 56.33863H440.06858"/>
<path transform="matrix(1,0,0,-1,0,345.6)" stroke-width="2" stroke-linecap="square" stroke-miterlimit="10" stroke-linejoin="miter" fill="none" stroke="#000000" d="M61.752218 334.8H440.06858"/>
<g>
<path transform="matrix(1,0,0,-1,0,345.6)" d="M69.25221 63.83863H204.69086V195.3504H69.25221Z" fill="#ffffff" fill-opacity=".8"/>
<path transform="matrix(1,0,0,-1,0,345.6)" stroke-width="1" stroke-linecap="butt" stroke-miterlimit="10" stroke-linejoin="miter" fill="none" stroke="#000000" stroke-opacity=".8" d="M69.25221 63.83863H204.69086V195.3504H69.25221Z"/>
</g>
<path transform="matrix(1,0,0,-1,0,345.6)" stroke-width="1.5" stroke-linecap="square" stroke-linejoin="round" fill="none" stroke="#4c72b0" d="M75.25221 184.1004H90.25221 105.25221"/>
<use data-text="E" xlink:href="#font_5_71" transform="matrix(14.94396,0,0,-14.94396,117.25221,166.7496)"/>
<use data-text="R" xlink:href="#font_5_84" transform="matrix(14.94396,0,0,-14.94396,127.20489,166.7496)"/>
<use data-text="M" xlink:href="#font_5_79" transform="matrix(14.94396,0,0,-14.94396,137.96454,166.7496)"/>
<path transform="matrix(1,0,0,-1,0,345.6)" stroke-width="1.5" stroke-linecap="square" stroke-linejoin="round" fill="none" stroke="#dd8452" d="M75.25221 163.19466H90.25221 105.25221"/>
<use data-text="D" xlink:href="#font_5_70" transform="matrix(14.94396,0,0,-14.94396,117.25221,187.65535)"/>
<use data-text="A" xlink:href="#font_5_67" transform="matrix(14.94396,0,0,-14.94396,128.00888,187.65535)"/>
<use data-text="+" xlink:href="#font_5_44" transform="matrix(14.94396,0,0,-14.94396,138.97776,187.65535)"/>
<use data-text="E" xlink:href="#font_5_71" transform="matrix(14.94396,0,0,-14.94396,150.35012,187.65535)"/>
<use data-text="R" xlink:href="#font_5_84" transform="matrix(14.94396,0,0,-14.94396,160.3028,187.65535)"/>
<use data-text="M" xlink:href="#font_5_79" transform="matrix(14.94396,0,0,-14.94396,171.06246,187.65535)"/>
<path transform="matrix(1,0,0,-1,0,345.6)" stroke-width="1.5" stroke-linecap="square" stroke-linejoin="round" fill="none" stroke="#55a868" d="M75.25221 142.28891H90.25221 105.25221"/>
<use data-text="D" xlink:href="#font_16_70" transform="matrix(14.94396,0,0,-14.94396,117.25221,208.5611)"/>
<use data-text="A" xlink:href="#font_16_67" transform="matrix(14.94396,0,0,-14.94396,129.66692,208.5611)"/>
<use data-text="+" xlink:href="#font_16_44" transform="matrix(14.94396,0,0,-14.94396,142.35434,208.5611)"/>
<use data-text="I" xlink:href="#font_16_75" transform="matrix(14.94396,0,0,-14.94396,155.4303,208.5611)"/>
<use data-text="V" xlink:href="#font_16_88" transform="matrix(14.94396,0,0,-14.94396,161.67688,208.5611)"/>
<use data-text="L" xlink:href="#font_16_78" transform="matrix(14.94396,0,0,-14.94396,174.3643,208.5611)"/>
<use data-text="C" xlink:href="#font_17_69" transform="matrix(7.47198,0,0,-7.47198,184.50005,204.70716)"/>
<use data-text="V" xlink:href="#font_17_88" transform="matrix(7.47198,0,0,-7.47198,191.45647,204.70716)"/>
<use data-text="&#x03b1;" xlink:href="#font_18_12" transform="matrix(10.460727,0,0,-10.460727,184.50005,212.2555)"/>
<path transform="matrix(1,0,0,-1,0,345.6)" stroke-width="1.5" stroke-linecap="square" stroke-linejoin="round" fill="none" stroke="#c44e52" d="M75.25221 120.59452H90.25221 105.25221"/>
<use data-text="D" xlink:href="#font_16_70" transform="matrix(14.94396,0,0,-14.94396,117.25221,230.2555)"/>
<use data-text="A" xlink:href="#font_16_67" transform="matrix(14.94396,0,0,-14.94396,129.66692,230.2555)"/>
<use data-text="+" xlink:href="#font_16_44" transform="matrix(14.94396,0,0,-14.94396,142.35434,230.2555)"/>
<use data-text="I" xlink:href="#font_16_75" transform="matrix(14.94396,0,0,-14.94396,155.4303,230.2555)"/>
<use data-text="V" xlink:href="#font_16_88" transform="matrix(14.94396,0,0,-14.94396,161.67688,230.2555)"/>
<use data-text="L" xlink:href="#font_16_78" transform="matrix(14.94396,0,0,-14.94396,174.3643,230.2555)"/>
<use data-text="C" xlink:href="#font_17_69" transform="matrix(7.47198,0,0,-7.47198,184.50005,226.40155)"/>
<use data-text="C" xlink:href="#font_17_69" transform="matrix(7.47198,0,0,-7.47198,191.45647,226.40155)"/>
<use data-text="&#x03b1;" xlink:href="#font_18_12" transform="matrix(10.460727,0,0,-10.460727,184.50005,233.94989)"/>
<path transform="matrix(1,0,0,-1,0,345.6)" stroke-width="1.5" stroke-linecap="square" stroke-linejoin="round" fill="none" stroke="#da8bc3" d="M75.25221 98.90012H90.25221 105.25221"/>
<use data-text="D" xlink:href="#font_5_70" transform="matrix(14.94396,0,0,-14.94396,117.25221,251.94989)"/>
<use data-text="A" xlink:href="#font_5_67" transform="matrix(14.94396,0,0,-14.94396,128.00888,251.94989)"/>
<use data-text="+" xlink:href="#font_5_44" transform="matrix(14.94396,0,0,-14.94396,138.97776,251.94989)"/>
<use data-text="I" xlink:href="#font_5_75" transform="matrix(14.94396,0,0,-14.94396,150.35012,251.94989)"/>
<use data-text="V" xlink:href="#font_5_88" transform="matrix(14.94396,0,0,-14.94396,155.62534,251.94989)"/>
<path transform="matrix(1,0,0,-1,0,345.6)" stroke-width="1.5" stroke-linecap="square" stroke-linejoin="round" fill="none" stroke="#64b5cd" d="M75.25221 77.99438H90.25221 105.25221"/>
<use data-text="0" xlink:href="#font_5_50" transform="matrix(14.94396,0,0,-14.94396,117.25221,272.85563)"/>
<use data-text="3" xlink:href="#font_7_53" transform="matrix(10.460727,0,0,-10.460727,124.56845,275.0972)"/>
<use data-text="2" xlink:href="#font_7_52" transform="matrix(10.460727,0,0,-10.460727,129.79882,275.0972)"/>
</svg>
