<svg xmlns="http://www.w3.org/2000/svg" xmlns:xlink="http://www.w3.org/1999/xlink" xmlns:inkscape="http://www.inkscape.org/namespaces/inkscape" version="1.1" width="151.538" height="151.538" viewBox="0 0 75.769 75.769">
<defs>
<path id="font_0_1" d="M.7599945 .69506838C.7599945 .69807437 .7579956 .7050781 .7489929 .7050781 .74598696 .7050781 .7449951 .70407107 .73399356 .69306948L.6639862 .61602786C.6549988 .6300354 .60899356 .7050781 .49798585 .7050781 .2749939 .7050781 .049987794 .48391725 .049987794 .25172425 .049987794 .08659363 .16799927-.022460938 .32099916-.022460938 .4079895-.022460938 .48399354 .017532349 .5369873 .063583377 .6299896 .14564514 .6469879 .2367096 .6469879 .23971558 .6469879 .24972534 .6369934 .24972534 .6349945 .24972534 .6289978 .24972534 .6239929 .24772644 .621994 .23971558 .61299136 .21069336 .58999636 .13963318 .5209961 .081588748 .45199586 .025543213 .3889923 .008529663 .33699037 .008529663 .24699402 .008529663 .14099121 .060577394 .14099121 .21670532 .14099121 .27374269 .1619873 .43588258 .2619934 .55296328 .32299806 .62402346 .4169922 .67407229 .5059967 .67407229 .60798647 .67407229 .6669922 .5970001 .6669922 .48091126 .6669922 .44088746 .6639862 .43988038 .6639862 .4298706 .6639862 .41986085 .6749878 .41986085 .67900088 .41986085 .69200137 .41986085 .69200137 .42185975 .69699099 .43988038L.7599945 .69506838Z"/>
<path id="font_0_3" d="M.5970001 .5686493 .61099246 .5826416C.6409912 .6126251 .673996 .64660647 .74198916 .6516113 .7529907 .65260317 .7619934 .65260317 .7619934 .6706085 .7619934 .6786041 .7569885 .6826172 .7489929 .6826172 .72299197 .6826172 .69400027 .6796112 .6669922 .6796112 .6339874 .6796112 .598999 .6826172 .5669861 .6826172 .5609894 .6826172 .5479889 .6826172 .5479889 .66360476 .5479889 .65260317 .55799868 .6516113 .5629883 .6516113 .56999209 .6516113 .598999 .6496124 .598999 .62861636 .598999 .6116333 .57598879 .5856476 .57199099 .5806427L.33999635 .31381227 .22999573 .6106262C.22399903 .62461856 .22399903 .62661746 .22399903 .6276245 .22399903 .6516113 .272995 .6516113 .2829895 .6516113 .29699708 .6516113 .30699159 .6516113 .30699159 .6716156 .30699159 .6826172 .29499818 .6826172 .2919922 .6826172 .2639923 .6826172 .19400025 .6796112 .1659851 .6796112 .14099121 .6796112 .07899475 .6826172 .053985597 .6826172 .04798889 .6826172 .034988405 .6826172 .034988405 .6626129 .034988405 .6516113 .04499817 .6516113 .057998659 .6516113 .117996219 .6516113 .12199402 .64260867 .1309967 .61763L.2539978 .28883363C.25498963 .28582765 .2579956 .2748413 .2579956 .27183534 .2579956 .2688446 .21798706 .107940677 .21299744 .08995056 .19999695 .034988405 .19898987 .03199768 .11898804 .0309906 .099990848 .0309906 .09199524 .0309906 .09199524 .010986328 .09199524 0 .10398865 0 .10598755 0 .13398743 0 .20399475 .0029907227 .23199463 .0029907227 .2599945 .0029907227 .33198548 0 .3600006 0 .36698915 0 .3789978 0 .3789978 .019989014 .3789978 .0309906 .36999513 .0309906 .35099793 .0309906 .34899903 .0309906 .32998658 .0309906 .31298829 .032989503 .2919922 .034988405 .28599549 .036987306 .28599549 .048980714 .28599549 .05596924 .29499818 .09095764 .2999878 .11193848L.33499146 .2528534C.33999635 .27183534 .34098817 .2748413 .34899903 .28382875L.5970001 .5686493Z"/>
<path id="font_0_2" d="M.4850006 .41075135 .40098573 .6096344C.397995 .61763 .3959961 .6216278 .3959961 .6226196 .3959961 .62861636 .41299439 .6476135 .45498658 .6516113 .46499635 .65260317 .47499085 .6536102 .47499085 .6706085 .47499085 .6826172 .46299745 .6826172 .45999146 .6826172 .4189911 .6826172 .37599183 .6796112 .33399964 .6796112 .30899049 .6796112 .24699402 .6826172 .22200012 .6826172 .21598816 .6826172 .20399475 .6826172 .20399475 .6626129 .20399475 .6516113 .21398926 .6516113 .22698975 .6516113 .2869873 .6516113 .29299928 .6416168 .3019867 .6196289L.41999818 .34080506 .20899964 .11393738 .19599915 .10295105C.14698792 .049987794 .099990848 .033996583 .04899597 .0309906 .035995485 .02999878 .026992798 .02999878 .026992798 .010986328 .026992798 .009994507 .026992798 0 .039993287 0 .069992069 0 .102996829 .0029907227 .13398743 .0029907227 .17098999 .0029907227 .20999146 0 .24598694 0 .2519989 0 .2639923 0 .2639923 .019989014 .2639923 .02999878 .2539978 .0309906 .2519989 .0309906 .24299622 .03199768 .21199036 .033996583 .21199036 .061965944 .21199036 .07795715 .22698975 .093948367 .23899842 .10694885L.34098817 .21487427 .43099977 .31282044 .5319977 .07395935C.5359955 .06297302 .5369873 .061965944 .5369873 .05996704 .5369873 .051986696 .5179901 .034988405 .47898866 .0309906 .46798707 .02999878 .45899964 .0289917 .45899964 .011993408 .45899964 0 .46998597 0 .47399903 0 .5019989 0 .57199099 .0029907227 .59999087 .0029907227 .625 .0029907227 .6859894 0 .71099856 0 .71798709 0 .7299957 0 .7299957 .018997193 .7299957 .0309906 .7200012 .0309906 .71199038 .0309906 .644989 .03199768 .6429901 .034988405 .6259918 .07496643 .58699038 .16790772 .519989 .32380677 .49699403 .3837738 .5649872 .45373536 .66999819 .5726471 .70199587 .6006317 .73098757 .62461856 .7689972 .64860537 .82899478 .6516113 .84199526 .65260317 .8509979 .65260317 .8509979 .6716156 .8509979 .6726074 .8509979 .6826172 .83799746 .6826172 .80799868 .6826172 .7749939 .6796112 .74398806 .6796112 .70700076 .6796112 .6689911 .6826172 .6329956 .6826172 .6269989 .6826172 .6139984 .6826172 .6139984 .6626129 .6139984 .65560916 .61898806 .65260317 .6259918 .6516113 .6349945 .65060427 .66600039 .64860537 .66600039 .6206207 .66600039 .6066284 .6549988 .5936432 .6469879 .5846405L.4850006 .41075135Z"/>
<path id="font_0_4" d="M.7200012 .6586151C.72099307 .6626129 .72299197 .66760256 .72299197 .6736145 .72299197 .6826172 .71798709 .6826172 .69799807 .6826172H.27598573C.2519989 .6826172 .25099183 .6816101 .24499512 .6626129L.18998719 .4827118C.18798828 .47772218 .18699646 .47071839 .18699646 .46871949 .18699646 .46772767 .18699646 .45773316 .19898987 .45773316 .20799256 .45773316 .20999146 .46472169 .21199036 .46772767 .25 .5856476 .3019867 .6516113 .45799256 .6516113H.62098696L.06199646 .026992798C.06199646 .025985718 .057998659 .011993408 .057998659 .008987427 .057998659 0 .06498718 0 .08299255 0H.5179901C.5419922 0 .54299929 .0009918213 .548996 .019989014L.6199951 .24085999C.62098696 .24485779 .6239929 .25186158 .6239929 .25585938 .6239929 .260849 .6199951 .2668457 .61099246 .2668457 .60198977 .2668457 .6009979 .2628479 .59399417 .24186707 .5499878 .10594177 .5019989 .033996583 .33198548 .033996583H.16099549L.7200012 .6586151Z"/>
<path id="font_0_5" d="M.36698915 .3996582H.45298768C.47299195 .3996582 .48298646 .3996582 .48298646 .41966249 .48298646 .43066407 .47299195 .43066407 .45599366 .43066407H.37298585L.3939972 .5449524C.397995 .5660095 .4119873 .6370239 .41799928 .6490326 .4269867 .66804507 .44400025 .68307498 .46499635 .68307498 .46899415 .68307498 .49499513 .68307498 .5139923 .66503909 .46998597 .661026 .45999146 .6260376 .45999146 .6110382 .45999146 .58802798 .47799684 .57603457 .49699403 .57603457 .522995 .57603457 .5519867 .5980377 .5519867 .6360321 .5519867 .6820679 .5059967 .7050781 .46499635 .7050781 .43099977 .7050781 .36799623 .68707278 .33799745 .58802798 .33198548 .56700137 .32899476 .5569763 .30499269 .43066407H.23599243C.21699524 .43066407 .20599365 .43066407 .20599365 .4116516 .20599365 .3996582 .21499634 .3996582 .23399353 .3996582H.2999878L.22499085 .0048828127C.20698548-.09207153 .18998719-.18309021 .13798523-.18309021 .13398743-.18309021 .10899353-.18309021 .08999634-.16506958 .13598633-.1620636 .14498902-.12606812 .14498902-.111068729 .14498902-.08807373 .1269989-.07606506 .10798645-.07606506 .08198547-.07606506 .052993776-.09806824 .052993776-.13606262 .052993776-.18109131 .09700012-.20507813 .13798523-.20507813 .19299317-.20507813 .23298645-.14607239 .25099183-.108062747 .2829895-.04508972 .30599977 .07583618 .30699159 .082839969L.36698915 .3996582Z"/>
</defs>
<path transform="matrix(1,0,0,-1,13.35,13.349998)" d="M9.96277 0C9.96277 5.50235 5.50235 9.96277 0 9.96277-5.50235 9.96277-9.96277 5.50235-9.96277 0-9.96277-5.50235-5.50235-9.96277 0-9.96277 5.50235-9.96277 9.96277-5.50235 9.96277 0ZM0 0" fill="#ffffff"/>
<path transform="matrix(1,0,0,-1,13.35,13.349998)" stroke-width=".79701" stroke-linecap="butt" stroke-miterlimit="10" stroke-linejoin="miter" fill="none" stroke="#000000" d="M9.96277 0C9.96277 5.50235 5.50235 9.96277 0 9.96277-5.50235 9.96277-9.96277 5.50235-9.96277 0-9.96277-5.50235-5.50235-9.96277 0-9.96277 5.50235-9.96277 9.96277-5.50235 9.96277 0ZM0 0"/>
<use data-text="C" xlink:href="#font_0_1" transform="matrix(9.9626,0,0,-9.9626,9.433001,16.753998)"/>
<path transform="matrix(1,0,0,-1,13.35,13.349998)" d="M9.96277-49.06935C9.96277-43.56699 5.50235-39.10658 0-39.10658-5.50235-39.10658-9.96277-43.56699-9.96277-49.06935-9.96277-54.5717-5.50235-59.03212 0-59.03212 5.50235-59.03212 9.96277-54.5717 9.96277-49.06935ZM0-49.06935" fill="#dfdfdf"/>
<path transform="matrix(1,0,0,-1,13.35,13.349998)" stroke-width=".79701" stroke-linecap="butt" stroke-miterlimit="10" stroke-linejoin="miter" fill="none" stroke="#000000" d="M9.96277-49.06935C9.96277-43.56699 5.50235-39.10658 0-39.10658-5.50235-39.10658-9.96277-43.56699-9.96277-49.06935-9.96277-54.5717-5.50235-59.03212 0-59.03212 5.50235-59.03212 9.96277-54.5717 9.96277-49.06935ZM0-49.06935"/>
<use data-text="Y" xlink:href="#font_0_3" transform="matrix(9.9626,0,0,-9.9626,9.351,65.823)"/>
<path transform="matrix(1,0,0,-1,13.35,13.349998)" d="M39.10658-9.96277H59.03212V9.96277H39.10658Z" fill="#dfdfdf"/>
<path transform="matrix(1,0,0,-1,13.35,13.349998)" stroke-width=".79701" stroke-linecap="butt" stroke-miterlimit="10" stroke-linejoin="miter" fill="none" stroke="#000000" d="M39.10658-9.96277H59.03212V9.96277H39.10658Z"/>
<use data-text="X" xlink:href="#font_0_2" transform="matrix(9.9626,0,0,-9.9626,57.901,16.753998)"/>
<path transform="matrix(1,0,0,-1,13.35,13.349998)" d="M59.03212-49.06935C59.03212-43.56699 54.5717-39.10658 49.06935-39.10658 43.56699-39.10658 39.10658-43.56699 39.10658-49.06935 39.10658-54.5717 43.56699-59.03212 49.06935-59.03212 54.5717-59.03212 59.03212-54.5717 59.03212-49.06935ZM49.06935-49.06935" fill="#dfdfdf"/>
<path transform="matrix(1,0,0,-1,13.35,13.349998)" stroke-width=".79701" stroke-linecap="butt" stroke-miterlimit="10" stroke-linejoin="miter" fill="none" stroke="#000000" d="M59.03212-49.06935C59.03212-43.56699 54.5717-39.10658 49.06935-39.10658 43.56699-39.10658 39.10658-43.56699 39.10658-49.06935 39.10658-54.5717 43.56699-59.03212 49.06935-59.03212 54.5717-59.03212 59.03212-54.5717 59.03212-49.06935ZM49.06935-49.06935"/>
<use data-text="Z" xlink:href="#font_0_4" transform="matrix(9.9626,0,0,-9.9626,58.662004,65.823)"/>
<path transform="matrix(1,0,0,-1,13.35,13.349998)" stroke-width=".79701" stroke-linecap="butt" stroke-miterlimit="10" stroke-linejoin="miter" fill="none" stroke="#ff0000" d="M38.70918-10.36127 8.29446-40.77492"/>
<path transform="matrix(-.7071,.70708,.70708,.7071,21.64446,54.12492)" d="M-6.0708 2.72491 .34868 0-6.0708-2.72491Z" fill="#ff0000"/>
<path transform="matrix(-.7071,.70708,.70708,.7071,21.64446,54.12492)" stroke-width=".79701" stroke-linecap="butt" stroke-miterlimit="10" stroke-linejoin="miter" fill="none" stroke="#ff0000" d="M-6.0708 2.72491 .34868 0-6.0708-2.72491Z"/>
<use data-text="f" xlink:href="#font_0_5" transform="matrix(9.9626,0,0,-9.9626,38.257,45.174997)" fill="#ff0000"/>
<path transform="matrix(1,0,0,-1,13.35,13.349998)" stroke-width=".79701" stroke-linecap="butt" stroke-miterlimit="10" stroke-linejoin="miter" fill="none" stroke="#000000" d="M0-10.36127V-37.3392"/>
<path transform="matrix(0,1,1,0,13.35,50.689199)" d="M-6.0708 2.72491 .34868 0-6.0708-2.72491Z"/>
<path transform="matrix(0,1,1,0,13.35,50.689199)" stroke-width=".79701" stroke-linecap="butt" stroke-miterlimit="10" stroke-linejoin="miter" fill="none" stroke="#000000" d="M-6.0708 2.72491 .34868 0-6.0708-2.72491Z"/>
</svg>
