<svg xmlns="http://www.w3.org/2000/svg" xmlns:xlink="http://www.w3.org/1999/xlink" xmlns:inkscape="http://www.inkscape.org/namespaces/inkscape" version="1.1" width="460.8" height="345.6" viewBox="0 0 460.8 345.6">
<defs>
<clipPath id="clip_0">
<path transform="matrix(1,0,0,-1,0,345.6)" d="M61.752218 56.33863H440.6515V334.8H61.752218Z"/>
</clipPath>
<clipPath id="clip_1">
<path transform="matrix(1,0,0,-1,0,345.6)" d="M61.752218 56.33863H440.6515V334.8H61.752218Z"/>
</clipPath>
<clipPath id="clip_2">
<path transform="matrix(1,0,0,-1,0,345.6)" d="M61.752218 56.33863H440.6515V334.8H61.752218Z"/>
</clipPath>
<clipPath id="clip_3">
<path transform="matrix(1,0,0,-1,0,345.6)" d="M61.752218 56.33863H440.6515V334.8H61.752218Z"/>
</clipPath>
<clipPath id="clip_4">
<path transform="matrix(1,0,0,-1,0,345.6)" d="M61.752218 56.33863H440.6515V334.8H61.752218Z"/>
</clipPath>
<path id="font_5_50" d="M.44799806 .31976319C.44799806 .40283204 .44299317 .48390199 .40699769 .55996707 .3659973 .64302065 .2939911 .66503909 .24499512 .66503909 .18699646 .66503909 .115997318 .63601687 .07899475 .552948 .050994874 .48989869 .040985109 .42785646 .040985109 .31976319 .040985109 .22268677 .04798889 .14962769 .083999637 .078567508 .12298584 .0025177003 .19198609-.021484375 .24398804-.021484375 .33099366-.021484375 .3809967 .030532837 .4099884 .08857727 .44599916 .16363526 .44799806 .26171876 .44799806 .31976319M.24398804-.0014953613C.21199036-.0014953613 .14698792 .016525269 .12799073 .12561035 .116989139 .18565369 .116989139 .26171876 .116989139 .33177186 .116989139 .41384889 .116989139 .48789979 .1329956 .5469513 .1499939 .6139984 .20098877 .6450348 .24398804 .6450348 .28199769 .6450348 .33999635 .6220093 .35899354 .53593447 .37199403 .4788971 .37199403 .39982606 .37199403 .33177186 .37199403 .26472474 .37199403 .18865967 .36099244 .12760926 .34199525 .01751709 .2789917-.0014953613 .24398804-.0014953613Z"/>
<path id="font_6_59" d="M.18399048 .04798889C.18399048 .07699585 .1599884 .09700012 .13598633 .09700012 .10699463 .09700012 .08699036 .07299805 .08699036 .04899597 .08699036 .019989014 .11099243 0 .1349945 0 .1639862 0 .18399048 .023986817 .18399048 .04798889Z"/>
<path id="font_5_52" d="M.43998719 .16790772H.41799928C.4149933 .15092469 .40699769 .09597778 .39698792 .07998657 .3899994 .070999149 .33299256 .070999149 .30299378 .070999149H.117996219C.14498902 .09397888 .20599365 .15792847 .23199463 .18190003 .38398744 .3217926 .43998719 .37374879 .43998719 .47270204 .43998719 .5878906 .34899903 .66503909 .23298645 .66503909 .116989139 .66503909 .04899597 .5658264 .04899597 .4797058 .04899597 .42871095 .09298706 .42871095 .09599304 .42871095 .116989139 .42871095 .14299011 .44371034 .14299011 .475708 .14299011 .5037079 .12399292 .5227051 .09599304 .5227051 .08699036 .5227051 .084991458 .5227051 .08198547 .521698 .100997928 .5899048 .15499878 .6360321 .21998596 .6360321 .30499269 .6360321 .35699464 .56481936 .35699464 .47270204 .35699464 .3877411 .30799867 .313797 .25099183 .24984741L.04899597 .023986817V0H.4139862L.43998719 .16790772Z"/>
<path id="font_5_54" d="M.36099244 .6508026C.36099244 .6697998 .36099244 .6748047 .34700013 .6748047 .33898927 .6748047 .33599855 .6748047 .32798768 .662796L.026992798 .19598389V.16699219H.2899933V.07598877C.2899933 .038986207 .28799439 .0289917 .21499634 .0289917H.19499207V0C.21798706 .0019989014 .29699708 .0019989014 .32499696 .0019989014 .35299684 .0019989014 .43299867 .0019989014 .45599366 0V.0289917H.43598939C.3639984 .0289917 .36099244 .038986207 .36099244 .07598877V.16699219H.46199037V.19598389H.36099244V.6508026M.29499818 .5728302V.19598389H.051986696L.29499818 .5728302Z"/>
<path id="font_5_56" d="M.12298584 .34773255C.12298584 .60061648 .24598694 .641037 .2999878 .641037 .33599855 .641037 .37199403 .62991335 .3909912 .5996094 .3789978 .5996094 .34098817 .5996094 .34098817 .558609 .34098817 .53660586 .35598756 .51760867 .38198854 .51760867 .40699769 .51760867 .42399598 .53260806 .42399598 .56159976 .42399598 .6137543 .38598634 .66503909 .29899598 .66503909 .17298889 .66503909 .040985109 .53559878 .040985109 .31570436 .040985109 .040527345 .16099549-.021484375 .24598694-.021484375 .35499574-.021484375 .44799806 .07354736 .44799806 .2036438 .44799806 .33673097 .35499574 .42578126 .25498963 .42578126 .1659851 .42578126 .1329956 .34873963 .12298584 .32070924V.34773255M.24598694 .005508423C.18299866 .005508423 .15299988 .061538698 .14399719 .08256531 .1349945 .10858154 .125 .15760803 .125 .22766114 .125 .30670167 .16099549 .40577699 .25099183 .40577699 .30599977 .40577699 .33499146 .3687439 .34999085 .33473207 .3659973 .29769898 .3659973 .2476654 .3659973 .20463562 .3659973 .15361023 .3659973 .10858154 .34700013 .07055664 .32199098 .022521973 .28599549 .005508423 .24598694 .005508423Z"/>
<path id="font_5_58" d="M.2979889 .36079408C.34799195 .38781739 .42099 .43385316 .42099 .5179291 .42099 .6049957 .33699037 .66503909 .24499512 .66503909 .1459961 .66503909 .067993167 .59199526 .067993167 .5009155 .067993167 .46688844 .07798767 .43286134 .10598755 .39883424 .116989139 .38581849 .117996219 .38482667 .18798828 .3357849 .09098816 .29074098 .040985109 .22369385 .040985109 .15063477 .040985109 .044540407 .14199829-.021484375 .24398804-.021484375 .35499574-.021484375 .44799806 .060546876 .44799806 .16563416 .44799806 .2677307 .37599183 .3127594 .2979889 .36079408M.1619873 .4508667C.14898682 .45988465 .10899353 .48590089 .10899353 .5349426 .10899353 .59999087 .1769867 .641037 .24398804 .641037 .31599427 .641037 .37998963 .58898928 .37998963 .516922 .37998963 .45587159 .33599855 .4068451 .27799989 .3748169L.1619873 .4508667M.20899964 .32176209 .32998658 .2427063C.35598756 .22569275 .4019928 .19465637 .4019928 .13360596 .4019928 .057556154 .32499696 .005508423 .24499512 .005508423 .1599884 .005508423 .08699036 .06756592 .08699036 .15063477 .08699036 .22869873 .14399719 .29174806 .20899964 .32176209Z"/>
<path id="font_5_51" d="M.28799439 .64105227C.28799439 .664032 .28799439 .66503909 .2679901 .66503909 .24398804 .6380615 .19400025 .6012573 .09098816 .6012573V.5722656C.11399841 .5722656 .1639862 .5722656 .21899414 .59825137V.07701111C.21899414 .041000368 .21598816 .0289917 .12799073 .0289917H.09700012V0C.12399292 .0019989014 .22099304 .0019989014 .2539978 .0019989014 .2869873 .0019989014 .3829956 .0019989014 .4099884 0V.0289917H.3789978C.29100038 .0289917 .28799439 .041000368 .28799439 .07701111V.64105227Z"/>
<path id="font_6_21" d="M.21299744 .2498169C.24598694 .26779176 .2829895 .29873658 .30799867 .31970216 .36799623 .37165834 .3899994 .38764955 .42799378 .40264894 .42399598 .39665223 .4229889 .38865663 .4229889 .38165284 .4229889 .35466004 .44599916 .34965516 .45599366 .34965516 .48799134 .34965516 .5059967 .37965394 .5059967 .39865113 .5059967 .4046631 .5039978 .43066407 .46899415 .43066407 .40899659 .43066407 .34999085 .37965394 .30599977 .34266664 .24798584 .29174806 .21899414 .26979066 .17799378 .25680543L.21598816 .41638185C.21598816 .43240357 .20298767 .44140626 .18998719 .44140626 .18099976 .44140626 .15899658 .43840028 .15098572 .40634156L.057998659 .035186769C.054992677 .023208619 .054992677 .021209717 .054992677 .015213013 .054992677 .0012207031 .06599426-.009765625 .08099365-.009765625 .11099243-.009765625 .116989139 .016220093 .12199402 .03718567 .12799073 .058135988 .16899109 .22483826 .17098999 .23083496 .2979889 .22483826 .34098817 .19290161 .34098817 .14398194 .34098817 .13699341 .34098817 .13400269 .33799745 .12301636 .33399964 .10406494 .33399964 .09307861 .33399964 .08708191 .33399964 .027191163 .37298585-.009765625 .42199708-.009765625 .46299745-.009765625 .48599244 .019210816 .5009918 .045166017 .5219879 .08409119 .5349884 .13899231 .5349884 .14299011 .5349884 .14797974 .5309906 .15197754 .5249939 .15197754 .5159912 .15197754 .5149994 .14797974 .5109863 .13200379 .49798585 .08409119 .47599793 .010223389 .4249878 .010223389 .40299989 .010223389 .3919983 .023208619 .3919983 .058135988 .3919983 .07710266 .3959961 .09906006 .3999939 .11404419 .4019928 .12402344 .40499879 .13600159 .40499879 .14697266 .40499879 .23783875 .2789917 .24682617 .21299744 .2498169Z"/>
<path id="font_5_53" d="M.18399048 .35888673C.16699219 .35787965 .16299439 .35688783 .16299439 .34788514 .16299439 .33789063 .16799927 .33789063 .18598938 .33789063H.23199463C.31698609 .33789063 .35499574 .267807 .35499574 .17172241 .35499574 .04058838 .2869873 .005508423 .23799134 .005508423 .18998719 .005508423 .10798645 .028564454 .07899475 .09472656 .11099243 .08970642 .13999939 .10771179 .13999939 .14372254 .13999939 .17271424 .11898804 .1927185 .09098816 .1927185 .066986087 .1927185 .040985109 .1787262 .040985109 .14071656 .040985109 .051620485 .12998963-.021484375 .24099732-.021484375 .3600006-.021484375 .44799806 .06965637 .44799806 .17071533 .44799806 .26280213 .37399293 .33488465 .27799989 .35188294 .36499024 .3769226 .42099 .45011903 .42099 .5282135 .42099 .6071167 .33898927 .66503909 .24198914 .66503909 .14199829 .66503909 .067993167 .604126 .067993167 .5312042 .067993167 .49121095 .09899902 .48321534 .11399841 .48321534 .1349945 .48321534 .15899658 .49821473 .15899658 .5282135 .15899658 .5602112 .1349945 .57421877 .11299133 .57421877 .10699463 .57421877 .10499573 .57421877 .101989749 .57321169 .13999939 .641037 .23399353 .641037 .23899842 .641037 .27198792 .641037 .33699037 .6260681 .33699037 .5282135 .33699037 .5092163 .33399964 .453125 .30499269 .41001893 .2749939 .3658905 .24099732 .36288453 .21398926 .36187745L.18399048 .35888673Z"/>
<path id="font_5_55" d="M.12799073 .5727997C.17098999 .5588074 .20599365 .5578003 .21699524 .5578003 .32998658 .5578003 .4019928 .6409912 .4019928 .6550598 .4019928 .6590576 .3999939 .6640625 .3939972 .6640625 .3919983 .6640625 .3899994 .6640625 .3809967 .66004946 .32499696 .6358795 .2769928 .6328125 .25099183 .6328125 .18499756 .6328125 .13798523 .6530609 .11898804 .6610565 .11199951 .6640625 .10998535 .6640625 .10899353 .6640625 .100997928 .6640625 .100997928 .65805056 .100997928 .64201357V.34495545C.100997928 .32695008 .100997928 .32095338 .11299133 .32095338 .117996219 .32095338 .11898804 .32196046 .1289978 .33395387 .15699768 .37493897 .20399475 .39894105 .2539978 .39894105 .30699159 .39894105 .33299256 .34994508 .34098817 .33294679 .35798646 .29396058 .35899354 .2449646 .35899354 .20697022 .35899354 .16897583 .35899354 .11193848 .33099366 .0667572 .30899049 .03060913 .269989 .005508423 .22599793 .005508423 .1599884 .005508423 .09498596 .050689699 .07699585 .12397766 .08198547 .12197876 .08799744 .12097168 .09298706 .12097168 .10998535 .12097168 .13699341 .13098145 .13699341 .16497803 .13699341 .1929779 .117996219 .20898438 .09298706 .20898438 .07499695 .20898438 .04899597 .19998169 .04899597 .16098023 .04899597 .075790408 .116989139-.021484375 .22799683-.021484375 .34098817-.021484375 .43998719 .073791507 .43998719 .20097351 .43998719 .3199463 .3600006 .4189453 .25498963 .4189453 .19799805 .4189453 .1539917 .39393617 .12799073 .36595155V.5727997Z"/>
<path id="font_7_112" d="M.4149933 .3043213C.4149933 .35539247 .40499879 .43847657 .2869873 .43847657 .20799256 .43847657 .16699219 .3774109 .1519928 .33737184H.15098572V.43847657L.032989503 .42747499V.40144349C.09199524 .40144349 .100997928 .39543153 .100997928 .3473816V.06904602C.100997928 .03100586 .09700012 .025985718 .032989503 .025985718V0C.056991579 .0019989014 .100997928 .0019989014 .1269989 .0019989014 .15299988 .0019989014 .19799805 .0019989014 .22200012 0V.025985718C.1579895 .025985718 .1539917 .02999878 .1539917 .06904602V.26127626C.1539917 .35339356 .20999146 .4224701 .27999879 .4224701 .35398866 .4224701 .3619995 .35638429 .3619995 .30833436V.06904602C.3619995 .03100586 .35798646 .025985718 .2939911 .025985718V0C.31799317 .0019989014 .3619995 .0019989014 .3880005 .0019989014 .4139862 .0019989014 .45899964 .0019989014 .48298646 0V.025985718C.4189911 .025985718 .4149933 .02999878 .4149933 .06904602V.3043213Z"/>
<path id="font_7_69" d="M.62098696 .6792145C.62098696 .6972046 .6199951 .69821169 .6139984 .69821169 .6100006 .69821169 .60899356 .6972046 .60198977 .6852112L.55799868 .6012268C.5089874 .663208 .44898988 .69921877 .37199403 .69921877 .20098877 .69921877 .04598999 .54823306 .04598999 .34228517 .04598999 .13433838 .20098877-.015625 .37298585-.015625 .526001-.015625 .62098696 .11933899 .62098696 .23431397 .62098696 .24430847 .62098696 .24830628 .6119995 .24830628 .60398867 .24830628 .60398867 .24531555 .6029968 .23631287 .59498599 .096343997 .49499513 .010360718 .3869934 .010360718 .2849884 .010360718 .12199402 .082351688 .12199402 .34228517 .12199402 .6032257 .28799439 .6732178 .3849945 .6732178 .49798585 .6732178 .5799866 .5752411 .598999 .43626405 .6009979 .42427064 .6009979 .42227174 .6100006 .42227174 .62098696 .42227174 .62098696 .42427064 .62098696 .44226075V.6792145Z"/>
<path id="font_7_71" d="M.6069946 .25286866H.58898928C.5669861 .10594177 .55400088 .025985718 .37799073 .025985718H.23899842C.19898987 .025985718 .19699097 .0309906 .19699097 .064971927V.3408203H.29100038C.3849945 .3408203 .3939972 .306839 .3939972 .22387696H.4119873V.48373414H.3939972C.3939972 .40078736 .3849945 .36680604 .29100038 .36680604H.19699097V.61564639C.19699097 .6496124 .19898987 .65460208 .23899842 .65460208H.37599183C.5309906 .65460208 .548996 .59265139 .5629883 .4597473H.58099368L.5569916 .680603H.050994874V.65460208C.11999512 .65460208 .1309967 .65460208 .1309967 .60964968V.07096863C.1309967 .025985718 .11999512 .025985718 .050994874 .025985718V0H.57099917L.6069946 .25286866Z"/>
<path id="font_7_84" d="M.3919983 .3409729C.4869995 .3599701 .5669861 .42388917 .5669861 .50379946 .5669861 .59768679 .46099855 .6826172 .32099916 .6826172H.051986696V.6566162C.12098694 .6566162 .13198853 .6566162 .13198853 .6116638V.07128906C.13198853 .02633667 .12098694 .02633667 .051986696 .02633667V.00036621095C.08099365 .0023651124 .1329956 .0023651124 .1639862 .0023651124 .19499207 .0023651124 .24699402 .0023651124 .27598573 .00036621095V.02633667C.20698548 .02633667 .19599915 .02633667 .19599915 .07128906V.33398438H.31298829C.36999513 .33398438 .4019928 .31100465 .41600038 .2980194 .45599366 .25906373 .45599366 .23210144 .45599366 .16416931 .45599366 .09725952 .45599366 .06329346 .48599244 .029327393 .5239868-.011627197 .57499697-.015625 .5970001-.015625 .67099-.015625 .6819916 .06729126 .6819916 .08427429 .6819916 .09025574 .6819916 .09725952 .6729889 .09725952 .6649933 .09725952 .6639862 .09126282 .6639862 .087265018 .6589966 .022338868 .6299896 .00036621095 .598999 .00036621095 .5439911 .00036621095 .5379944 .06329346 .5319977 .1242218 .5289917 .14520264 .5269928 .16018677 .5249939 .18215943 .5189972 .23210144 .5109863 .30500794 .3919983 .3409729M.30999757 .3499756H.19599915V.6176605C.19599915 .6516113 .19799805 .6566162 .23799134 .6566162H.31098939C.3939972 .6566162 .4909973 .6276398 .4909973 .50379946 .4909973 .37495423 .3849945 .3499756 .30999757 .3499756Z"/>
<clipPath id="clip_8">
<path transform="matrix(1,0,0,-1,0,345.6)" d="M61.752218 56.33863H440.6515V334.8H61.752218Z"/>
</clipPath>
<clipPath id="clip_9">
<path transform="matrix(1,0,0,-1,0,345.6)" d="M61.752218 56.33863H440.6515V334.8H61.752218Z"/>
</clipPath>
<clipPath id="clip_10">
<path transform="matrix(1,0,0,-1,0,345.6)" d="M61.752218 56.33863H440.6515V334.8H61.752218Z"/>
</clipPath>
<clipPath id="clip_11">
<path transform="matrix(1,0,0,-1,0,345.6)" d="M61.752218 56.33863H440.6515V334.8H61.752218Z"/>
</clipPath>
<clipPath id="clip_12">
<path transform="matrix(1,0,0,-1,0,345.6)" d="M61.752218 56.33863H440.6515V334.8H61.752218Z"/>
</clipPath>
<clipPath id="clip_13">
<path transform="matrix(1,0,0,-1,0,345.6)" d="M61.752218 56.33863H440.6515V334.8H61.752218Z"/>
</clipPath>
</defs>
<path transform="matrix(1,0,0,-1,0,345.6)" d="M0 0H460.8V345.6H0Z" fill="transparent"/>
<path transform="matrix(1,0,0,-1,0,345.6)" d="M61.752218 56.33863H440.6515V334.8H61.752218Z" fill="transparent"/>
<g clip-path="url(#clip_0)">
<g>
<path transform="matrix(1,0,0,-1,0,345.6)" d="M61.752218 69.003589V68.99965L77.53968 69.87739 93.327159 72.344348 109.114627 76.3463 124.90209 81.89187 140.68956 88.71536 156.47704 97.11545 172.2645 106.08962 188.05197 114.729389 203.83943 124.54966 219.6269 134.61582 235.41437 145.7232 251.20185 155.3305 266.98933 167.2243 282.7768 177.937 298.56425 188.30754 314.3517 196.10657 330.1392 208.5 345.92668 218.22882 361.71415 227.52211 377.5016 237.91484 393.28907 246.98532 409.07655 255.18483 424.864 264.45347 440.6515 270.78047V348.01728L424.864 338.04936 409.07655 332.2793 393.28907 320.9573 377.5016 307.75886 361.71415 299.19316 345.92668 286.43046 330.1392 276.1726 314.3517 264.9823 298.56425 255.20381 282.7768 239.7245 266.98933 224.61602 251.20185 209.54676 235.41437 194.61386 219.6269 180.0714 203.83943 164.41678 188.05197 149.86222 172.2645 135.97367 156.47704 120.91678 140.68956 105.77172 124.90209 93.874347 109.114627 83.87522 93.327159 76.05985 77.53968 70.799098 61.752218 69.003589Z" fill="#4c72b0" fill-opacity=".2"/>
<path transform="matrix(1,0,0,-1,0,345.6)" stroke-width="1" stroke-linecap="butt" stroke-linejoin="round" fill="none" stroke="#4c72b0" stroke-opacity=".2" d="M61.752218 69.003589V68.99965L77.53968 69.87739 93.327159 72.344348 109.114627 76.3463 124.90209 81.89187 140.68956 88.71536 156.47704 97.11545 172.2645 106.08962 188.05197 114.729389 203.83943 124.54966 219.6269 134.61582 235.41437 145.7232 251.20185 155.3305 266.98933 167.2243 282.7768 177.937 298.56425 188.30754 314.3517 196.10657 330.1392 208.5 345.92668 218.22882 361.71415 227.52211 377.5016 237.91484 393.28907 246.98532 409.07655 255.18483 424.864 264.45347 440.6515 270.78047V348.01728L424.864 338.04936 409.07655 332.2793 393.28907 320.9573 377.5016 307.75886 361.71415 299.19316 345.92668 286.43046 330.1392 276.1726 314.3517 264.9823 298.56425 255.20381 282.7768 239.7245 266.98933 224.61602 251.20185 209.54676 235.41437 194.61386 219.6269 180.0714 203.83943 164.41678 188.05197 149.86222 172.2645 135.97367 156.47704 120.91678 140.68956 105.77172 124.90209 93.874347 109.114627 83.87522 93.327159 76.05985 77.53968 70.799098 61.752218 69.003589Z"/>
</g>
</g>
<g clip-path="url(#clip_1)">
<g>
<path transform="matrix(1,0,0,-1,0,345.6)" d="M61.752218 68.99658V68.99639L77.53968 69.062099 93.327159 69.26152 109.114627 69.60117 124.90209 70.051929 140.68956 70.6344 156.47704 71.38543 172.2645 72.2508 188.05197 73.19807 203.83943 74.3847 219.6269 75.52782 235.41437 76.87362 251.20185 78.468669 266.98933 79.998348 282.7768 81.54383 298.56425 83.635288 314.3517 85.306407 330.1392 87.46748 345.92668 89.61633 361.71415 92.2344 377.5016 93.694408 393.28907 96.653697 409.07655 99.13798 424.864 102.1545 440.6515 104.657299V114.92518L424.864 111.376819 409.07655 108.938198 393.28907 104.88168 377.5016 101.52065 361.71415 99.17636 345.92668 95.52657 330.1392 93.14769 314.3517 90.51151 298.56425 88.1981 282.7768 85.46587 266.98933 83.603809 251.20185 81.478229 235.41437 79.47021 219.6269 77.56605 203.83943 75.99269 188.05197 74.572658 172.2645 73.38595 156.47704 72.18773 140.68956 71.16516 124.90209 70.39346 109.114627 69.788089 93.327159 69.35119 77.53968 69.08367 61.752218 68.99658Z" fill="#dd8452" fill-opacity=".2"/>
<path transform="matrix(1,0,0,-1,0,345.6)" stroke-width="1" stroke-linecap="butt" stroke-linejoin="round" fill="none" stroke="#dd8452" stroke-opacity=".2" d="M61.752218 68.99658V68.99639L77.53968 69.062099 93.327159 69.26152 109.114627 69.60117 124.90209 70.051929 140.68956 70.6344 156.47704 71.38543 172.2645 72.2508 188.05197 73.19807 203.83943 74.3847 219.6269 75.52782 235.41437 76.87362 251.20185 78.468669 266.98933 79.998348 282.7768 81.54383 298.56425 83.635288 314.3517 85.306407 330.1392 87.46748 345.92668 89.61633 361.71415 92.2344 377.5016 93.694408 393.28907 96.653697 409.07655 99.13798 424.864 102.1545 440.6515 104.657299V114.92518L424.864 111.376819 409.07655 108.938198 393.28907 104.88168 377.5016 101.52065 361.71415 99.17636 345.92668 95.52657 330.1392 93.14769 314.3517 90.51151 298.56425 88.1981 282.7768 85.46587 266.98933 83.603809 251.20185 81.478229 235.41437 79.47021 219.6269 77.56605 203.83943 75.99269 188.05197 74.572658 172.2645 73.38595 156.47704 72.18773 140.68956 71.16516 124.90209 70.39346 109.114627 69.788089 93.327159 69.35119 77.53968 69.08367 61.752218 68.99658Z"/>
</g>
</g>
<g clip-path="url(#clip_2)">
<g>
<path transform="matrix(1,0,0,-1,0,345.6)" d="M61.752218 68.99674V68.9965L77.53968 69.02804 93.327159 69.12806 109.114627 69.278179 124.90209 69.497859 140.68956 69.79122 156.47704 70.17843 172.2645 70.623638 188.05197 71.14296 203.83943 71.578739 219.6269 72.20693 235.41437 72.7171 251.20185 73.71709 266.98933 74.38079 282.7768 75.01957 298.56425 76.10932 314.3517 76.7544 330.1392 77.619518 345.92668 78.905399 361.71415 79.569179 377.5016 80.681598 393.28907 83.03023 409.07655 82.91455 424.864 85.798229 440.6515 87.930179V94.15239L424.864 90.86974 409.07655 89.29002 393.28907 88.27764 377.5016 84.49208 361.71415 83.79732 345.92668 83.10993 330.1392 81.28475 314.3517 79.816928 298.56425 78.70384 282.7768 77.205379 266.98933 76.34671 251.20185 75.31955 235.41437 74.294178 219.6269 73.24071 203.83943 72.56652 188.05197 71.88795 172.2645 71.15848 156.47704 70.6262 140.68956 70.063068 124.90209 69.67259 109.114627 69.39105 93.327159 69.18296 77.53968 69.04028 61.752218 68.99674Z" fill="#55a868" fill-opacity=".2"/>
<path transform="matrix(1,0,0,-1,0,345.6)" stroke-width="1" stroke-linecap="butt" stroke-linejoin="round" fill="none" stroke="#55a868" stroke-opacity=".2" d="M61.752218 68.99674V68.9965L77.53968 69.02804 93.327159 69.12806 109.114627 69.278179 124.90209 69.497859 140.68956 69.79122 156.47704 70.17843 172.2645 70.623638 188.05197 71.14296 203.83943 71.578739 219.6269 72.20693 235.41437 72.7171 251.20185 73.71709 266.98933 74.38079 282.7768 75.01957 298.56425 76.10932 314.3517 76.7544 330.1392 77.619518 345.92668 78.905399 361.71415 79.569179 377.5016 80.681598 393.28907 83.03023 409.07655 82.91455 424.864 85.798229 440.6515 87.930179V94.15239L424.864 90.86974 409.07655 89.29002 393.28907 88.27764 377.5016 84.49208 361.71415 83.79732 345.92668 83.10993 330.1392 81.28475 314.3517 79.816928 298.56425 78.70384 282.7768 77.205379 266.98933 76.34671 251.20185 75.31955 235.41437 74.294178 219.6269 73.24071 203.83943 72.56652 188.05197 71.88795 172.2645 71.15848 156.47704 70.6262 140.68956 70.063068 124.90209 69.67259 109.114627 69.39105 93.327159 69.18296 77.53968 69.04028 61.752218 68.99674Z"/>
</g>
</g>
<g clip-path="url(#clip_3)">
<g>
<path transform="matrix(1,0,0,-1,0,345.6)" d="M61.752218 68.99775V68.99696L77.53968 69.018878 93.327159 69.09872 109.114627 69.21042 124.90209 69.43006 140.68956 69.5893 156.47704 69.837207 172.2645 70.023639 188.05197 70.460308 203.83943 70.63362 219.6269 71.262668 235.41437 71.503719 251.20185 72.21353 266.98933 72.99168 282.7768 72.712398 298.56425 73.57411 314.3517 73.606998 330.1392 74.81509 345.92668 75.92202 361.71415 75.660198 377.5016 77.37843 393.28907 76.858768 409.07655 77.712108 424.864 79.64329 440.6515 78.42821V83.12654L424.864 89.5779 409.07655 82.808238 393.28907 80.83202 377.5016 81.64893 361.71415 78.99793 345.92668 79.65243 330.1392 78.09314 314.3517 75.971797 298.56425 75.86425 282.7768 74.71211 266.98933 75.22045 251.20185 73.70744 235.41437 75.94854 219.6269 72.16109 203.83943 71.40247 188.05197 71.30557 172.2645 70.63 156.47704 70.2474 140.68956 69.87974 124.90209 69.62249 109.114627 69.321758 93.327159 69.143428 77.53968 69.027248 61.752218 68.99775Z" fill="#c44e52" fill-opacity=".2"/>
<path transform="matrix(1,0,0,-1,0,345.6)" stroke-width="1" stroke-linecap="butt" stroke-linejoin="round" fill="none" stroke="#c44e52" stroke-opacity=".2" d="M61.752218 68.99775V68.99696L77.53968 69.018878 93.327159 69.09872 109.114627 69.21042 124.90209 69.43006 140.68956 69.5893 156.47704 69.837207 172.2645 70.023639 188.05197 70.460308 203.83943 70.63362 219.6269 71.262668 235.41437 71.503719 251.20185 72.21353 266.98933 72.99168 282.7768 72.712398 298.56425 73.57411 314.3517 73.606998 330.1392 74.81509 345.92668 75.92202 361.71415 75.660198 377.5016 77.37843 393.28907 76.858768 409.07655 77.712108 424.864 79.64329 440.6515 78.42821V83.12654L424.864 89.5779 409.07655 82.808238 393.28907 80.83202 377.5016 81.64893 361.71415 78.99793 345.92668 79.65243 330.1392 78.09314 314.3517 75.971797 298.56425 75.86425 282.7768 74.71211 266.98933 75.22045 251.20185 73.70744 235.41437 75.94854 219.6269 72.16109 203.83943 71.40247 188.05197 71.30557 172.2645 70.63 156.47704 70.2474 140.68956 69.87974 124.90209 69.62249 109.114627 69.321758 93.327159 69.143428 77.53968 69.027248 61.752218 68.99775Z"/>
</g>
</g>
<g clip-path="url(#clip_4)">
<g>
<path transform="matrix(1,0,0,-1,0,345.6)" d="M61.752218 188.76886V147.0787L77.53968 153.06278 93.327159 136.34197 109.114627 160.13784 124.90209 174.07556 140.68956 143.99468 156.47704 165.71596 172.2645 146.2943 188.05197 154.69152 203.83943 146.21921 219.6269 176.98503 235.41437 167.07595 251.20185 175.37047 266.98933 160.95192 282.7768 176.19628 298.56425 175.34326 314.3517 163.31917 330.1392 172.62613 345.92668 188.46402 361.71415 189.6236 377.5016 173.32614 393.28907 190.72814 409.07655 188.40279 424.864 161.23072 440.6515 185.27523V220.88739L424.864 220.43167 409.07655 230.73027 393.28907 228.695 377.5016 216.58443 361.71415 221.8133 345.92668 222.57999 330.1392 211.84604 314.3517 215.47757 298.56425 231.95801 282.7768 212.34326 266.98933 197.0212 251.20185 211.18959 235.41437 204.76215 219.6269 214.7388 203.83943 187.81375 188.05197 205.41835 172.2645 181.47953 156.47704 208.76662 140.68956 184.2577 124.90209 216.27768 109.114627 197.0774 93.327159 172.56847 77.53968 185.65587 61.752218 188.76886Z" fill="#da8bc3" fill-opacity=".2"/>
<path transform="matrix(1,0,0,-1,0,345.6)" stroke-width="1" stroke-linecap="butt" stroke-linejoin="round" fill="none" stroke="#da8bc3" stroke-opacity=".2" d="M61.752218 188.76886V147.0787L77.53968 153.06278 93.327159 136.34197 109.114627 160.13784 124.90209 174.07556 140.68956 143.99468 156.47704 165.71596 172.2645 146.2943 188.05197 154.69152 203.83943 146.21921 219.6269 176.98503 235.41437 167.07595 251.20185 175.37047 266.98933 160.95192 282.7768 176.19628 298.56425 175.34326 314.3517 163.31917 330.1392 172.62613 345.92668 188.46402 361.71415 189.6236 377.5016 173.32614 393.28907 190.72814 409.07655 188.40279 424.864 161.23072 440.6515 185.27523V220.88739L424.864 220.43167 409.07655 230.73027 393.28907 228.695 377.5016 216.58443 361.71415 221.8133 345.92668 222.57999 330.1392 211.84604 314.3517 215.47757 298.56425 231.95801 282.7768 212.34326 266.98933 197.0212 251.20185 211.18959 235.41437 204.76215 219.6269 214.7388 203.83943 187.81375 188.05197 205.41835 172.2645 181.47953 156.47704 208.76662 140.68956 184.2577 124.90209 216.27768 109.114627 197.0774 93.327159 172.56847 77.53968 185.65587 61.752218 188.76886Z"/>
</g>
</g>
<path transform="matrix(1,0,0,-1,0,345.6)" d="M61.752218 56.33863V52.83863"/>
<path transform="matrix(1,0,0,-1,0,345.6)" stroke-width=".8" stroke-linecap="butt" stroke-linejoin="round" fill="none" stroke="#000000" d="M61.752218 56.33863V52.83863"/>
<use data-text="0" xlink:href="#font_5_50" transform="matrix(14.94396,0,0,-14.94396,52.40369,306.6391)"/>
<use data-text="." xlink:href="#font_6_59" transform="matrix(14.94396,0,0,-14.94396,59.71993,306.6391)"/>
<use data-text="0" xlink:href="#font_5_50" transform="matrix(14.94396,0,0,-14.94396,63.784505,306.6391)"/>
<path transform="matrix(1,0,0,-1,0,345.6)" d="M137.53208 56.33863V52.83863"/>
<path transform="matrix(1,0,0,-1,0,345.6)" stroke-width=".8" stroke-linecap="butt" stroke-linejoin="round" fill="none" stroke="#000000" d="M137.53208 56.33863V52.83863"/>
<use data-text="0" xlink:href="#font_5_50" transform="matrix(14.94396,0,0,-14.94396,128.18354,306.6391)"/>
<use data-text="." xlink:href="#font_6_59" transform="matrix(14.94396,0,0,-14.94396,135.49977,306.6391)"/>
<use data-text="2" xlink:href="#font_5_52" transform="matrix(14.94396,0,0,-14.94396,139.56435,306.6391)"/>
<path transform="matrix(1,0,0,-1,0,345.6)" d="M213.31192 56.33863V52.83863"/>
<path transform="matrix(1,0,0,-1,0,345.6)" stroke-width=".8" stroke-linecap="butt" stroke-linejoin="round" fill="none" stroke="#000000" d="M213.31192 56.33863V52.83863"/>
<use data-text="0" xlink:href="#font_5_50" transform="matrix(14.94396,0,0,-14.94396,203.9634,306.6391)"/>
<use data-text="." xlink:href="#font_6_59" transform="matrix(14.94396,0,0,-14.94396,211.27964,306.6391)"/>
<use data-text="4" xlink:href="#font_5_54" transform="matrix(14.94396,0,0,-14.94396,215.34421,306.6391)"/>
<path transform="matrix(1,0,0,-1,0,345.6)" d="M289.09178 56.33863V52.83863"/>
<path transform="matrix(1,0,0,-1,0,345.6)" stroke-width=".8" stroke-linecap="butt" stroke-linejoin="round" fill="none" stroke="#000000" d="M289.09178 56.33863V52.83863"/>
<use data-text="0" xlink:href="#font_5_50" transform="matrix(14.94396,0,0,-14.94396,279.74327,306.6391)"/>
<use data-text="." xlink:href="#font_6_59" transform="matrix(14.94396,0,0,-14.94396,287.05949,306.6391)"/>
<use data-text="6" xlink:href="#font_5_56" transform="matrix(14.94396,0,0,-14.94396,291.12406,306.6391)"/>
<path transform="matrix(1,0,0,-1,0,345.6)" d="M364.8716 56.33863V52.83863"/>
<path transform="matrix(1,0,0,-1,0,345.6)" stroke-width=".8" stroke-linecap="butt" stroke-linejoin="round" fill="none" stroke="#000000" d="M364.8716 56.33863V52.83863"/>
<use data-text="0" xlink:href="#font_5_50" transform="matrix(14.94396,0,0,-14.94396,355.5231,306.6391)"/>
<use data-text="." xlink:href="#font_6_59" transform="matrix(14.94396,0,0,-14.94396,362.83934,306.6391)"/>
<use data-text="8" xlink:href="#font_5_58" transform="matrix(14.94396,0,0,-14.94396,366.9039,306.6391)"/>
<path transform="matrix(1,0,0,-1,0,345.6)" d="M440.6515 56.33863V52.83863"/>
<path transform="matrix(1,0,0,-1,0,345.6)" stroke-width=".8" stroke-linecap="butt" stroke-linejoin="round" fill="none" stroke="#000000" d="M440.6515 56.33863V52.83863"/>
<use data-text="1" xlink:href="#font_5_51" transform="matrix(14.94396,0,0,-14.94396,431.30296,306.6391)"/>
<use data-text="." xlink:href="#font_6_59" transform="matrix(14.94396,0,0,-14.94396,438.61918,306.6391)"/>
<use data-text="0" xlink:href="#font_5_50" transform="matrix(14.94396,0,0,-14.94396,442.68376,306.6391)"/>
<use data-text="&#x03ba;" xlink:href="#font_6_21" transform="matrix(23.910336,0,0,-23.910336,244.46329,330.14927)"/>
<path transform="matrix(1,0,0,-1,0,345.6)" d="M61.752218 68.995967H58.252218"/>
<path transform="matrix(1,0,0,-1,0,345.6)" stroke-width=".8" stroke-linecap="butt" stroke-linejoin="round" fill="none" stroke="#000000" d="M61.752218 68.995967H58.252218"/>
<use data-text="0" xlink:href="#font_5_50" transform="matrix(14.94396,0,0,-14.94396,36.055166,281.7929)"/>
<use data-text="." xlink:href="#font_6_59" transform="matrix(14.94396,0,0,-14.94396,43.371404,281.7929)"/>
<use data-text="0" xlink:href="#font_5_50" transform="matrix(14.94396,0,0,-14.94396,47.435979,281.7929)"/>
<path transform="matrix(1,0,0,-1,0,345.6)" d="M61.752218 119.625308H58.252218"/>
<path transform="matrix(1,0,0,-1,0,345.6)" stroke-width=".8" stroke-linecap="butt" stroke-linejoin="round" fill="none" stroke="#000000" d="M61.752218 119.625308H58.252218"/>
<use data-text="0" xlink:href="#font_5_50" transform="matrix(14.94396,0,0,-14.94396,36.055166,231.16356)"/>
<use data-text="." xlink:href="#font_6_59" transform="matrix(14.94396,0,0,-14.94396,43.371404,231.16356)"/>
<use data-text="1" xlink:href="#font_5_51" transform="matrix(14.94396,0,0,-14.94396,47.435979,231.16356)"/>
<path transform="matrix(1,0,0,-1,0,345.6)" d="M61.752218 170.25464H58.252218"/>
<path transform="matrix(1,0,0,-1,0,345.6)" stroke-width=".8" stroke-linecap="butt" stroke-linejoin="round" fill="none" stroke="#000000" d="M61.752218 170.25464H58.252218"/>
<use data-text="0" xlink:href="#font_5_50" transform="matrix(14.94396,0,0,-14.94396,36.055166,180.53423)"/>
<use data-text="." xlink:href="#font_6_59" transform="matrix(14.94396,0,0,-14.94396,43.371404,180.53423)"/>
<use data-text="2" xlink:href="#font_5_52" transform="matrix(14.94396,0,0,-14.94396,47.435979,180.53423)"/>
<path transform="matrix(1,0,0,-1,0,345.6)" d="M61.752218 220.88399H58.252218"/>
<path transform="matrix(1,0,0,-1,0,345.6)" stroke-width=".8" stroke-linecap="butt" stroke-linejoin="round" fill="none" stroke="#000000" d="M61.752218 220.88399H58.252218"/>
<use data-text="0" xlink:href="#font_5_50" transform="matrix(14.94396,0,0,-14.94396,36.055166,129.90488)"/>
<use data-text="." xlink:href="#font_6_59" transform="matrix(14.94396,0,0,-14.94396,43.371404,129.90488)"/>
<use data-text="3" xlink:href="#font_5_53" transform="matrix(14.94396,0,0,-14.94396,47.435979,129.90488)"/>
<path transform="matrix(1,0,0,-1,0,345.6)" d="M61.752218 271.51335H58.252218"/>
<path transform="matrix(1,0,0,-1,0,345.6)" stroke-width=".8" stroke-linecap="butt" stroke-linejoin="round" fill="none" stroke="#000000" d="M61.752218 271.51335H58.252218"/>
<use data-text="0" xlink:href="#font_5_50" transform="matrix(14.94396,0,0,-14.94396,36.055166,79.27554)"/>
<use data-text="." xlink:href="#font_6_59" transform="matrix(14.94396,0,0,-14.94396,43.371404,79.27554)"/>
<use data-text="4" xlink:href="#font_5_54" transform="matrix(14.94396,0,0,-14.94396,47.435979,79.27554)"/>
<path transform="matrix(1,0,0,-1,0,345.6)" d="M61.752218 322.14268H58.252218"/>
<path transform="matrix(1,0,0,-1,0,345.6)" stroke-width=".8" stroke-linecap="butt" stroke-linejoin="round" fill="none" stroke="#000000" d="M61.752218 322.14268H58.252218"/>
<use data-text="0" xlink:href="#font_5_50" transform="matrix(14.94396,0,0,-14.94396,36.055166,28.64621)"/>
<use data-text="." xlink:href="#font_6_59" transform="matrix(14.94396,0,0,-14.94396,43.371404,28.64621)"/>
<use data-text="5" xlink:href="#font_5_55" transform="matrix(14.94396,0,0,-14.94396,47.435979,28.64621)"/>
<use data-text="n" xlink:href="#font_7_112" transform="matrix(0,-23.910336,-23.910336,-0,27.404406,179.7646)"/>
<use data-text="C" xlink:href="#font_7_69" transform="matrix(0,-23.910336,-23.910336,-0,27.404406,167.57033)"/>
<use data-text="E" xlink:href="#font_7_71" transform="matrix(0,-23.910336,-23.910336,-0,27.404406,151.62213)"/>
<use data-text="R" xlink:href="#font_7_84" transform="matrix(0,-23.910336,-23.910336,-0,27.404406,136.60645)"/>
<g clip-path="url(#clip_8)">
<path transform="matrix(1,0,0,-1,0,345.6)" stroke-width="1.5" stroke-linecap="square" stroke-linejoin="round" fill="none" stroke="#4c72b0" d="M61.752218 69.00144 77.53968 70.29276 93.327159 74.05059 109.114627 79.78295 124.90209 87.37322 140.68956 96.6974 156.47704 107.96771 172.2645 119.890628 188.05197 131.2495 203.83943 143.90264 219.6269 156.36359 235.41437 168.90903 251.20185 181.48668 266.98933 194.93669 282.7768 206.62056 298.56425 218.88547 314.3517 229.47931 330.1392 241.324 345.92668 251.01949 361.71415 263.05485 377.5016 272.86836 393.28907 282.861 409.07655 292.50614 424.864 302.47169 440.6515 309.55519"/>
</g>
<g clip-path="url(#clip_9)">
<path transform="matrix(1,0,0,-1,0,345.6)" stroke-width="1.5" stroke-linecap="square" stroke-linejoin="round" fill="none" stroke="#dd8452" d="M61.752218 68.99648 77.53968 69.07306 93.327159 69.30607 109.114627 69.69315 124.90209 70.22015 140.68956 70.898479 156.47704 71.779979 172.2645 72.78739 188.05197 73.873508 203.83943 75.15758 219.6269 76.5472 235.41437 78.15093 251.20185 79.93314 266.98933 81.80757 282.7768 83.39757 298.56425 85.75954 314.3517 87.961658 330.1392 90.29992 345.92668 92.63208 361.71415 95.55586 377.5016 97.65582 393.28907 100.87501 409.07655 103.761928 424.864 106.52009 440.6515 109.65917"/>
</g>
<g clip-path="url(#clip_10)">
<path transform="matrix(1,0,0,-1,0,345.6)" stroke-width="1.5" stroke-linecap="square" stroke-linejoin="round" fill="none" stroke="#55a868" d="M61.752218 68.99661 77.53968 69.033618 93.327159 69.15392 109.114627 69.33035 124.90209 69.58287 140.68956 69.924709 156.47704 70.40088 172.2645 70.879009 188.05197 71.50023 203.83943 72.052 219.6269 72.715808 235.41437 73.48199 251.20185 74.48953 266.98933 75.32132 282.7768 76.11014 298.56425 77.40017 314.3517 78.23904 330.1392 79.29884 345.92668 80.93054 361.71415 81.5861 377.5016 82.56324 393.28907 85.5886 409.07655 85.9487 424.864 88.13455 440.6515 91.03402"/>
</g>
<g clip-path="url(#clip_11)">
<path transform="matrix(1,0,0,-1,0,345.6)" stroke-width="1.5" stroke-linecap="square" stroke-linejoin="round" fill="none" stroke="#c44e52" d="M61.752218 68.997348 77.53968 69.022937 93.327159 69.12025 109.114627 69.264949 124.90209 69.522739 140.68956 69.72484 156.47704 70.02962 172.2645 70.326778 188.05197 70.86885 203.83943 70.99862 219.6269 71.7122 235.41437 73.28475 251.20185 72.939159 266.98933 74.082149 282.7768 73.660198 298.56425 74.647739 314.3517 74.73864 330.1392 76.36412 345.92668 77.808338 361.71415 77.32858 377.5016 79.41151 393.28907 78.75584 409.07655 80.25884 424.864 84.09801 440.6515 80.63278"/>
</g>
<g clip-path="url(#clip_12)">
<path transform="matrix(1,0,0,-1,0,345.6)" stroke-width="1.5" stroke-linecap="square" stroke-linejoin="round" fill="none" stroke="#da8bc3" d="M61.752218 167.87183 77.53968 169.16509 93.327159 155.18517 109.114627 178.89188 124.90209 195.27173 140.68956 163.90096 156.47704 187.64992 172.2645 164.97936 188.05197 178.3544 203.83943 166.77352 219.6269 196.46775 235.41437 185.7256 251.20185 193.482 266.98933 179.13152 282.7768 193.74906 298.56425 203.95679 314.3517 187.50072 330.1392 191.82509 345.92668 205.81374 361.71415 205.35559 377.5016 194.83818 393.28907 208.97989 409.07655 210.12162 424.864 187.31766 440.6515 203.44309"/>
</g>
<g clip-path="url(#clip_13)">
<path transform="matrix(1,0,0,-1,0,345.6)" stroke-width="1.5" stroke-linecap="square" stroke-linejoin="round" fill="none" stroke="#64b5cd" d="M61.752218 322.14268H440.6515"/>
</g>
<path transform="matrix(1,0,0,-1,0,345.6)" stroke-width="2" stroke-linecap="square" stroke-miterlimit="10" stroke-linejoin="miter" fill="none" stroke="#000000" d="M61.752218 56.33863V334.8"/>
<path transform="matrix(1,0,0,-1,0,345.6)" stroke-width="2" stroke-linecap="square" stroke-miterlimit="10" stroke-linejoin="miter" fill="none" stroke="#000000" d="M440.6515 56.33863V334.8"/>
<path transform="matrix(1,0,0,-1,0,345.6)" stroke-width="2" stroke-linecap="square" stroke-miterlimit="10" stroke-linejoin="miter" fill="none" stroke="#000000" d="M61.752218 56.33863H440.6515"/>
<path transform="matrix(1,0,0,-1,0,345.6)" stroke-width="2" stroke-linecap="square" stroke-miterlimit="10" stroke-linejoin="miter" fill="none" stroke="#000000" d="M61.752218 334.8H440.6515"/>
</svg>
