<svg xmlns="http://www.w3.org/2000/svg" xmlns:xlink="http://www.w3.org/1999/xlink" xmlns:inkscape="http://www.inkscape.org/namespaces/inkscape" version="1.1" width="331.580330161" height="183.057" viewBox="0 0 170.727 94.254">
<defs>
<path id="font_0_2" d="M.4850006 .41075135 .40098573 .6096344C.397995 .61763 .3959961 .6216278 .3959961 .6226196 .3959961 .62861636 .41299439 .6476135 .45498658 .6516113 .46499635 .65260317 .47499085 .6536102 .47499085 .6706085 .47499085 .6826172 .46299745 .6826172 .45999146 .6826172 .4189911 .6826172 .37599183 .6796112 .33399964 .6796112 .30899049 .6796112 .24699402 .6826172 .22200012 .6826172 .21598816 .6826172 .20399475 .6826172 .20399475 .6626129 .20399475 .6516113 .21398926 .6516113 .22698975 .6516113 .2869873 .6516113 .29299928 .6416168 .3019867 .6196289L.41999818 .34080506 .20899964 .11393738 .19599915 .10295105C.14698792 .049987794 .099990848 .033996583 .04899597 .0309906 .035995485 .02999878 .026992798 .02999878 .026992798 .010986328 .026992798 .009994507 .026992798 0 .039993287 0 .069992069 0 .102996829 .0029907227 .13398743 .0029907227 .17098999 .0029907227 .20999146 0 .24598694 0 .2519989 0 .2639923 0 .2639923 .019989014 .2639923 .02999878 .2539978 .0309906 .2519989 .0309906 .24299622 .03199768 .21199036 .033996583 .21199036 .061965944 .21199036 .07795715 .22698975 .093948367 .23899842 .10694885L.34098817 .21487427 .43099977 .31282044 .5319977 .07395935C.5359955 .06297302 .5369873 .061965944 .5369873 .05996704 .5369873 .051986696 .5179901 .034988405 .47898866 .0309906 .46798707 .02999878 .45899964 .0289917 .45899964 .011993408 .45899964 0 .46998597 0 .47399903 0 .5019989 0 .57199099 .0029907227 .59999087 .0029907227 .625 .0029907227 .6859894 0 .71099856 0 .71798709 0 .7299957 0 .7299957 .018997193 .7299957 .0309906 .7200012 .0309906 .71199038 .0309906 .644989 .03199768 .6429901 .034988405 .6259918 .07496643 .58699038 .16790772 .519989 .32380677 .49699403 .3837738 .5649872 .45373536 .66999819 .5726471 .70199587 .6006317 .73098757 .62461856 .7689972 .64860537 .82899478 .6516113 .84199526 .65260317 .8509979 .65260317 .8509979 .6716156 .8509979 .6726074 .8509979 .6826172 .83799746 .6826172 .80799868 .6826172 .7749939 .6796112 .74398806 .6796112 .70700076 .6796112 .6689911 .6826172 .6329956 .6826172 .6269989 .6826172 .6139984 .6826172 .6139984 .6626129 .6139984 .65560916 .61898806 .65260317 .6259918 .6516113 .6349945 .65060427 .66600039 .64860537 .66600039 .6206207 .66600039 .6066284 .6549988 .5936432 .6469879 .5846405L.4850006 .41075135Z"/>
<path id="font_0_1" d="M.7599945 .69506838C.7599945 .69807437 .7579956 .7050781 .7489929 .7050781 .74598696 .7050781 .7449951 .70407107 .73399356 .69306948L.6639862 .61602786C.6549988 .6300354 .60899356 .7050781 .49798585 .7050781 .2749939 .7050781 .049987794 .48391725 .049987794 .25172425 .049987794 .08659363 .16799927-.022460938 .32099916-.022460938 .4079895-.022460938 .48399354 .017532349 .5369873 .063583377 .6299896 .14564514 .6469879 .2367096 .6469879 .23971558 .6469879 .24972534 .6369934 .24972534 .6349945 .24972534 .6289978 .24972534 .6239929 .24772644 .621994 .23971558 .61299136 .21069336 .58999636 .13963318 .5209961 .081588748 .45199586 .025543213 .3889923 .008529663 .33699037 .008529663 .24699402 .008529663 .14099121 .060577394 .14099121 .21670532 .14099121 .27374269 .1619873 .43588258 .2619934 .55296328 .32299806 .62402346 .4169922 .67407229 .5059967 .67407229 .60798647 .67407229 .6669922 .5970001 .6669922 .48091126 .6669922 .44088746 .6639862 .43988038 .6639862 .4298706 .6639862 .41986085 .6749878 .41986085 .67900088 .41986085 .69200137 .41986085 .69200137 .42185975 .69699099 .43988038L.7599945 .69506838Z"/>
<path id="font_0_4" d="M.7200012 .6586151C.72099307 .6626129 .72299197 .66760256 .72299197 .6736145 .72299197 .6826172 .71798709 .6826172 .69799807 .6826172H.27598573C.2519989 .6826172 .25099183 .6816101 .24499512 .6626129L.18998719 .4827118C.18798828 .47772218 .18699646 .47071839 .18699646 .46871949 .18699646 .46772767 .18699646 .45773316 .19898987 .45773316 .20799256 .45773316 .20999146 .46472169 .21199036 .46772767 .25 .5856476 .3019867 .6516113 .45799256 .6516113H.62098696L.06199646 .026992798C.06199646 .025985718 .057998659 .011993408 .057998659 .008987427 .057998659 0 .06498718 0 .08299255 0H.5179901C.5419922 0 .54299929 .0009918213 .548996 .019989014L.6199951 .24085999C.62098696 .24485779 .6239929 .25186158 .6239929 .25585938 .6239929 .260849 .6199951 .2668457 .61099246 .2668457 .60198977 .2668457 .6009979 .2628479 .59399417 .24186707 .5499878 .10594177 .5019989 .033996583 .33198548 .033996583H.16099549L.7200012 .6586151Z"/>
<path id="font_0_3" d="M.5970001 .5686493 .61099246 .5826416C.6409912 .6126251 .673996 .64660647 .74198916 .6516113 .7529907 .65260317 .7619934 .65260317 .7619934 .6706085 .7619934 .6786041 .7569885 .6826172 .7489929 .6826172 .72299197 .6826172 .69400027 .6796112 .6669922 .6796112 .6339874 .6796112 .598999 .6826172 .5669861 .6826172 .5609894 .6826172 .5479889 .6826172 .5479889 .66360476 .5479889 .65260317 .55799868 .6516113 .5629883 .6516113 .56999209 .6516113 .598999 .6496124 .598999 .62861636 .598999 .6116333 .57598879 .5856476 .57199099 .5806427L.33999635 .31381227 .22999573 .6106262C.22399903 .62461856 .22399903 .62661746 .22399903 .6276245 .22399903 .6516113 .272995 .6516113 .2829895 .6516113 .29699708 .6516113 .30699159 .6516113 .30699159 .6716156 .30699159 .6826172 .29499818 .6826172 .2919922 .6826172 .2639923 .6826172 .19400025 .6796112 .1659851 .6796112 .14099121 .6796112 .07899475 .6826172 .053985597 .6826172 .04798889 .6826172 .034988405 .6826172 .034988405 .6626129 .034988405 .6516113 .04499817 .6516113 .057998659 .6516113 .117996219 .6516113 .12199402 .64260867 .1309967 .61763L.2539978 .28883363C.25498963 .28582765 .2579956 .2748413 .2579956 .27183534 .2579956 .2688446 .21798706 .107940677 .21299744 .08995056 .19999695 .034988405 .19898987 .03199768 .11898804 .0309906 .099990848 .0309906 .09199524 .0309906 .09199524 .010986328 .09199524 0 .10398865 0 .10598755 0 .13398743 0 .20399475 .0029907227 .23199463 .0029907227 .2599945 .0029907227 .33198548 0 .3600006 0 .36698915 0 .3789978 0 .3789978 .019989014 .3789978 .0309906 .36999513 .0309906 .35099793 .0309906 .34899903 .0309906 .32998658 .0309906 .31298829 .032989503 .2919922 .034988405 .28599549 .036987306 .28599549 .048980714 .28599549 .05596924 .29499818 .09095764 .2999878 .11193848L.33499146 .2528534C.33999635 .27183534 .34098817 .2748413 .34899903 .28382875L.5970001 .5686493Z"/>
<path id="font_0_5" d="M.36698915 .3996582H.45298768C.47299195 .3996582 .48298646 .3996582 .48298646 .41966249 .48298646 .43066407 .47299195 .43066407 .45599366 .43066407H.37298585L.3939972 .5449524C.397995 .5660095 .4119873 .6370239 .41799928 .6490326 .4269867 .66804507 .44400025 .68307498 .46499635 .68307498 .46899415 .68307498 .49499513 .68307498 .5139923 .66503909 .46998597 .661026 .45999146 .6260376 .45999146 .6110382 .45999146 .58802798 .47799684 .57603457 .49699403 .57603457 .522995 .57603457 .5519867 .5980377 .5519867 .6360321 .5519867 .6820679 .5059967 .7050781 .46499635 .7050781 .43099977 .7050781 .36799623 .68707278 .33799745 .58802798 .33198548 .56700137 .32899476 .5569763 .30499269 .43066407H.23599243C.21699524 .43066407 .20599365 .43066407 .20599365 .4116516 .20599365 .3996582 .21499634 .3996582 .23399353 .3996582H.2999878L.22499085 .0048828127C.20698548-.09207153 .18998719-.18309021 .13798523-.18309021 .13398743-.18309021 .10899353-.18309021 .08999634-.16506958 .13598633-.1620636 .14498902-.12606812 .14498902-.111068729 .14498902-.08807373 .1269989-.07606506 .10798645-.07606506 .08198547-.07606506 .052993776-.09806824 .052993776-.13606262 .052993776-.18109131 .09700012-.20507813 .13798523-.20507813 .19299317-.20507813 .23298645-.14607239 .25099183-.108062747 .2829895-.04508972 .30599977 .07583618 .30699159 .082839969L.36698915 .3996582Z"/>
<path id="font_1_3" d="M.32398988 .7499695C.30999757 .7449646 .2919922 .7259674 .27999879 .71395877 .15499878 .5919647 .100997928 .42297364 .100997928 .25097657 .100997928 .066986087 .16299439-.12200928 .31298829-.2420044 .31799317-.2460022 .32398988-.25 .32998658-.25 .33599855-.25 .34098817-.24501038 .34098817-.23901367 .34098817-.227005 .31399537-.20600891 .3039856-.19500733 .19599915-.072006229 .1639862 .09298706 .1639862 .25198365 .1639862 .41897584 .20199585 .5959625 .32499696 .7189636 .33099366 .7239685 .34098817 .7319641 .34098817 .7399597 .34098817 .7459717 .33599855 .75097659 .32899476 .75097659 .32699586 .75097659 .32598878 .75097659 .32398988 .7499695Z"/>
<path id="font_1_1" d="M.12199402 .38822938C.14898682 .41323854 .18998719 .42323304 .22599793 .42323304 .2619934 .42323304 .29299928 .40423585 .31298829 .37423707 .33198548 .34623719 .33299256 .31523133 .33299256 .28323365V.26522828C.25099183 .2562256 .16899109 .2562256 .099990848 .20422364 .066986087 .17922974 .040985109 .14022827 .040985109 .099227908 .040985109 .018234253 .13899231-.009765625 .20498657-.009765625 .2669983-.009765625 .31298829 .021224976 .34199525 .07322693 .34999085 .032226564 .37399293-.004776001 .41999818-.004776001 .47999574-.004776001 .5069885 .04623413 .5069885 .10122681V.14622498H.47898866V.096221927C.47898866 .068222049 .47299195 .030227662 .44198609 .030227662 .40899659 .030227662 .40699769 .07423401 .40699769 .096221927V.29122926C.40699769 .39624024 .31698609 .4482422 .22799683 .4482422 .1659851 .4482422 .07299805 .42222596 .07299805 .3432312 .07299805 .3162384 .08898926 .29522706 .125 .29522706 .1499939 .29623414 .1659851 .31922914 .1659851 .34223939 .1659851 .36923219 .14498902 .38323976 .12199402 .38822938M.33299256 .24124146V.14222718C.33299256 .07423401 .28399659 .0152282719 .21499634 .0152282719H.20698548C.1599884 .020233155 .12399292 .055221559 .12399292 .100234989 .12399292 .1952362 .23799134 .24124146 .33299256 .24124146Z"/>
<path id="font_1_4" d="M.06498718 .7499695C.05999756 .7479706 .057998659 .7439575 .057998659 .7399597 .057998659 .72895815 .08198547 .70996096 .09098816 .7009735 .20098877 .57896426 .23498535 .40696717 .23498535 .24697876 .23498535 .082977298 .19699097-.09501648 .07499695-.2170105 .068984989-.2230072 .057998659-.23001099 .057998659-.23800659 .057998659-.2440033 .06399536-.25 .070999149-.25H.07199097C.083999637-.2480011 .10398865-.227005 .117996219-.21400452 .24198914-.09701538 .2979889 .07698059 .2979889 .24497986 .2979889 .42797853 .23799134 .6259613 .085998538 .7429657 .08099365 .7459717 .07499695 .75097659 .068984989 .75097659 .067993167 .75097659 .066986087 .75097659 .06498718 .7499695Z"/>
<path id="font_2_1" d="M.42099 .56907656C.4189911 .56607058 .4169922 .56307986 .4139862 .56108096 .3889923 .6220398 .33099366 .69104006 .2619934 .69104006 .17599488 .69104006 .102996829 .6290436 .07899475 .6050415 .050994874 .57707217 .027999878 .5470886 .027999878 .5071106 .027999878 .45414735 .068984989 .4181671 .099990848 .37419129 .10598755 .36619569 .11299133 .35720826 .11299133 .34721376 .11299133 .31523133 .07998657 .2832489 .04899597 .26626588L.06399536 .25526429C.12298584 .2852478 .18699646 .32522584 .18699646 .38919068 .18699646 .45214845 .09599304 .48312379 .09599304 .56407168 .09599304 .59506228 .1269989 .6300354 .19499207 .6300354 .2899933 .6300354 .35299684 .519104 .35299684 .4081726V.36720277C.35299684 .31022645 .34799195 .25427247 .33599855 .19830323 .32798768 .16333008 .31900025 .12034607 .29299928 .09436035 .2749939 .07635498 .2579956 .06135559 .24099732 .048355104 .20999146 .07635498 .17599488 .10635376 .14399719 .10635376 .09799194 .10635376 .052993776 .0443573 .026992798 .00018310547L.037994386-.01586914C.054992677 .006225586 .07798767 .026367188 .10699463 .026367188 .1349945 .026367188 .16999817-.0038452149 .19198609-.026870728L.3619995 .12234497C.42099 .22029114 .43399049 .33421327 .43399049 .44714356 .43399049 .45414735 .43099977 .5011139 .42399598 .5290985 .44299317 .56607058 .47099305 .6010437 .5169983 .6010437 .6179962 .6010437 .6179962 .46414186 .6179962 .36720277 .6179962 .25827027 .6199951 .12234497 .56399539 .06636047 .5279999 .09036255 .5039978 .10435486 .4850006 .10435486 .45899964 .10435486 .41600038 .050354005 .3809967 .00018310547L.3939972-.013870239C.4119873 .007232666 .42399598 .021331788 .45298768 .021331788 .47200013 .021331788 .5039978-.004852295 .5219879-.021865845L.644989 .12834168C.6859894 .22528076 .70899966 .33021546 .70899966 .43615724 .70899966 .46713258 .70098879 .5151062 .69499209 .54608157 .72299197 .59106448 .7630005 .6280365 .81999209 .6280365 .85398867 .6280365 .86299136 .6060486 .8789978 .55908206 .894989 .5101013 .9039917 .49212647 .9219971 .49012757 .8909912 .46313478 .8639984 .43315126 .84199526 .39916993 .83299258 .35720826 .82598879 .31422425 .82598879 .2712555L.82699587 .099365238 .8839874-.026870728 1.0279999 .08236694V.101364139C1.0069885 .09036255 .9759979 .08035278 .9700012 .08035278 .94499209 .08035278 .9229889 .11634827 .91600039 .13833618 .9059906 .1703186 .9059906 .23028565 .9059906 .2772522 .9059906 .34220887 .9079895 .41516114 .9379883 .47413636 .9700012 .5061035 1.0079956 .5330963 1.048996 .55407717V.56907656C1.0349884 .56407168 1.019989 .56007388 1.0039978 .56007388 .93099978 .56007388 .96499636 .69203189 .8789978 .69203189 .8069916 .69203189 .72898867 .6280365 .6859894 .57707217 .6689911 .6240387 .6419983 .6600342 .58599856 .6600342 .5209961 .6600342 .45999146 .6190338 .42099 .56907656Z"/>
<path id="font_1_5" d="M.13398743 .10836792C.10899353 .10534668 .08799744 .08326721 .08799744 .055160524 .08799744 .029067994 .10798645 .0009765625 .13999939 .0009765625 .16499329 .0009765625 .19599915 .01902771 .19599915 .055160524 .19599915 .08226013 .1749878 .109375 .14199829 .109375 .13899231 .109375 .13699341 .109375 .13398743 .10836792Z"/>
<path id="font_1_2" d="M.02999878 .6843109V.6533203H.04499817C.07798767 .6533203 .10699463 .65031436 .10699463 .6033325V.0012207031L.1349945 .0032196046 .17199707 .0622406C.20799256 .01222229 .2559967-.009765625 .30999757-.009765625 .43499757-.009765625 .5359955 .09625244 .5359955 .21730042 .5359955 .32434083 .45098878 .4423828 .32099916 .4423828 .2659912 .4423828 .22099304 .42337037 .17799378 .3803711V.6953125L.02999878 .6843109M.44799806 .19429016C.44400025 .14727783 .43899537 .10525513 .4099884 .069244388 .3829956 .037231447 .34298707 .0152282719 .3019867 .0152282719 .25898744 .0152282719 .21798706 .040237428 .19499207 .07624817 .18699646 .087249759 .18099976 .09725952 .18099976 .11026001V.3333435C.18899536 .3773651 .2599945 .41638185 .31098939 .41638185 .42799378 .41638185 .44898988 .29032899 .44898988 .21530152 .44898988 .20829773 .44898988 .20129395 .44799806 .19429016Z"/>
<path id="font_3_3" d="M.19599915 .3766632C.19599915 .406662 .17199707 .43066407 .14199829 .43066407 .11199951 .43066407 .08799744 .406662 .08799744 .3766632 .08799744 .34765626 .11199951 .32266236 .14199829 .32266236 .17199707 .32266236 .19599915 .34765626 .19599915 .3766632M.17399597 .008987427C.17399597-.015045166 .17298889-.095199588 .10998535-.1673584 .101989749-.17636109 .101989749-.17736817 .101989749-.18136597 .101989749-.18637085 .10798645-.19335938 .114990238-.19335938 .12399292-.19335938 .19898987-.116256717 .19898987 .0039978029 .19898987 .0289917 .19898987 .10798645 .14099121 .10798645 .10998535 .10798645 .08799744 .083999637 .08799744 .053985597 .08799744 .026992798 .10699463 0 .14199829 0 .1619873 0 .16799927 .0039978029 .17399597 .008987427Z"/>
<path id="font_3_4" d="M.3889923 .120285037C.3889923 .10227966 .3889923 .09927368 .37399293 .07827759 .34298707 .0332489 .29699708 .014251709 .25698854 .014251709 .21398926 .014251709 .17399597 .038253786 .147995 .08027649 .12199402 .123291019 .11999512 .18229676 .11999512 .21430969 .11999512 .26132203 .12599182 .3143463 .1519928 .35435487 .17399597 .3863678 .21499634 .41737367 .2679901 .41737367 .30999757 .41737367 .34999085 .39637757 .3769989 .35835267 .3889923 .3423462 .3889923 .34135438 .3889923 .32234193V.120285037M.3919983 .38336183C.3869934 .38937379 .34199525 .4423828 .2639923 .4423828 .14099121 .4423828 .033996583 .34436036 .033996583 .21531677 .033996583 .090270999 .13398743-.0107421879 .25299073-.0107421879 .32598878-.0107421879 .37098695 .03225708 .3889923 .053268434V-.011001587L.5399933 0V.0309906C.47200013 .0309906 .46299745 .037994386 .46299745 .087020877V.69433596L.31498719 .68333438V.6523285C.3829956 .6523285 .3919983 .6453247 .3919983 .5962982V.38336183Z"/>
<path id="font_3_5" d="M.48399354 .21324158C.48399354 .34423829 .37998963 .4482422 .25698854 .4482422 .12998963 .4482422 .0289917 .3412323 .0289917 .21324158 .0289917 .08824158 .1329956-.0107421879 .2559967-.0107421879 .3829956-.0107421879 .48399354 .09024048 .48399354 .21324158M.25698854 .01725769C.20698548 .01725769 .16499329 .042251588 .14199829 .08125305 .115997318 .12324524 .114990238 .17623902 .114990238 .22224427 .114990238 .25924684 .114990238 .3162384 .13999939 .35723878 .16999817 .40823365 .21998596 .42323304 .2559967 .42323304 .31298829 .42323304 .35398866 .39123536 .37399293 .35723878 .39698792 .31523133 .397995 .26423646 .397995 .22224427 .397995 .1852417 .397995 .12724304 .37298585 .08325195 .34498597 .037246705 .29899598 .01725769 .25698854 .01725769Z"/>
<path id="font_3_1" d="M.34098817-.23803711C.34098817-.23303223 .33799745-.23002625 .33198548-.22303772 .20298767-.105026248 .1639862 .07498169 .1639862 .24996948 .1639862 .40498353 .19400025 .59298709 .33499146 .72698977 .33898927 .73098757 .34098817 .73399356 .34098817 .7389984 .34098817 .74598696 .33599855 .75 .32899476 .75 .31698609 .75 .22698975 .6779785 .17298889 .568985 .125 .47297669 .100997928 .36997987 .100997928 .25097657 .100997928 .17897034 .10998535 .064971927 .16499329-.053024293 .22399903-.17602539 .31698609-.24902344 .32899476-.24902344 .33599855-.24902344 .34098817-.24502564 .34098817-.23803711Z"/>
<path id="font_4_1" d="M.5079956 .38276673C.5329895 .40675355 .59098818 .47071839 .61499026 .49569703 .625 .5056915 .6499939 .53167727 .6599884 .54267886 .7220001 .6056366 .7619934 .6456146 .84599307 .6516113 .8580017 .65260317 .86898806 .6536102 .86898806 .6696167 .86898806 .6736145 .8659973 .6826172 .8549957 .6826172 .848999 .6826172 .8149872 .680603 .8089905 .680603 .7999878 .6796112 .7769928 .6796112 .7609863 .6796112 .7429962 .6796112 .723999 .680603 .70599368 .680603 .6879883 .680603 .66799929 .6826172 .651001 .6826172 .644989 .6826172 .6319885 .6826172 .6319885 .6646118 .6319885 .65260317 .6439972 .6516113 .6459961 .6516113 .6539917 .65060427 .6839905 .64860537 .6839905 .6226196 .6839905 .6056366 .6609955 .5816498 .6599884 .5806427L.49598695 .40975953 .40699769 .6096344C.4019928 .6196289 .4019928 .6216278 .4019928 .6226196 .4019928 .6276245 .41799928 .64860537 .46099855 .6516113 .46598817 .6516113 .47799684 .65260317 .47799684 .6696167 .47799684 .6786041 .47099305 .6826172 .46299745 .6826172 .44299317 .6826172 .41999818 .680603 .3999939 .680603 .37998963 .680603 .3600006 .6796112 .33898927 .6796112 .30599977 .6796112 .3039856 .6796112 .27999879 .680603L.22499085 .6826172C.22099304 .6826172 .20599365 .6826172 .20599365 .6646118 .20599365 .6516113 .21798706 .6516113 .22999573 .6516113 .2889862 .6516113 .2939911 .64060977 .30299378 .6206207L.42199708 .35379029C.42199708 .35279847 .42799378 .34179688 .42799378 .34080506 .42799378 .33779908 .29899598 .20388794 .28399659 .18888855 .272995 .17790222 .24699402 .14892578 .23599243 .1379242 .1749878 .07696533 .13598633 .036987306 .051986696 .0309906 .039993287 .02999878 .0289917 .0289917 .0289917 .0129852299 .0289917 .0069885256 .032989503 0 .042999269 0 .04899597 0 .08299255 .0019989014 .08898926 .0019989014 .09799194 .0029907227 .12098694 .0029907227 .13699341 .0029907227 .15499878 .0029907227 .17399597 .0019989014 .19198609 .0019989014 .20999146 .0019989014 .22898865 0 .24598694 0 .25099183 0 .2659912 0 .2659912 .017990113 .2659912 .02999878 .2539978 .0309906 .2519989 .0309906 .24398804 .03199768 .21398926 .033996583 .21398926 .05996704 .21398926 .07595825 .22599793 .08895874 .25698854 .12193298L.33399964 .20088196 .3880005 .2568512C.4059906 .27583314 .43199159 .30282594 .43998719 .31282044L.5479889 .07296753C.5529938 .06297302 .5529938 .06097412 .5529938 .05996704 .5529938 .054977418 .5369873 .033996583 .49398805 .0309906 .4889984 .0309906 .47698976 .02999878 .47698976 .0129852299 .47698976 .0039978029 .48399354 0 .49198915 0 .5119934 0 .5349884 .0019989014 .5549927 .0019989014 .57499697 .0019989014 .59498599 .0029907227 .6159973 .0029907227 .6489868 .0029907227 .651001 .0029907227 .6749878 .0019989014L.7299957 0C.73399356 0 .7489929 0 .7489929 .017990113 .7489929 .0309906 .7369995 .0309906 .72499087 .0309906 .66600039 .0309906 .6609955 .041992189 .6519928 .061965944L.5079956 .38276673Z"/>
<path id="font_3_2" d="M.2979889 .25097657C.2979889 .3329773 .28599549 .4429779 .23399353 .5539856 .1749878 .6769867 .08198547 .75 .069992069 .75 .05999756 .75 .057998659 .74198916 .057998659 .7389984 .057998659 .73399356 .05999756 .73098757 .066986087 .72398379 .125 .6719818 .23498535 .5359802 .23498535 .25097657 .23498535 .10797119 .20899964-.091033939 .06399536-.22602844 .06199646-.22903443 .057998659-.23303223 .057998659-.23803711 .057998659-.24102783 .05999756-.24902344 .069992069-.24902344 .08198547-.24902344 .17199707-.17703247 .22599793-.06802368 .27398683 .02796936 .2979889 .13098145 .2979889 .25097657Z"/>
</defs>
<path transform="matrix(1,0,0,-1,65.332,13.349998)" d="M9.96277 0C9.96277 5.50235 5.50235 9.96277 0 9.96277-5.50235 9.96277-9.96277 5.50235-9.96277 0-9.96277-5.50235-5.50235-9.96277 0-9.96277 5.50235-9.96277 9.96277-5.50235 9.96277 0ZM0 0" fill="#dfdfdf"/>
<path transform="matrix(1,0,0,-1,65.332,13.349998)" stroke-width=".79701" stroke-linecap="butt" stroke-miterlimit="10" stroke-linejoin="miter" fill="none" stroke="#000000" d="M9.96277 0C9.96277 5.50235 5.50235 9.96277 0 9.96277-5.50235 9.96277-9.96277 5.50235-9.96277 0-9.96277-5.50235-5.50235-9.96277 0-9.96277 5.50235-9.96277 9.96277-5.50235 9.96277 0ZM0 0"/>
<use data-text="X" xlink:href="#font_0_2" transform="matrix(9.9626,0,0,-9.9626,60.814,16.753998)"/>
<path transform="matrix(1,0,0,-1,65.332,13.349998)" d="M-39.10658 0C-39.10658 5.50235-43.56699 9.96277-49.06935 9.96277-54.5717 9.96277-59.03212 5.50235-59.03212 0-59.03212-5.50235-54.5717-9.96277-49.06935-9.96277-43.56699-9.96277-39.10658-5.50235-39.10658 0ZM-49.06935 0" fill="#ffffff"/>
<path transform="matrix(1,0,0,-1,65.332,13.349998)" stroke-width=".79701" stroke-linecap="butt" stroke-miterlimit="10" stroke-linejoin="miter" fill="none" stroke="#000000" d="M-39.10658 0C-39.10658 5.50235-43.56699 9.96277-49.06935 9.96277-54.5717 9.96277-59.03212 5.50235-59.03212 0-59.03212-5.50235-54.5717-9.96277-49.06935-9.96277-43.56699-9.96277-39.10658-5.50235-39.10658 0ZM-49.06935 0"/>
<use data-text="C" xlink:href="#font_0_1" transform="matrix(9.9626,0,0,-9.9626,12.346001,16.753998)"/>
<path transform="matrix(1,0,0,-1,65.332,13.349998)" d="M9.96277-49.06935C9.96277-43.56699 5.50235-39.10658 0-39.10658-5.50235-39.10658-9.96277-43.56699-9.96277-49.06935-9.96277-54.5717-5.50235-59.03212 0-59.03212 5.50235-59.03212 9.96277-54.5717 9.96277-49.06935ZM0-49.06935" fill="#dfdfdf"/>
<path transform="matrix(1,0,0,-1,65.332,13.349998)" stroke-width=".79701" stroke-linecap="butt" stroke-miterlimit="10" stroke-linejoin="miter" fill="none" stroke="#000000" d="M9.96277-49.06935C9.96277-43.56699 5.50235-39.10658 0-39.10658-5.50235-39.10658-9.96277-43.56699-9.96277-49.06935-9.96277-54.5717-5.50235-59.03212 0-59.03212 5.50235-59.03212 9.96277-54.5717 9.96277-49.06935ZM0-49.06935"/>
<use data-text="Z" xlink:href="#font_0_4" transform="matrix(9.9626,0,0,-9.9626,61.575,65.823)"/>
<path transform="matrix(1,0,0,-1,65.332,13.349998)" d="M-39.10658-49.06935C-39.10658-43.56699-43.56699-39.10658-49.06935-39.10658-54.5717-39.10658-59.03212-43.56699-59.03212-49.06935-59.03212-54.5717-54.5717-59.03212-49.06935-59.03212-43.56699-59.03212-39.10658-54.5717-39.10658-49.06935ZM-49.06935-49.06935" fill="#dfdfdf"/>
<path transform="matrix(1,0,0,-1,65.332,13.349998)" stroke-width=".79701" stroke-linecap="butt" stroke-miterlimit="10" stroke-linejoin="miter" fill="none" stroke="#000000" d="M-39.10658-49.06935C-39.10658-43.56699-43.56699-39.10658-49.06935-39.10658-54.5717-39.10658-59.03212-43.56699-59.03212-49.06935-59.03212-54.5717-54.5717-59.03212-49.06935-59.03212-43.56699-59.03212-39.10658-54.5717-39.10658-49.06935ZM-49.06935-49.06935"/>
<use data-text="Y" xlink:href="#font_0_3" transform="matrix(9.9626,0,0,-9.9626,12.264,65.823)"/>
<path transform="matrix(1,0,0,-1,65.332,13.349998)" stroke-width=".79701" stroke-linecap="butt" stroke-miterlimit="10" stroke-linejoin="miter" fill="none" stroke="#000000" d="M-38.70807 0H-11.73015"/>
<path transform="matrix(1,0,0,-1,53.601854,13.349998)" d="M-6.0708 2.72491 .34868 0-6.0708-2.72491Z"/>
<path transform="matrix(1,0,0,-1,53.601854,13.349998)" stroke-width=".79701" stroke-linecap="butt" stroke-miterlimit="10" stroke-linejoin="miter" fill="none" stroke="#000000" d="M-6.0708 2.72491 .34868 0-6.0708-2.72491Z"/>
<path transform="matrix(1,0,0,-1,65.332,13.349998)" stroke-width=".79701" stroke-linecap="butt" stroke-miterlimit="10" stroke-linejoin="miter" fill="none" stroke="#000000" d="M-49.06935-10.36127V-37.3392"/>
<path transform="matrix(0,1,1,0,16.26265,50.689199)" d="M-6.0708 2.72491 .34868 0-6.0708-2.72491Z"/>
<path transform="matrix(0,1,1,0,16.26265,50.689199)" stroke-width=".79701" stroke-linecap="butt" stroke-miterlimit="10" stroke-linejoin="miter" fill="none" stroke="#000000" d="M-6.0708 2.72491 .34868 0-6.0708-2.72491Z"/>
<path transform="matrix(1,0,0,-1,65.332,13.349998)" stroke-width=".79701" stroke-linecap="butt" stroke-miterlimit="10" stroke-linejoin="miter" fill="none" stroke="#000000" d="M-7.32652-7.32652-40.77487-40.77487"/>
<path transform="matrix(-.7071,.7071,.7071,.7071,24.557129,54.12487)" d="M-6.0708 2.72491 .34868 0-6.0708-2.72491Z"/>
<path transform="matrix(-.7071,.7071,.7071,.7071,24.557129,54.12487)" stroke-width=".79701" stroke-linecap="butt" stroke-miterlimit="10" stroke-linejoin="miter" fill="none" stroke="#000000" d="M-6.0708 2.72491 .34868 0-6.0708-2.72491Z"/>
<path transform="matrix(1,0,0,-1,65.332,13.349998)" stroke-width=".79701" stroke-linecap="butt" stroke-miterlimit="10" stroke-linejoin="miter" fill="none" stroke="#000000" d="M0-38.70807V-11.73015"/>
<path transform="matrix(0,-1,-1,-0,65.332,25.080149)" d="M-6.0708 2.72491 .34868 0-6.0708-2.72491Z"/>
<path transform="matrix(0,-1,-1,-0,65.332,25.080149)" stroke-width=".79701" stroke-linecap="butt" stroke-miterlimit="10" stroke-linejoin="miter" fill="none" stroke="#000000" d="M-6.0708 2.72491 .34868 0-6.0708-2.72491Z"/>
<path transform="matrix(1,0,0,-1,65.332,13.349998)" stroke-width=".79701" stroke-linecap="butt" stroke-miterlimit="10" stroke-linejoin="miter" fill="none" stroke="#ff0000" d="M-7.32652-7.32652-40.77487-40.77487"/>
<path transform="matrix(-.7071,.7071,.7071,.7071,24.557129,54.12487)" d="M-6.0708 2.72491 .34868 0-6.0708-2.72491Z" fill="#ff0000"/>
<path transform="matrix(-.7071,.7071,.7071,.7071,24.557129,54.12487)" stroke-width=".79701" stroke-linecap="butt" stroke-miterlimit="10" stroke-linejoin="miter" fill="none" stroke="#ff0000" d="M-6.0708 2.72491 .34868 0-6.0708-2.72491Z"/>
<use data-text="f" xlink:href="#font_0_5" transform="matrix(9.9626,0,0,-9.9626,41.264,45.079)" fill="#ff0000"/>
<use data-text="(" xlink:href="#font_1_3" transform="matrix(8.9664,0,0,-8.9664,27.745,89.023998)"/>
<use data-text="a" xlink:href="#font_1_1" transform="matrix(8.9664,0,0,-8.9664,31.33156,89.023998)"/>
<use data-text=")" xlink:href="#font_1_4" transform="matrix(8.9664,0,0,-8.9664,35.94029,89.023998)"/>
<use data-text="M" xlink:href="#font_2_1" transform="matrix(8.9664,0,0,-8.9664,42.593358,89.023998)"/>
<use data-text="." xlink:href="#font_1_5" transform="matrix(8.9664,0,0,-8.9664,52.017045,89.023998)"/>
<path transform="matrix(1,0,0,-1,105.396,13.349998)" d="M9.96277 0C9.96277 5.50235 5.50235 9.96277 0 9.96277-5.50235 9.96277-9.96277 5.50235-9.96277 0-9.96277-5.50235-5.50235-9.96277 0-9.96277 5.50235-9.96277 9.96277-5.50235 9.96277 0ZM0 0" fill="#ffffff"/>
<path transform="matrix(1,0,0,-1,105.396,13.349998)" stroke-width=".79701" stroke-linecap="butt" stroke-miterlimit="10" stroke-linejoin="miter" fill="none" stroke="#000000" d="M9.96277 0C9.96277 5.50235 5.50235 9.96277 0 9.96277-5.50235 9.96277-9.96277 5.50235-9.96277 0-9.96277-5.50235-5.50235-9.96277 0-9.96277 5.50235-9.96277 9.96277-5.50235 9.96277 0ZM0 0"/>
<use data-text="C" xlink:href="#font_0_1" transform="matrix(9.9626,0,0,-9.9626,101.479007,16.753998)"/>
<path transform="matrix(1,0,0,-1,105.396,13.349998)" d="M9.96277-49.06935C9.96277-43.56699 5.50235-39.10658 0-39.10658-5.50235-39.10658-9.96277-43.56699-9.96277-49.06935-9.96277-54.5717-5.50235-59.03212 0-59.03212 5.50235-59.03212 9.96277-54.5717 9.96277-49.06935ZM0-49.06935" fill="#dfdfdf"/>
<path transform="matrix(1,0,0,-1,105.396,13.349998)" stroke-width=".79701" stroke-linecap="butt" stroke-miterlimit="10" stroke-linejoin="miter" fill="none" stroke="#000000" d="M9.96277-49.06935C9.96277-43.56699 5.50235-39.10658 0-39.10658-5.50235-39.10658-9.96277-43.56699-9.96277-49.06935-9.96277-54.5717-5.50235-59.03212 0-59.03212 5.50235-59.03212 9.96277-54.5717 9.96277-49.06935ZM0-49.06935"/>
<use data-text="Y" xlink:href="#font_0_3" transform="matrix(9.9626,0,0,-9.9626,101.397,65.823)"/>
<path transform="matrix(1,0,0,-1,105.396,13.349998)" d="M39.10658-9.96277H59.03212V9.96277H39.10658Z" fill="#dfdfdf"/>
<path transform="matrix(1,0,0,-1,105.396,13.349998)" stroke-width=".79701" stroke-linecap="butt" stroke-miterlimit="10" stroke-linejoin="miter" fill="none" stroke="#000000" d="M39.10658-9.96277H59.03212V9.96277H39.10658Z"/>
<use data-text="X" xlink:href="#font_0_2" transform="matrix(9.9626,0,0,-9.9626,149.947,16.753998)"/>
<path transform="matrix(1,0,0,-1,105.396,13.349998)" d="M59.03212-49.06935C59.03212-43.56699 54.5717-39.10658 49.06935-39.10658 43.56699-39.10658 39.10658-43.56699 39.10658-49.06935 39.10658-54.5717 43.56699-59.03212 49.06935-59.03212 54.5717-59.03212 59.03212-54.5717 59.03212-49.06935ZM49.06935-49.06935" fill="#dfdfdf"/>
<path transform="matrix(1,0,0,-1,105.396,13.349998)" stroke-width=".79701" stroke-linecap="butt" stroke-miterlimit="10" stroke-linejoin="miter" fill="none" stroke="#000000" d="M59.03212-49.06935C59.03212-43.56699 54.5717-39.10658 49.06935-39.10658 43.56699-39.10658 39.10658-43.56699 39.10658-49.06935 39.10658-54.5717 43.56699-59.03212 49.06935-59.03212 54.5717-59.03212 59.03212-54.5717 59.03212-49.06935ZM49.06935-49.06935"/>
<use data-text="Z" xlink:href="#font_0_4" transform="matrix(9.9626,0,0,-9.9626,150.70801,65.823)"/>
<path transform="matrix(1,0,0,-1,105.396,13.349998)" stroke-width=".79701" stroke-linecap="butt" stroke-miterlimit="10" stroke-linejoin="miter" fill="none" stroke="#ff0000" d="M38.70918-10.36127 8.29446-40.77492"/>
<path transform="matrix(-.7071,.70708,.70708,.7071,113.69046,54.12492)" d="M-6.0708 2.72491 .34868 0-6.0708-2.72491Z" fill="#ff0000"/>
<path transform="matrix(-.7071,.70708,.70708,.7071,113.69046,54.12492)" stroke-width=".79701" stroke-linecap="butt" stroke-miterlimit="10" stroke-linejoin="miter" fill="none" stroke="#ff0000" d="M-6.0708 2.72491 .34868 0-6.0708-2.72491Z"/>
<use data-text="f" xlink:href="#font_0_5" transform="matrix(9.9626,0,0,-9.9626,130.302,45.173997)" fill="#ff0000"/>
<path transform="matrix(1,0,0,-1,105.396,13.349998)" stroke-width=".79701" stroke-linecap="butt" stroke-miterlimit="10" stroke-linejoin="miter" fill="none" stroke="#000000" d="M0-10.36127V-37.3392"/>
<path transform="matrix(0,1,1,0,105.396,50.689199)" d="M-6.0708 2.72491 .34868 0-6.0708-2.72491Z"/>
<path transform="matrix(0,1,1,0,105.396,50.689199)" stroke-width=".79701" stroke-linecap="butt" stroke-miterlimit="10" stroke-linejoin="miter" fill="none" stroke="#000000" d="M-6.0708 2.72491 .34868 0-6.0708-2.72491Z"/>
<use data-text="(" xlink:href="#font_1_3" transform="matrix(8.9664,0,0,-8.9664,101.97,89.023998)"/>
<use data-text="b" xlink:href="#font_1_2" transform="matrix(8.9664,0,0,-8.9664,105.556568,89.023998)"/>
<use data-text=")" xlink:href="#font_1_4" transform="matrix(8.9664,0,0,-8.9664,110.67638,89.023998)"/>
<use data-text="M" xlink:href="#font_2_1" transform="matrix(8.9664,0,0,-8.9664,117.33842,89.023998)"/>
<use data-text=";" xlink:href="#font_3_3" transform="matrix(8.9664,0,0,-8.9664,126.753139,89.023998)"/>
<use data-text="d" xlink:href="#font_3_4" transform="matrix(8.9664,0,0,-8.9664,130.85077,89.023998)"/>
<use data-text="o" xlink:href="#font_3_5" transform="matrix(8.9664,0,0,-8.9664,135.97058,89.023998)"/>
<use data-text="(" xlink:href="#font_3_1" transform="matrix(8.9664,0,0,-8.9664,140.57932,89.023998)"/>
<use data-text="X" xlink:href="#font_4_1" transform="matrix(8.9664,0,0,-8.9664,144.16588,89.023998)"/>
<use data-text=")" xlink:href="#font_3_2" transform="matrix(8.9664,0,0,-8.9664,152.47774,89.023998)"/>
<use data-text="." xlink:href="#font_1_5" transform="matrix(8.9664,0,0,-8.9664,156.0643,89.023998)"/>
</svg>
